#N canvas 451 447 826 840 16;
#X obj 158 373 random 100000;
#X obj 331 773 array set, f 17;
#X obj 158 573 - 0.5;
#X obj 219 434 * 100000;
#X obj 158 469 / 100000;
#X obj 195 526 expr 0.5 / $f1;
#X obj 33 26 inlet bang;
#X obj 574 301 t f f;
#X obj 574 268 expr if($f1 > 0 \, $f1 \, 1);
#X obj 465 26 inlet s_param;
#X obj 595 26 inlet scale;
#X obj 574 235 f;
#X obj 324 26 inlet size;
#X obj 33 61 t b b b, f 68;
#X obj 303 94 f;
#X obj 303 122 cml.range;
#X obj 303 150 t b f;
#X obj 33 799 outlet done;
#X connect 0 0 4 0;
#X connect 2 0 1 0;
#X connect 3 0 4 1;
#X connect 4 0 2 0;
#X connect 5 0 2 1;
#X connect 6 0 13 0;
#X connect 7 0 3 0;
#X connect 7 1 5 0;
#X connect 8 0 7 0;
#X connect 9 0 1 2;
#X connect 10 0 11 1;
#X connect 11 0 8 0;
#X connect 12 0 14 1;
#X connect 13 0 17 0;
#X connect 13 1 14 0;
#X connect 13 2 11 0;
#X connect 14 0 15 0;
#X connect 15 0 16 0;
#X connect 16 0 0 0;
#X connect 16 1 1 1;
