#N canvas 1604 195 1761 1207 16;
#X obj 52 33 inlet;
#X obj 222 94 s \$0_l;
#X obj 393 94 list split 1;
#X obj 430 155 s \$0_n;
#X obj 439 122 s \$0_n_prev;
#X obj 563 94 s \$0_alpha;
#X obj 1002 33 inlet dollar_zero;
#X obj 1002 61 s \$0_ns;
#X obj 666 385 r \$0_ns;
#X obj 900 385 r \$0_ns;
#X obj 353 385 r \$0_n_prev;
#X obj 336 352 r \$0_n;
#X obj 315 418 *;
#X obj 315 385 f;
#X obj 89 451 cml.update_params, f 170;
#X obj 1014 385 r \$0_alpha;
#X obj 541 418 cml.array_name W;
#X obj 767 418 cml.array_name dW;
#X obj 52 837 outlet done;
#X obj 562 352 r \$0_l;
#X obj 541 385 f;
#X obj 788 352 r \$0_l;
#X obj 767 385 f;
#X obj 993 418 f;
#X obj 52 89 t b b;
#X obj 52 61 route bang layer_number layer_dims alpha momentum, f 107;
#X obj 734 94 s \$0_momentum;
#X obj 1219 418 f;
#X obj 1240 385 r \$0_momentum;
#X obj 52 484 t b b;
#X obj 89 194 t b b b b b b b, f 170;
#X obj 1587 385 r \$0_ns;
#X obj 1467 352 r \$0_l;
#X obj 1446 385 f;
#X obj 1446 418 cml.array_name VdW;
#X obj 1528 230 r \$0_momentum;
#X obj 1507 263 f 0;
#X obj 1507 291 == 1;
#X obj 1446 319 spigot 0;
#X obj 1446 227 t b b;
#X obj 666 708 r \$0_ns;
#X obj 900 708 r \$0_ns;
#X obj 336 708 r \$0_n;
#X obj 315 741 f;
#X obj 89 774 cml.update_params, f 170;
#X obj 1014 708 r \$0_alpha;
#X obj 562 675 r \$0_l;
#X obj 541 708 f;
#X obj 788 675 r \$0_l;
#X obj 767 708 f;
#X obj 993 741 f;
#X obj 1219 741 f;
#X obj 1240 708 r \$0_momentum;
#X obj 89 517 t b b b b b b b, f 170;
#X obj 1587 708 r \$0_ns;
#X obj 1467 675 r \$0_l;
#X obj 1446 708 f;
#X obj 1528 553 r \$0_momentum;
#X obj 1507 586 f 0;
#X obj 1507 614 == 1;
#X obj 1446 642 spigot 0;
#X obj 1446 550 t b b;
#X obj 541 741 cml.array_name b;
#X obj 767 741 cml.array_name db;
#X obj 1446 741 cml.array_name Vdb;
#X connect 0 0 25 0;
#X connect 2 0 3 0;
#X connect 2 1 4 0;
#X connect 6 0 7 0;
#X connect 8 0 16 1;
#X connect 9 0 17 1;
#X connect 10 0 12 1;
#X connect 11 0 13 1;
#X connect 12 0 14 1;
#X connect 13 0 12 0;
#X connect 15 0 23 1;
#X connect 16 0 14 2;
#X connect 17 0 14 3;
#X connect 19 0 20 1;
#X connect 20 0 16 0;
#X connect 21 0 22 1;
#X connect 22 0 17 0;
#X connect 23 0 14 4;
#X connect 24 0 29 0;
#X connect 24 1 30 0;
#X connect 25 0 24 0;
#X connect 25 1 1 0;
#X connect 25 2 2 0;
#X connect 25 3 5 0;
#X connect 25 4 26 0;
#X connect 27 0 14 5;
#X connect 28 0 27 1;
#X connect 29 0 18 0;
#X connect 29 1 53 0;
#X connect 30 0 14 0;
#X connect 30 1 13 0;
#X connect 30 2 20 0;
#X connect 30 3 22 0;
#X connect 30 4 23 0;
#X connect 30 5 27 0;
#X connect 30 6 39 0;
#X connect 31 0 34 1;
#X connect 32 0 33 1;
#X connect 33 0 34 0;
#X connect 34 0 14 6;
#X connect 35 0 36 1;
#X connect 36 0 37 0;
#X connect 37 0 38 1;
#X connect 38 0 33 0;
#X connect 39 0 38 0;
#X connect 39 1 36 0;
#X connect 40 0 62 1;
#X connect 41 0 63 1;
#X connect 42 0 43 1;
#X connect 43 0 44 1;
#X connect 45 0 50 1;
#X connect 46 0 47 1;
#X connect 47 0 62 0;
#X connect 48 0 49 1;
#X connect 49 0 63 0;
#X connect 50 0 44 4;
#X connect 51 0 44 5;
#X connect 52 0 51 1;
#X connect 53 0 44 0;
#X connect 53 1 43 0;
#X connect 53 2 47 0;
#X connect 53 3 49 0;
#X connect 53 4 50 0;
#X connect 53 5 51 0;
#X connect 53 6 61 0;
#X connect 54 0 64 1;
#X connect 55 0 56 1;
#X connect 56 0 64 0;
#X connect 57 0 58 1;
#X connect 58 0 59 0;
#X connect 59 0 60 1;
#X connect 60 0 56 0;
#X connect 61 0 60 0;
#X connect 61 1 58 0;
#X connect 62 0 44 2;
#X connect 63 0 44 3;
#X connect 64 0 44 6;
