#N canvas 1178 368 1100 732 16;
#X obj 22 49 inlet bang;
#X obj 541 49 inlet s_param;
#X obj 731 49 inlet s_dparam;
#X obj 888 49 inlet alpha;
#X obj 152 49 inlet num_values;
#X obj 131 132 f;
#X obj 22 82 t b b;
#X obj 541 82 t b s s, f 10;
#X obj 507 621 array set, f 14;
#X obj 507 381 array get;
#X msg 541 348 1;
#X obj 731 82 t b s;
#X obj 697 384 array get;
#X msg 731 351 1;
#X obj 507 515 expr $f1 - ($f2 * $f3), f 48;
#X obj 131 160 cml.range;
#X obj 131 188 t f f f, f 38;
#X obj 22 685 outlet done;
#X connect 0 0 6 0;
#X connect 1 0 7 0;
#X connect 2 0 11 0;
#X connect 3 0 14 2;
#X connect 4 0 5 1;
#X connect 5 0 15 0;
#X connect 6 0 17 0;
#X connect 6 1 5 0;
#X connect 7 0 10 0;
#X connect 7 1 9 2;
#X connect 7 2 8 2;
#X connect 9 0 14 0;
#X connect 10 0 9 1;
#X connect 11 0 13 0;
#X connect 11 1 12 2;
#X connect 12 0 14 1;
#X connect 13 0 12 1;
#X connect 14 0 8 0;
#X connect 15 0 16 0;
#X connect 16 0 9 0;
#X connect 16 1 8 1;
#X connect 16 2 12 0;
