#N canvas 1913 70 1386 1053 16;
#X obj 85 112 inlet bang;
#X obj 575 112 inlet lambda;
#X obj 445 112 inlet s_w;
#X obj 1125 112 inlet s_dw;
#X obj 1125 140 t b s s;
#X obj 1109 936 array set;
#X obj 445 140 t b s;
#X obj 399 522 array get, f 12;
#X msg 445 489 1;
#X obj 245 112 inlet size;
#X obj 224 255 f;
#X obj 224 283 cml.range;
#X obj 224 311 t f f f, f 32;
#X obj 668 640 array get, f 12;
#X msg 714 607 1;
#X obj 647 778 +;
#X obj 715 112 inlet m;
#X obj 554 255 f;
#X obj 554 331 /;
#X obj 85 140 t b b b;
#X obj 533 657 *;
#X text 34 16 // L2 regularization dW = dW + (lambda/m).W;
#X obj 85 998 outlet done;
#X connect 0 0 19 0;
#X connect 1 0 17 1;
#X connect 2 0 6 0;
#X connect 3 0 4 0;
#X connect 4 0 14 0;
#X connect 4 1 13 2;
#X connect 4 2 5 2;
#X connect 6 0 8 0;
#X connect 6 1 7 2;
#X connect 7 0 20 0;
#X connect 8 0 7 1;
#X connect 9 0 10 1;
#X connect 10 0 11 0;
#X connect 11 0 12 0;
#X connect 12 0 7 0;
#X connect 12 1 13 0;
#X connect 12 2 5 1;
#X connect 13 0 15 1;
#X connect 14 0 13 1;
#X connect 15 0 5 0;
#X connect 16 0 18 1;
#X connect 17 0 18 0;
#X connect 18 0 20 1;
#X connect 19 0 22 0;
#X connect 19 1 10 0;
#X connect 19 2 17 0;
#X connect 20 0 15 0;
