#N canvas 1724 99 1227 1000 16;
#X obj 52 33 inlet;
#X obj 223 94 s \$0_l;
#X obj 394 94 list split 1;
#X obj 394 155 s \$0_n;
#X obj 440 122 s \$0_n_prev;
#X obj 565 94 s \$0_alpha;
#X obj 704 783 cml.array_name db;
#X obj 499 783 cml.array_name b;
#X obj 802 33 inlet dollar_zero;
#X obj 802 66 s \$0_ns;
#X obj 613 421 r \$0_ns;
#X obj 826 421 r \$0_ns;
#X obj 624 750 r \$0_ns;
#X obj 837 750 r \$0_ns;
#X obj 321 421 r \$0_n_prev;
#X obj 304 388 r \$0_n;
#X obj 283 454 *;
#X obj 283 421 f;
#X obj 78 487 cml.update_params, f 103;
#X obj 920 388 r \$0_alpha;
#X obj 89 816 cml.update_params, f 103;
#X obj 315 717 r \$0_n;
#X obj 488 454 cml.array_name W;
#X obj 693 454 cml.array_name dW;
#X obj 52 859 outlet done;
#X obj 52 61 route bang layer_number layer_dims alpha, f 86;
#X obj 725 717 r \$0_l;
#X obj 704 750 f;
#X obj 509 388 r \$0_l;
#X obj 488 421 f;
#X obj 714 388 r \$0_l;
#X obj 693 421 f;
#X obj 899 421 f;
#X obj 931 717 r \$0_alpha;
#X obj 910 750 f;
#X obj 52 194 t b b b b b b, f 17;
#X obj 520 717 r \$0_l;
#X obj 499 750 f;
#X obj 294 750 f;
#X obj 52 530 t b b b b b b, f 24;
#X connect 0 0 25 0;
#X connect 2 0 3 0;
#X connect 2 1 4 0;
#X connect 6 0 20 3;
#X connect 7 0 20 2;
#X connect 8 0 9 0;
#X connect 10 0 22 1;
#X connect 11 0 23 1;
#X connect 12 0 7 1;
#X connect 13 0 6 1;
#X connect 14 0 16 1;
#X connect 15 0 17 1;
#X connect 16 0 18 1;
#X connect 17 0 16 0;
#X connect 19 0 32 1;
#X connect 21 0 38 1;
#X connect 22 0 18 2;
#X connect 23 0 18 3;
#X connect 25 0 35 0;
#X connect 25 1 1 0;
#X connect 25 2 2 0;
#X connect 25 3 5 0;
#X connect 26 0 27 1;
#X connect 27 0 6 0;
#X connect 28 0 29 1;
#X connect 29 0 22 0;
#X connect 30 0 31 1;
#X connect 31 0 23 0;
#X connect 32 0 18 4;
#X connect 33 0 34 1;
#X connect 34 0 20 4;
#X connect 35 0 39 0;
#X connect 35 1 18 0;
#X connect 35 2 17 0;
#X connect 35 3 29 0;
#X connect 35 4 31 0;
#X connect 35 5 32 0;
#X connect 36 0 37 1;
#X connect 37 0 7 0;
#X connect 38 0 20 1;
#X connect 39 0 24 0;
#X connect 39 1 20 0;
#X connect 39 2 38 0;
#X connect 39 3 37 0;
#X connect 39 4 27 0;
#X connect 39 5 34 0;
