#N canvas 945 579 654 567 16;
#X obj 179 60 inlet n_1;
#X obj 299 60 inlet n_2;
#X obj 179 158 *;
#X obj 179 186 t f b;
#X obj 216 228 f;
#X obj 179 294 +;
#X obj 179 327 t f f, f 13;
#X obj 158 440 outlet;
#X msg 258 152 0;
#X obj 69 60 inlet bang;
#X obj 158 400 f;
#X obj 69 93 t b b, f 24;
#X obj 258 185 t f f, f 6;
#X connect 0 0 2 0;
#X connect 1 0 2 1;
#X connect 2 0 3 0;
#X connect 3 0 5 0;
#X connect 3 1 4 0;
#X connect 4 0 5 1;
#X connect 5 0 6 0;
#X connect 6 0 10 1;
#X connect 6 1 4 1;
#X connect 8 0 12 0;
#X connect 9 0 11 0;
#X connect 10 0 7 0;
#X connect 11 0 10 0;
#X connect 11 1 8 0;
#X connect 12 0 4 1;
#X connect 12 1 5 1;
