#N canvas 2132 592 450 300 16;
#X obj 369 149 array size;
#X obj 158 373 random 100000;
#X obj 361 773 array set, f 17;
#X obj 158 573 - 0.5;
#X obj 219 434 * 100000;
#X obj 158 469 / 100000;
#X obj 195 526 expr 0.5 / $f1;
#X obj 33 26 inlet bang;
#X obj 33 61 t b b, f 68;
#X obj 574 301 t f f;
#X obj 348 178 f;
#X obj 369 116 t b s s, f 16;
#X obj 574 268 expr if($f1 > 0 \, $f1 \, 1);
#X obj 369 26 inlet s_param;
#X obj 595 26 inlet scale;
#X obj 574 235 f;
#X obj 348 206 nnb.range;
#X obj 348 239 t b f, f 10;
#X connect 0 0 10 1;
#X connect 1 0 5 0;
#X connect 3 0 2 0;
#X connect 4 0 5 1;
#X connect 5 0 3 0;
#X connect 6 0 3 1;
#X connect 7 0 8 0;
#X connect 8 0 10 0;
#X connect 8 1 15 0;
#X connect 9 0 4 0;
#X connect 9 1 6 0;
#X connect 10 0 16 0;
#X connect 11 0 0 0;
#X connect 11 1 0 1;
#X connect 11 2 2 2;
#X connect 12 0 9 0;
#X connect 13 0 11 0;
#X connect 14 0 15 1;
#X connect 15 0 12 0;
#X connect 16 0 17 0;
#X connect 17 0 1 0;
#X connect 17 1 2 1;
