#N canvas 1484 188 1430 729 16;
#X obj 22 49 inlet bang;
#X obj 359 49 inlet s_param;
#X obj 542 46 inlet s_dparam;
#X obj 873 46 inlet alpha;
#X obj 152 49 inlet num_values;
#X obj 131 132 f;
#X obj 22 82 t b b;
#X obj 359 82 t b s s, f 10;
#X obj 325 651 array set, f 19;
#X obj 325 381 array get;
#X msg 359 348 1;
#X obj 542 79 t b s;
#X obj 508 381 array get;
#X msg 542 348 1;
#X obj 131 160 cml.range;
#X obj 725 79 t b s;
#X obj 691 381 array get;
#X msg 725 348 1;
#X obj 131 188 t f f f f, f 26;
#X obj 725 46 inlet s_Sdparam;
#X obj 22 685 outlet done;
#X obj 325 448 expr $f1 - ($f4 * ($f2 / (sqrt($f3 + 1e-08)))), f 69;
#X text 27 11 // e.g W = W - alpha * (dW/(sqrt(SdW + epsilon)));
#X connect 0 0 6 0;
#X connect 1 0 7 0;
#X connect 2 0 11 0;
#X connect 3 0 21 3;
#X connect 4 0 5 1;
#X connect 5 0 14 0;
#X connect 6 0 20 0;
#X connect 6 1 5 0;
#X connect 7 0 10 0;
#X connect 7 1 9 2;
#X connect 7 2 8 2;
#X connect 9 0 21 0;
#X connect 10 0 9 1;
#X connect 11 0 13 0;
#X connect 11 1 12 2;
#X connect 12 0 21 1;
#X connect 13 0 12 1;
#X connect 14 0 18 0;
#X connect 15 0 17 0;
#X connect 15 1 16 2;
#X connect 16 0 21 2;
#X connect 17 0 16 1;
#X connect 18 0 9 0;
#X connect 18 1 8 1;
#X connect 18 2 12 0;
#X connect 18 3 16 0;
#X connect 19 0 15 0;
#X connect 21 0 8 0;
