#N canvas 1724 70 1712 1332 16;
#X obj 31 46 inlet;
#X obj 1221 46 inlet dollar_zero;
#X obj 196 112 s \$0_l;
#X obj 361 111 list split 1;
#X obj 361 177 s \$0_n;
#X obj 407 144 s \$0_n_prev;
#X obj 692 111 symbol;
#X obj 692 144 select relu tanh sigmoid linear;
#X msg 692 177 1;
#X msg 753 177 2;
#X msg 814 177 3;
#X msg 875 177 4;
#X msg 937 177 0;
#X obj 814 250 s \$0_activation;
#X obj 857 111 s \$0_leak;
#X obj 1221 74 s \$0_ns;
#X obj 1022 111 s \$0_initial_layer;
#X obj 31 79 route bang layer_number layer_dims m activation leak initial_layer, f 145;
#X obj 526 111 s \$0_m;
#X obj 1433 487 cml.array_name Z;
#X obj 1558 454 r \$0_ns;
#X obj 1454 421 r \$0_l;
#X obj 479 454 r \$0_m;
#X obj 674 454 r \$0_n_prev;
#X obj 848 486 cml.array_name W;
#X obj 973 453 r \$0_ns;
#X obj 869 420 r \$0_l;
#X obj 1363 453 r \$0_ns;
#X obj 1259 420 r \$0_l;
#X obj 1238 486 cml.array_name b;
#X obj 1064 413 r \$0_initial_layer;
#N canvas 1507 694 526 394 a_prev_for_layer 0;
#X obj 55 251 cml.array_name A;
#X obj 255 251 cml.input_name;
#X obj 76 160 r \$0_l;
#X obj 76 188 + 1;
#X obj 180 218 r \$0_ns;
#X obj 364 218 r \$0_ns;
#X obj 81 67 t f f, f 18;
#X obj 81 95 != 1;
#X obj 222 95 == 1;
#X obj 81 123 sel 1;
#X obj 222 123 sel 1;
#X obj 55 216 f;
#X obj 81 34 inlet;
#X obj 55 304 outlet;
#X connect 0 0 13 0;
#X connect 1 0 13 0;
#X connect 2 0 3 0;
#X connect 3 0 11 1;
#X connect 4 0 0 1;
#X connect 5 0 1 1;
#X connect 6 0 7 0;
#X connect 6 1 8 0;
#X connect 7 0 9 0;
#X connect 8 0 10 0;
#X connect 9 0 11 0;
#X connect 10 0 1 0;
#X connect 11 0 0 0;
#X connect 12 0 6 0;
#X restore 1043 486 pd a_prev_for_layer;
#X obj 68 800 cml.a_for_z, f 146;
#X obj 477 734 r \$0_m;
#X obj 1059 735 r \$0_activation;
#X obj 1254 737 r \$0_leak;
#X obj 650 767 cml.array_name Z;
#X obj 775 734 r \$0_ns;
#X obj 671 701 r \$0_l;
#X obj 969 734 r \$0_ns;
#X obj 865 701 r \$0_l;
#X obj 844 767 cml.array_name A;
#X obj 31 843 outlet done;
#X obj 283 734 r \$0_n;
#X obj 284 453 r \$0_n;
#X obj 68 519 cml.calculate_logits, f 171;
#X obj 263 486 f;
#X obj 458 486 f;
#X obj 653 486 f;
#X obj 848 453 f;
#X obj 1238 453 f;
#X obj 1433 454 f;
#X obj 262 767 f;
#X obj 456 767 f;
#X obj 650 734 f;
#X obj 844 734 f;
#X obj 1038 768 f;
#X obj 1233 768 f;
#X obj 1043 446 f 0;
#X obj 31 563 t b b b b b b b b, f 33;
#X obj 31 302 t b b b b b b b b b, f 38;
#X connect 0 0 17 0;
#X connect 1 0 15 0;
#X connect 3 0 4 0;
#X connect 3 1 5 0;
#X connect 6 0 7 0;
#X connect 7 0 8 0;
#X connect 7 1 9 0;
#X connect 7 2 10 0;
#X connect 7 3 11 0;
#X connect 7 4 12 0;
#X connect 8 0 13 0;
#X connect 9 0 13 0;
#X connect 10 0 13 0;
#X connect 11 0 13 0;
#X connect 12 0 13 0;
#X connect 17 0 60 0;
#X connect 17 1 2 0;
#X connect 17 2 3 0;
#X connect 17 3 18 0;
#X connect 17 4 6 0;
#X connect 17 5 14 0;
#X connect 17 6 16 0;
#X connect 19 0 45 7;
#X connect 20 0 19 1;
#X connect 21 0 51 1;
#X connect 22 0 47 1;
#X connect 23 0 48 1;
#X connect 24 0 45 4;
#X connect 25 0 24 1;
#X connect 26 0 49 1;
#X connect 27 0 29 1;
#X connect 28 0 50 1;
#X connect 29 0 45 6;
#X connect 30 0 58 1;
#X connect 31 0 45 5;
#X connect 33 0 53 1;
#X connect 34 0 56 1;
#X connect 35 0 57 1;
#X connect 36 0 32 3;
#X connect 37 0 36 1;
#X connect 38 0 54 1;
#X connect 39 0 41 1;
#X connect 40 0 55 1;
#X connect 41 0 32 4;
#X connect 43 0 52 1;
#X connect 44 0 46 1;
#X connect 46 0 45 1;
#X connect 47 0 45 2;
#X connect 48 0 45 3;
#X connect 49 0 24 0;
#X connect 50 0 29 0;
#X connect 51 0 19 0;
#X connect 52 0 32 1;
#X connect 53 0 32 2;
#X connect 54 0 36 0;
#X connect 55 0 41 0;
#X connect 56 0 32 5;
#X connect 57 0 32 6;
#X connect 58 0 31 0;
#X connect 59 0 42 0;
#X connect 59 1 32 0;
#X connect 59 2 52 0;
#X connect 59 3 53 0;
#X connect 59 4 54 0;
#X connect 59 5 55 0;
#X connect 59 6 56 0;
#X connect 59 7 57 0;
#X connect 60 0 59 0;
#X connect 60 1 45 0;
#X connect 60 2 46 0;
#X connect 60 3 47 0;
#X connect 60 4 48 0;
#X connect 60 5 49 0;
#X connect 60 6 58 0;
#X connect 60 7 50 0;
#X connect 60 8 51 0;
