#N canvas 1599 310 1823 1071 16;
#X obj 22 79 inlet bang;
#X obj 359 79 inlet s_param;
#X obj 1421 76 inlet alpha;
#X obj 152 79 inlet num_values;
#X obj 131 145 f;
#X obj 359 145 t b s s, f 10;
#X obj 325 905 array set, f 19;
#X obj 325 603 array get;
#X msg 359 570 1;
#X obj 624 142 t b s;
#X obj 590 603 array get;
#X msg 624 570 1;
#X obj 131 173 cml.range;
#X obj 890 142 t b s;
#X obj 856 603 array get;
#X msg 890 570 1;
#X obj 131 201 t f f f f, f 26;
#X obj 890 76 inlet s_Sdparam;
#X obj 23 964 outlet done;
#X obj 325 702 expr $f1 - ($f4 * ($f2 / (sqrt($f3 + 1e-08)))), f 100;
#X obj 624 76 inlet s_Vdparam;
#X obj 1038 76 inlet mu;
#X obj 1138 76 inlet rho;
#X obj 1237 76 inlet t;
#X obj 1017 349 f;
#X obj 1117 349 f;
#X obj 1216 349 f;
#X obj 1216 377 t f f;
#X text 27 11 // e.g W = W - alpha * (dVW_corrected/(sqrt(SdW_corrected + epsilon))) \;;
#X obj 22 112 t b b b b b, f 55;
#X text 1280 632 // Stop bias correction after (for now) 100 iterations \;;
#X obj 590 665 expr if($f3 < 100 \, $f1 / (1 - pow($f2 \, $f3)) \, $f1);
#X obj 856 632 expr if($f3 < 100 \, $f1 / (1 - pow($f2 \, $f3)) \, $f1);
#X connect 0 0 29 0;
#X connect 1 0 5 0;
#X connect 2 0 19 3;
#X connect 3 0 4 1;
#X connect 4 0 12 0;
#X connect 5 0 8 0;
#X connect 5 1 7 2;
#X connect 5 2 6 2;
#X connect 7 0 19 0;
#X connect 8 0 7 1;
#X connect 9 0 11 0;
#X connect 9 1 10 2;
#X connect 10 0 31 0;
#X connect 11 0 10 1;
#X connect 12 0 16 0;
#X connect 13 0 15 0;
#X connect 13 1 14 2;
#X connect 14 0 32 0;
#X connect 15 0 14 1;
#X connect 16 0 7 0;
#X connect 16 1 6 1;
#X connect 16 2 10 0;
#X connect 16 3 14 0;
#X connect 17 0 13 0;
#X connect 19 0 6 0;
#X connect 20 0 9 0;
#X connect 21 0 24 1;
#X connect 22 0 25 1;
#X connect 23 0 26 1;
#X connect 24 0 31 1;
#X connect 25 0 32 1;
#X connect 26 0 27 0;
#X connect 27 0 31 2;
#X connect 27 1 32 2;
#X connect 29 0 18 0;
#X connect 29 1 4 0;
#X connect 29 2 24 0;
#X connect 29 3 25 0;
#X connect 29 4 26 0;
#X connect 31 0 19 1;
#X connect 32 0 19 2;
