#N canvas 1860 311 900 616 16;
#X obj 20 103 inlet l_values;
#X obj 235 103 inlet row_number;
#X obj 633 103 inlet s_array;
#X obj 774 103 inlet d0;
#X obj 633 366 cml.d0;
#X obj 633 136 symbol;
#X obj 276 542 array set;
#X obj 430 103 inlet num_columns;
#X obj 20 136 t l b b, f 49;
#X obj 409 169 f;
#X obj 214 169 f;
#X obj 310 317 *;
#X text 16 12 // Sets a list of values for a conceptual "row" at row_number \;;
#X text 50 437 // NOTE: this implementation has no error checking;
#X connect 0 0 8 0;
#X connect 1 0 10 1;
#X connect 2 0 5 0;
#X connect 3 0 4 1;
#X connect 4 0 6 2;
#X connect 5 0 4 0;
#X connect 7 0 9 1;
#X connect 8 0 6 0;
#X connect 8 1 10 0;
#X connect 8 2 9 0;
#X connect 9 0 11 1;
#X connect 10 0 11 0;
#X connect 11 0 6 1;
