#N canvas 1250 339 1244 912 16;
#X obj 253 98 inlet row_number;
#X obj 449 98 inlet num_columns;
#X text 591 97 // e.g. m;
#X obj 943 99 inlet s_array;
#X obj 591 595 array get;
#X obj 1104 99 inlet d0;
#X obj 943 366 cml.d0;
#X obj 36 98 inlet index;
#X msg 625 562 1;
#X obj 309 341 *;
#X obj 591 833 outlet;
#X obj 288 374 +;
#X obj 232 204 f;
#X obj 428 194 f;
#X obj 943 132 symbol;
#X obj 625 164 s \$0_init;
#X obj 625 534 r \$0_init;
#X obj 36 131 t f b b b, f 74;
#X text 37 11 // Returns the value found at row_number/index of a conceptual 2D matrix \;;
#X text 95 561 // NOTE: this implementation has no error handling \;;
#X text 517 10 // I'd prefer to have the inlets follow the order row_number \, index... \, but for practical reasons it seems best to have the index at the left-most (trigger) position for this one.;
#X connect 0 0 12 1;
#X connect 1 0 13 1;
#X connect 3 0 14 0;
#X connect 4 0 10 0;
#X connect 5 0 6 1;
#X connect 6 0 4 2;
#X connect 7 0 17 0;
#X connect 8 0 4 1;
#X connect 9 0 11 1;
#X connect 11 0 4 0;
#X connect 12 0 9 0;
#X connect 13 0 9 1;
#X connect 14 0 6 0;
#X connect 16 0 8 0;
#X connect 17 0 11 0;
#X connect 17 1 12 0;
#X connect 17 2 13 0;
#X connect 17 3 15 0;
