#N canvas 0 66 3440 1340 16;
#X obj 52 33 inlet;
#X obj 194 94 s \$0_l;
#X obj 336 94 list split 1;
#X obj 336 155 s \$0_n;
#X obj 382 122 s \$0_n_prev;
#X obj 478 94 s \$0_alpha;
#X obj 1002 33 inlet dollar_zero;
#X obj 1002 61 s \$0_ns;
#X obj 692 440 r \$0_ns;
#X obj 926 440 r \$0_ns;
#X obj 379 440 r \$0_n_prev;
#X obj 362 407 r \$0_n;
#X obj 341 473 *;
#X obj 341 440 f;
#X obj 115 506 cml.update_params, f 170;
#X obj 1040 440 r \$0_alpha;
#X obj 567 473 cml.array_name W;
#X obj 793 473 cml.array_name dW;
#X obj 1749 1283 outlet done;
#X obj 588 407 r \$0_l;
#X obj 567 440 f;
#X obj 814 407 r \$0_l;
#X obj 793 440 f;
#X obj 1019 473 f;
#X obj 52 94 t b b;
#X obj 620 94 s \$0_momentum;
#X obj 1245 473 f;
#X obj 1266 440 r \$0_momentum;
#X obj 115 249 t b b b b b b b, f 170;
#X obj 1613 440 r \$0_ns;
#X obj 1493 407 r \$0_l;
#X obj 1472 440 f;
#X obj 1472 473 cml.array_name VdW;
#X obj 1554 285 r \$0_momentum;
#X obj 1533 318 f 0;
#X obj 1533 346 == 1;
#X obj 1472 374 spigot 0;
#X obj 1472 282 t b b;
#X obj 655 1160 r \$0_ns;
#X obj 889 1160 r \$0_ns;
#X obj 325 1160 r \$0_n;
#X obj 304 1193 f;
#X obj 78 1226 cml.update_params, f 170;
#X obj 1003 1160 r \$0_alpha;
#X obj 551 1127 r \$0_l;
#X obj 530 1160 f;
#X obj 777 1127 r \$0_l;
#X obj 756 1160 f;
#X obj 982 1193 f;
#X obj 1208 1193 f;
#X obj 1229 1160 r \$0_momentum;
#X obj 78 969 t b b b b b b b, f 170;
#X obj 1576 1160 r \$0_ns;
#X obj 1456 1127 r \$0_l;
#X obj 1435 1160 f;
#X obj 1517 1005 r \$0_momentum;
#X obj 1496 1038 f 0;
#X obj 1496 1066 == 1;
#X obj 1435 1094 spigot 0;
#X obj 1435 1002 t b b;
#X obj 530 1193 cml.array_name b;
#X obj 756 1193 cml.array_name db;
#X obj 1435 1193 cml.array_name Vdb;
#X obj 52 61 route bang layer_number layer_dims alpha momentum rmsprop, f 107;
#X obj 762 94 s \$0_rmsprop;
#X obj 176 160 f 0;
#X obj 115 216 spigot 0;
#X obj 197 127 r \$0_rmsprop;
#X obj 176 188 != 1;
#X obj 89 124 t b b b;
#X obj 150 572 f 0;
#X obj 89 628 spigot 0;
#X obj 171 539 r \$0_rmsprop;
#X obj 150 600 == 1;
#X obj 89 536 t b b;
#X obj 89 811 cml.update_params_with_rmsprop, f 173;
#X obj 766 745 r \$0_ns;
#X obj 1050 745 r \$0_ns;
#X obj 403 745 r \$0_n_prev;
#X obj 386 712 r \$0_n;
#X obj 365 778 *;
#X obj 365 745 f;
#X obj 1214 745 r \$0_alpha;
#X obj 641 778 cml.array_name W;
#X obj 917 778 cml.array_name dW;
#X obj 662 712 r \$0_l;
#X obj 641 745 f;
#X obj 938 712 r \$0_l;
#X obj 917 745 f;
#X obj 1193 778 f;
#X obj 1611 745 r \$0_ns;
#X obj 1491 712 r \$0_l;
#X obj 1470 745 f;
#X obj 89 656 t b b b b b b, f 173;
#X obj 139 880 f 0;
#X obj 78 936 spigot 0;
#X obj 160 844 r \$0_rmsprop;
#X obj 139 908 != 1;
#X obj 52 844 t b b b;
#X obj 1470 778 cml.array_name SdW;
#X obj 1836 422 f 0;
#X obj 1775 478 spigot 0;
#X obj 1857 389 r \$0_rmsprop;
#X obj 1836 450 == 1;
#X obj 1775 661 cml.update_params_with_rmsprop, f 173;
#X obj 2452 595 r \$0_ns;
#X obj 2736 595 r \$0_ns;
#X obj 2072 595 r \$0_n;
#X obj 2051 628 f;
#X obj 2900 595 r \$0_alpha;
#X obj 2348 562 r \$0_l;
#X obj 2327 595 f;
#X obj 2624 562 r \$0_l;
#X obj 2603 595 f;
#X obj 2879 628 f;
#X obj 3297 595 r \$0_ns;
#X obj 3177 562 r \$0_l;
#X obj 3156 595 f;
#X obj 1775 506 t b b b b b b, f 173;
#X obj 1749 389 t b b b;
#X obj 2327 628 cml.array_name b;
#X obj 2603 628 cml.array_name db;
#X obj 3156 628 cml.array_name Sdb;
#X text 1282 62 // this needs to be reorganized to account for more optimization methods \;;
#X connect 0 0 63 0;
#X connect 2 0 3 0;
#X connect 2 1 4 0;
#X connect 6 0 7 0;
#X connect 8 0 16 1;
#X connect 9 0 17 1;
#X connect 10 0 12 1;
#X connect 11 0 13 1;
#X connect 12 0 14 1;
#X connect 13 0 12 0;
#X connect 15 0 23 1;
#X connect 16 0 14 2;
#X connect 17 0 14 3;
#X connect 19 0 20 1;
#X connect 20 0 16 0;
#X connect 21 0 22 1;
#X connect 22 0 17 0;
#X connect 23 0 14 4;
#X connect 24 0 98 0;
#X connect 24 1 69 0;
#X connect 26 0 14 5;
#X connect 27 0 26 1;
#X connect 28 0 14 0;
#X connect 28 1 13 0;
#X connect 28 2 20 0;
#X connect 28 3 22 0;
#X connect 28 4 23 0;
#X connect 28 5 26 0;
#X connect 28 6 37 0;
#X connect 29 0 32 1;
#X connect 30 0 31 1;
#X connect 31 0 32 0;
#X connect 32 0 14 6;
#X connect 33 0 34 1;
#X connect 34 0 35 0;
#X connect 35 0 36 1;
#X connect 36 0 31 0;
#X connect 37 0 36 0;
#X connect 37 1 34 0;
#X connect 38 0 60 1;
#X connect 39 0 61 1;
#X connect 40 0 41 1;
#X connect 41 0 42 1;
#X connect 43 0 48 1;
#X connect 44 0 45 1;
#X connect 45 0 60 0;
#X connect 46 0 47 1;
#X connect 47 0 61 0;
#X connect 48 0 42 4;
#X connect 49 0 42 5;
#X connect 50 0 49 1;
#X connect 51 0 42 0;
#X connect 51 1 41 0;
#X connect 51 2 45 0;
#X connect 51 3 47 0;
#X connect 51 4 48 0;
#X connect 51 5 49 0;
#X connect 51 6 59 0;
#X connect 52 0 62 1;
#X connect 53 0 54 1;
#X connect 54 0 62 0;
#X connect 55 0 56 1;
#X connect 56 0 57 0;
#X connect 57 0 58 1;
#X connect 58 0 54 0;
#X connect 59 0 58 0;
#X connect 59 1 56 0;
#X connect 60 0 42 2;
#X connect 61 0 42 3;
#X connect 62 0 42 6;
#X connect 63 0 24 0;
#X connect 63 1 1 0;
#X connect 63 2 2 0;
#X connect 63 3 5 0;
#X connect 63 4 25 0;
#X connect 63 5 64 0;
#X connect 65 0 68 0;
#X connect 66 0 28 0;
#X connect 67 0 65 1;
#X connect 68 0 66 1;
#X connect 69 0 74 0;
#X connect 69 1 66 0;
#X connect 69 2 65 0;
#X connect 70 0 73 0;
#X connect 71 0 93 0;
#X connect 72 0 70 1;
#X connect 73 0 71 1;
#X connect 74 0 71 0;
#X connect 74 1 70 0;
#X connect 76 0 83 1;
#X connect 77 0 84 1;
#X connect 78 0 80 1;
#X connect 79 0 81 1;
#X connect 80 0 75 1;
#X connect 81 0 80 0;
#X connect 82 0 89 1;
#X connect 83 0 75 2;
#X connect 84 0 75 3;
#X connect 85 0 86 1;
#X connect 86 0 83 0;
#X connect 87 0 88 1;
#X connect 88 0 84 0;
#X connect 89 0 75 4;
#X connect 90 0 99 1;
#X connect 91 0 92 1;
#X connect 92 0 99 0;
#X connect 93 0 75 0;
#X connect 93 1 81 0;
#X connect 93 2 86 0;
#X connect 93 3 88 0;
#X connect 93 4 89 0;
#X connect 93 5 92 0;
#X connect 94 0 97 0;
#X connect 95 0 51 0;
#X connect 96 0 94 1;
#X connect 97 0 95 1;
#X connect 98 0 119 0;
#X connect 98 1 95 0;
#X connect 98 2 94 0;
#X connect 99 0 75 5;
#X connect 100 0 103 0;
#X connect 101 0 118 0;
#X connect 102 0 100 1;
#X connect 103 0 101 1;
#X connect 105 0 120 1;
#X connect 106 0 121 1;
#X connect 107 0 108 1;
#X connect 108 0 104 1;
#X connect 109 0 114 1;
#X connect 110 0 111 1;
#X connect 111 0 120 0;
#X connect 112 0 113 1;
#X connect 113 0 121 0;
#X connect 114 0 104 4;
#X connect 115 0 122 1;
#X connect 116 0 117 1;
#X connect 117 0 122 0;
#X connect 118 0 104 0;
#X connect 118 1 108 0;
#X connect 118 2 111 0;
#X connect 118 3 113 0;
#X connect 118 4 114 0;
#X connect 118 5 117 0;
#X connect 119 0 18 0;
#X connect 119 1 101 0;
#X connect 119 2 100 0;
#X connect 120 0 104 2;
#X connect 121 0 104 3;
#X connect 122 0 104 5;
