#N canvas 4 70 1676 1481 16;
#X obj 87 23 inlet bang;
#X obj 1378 23 inlet s_r;
#X obj 1128 698 t b s;
#X obj 1096 761 array get;
#X msg 1130 728 1;
#X obj 988 739 t b s;
#X obj 956 802 array get;
#X msg 990 769 1;
#X obj 185 56 t f f;
#X obj 645 56 t f f;
#X obj 415 56 t f f;
#X obj 1309 1296 array set;
#X obj 808 1099 cml.plus_equal;
#X obj 222 85 v \$0_m;
#X obj 164 112 f;
#X obj 164 140 cml.range;
#X obj 394 256 f;
#X obj 624 396 f;
#X obj 394 284 cml.range;
#X obj 242 206 v \$0_i;
#X obj 559 350 v \$0_j;
#X obj 624 424 cml.range, f 14;
#X obj 661 490 v \$0_k;
#X obj 685 589 *, f 8;
#X obj 452 85 v \$0_p;
#X obj 682 85 v \$0_n;
#X obj 685 556 v \$0_i;
#X obj 746 556 v \$0_n;
#X obj 624 623 +, f 8;
#X obj 624 590 v \$0_k;
#X obj 870 589 *, f 8;
#X obj 809 623 +, f 8;
#X obj 870 556 v \$0_k;
#X obj 931 556 v \$0_p;
#X obj 809 590 v \$0_j;
#X obj 917 1066 *, f 10;
#X obj 624 523 t b b b b b b, f 39;
#X text 697 622 // A_index;
#X text 878 619 // B_index;
#X obj 394 317 t b f, f 21;
#X obj 924 922 *, f 8;
#X obj 863 956 +, f 8;
#X obj 985 889 v \$0_p;
#X obj 863 923 v \$0_j;
#X obj 924 889 v \$0_i;
#X text 931 955 // C_index;
#X obj 808 850 t b b b b, f 21;
#X obj 87 56 t b b, f 10;
#X obj 87 1239 outlet done;
#X text 129 582 // multiplying flattened matrices A (m x n) B (n x p) \; for i in range(m) \; ....for j in range(p) \; ........sum = 0 \; ........for k in range(n) \; ............sum += A[i*n + k] * B[k*p + j] \; ........C[i*p + j] = sum \;;
#X obj 1268 24 inlet s_bias;
#X obj 988 23 inlet s_weights;
#X obj 1128 23 inlet s_a_prev;
#X obj 1268 898 t b s;
#X obj 1236 961 array get;
#X msg 1270 928 1;
#X obj 624 457 t b f f;
#X obj 185 23 inlet num_units;
#X obj 645 23 inlet n_prev;
#X obj 164 173 t b f f, f 20;
#X obj 858 1167 +;
#X obj 321 206 s \$0_b_i;
#X obj 1193 928 r \$0_b_i;
#X text 244 139 // for i in range(num_units);
#X obj 415 23 inlet num_examples;
#X text 477 281 // for j in range(num_examples);
#X text 661 393 // for k in range(n_prev);
#X text 130 481 // Z^[l] = W.A^[l-1] + b;
#X text 397 202 // index for the bias array;
#X connect 0 0 47 0;
#X connect 1 0 11 2;
#X connect 2 0 4 0;
#X connect 2 1 3 2;
#X connect 3 0 35 1;
#X connect 4 0 3 1;
#X connect 5 0 7 0;
#X connect 5 1 6 2;
#X connect 6 0 35 0;
#X connect 7 0 6 1;
#X connect 8 0 14 1;
#X connect 8 1 13 0;
#X connect 9 0 17 1;
#X connect 9 1 25 0;
#X connect 10 0 16 1;
#X connect 10 1 24 0;
#X connect 12 0 60 0;
#X connect 14 0 15 0;
#X connect 15 0 59 0;
#X connect 16 0 18 0;
#X connect 17 0 21 0;
#X connect 18 0 39 0;
#X connect 21 0 56 0;
#X connect 21 1 46 0;
#X connect 23 0 28 1;
#X connect 26 0 23 0;
#X connect 27 0 23 1;
#X connect 28 0 6 0;
#X connect 29 0 28 0;
#X connect 30 0 31 1;
#X connect 31 0 3 0;
#X connect 32 0 30 0;
#X connect 33 0 30 1;
#X connect 34 0 31 0;
#X connect 35 0 12 1;
#X connect 36 0 29 0;
#X connect 36 1 26 0;
#X connect 36 2 27 0;
#X connect 36 3 34 0;
#X connect 36 4 32 0;
#X connect 36 5 33 0;
#X connect 39 0 17 0;
#X connect 39 1 20 0;
#X connect 40 0 41 1;
#X connect 41 0 11 1;
#X connect 42 0 40 1;
#X connect 43 0 41 0;
#X connect 44 0 40 0;
#X connect 46 0 12 0;
#X connect 46 1 43 0;
#X connect 46 2 44 0;
#X connect 46 3 42 0;
#X connect 47 0 48 0;
#X connect 47 1 14 0;
#X connect 50 0 53 0;
#X connect 51 0 5 0;
#X connect 52 0 2 0;
#X connect 53 0 55 0;
#X connect 53 1 54 2;
#X connect 54 0 60 1;
#X connect 55 0 54 1;
#X connect 56 0 36 0;
#X connect 56 1 22 0;
#X connect 57 0 8 0;
#X connect 58 0 9 0;
#X connect 59 0 16 0;
#X connect 59 1 19 0;
#X connect 59 2 61 0;
#X connect 60 0 11 0;
#X connect 62 0 54 0;
#X connect 64 0 10 0;
