#N canvas 0 66 3440 1340 16;
#X obj 892 791 t a a a;
#X obj 985 700 v \$0_nL-1;
#X obj 892 700 v \$0_nL-0, f 10;
#X obj 945 819 s \$0_init_forward_0;
#X obj 918 847 s \$0_init_backward_0;
#X obj 892 875 s \$0_init_update_0;
#X obj 64 18 inlet bang;
#X obj 1948 45 inlet layer_number;
#X msg 2297 162 layer_number \$1;
#X msg 892 763 layer_dims \$2 \$3;
#X obj 2297 190 t a a a;
#X obj 2350 218 s \$0_init_forward_0;
#X obj 2323 246 s \$0_init_backward_0;
#X obj 2297 274 s \$0_init_update_0;
#X obj 64 136 t b b, f 8;
#X obj 892 730 pack f f, f 12;
#X obj 806 667 t b b b, f 22;
#X msg 894 963 m \$1;
#X obj 894 935 v \$0_m;
#X obj 894 991 t a a;
#X obj 931 1019 s \$0_init_forward_0;
#X obj 894 1047 s \$0_init_backward_0;
#X obj 1445 45 inlet initial_layer;
#X obj 1445 129 t f f, f 32;
#X msg 1445 157 initial_layer \$1;
#X obj 1482 213 s \$0_init_forward_0;
#X obj 1445 241 s \$0_init_backward_0;
#X obj 1445 185 t a a;
#X msg 2122 190 skip_dz 1;
#X obj 2122 218 s \$0_init_backward_0;
#X obj 1616 688 inlet activation;
#X msg 1616 724 activation \$1;
#X obj 1616 752 t a a;
#X obj 1653 787 s \$0_init_forward_0;
#X obj 1616 815 s \$0_init_backward_0;
#X obj 1869 681 inlet optimization;
#X obj 1869 714 route gd momentum rmsprop adam;
#X msg 1869 854 gd 1 \, momentum 0 \, rmsprop 0 \, adam 0;
#X msg 1928 826 gd 0 \, momentum 1 \, rmsprop 0 \, adam 0;
#X msg 1987 798 gd 0 \, momentum 0 \, rmsprop 1 \, adam 0;
#X msg 2046 770 gd 0 \, momentum 0 \, rmsprop 0 \, adam 1;
#X msg 2106 742 gd 1 \, momentum 0 \, rmsprop 0 \, adam 0;
#X obj 1987 920 t a a;
#X obj 2024 948 s \$0_init_backward_0;
#X obj 1987 976 s \$0_init_update_0;
#X obj 2122 162 sel 0;
#X obj 2281 1038 f;
#X obj 2318 1122 s \$0_init_forward_0;
#X obj 2281 1150 s \$0_init_backward_0;
#X obj 2281 1094 t a a;
#X obj 2281 977 inlet leak;
#X msg 2281 1066 leak \$1;
#X obj 2281 1005 t b f;
#X obj 1426 672 print l;
#X obj 1526 672 print r;
#X floatatom 1423 605 5 0 0 0 - - - 0;
#X obj 1426 644 sel 0 1;
#X obj 1698 157 sel 0 1;
#X obj 154 641 list prepend \$0_nL;
#X msg 154 669 \$1-\$2;
#X obj 133 702 v;
#X obj 1290 430 v \$0_nx;
#X obj 1948 129 t f f f, f 44;
#X obj 154 613 f;
#X obj 368 842 t a a a;
#X obj 421 870 s \$0_init_forward_0;
#X obj 394 898 s \$0_init_backward_0;
#X obj 368 926 s \$0_init_update_0;
#X msg 368 814 layer_dims \$2 \$3;
#X obj 368 781 pack f f, f 12;
#X obj 1985 266 list prepend \$0_nL;
#X obj 1964 327 v;
#X obj 1817 167 f;
#X obj 1948 157 t f f;
#X obj 1985 185 + 1;
#X obj 1825 266 list prepend \$0_nL;
#X obj 1804 327 v;
#X obj 1990 454 list prepend \$0_init_forward;
#X obj 1969 530 s;
#X floatatom 1903 391 5 0 0 0 - - - 0;
#X obj 1903 418 t f f;
#X obj 1309 1023 r \$0_init_forward_1;
#X obj 1309 1051 print;
#X msg 1990 482 symbol \$1_\$2;
#X msg 1825 294 symbol \$1-\$2;
#X msg 1985 294 symbol \$1-\$2;
#X msg 1045 220 3;
#X obj 1045 248 v \$0_nL-3;
#N canvas 557 270 1010 316 forward 0;
#X obj 74 35 inlet a;
#X obj 164 35 inlet layer_number;
#X obj 164 68 list prepend \$0_init_forward;
#X obj 143 144 s;
#X msg 164 96 symbol \$1_\$2;
#X obj 484 35 inlet layer_number;
#X connect 0 0 3 0;
#X connect 1 0 2 0;
#X connect 2 0 4 0;
#X connect 4 0 3 1;
#X restore 585 279 pd forward;
#N canvas 8 106 578 316 backward 0;
#X obj 74 35 inlet a;
#X obj 164 35 inlet layer_number;
#X obj 143 144 s;
#X msg 164 96 symbol \$1_\$2;
#X obj 164 68 list prepend \$0_init_backward;
#X connect 0 0 2 0;
#X connect 1 0 4 0;
#X connect 3 0 2 1;
#X connect 4 0 3 0;
#X restore 568 364 pd backward;
#N canvas 12 142 578 316 update 0;
#X obj 74 35 inlet a;
#X obj 164 35 inlet layer_number;
#X obj 143 144 s;
#X msg 164 96 symbol \$1_\$2;
#X obj 164 68 list prepend \$0_init_update;
#X connect 0 0 2 0;
#X connect 1 0 4 0;
#X connect 3 0 2 1;
#X connect 4 0 3 0;
#X restore 568 424 pd update;
#X obj 2528 45 inlet dollar_zero;
#X obj 2528 73 s \$0_ns;
#X text 263 25 // Nice idea \, but it's going to get complicated with \$0 issues \;;
#X connect 0 0 5 0;
#X connect 0 1 4 0;
#X connect 0 2 3 0;
#X connect 1 0 15 1;
#X connect 2 0 15 0;
#X connect 6 0 14 0;
#X connect 7 0 62 0;
#X connect 8 0 10 0;
#X connect 9 0 0 0;
#X connect 10 0 13 0;
#X connect 10 1 12 0;
#X connect 10 2 11 0;
#X connect 15 0 9 0;
#X connect 16 1 2 0;
#X connect 16 2 1 0;
#X connect 17 0 19 0;
#X connect 18 0 17 0;
#X connect 19 0 21 0;
#X connect 19 1 20 0;
#X connect 22 0 23 0;
#X connect 23 0 24 0;
#X connect 23 1 57 0;
#X connect 24 0 27 0;
#X connect 27 0 26 0;
#X connect 27 1 25 0;
#X connect 28 0 29 0;
#X connect 30 0 31 0;
#X connect 31 0 32 0;
#X connect 32 0 34 0;
#X connect 32 1 33 0;
#X connect 35 0 36 0;
#X connect 36 0 37 0;
#X connect 36 1 38 0;
#X connect 36 2 39 0;
#X connect 36 3 40 0;
#X connect 36 4 41 0;
#X connect 37 0 42 0;
#X connect 38 0 42 0;
#X connect 39 0 42 0;
#X connect 40 0 42 0;
#X connect 41 0 42 0;
#X connect 42 0 44 0;
#X connect 42 1 43 0;
#X connect 45 0 28 0;
#X connect 46 0 51 0;
#X connect 49 0 48 0;
#X connect 49 1 47 0;
#X connect 50 0 52 0;
#X connect 51 0 49 0;
#X connect 52 0 46 0;
#X connect 52 1 46 1;
#X connect 55 0 56 0;
#X connect 56 0 53 0;
#X connect 56 1 54 0;
#X connect 58 0 59 0;
#X connect 59 0 60 1;
#X connect 62 0 73 0;
#X connect 62 1 45 0;
#X connect 62 2 8 0;
#X connect 63 0 58 0;
#X connect 64 0 67 0;
#X connect 64 1 66 0;
#X connect 64 2 65 0;
#X connect 68 0 64 0;
#X connect 69 0 68 0;
#X connect 70 0 85 0;
#X connect 73 0 75 0;
#X connect 73 1 74 0;
#X connect 74 0 70 0;
#X connect 75 0 84 0;
#X connect 77 0 83 0;
#X connect 79 0 80 0;
#X connect 80 0 78 0;
#X connect 80 1 77 0;
#X connect 81 0 82 0;
#X connect 83 0 78 1;
#X connect 84 0 76 1;
#X connect 85 0 71 1;
#X connect 86 0 87 0;
#X connect 91 0 92 0;
