#N canvas 1846 629 1300 669 16;
#X obj 36 69 inlet bang;
#X obj 1066 69 inlet activation_number;
#X obj 36 600 outlet done;
#X obj 277 381 array get, f 12;
#X obj 356 557 array set, f 49;
#X obj 402 381 array get, f 16;
#X obj 356 524 *;
#X msg 311 345 1;
#X obj 464 102 t b s, f 9;
#X msg 464 350 1;
#X obj 641 100 t b s, f 9;
#X obj 209 266 t f f f f, f 43;
#X obj 575 381 array get, f 17;
#X msg 641 351 1;
#X obj 36 102 t b b, f 6;
#X obj 861 69 inlet negative_slope;
#X obj 453 464 cml.gprime, f 77;
#X obj 464 69 inlet s_z;
#X obj 641 69 inlet s_a;
#X obj 745 69 inlet s_dz;
#X obj 230 72 inlet m;
#X text 37 9 // dZ^[l] = dA^[l] x g^[l]'(Z^[l]);
#X obj 311 105 t b s, f 8;
#X obj 311 72 inlet s_da;
#X obj 209 223 cml.range;
#X text 398 13 // TODO: only read Z or A array \, depending on activation type \;;
#X obj 154 72 inlet n;
#X obj 209 195 *;
#X obj 133 141 f;
#X connect 0 0 14 0;
#X connect 1 0 16 3;
#X connect 3 0 6 0;
#X connect 5 0 16 0;
#X connect 6 0 4 0;
#X connect 7 0 3 1;
#X connect 8 0 9 0;
#X connect 8 1 5 2;
#X connect 9 0 5 1;
#X connect 10 0 13 0;
#X connect 10 1 12 2;
#X connect 11 0 3 0;
#X connect 11 1 5 0;
#X connect 11 2 12 0;
#X connect 11 3 4 1;
#X connect 12 0 16 1;
#X connect 13 0 12 1;
#X connect 14 0 2 0;
#X connect 14 1 28 0;
#X connect 15 0 16 2;
#X connect 16 0 6 1;
#X connect 17 0 8 0;
#X connect 18 0 10 0;
#X connect 19 0 4 2;
#X connect 20 0 27 1;
#X connect 22 0 7 0;
#X connect 22 1 3 2;
#X connect 23 0 22 0;
#X connect 24 0 11 0;
#X connect 26 0 28 1;
#X connect 27 0 24 0;
#X connect 28 0 27 0;
