#N canvas 1527 35 849 787 16;
#X obj 46 98 inlet row_number;
#X obj 246 98 inlet num_columns;
#X text 403 97 // e.g. m;
#X obj 513 98 inlet s_array;
#X obj 225 530 array get, f 15;
#X obj 674 98 inlet d0;
#X obj 550 345 cml.d0;
#X obj 246 266 t f f;
#X obj 225 309 *;
#X obj 440 669 print;
#X msg 440 636;
#X obj 513 126 symbol;
#X obj 513 154 t s s;
#X msg 513 518 set Row out of range for \$1;
#X obj 225 563 route list bang, f 27;
#X obj 331 596 t b b, f 14;
#X obj 225 716 outlet list;
#X obj 331 715 outlet out_of_range;
#X text 47 11 // Left inlet returns a conceptual matrix "row" from a 1D array \; right inlet returns a bang for out of range indexes;
#X connect 0 0 8 0;
#X connect 1 0 7 0;
#X connect 3 0 11 0;
#X connect 4 0 14 0;
#X connect 5 0 6 1;
#X connect 6 0 4 2;
#X connect 7 0 8 1;
#X connect 7 1 4 1;
#X connect 8 0 4 0;
#X connect 10 0 9 0;
#X connect 11 0 12 0;
#X connect 12 0 13 0;
#X connect 12 1 6 0;
#X connect 13 0 10 0;
#X connect 14 0 16 0;
#X connect 14 1 15 0;
#X connect 15 0 17 0;
#X connect 15 1 10 0;
