#N canvas 315 262 1360 477 16;
#X obj 94 45 inlet bang;
#X obj 1124 45 inlet dollar_zero;
#X obj 94 78 route bang m num_outputs, f 110;
#X obj 131 311 cml.array_subtract, f 117;
#X obj 364 177 f;
#X obj 364 243 *;
#X obj 597 278 cml.array_name A;
#X msg 597 245 0;
#X obj 1124 78 s \$0_ns;
#X obj 722 245 r \$0_ns;
#X obj 830 278 cml.label_name;
#X obj 939 245 r \$0_ns;
#X msg 1064 245 0;
#X obj 1197 245 r \$0_ns;
#X obj 1064 278 cml.array_name dZ;
#X obj 94 111 t b b;
#X obj 131 144 t b b b b b, f 117;
#X obj 94 354 outlet done;
#X connect 0 0 2 0;
#X connect 1 0 8 0;
#X connect 2 0 15 0;
#X connect 2 1 4 1;
#X connect 2 2 5 1;
#X connect 4 0 5 0;
#X connect 5 0 3 1;
#X connect 6 0 3 2;
#X connect 7 0 6 0;
#X connect 9 0 6 1;
#X connect 10 0 3 3;
#X connect 11 0 10 1;
#X connect 12 0 14 0;
#X connect 13 0 14 1;
#X connect 14 0 3 4;
#X connect 15 0 17 0;
#X connect 15 1 16 0;
#X connect 16 0 3 0;
#X connect 16 1 4 0;
#X connect 16 2 7 0;
#X connect 16 3 10 0;
#X connect 16 4 12 0;
