#N canvas 137 107 1341 1283 16;
#X obj 948 65 inlet s_b;
#X obj 1085 65 inlet s_Z;
#X obj 33 65 inlet n;
#X obj 443 65 inlet n_prev;
#X obj 708 559 cml.get_element;
#X obj 870 834 cml.get_element;
#X obj 156 65 inlet m;
#X msg 948 801 1;
#X obj 238 131 s \$0_n;
#X obj 193 164 s \$0_m;
#X obj 1055 1071 r \$0_m;
#X obj 870 740 r \$0_n;
#X obj 1026 1043 r \$0_n;
#X obj 135 213 f;
#X obj 33 98 t b b f, f 26;
#X obj 135 246 cml.range;
#X obj 744 907 +;
#X obj 156 131 t f f;
#X obj 422 357 f;
#X obj 422 400 cml.range, f 20;
#X obj 968 1104 cml.set_element;
#X obj 687 678 *;
#X text 220 248 // for i in range(m);
#X text 590 400 // for j in range(n_prev);
#X msg 870 801 0;
#X obj 578 745 cml.plus_equal;
#X obj 135 274 t b b f f, f 108;
#X obj 611 65 inlet s_W;
#X obj 825 65 inlet s_n_prev;
#X obj 422 564 cml.get_element, f 24;
#X obj 485 531 r \$0_n;
#X obj 786 526 r \$0_m;
#X obj 33 1122 outlet done;
#X obj 688 501 f;
#X obj 422 448 t f b f, f 41;
#X obj 870 768 t b f, f 6;
#X obj 443 98 s \$0_n_prev;
#X obj 443 324 r \$0_n_prev;
#X obj 548 531 r \$0_n_prev;
#X obj 948 768 t b s;
#X connect 0 0 39 0;
#X connect 1 0 20 4;
#X connect 2 0 14 0;
#X connect 3 0 36 0;
#X connect 4 0 21 1;
#X connect 5 0 16 1;
#X connect 6 0 17 0;
#X connect 7 0 5 2;
#X connect 10 0 20 3;
#X connect 11 0 35 0;
#X connect 12 0 20 2;
#X connect 13 0 15 0;
#X connect 14 0 32 0;
#X connect 14 1 13 0;
#X connect 14 2 8 0;
#X connect 15 0 26 0;
#X connect 16 0 20 0;
#X connect 17 0 13 1;
#X connect 17 1 9 0;
#X connect 18 0 19 0;
#X connect 19 0 34 0;
#X connect 19 1 25 0;
#X connect 21 0 25 1;
#X connect 24 0 5 0;
#X connect 25 0 16 0;
#X connect 26 1 18 0;
#X connect 26 2 33 1;
#X connect 26 3 20 1;
#X connect 27 0 29 3;
#X connect 28 0 4 3;
#X connect 29 0 21 0;
#X connect 30 0 29 1;
#X connect 31 0 4 2;
#X connect 33 0 4 0;
#X connect 34 0 29 0;
#X connect 34 1 33 0;
#X connect 34 2 4 1;
#X connect 35 0 24 0;
#X connect 35 1 5 1;
#X connect 37 0 18 1;
#X connect 38 0 29 2;
#X connect 39 0 7 0;
#X connect 39 1 5 3;
