#N canvas 1724 70 1712 1332 16;
#X obj 87 43 inlet bang;
#X obj 1128 698 t b s;
#X obj 1096 761 array get;
#X msg 1130 728 1;
#X obj 988 759 t b s;
#X obj 956 822 array get;
#X msg 990 789 1;
#X obj 185 76 t f f;
#X obj 415 76 t f f;
#X obj 998 1256 array set;
#X obj 808 1119 cml.plus_equal;
#X obj 222 105 v \$0_m;
#X obj 164 132 f;
#X obj 164 160 cml.range;
#X text 244 159 // for i in range(m);
#X obj 394 276 f;
#X obj 624 416 f;
#X obj 394 304 cml.range;
#X text 477 301 // for j in range(p);
#X text 661 413 // for k in range(n);
#X obj 321 226 v \$0_i;
#X obj 559 370 v \$0_j;
#X obj 624 444 cml.range, f 14;
#X obj 661 510 v \$0_k;
#X obj 685 609 *, f 8;
#X obj 452 105 v \$0_p;
#X obj 707 105 v \$0_n;
#X obj 685 576 v \$0_i;
#X obj 746 576 v \$0_n;
#X obj 624 643 +, f 8;
#X obj 624 610 v \$0_k;
#X obj 870 609 *, f 8;
#X obj 809 643 +, f 8;
#X obj 917 1086 *, f 11;
#X obj 624 477 t b f;
#X obj 624 543 t b b b b b b, f 39;
#X text 697 642 // A_index;
#X text 878 639 // B_index;
#X obj 164 193 t b f, f 20;
#X obj 394 337 t b f, f 21;
#X obj 924 942 *, f 8;
#X obj 863 976 +, f 8;
#X obj 985 909 v \$0_p;
#X obj 863 943 v \$0_j;
#X obj 924 909 v \$0_i;
#X text 931 975 // C_index;
#X obj 808 870 t b b b b, f 21;
#X obj 87 76 t b b, f 10;
#X obj 87 1259 outlet done;
#X text 129 502 // multiplying flattened matrices A (m x n) B (n x p) \; for i in range(m) \; ....for j in range(p) \; ........sum = 0 \; ........for k in range(n) \; ............sum += A[i*n + k] * B[k*p + j] \; ........C[i*p + j] = sum \;;
#X obj 809 610 v \$0_k;
#X obj 870 576 v \$0_j;
#X obj 931 576 v \$0_n;
#X text 128 660 // multiplying flattened matrices A(m x n) B(p x n).T \; for i in range(m) \; ....for j in range(p) \; ........sum = 0 \; ........for k in range(n) \; ............sum += A[i*n+k] * B[j*n+k] \; ........C[i*p+j] = sum \;;
#X text 134 467 // dW^[l] = 1/m dZ^[l]A^[l-1]T;
#X obj 988 43 inlet s_dz;
#X obj 1128 43 inlet s_a_prev;
#X obj 1348 43 inlet s_weights;
#X obj 185 43 inlet num_layer_nodes;
#X obj 415 43 inlet num_prev_layer_nodes;
#X obj 645 43 inlet num_examples;
#X obj 645 76 t f f f, f 16;
#X obj 808 1187 /;
#X obj 770 105 s \$0_num_examples;
#X obj 829 1155 r \$0_num_examples;
#X connect 0 0 47 0;
#X connect 1 0 3 0;
#X connect 1 1 2 2;
#X connect 2 0 33 1;
#X connect 3 0 2 1;
#X connect 4 0 6 0;
#X connect 4 1 5 2;
#X connect 5 0 33 0;
#X connect 6 0 5 1;
#X connect 7 0 12 1;
#X connect 7 1 11 0;
#X connect 8 0 15 1;
#X connect 8 1 25 0;
#X connect 10 0 62 0;
#X connect 12 0 13 0;
#X connect 13 0 38 0;
#X connect 15 0 17 0;
#X connect 16 0 22 0;
#X connect 17 0 39 0;
#X connect 22 0 34 0;
#X connect 22 1 46 0;
#X connect 24 0 29 1;
#X connect 27 0 24 0;
#X connect 28 0 24 1;
#X connect 29 0 5 0;
#X connect 30 0 29 0;
#X connect 31 0 32 1;
#X connect 32 0 2 0;
#X connect 33 0 10 1;
#X connect 34 0 35 0;
#X connect 34 1 23 0;
#X connect 35 0 30 0;
#X connect 35 1 27 0;
#X connect 35 2 28 0;
#X connect 35 3 50 0;
#X connect 35 4 51 0;
#X connect 35 5 52 0;
#X connect 38 0 15 0;
#X connect 38 1 20 0;
#X connect 39 0 16 0;
#X connect 39 1 21 0;
#X connect 40 0 41 1;
#X connect 41 0 9 1;
#X connect 42 0 40 1;
#X connect 43 0 41 0;
#X connect 44 0 40 0;
#X connect 46 0 10 0;
#X connect 46 1 43 0;
#X connect 46 2 44 0;
#X connect 46 3 42 0;
#X connect 47 0 48 0;
#X connect 47 1 12 0;
#X connect 50 0 32 0;
#X connect 51 0 31 0;
#X connect 52 0 31 1;
#X connect 55 0 4 0;
#X connect 56 0 1 0;
#X connect 57 0 9 2;
#X connect 58 0 7 0;
#X connect 59 0 8 0;
#X connect 60 0 61 0;
#X connect 61 0 16 1;
#X connect 61 1 26 0;
#X connect 61 2 63 0;
#X connect 62 0 9 0;
#X connect 64 0 62 1;
