#N canvas 4 70 1712 1332 16;
#X obj 34 15 inlet;
#X obj 1368 19 inlet dollar_zero;
#X obj 361 85 list split 1;
#X obj 34 85 t b b;
#X obj 688 113 select relu tanh sigmoid linear;
#X msg 688 146 1;
#X msg 749 146 2;
#X msg 810 146 3;
#X msg 869 146 4;
#X msg 933 146 0;
#X obj 1368 52 s \$0_ns;
#X obj 197 85 s \$0_l;
#X obj 361 147 s \$0_n;
#X obj 407 113 s \$0_n_prev;
#X obj 852 85 s \$0_leak;
#X obj 810 207 s \$0_activation;
#X obj 71 273 spigot 1;
#X obj 132 243 != 1;
#X obj 688 86 symbol;
#X obj 1015 85 s \$0_skip_dz;
#X obj 132 214 r \$0_skip_dz;
#X obj 1179 85 s \$0_initial_layer;
#X obj 34 52 route bang layer_number layer_dims m activation leak skip_dz initial_layer, f 164;
#X obj 524 85 s \$0_m;
#X obj 71 316 cml.dz, f 194;
#X obj 458 283 r \$0_m;
#X obj 651 250 r \$0_l;
#X obj 784 250 r \$0_ns;
#X obj 651 283 cml.array_name dA;
#X obj 845 250 r \$0_l;
#X obj 970 250 r \$0_ns;
#X obj 845 283 cml.array_name Z;
#X obj 1039 250 r \$0_l;
#X obj 1164 250 r \$0_ns;
#X obj 1039 283 cml.array_name A;
#X obj 1232 250 r \$0_l;
#X obj 1365 250 r \$0_ns;
#X obj 1232 283 cml.array_name dZ;
#X obj 1426 283 r \$0_leak;
#X obj 1620 285 r \$0_activation;
#X obj 1215 372 r \$0_initial_layer;
#N canvas 1035 607 526 394 a_prev_for_layer 0;
#X obj 55 251 cml.array_name A;
#X obj 255 251 cml.input_name;
#X obj 76 160 r \$0_l;
#X obj 76 188 + 1;
#X obj 180 218 r \$0_ns;
#X obj 364 218 r \$0_ns;
#X obj 81 67 t f f, f 18;
#X obj 81 95 != 1;
#X obj 222 95 == 1;
#X obj 81 123 sel 1;
#X obj 222 123 sel 1;
#X obj 55 216 f;
#X obj 81 34 inlet;
#X obj 55 304 outlet;
#X connect 0 0 13 0;
#X connect 1 0 13 0;
#X connect 2 0 3 0;
#X connect 3 0 11 1;
#X connect 4 0 0 1;
#X connect 5 0 1 1;
#X connect 6 0 7 0;
#X connect 6 1 8 0;
#X connect 7 0 9 0;
#X connect 8 0 10 0;
#X connect 9 0 11 0;
#X connect 10 0 1 0;
#X connect 11 0 0 0;
#X connect 12 0 6 0;
#X restore 1215 405 pd a_prev_for_layer;
#X obj 299 412 r \$0_n;
#X obj 528 412 r \$0_n_prev;
#X obj 757 412 r \$0_m;
#X obj 986 379 r \$0_l;
#X obj 1119 379 r \$0_ns;
#X obj 986 412 cml.array_name dZ;
#X obj 1444 379 r \$0_l;
#X obj 1577 379 r \$0_ns;
#X obj 1444 412 cml.array_name dW;
#X text 1234 346 // fix this;
#X obj 71 447 cml.dw, f 172;
#X obj 34 414 t b b;
#X obj 34 523 t b b;
#X obj 71 556 cml.db, f 108;
#X obj 286 523 r \$0_n;
#X obj 501 523 r \$0_m;
#X obj 716 490 r \$0_l;
#X obj 849 490 r \$0_ns;
#X obj 716 523 cml.array_name dZ;
#X obj 932 490 r \$0_l;
#X obj 1065 490 r \$0_ns;
#X obj 932 523 cml.array_name db;
#X obj 34 616 t b b;
#X obj 71 659 spigot 1;
#X obj 132 599 r \$0_initial_layer;
#X obj 132 627 != 1;
#X obj 71 732 cml.da, f 164;
#X obj 729 699 r \$0_n;
#X obj 289 699 r \$0_n_prev;
#X obj 507 699 r \$0_m;
#X obj 1161 666 r \$0_l;
#X obj 1294 666 r \$0_ns;
#X obj 1161 699 cml.array_name dZ;
#X obj 943 666 r \$0_l;
#X obj 1068 666 r \$0_ns;
#X obj 943 699 cml.array_name W;
#X obj 1380 638 r \$0_l;
#X obj 1512 666 r \$0_ns;
#X obj 1380 666 + 1;
#X obj 34 775 outlet bang;
#X obj 1380 699 cml.array_name dA;
#X obj 264 283 r \$0_n;
#X connect 0 0 22 0;
#X connect 1 0 10 0;
#X connect 2 0 12 0;
#X connect 2 1 13 0;
#X connect 3 0 53 0;
#X connect 3 1 16 0;
#X connect 4 0 5 0;
#X connect 4 1 6 0;
#X connect 4 2 7 0;
#X connect 4 3 8 0;
#X connect 4 4 9 0;
#X connect 5 0 15 0;
#X connect 6 0 15 0;
#X connect 7 0 15 0;
#X connect 8 0 15 0;
#X connect 9 0 15 0;
#X connect 16 0 24 0;
#X connect 17 0 16 1;
#X connect 18 0 4 0;
#X connect 20 0 17 0;
#X connect 22 0 3 0;
#X connect 22 1 11 0;
#X connect 22 2 2 0;
#X connect 22 3 23 0;
#X connect 22 4 18 0;
#X connect 22 5 14 0;
#X connect 22 6 19 0;
#X connect 22 7 21 0;
#X connect 25 0 24 2;
#X connect 26 0 28 0;
#X connect 27 0 28 1;
#X connect 28 0 24 3;
#X connect 29 0 31 0;
#X connect 30 0 31 1;
#X connect 31 0 24 4;
#X connect 32 0 34 0;
#X connect 33 0 34 1;
#X connect 34 0 24 5;
#X connect 35 0 37 0;
#X connect 36 0 37 1;
#X connect 37 0 24 6;
#X connect 38 0 24 7;
#X connect 39 0 24 8;
#X connect 40 0 41 0;
#X connect 41 0 52 5;
#X connect 42 0 52 1;
#X connect 43 0 52 2;
#X connect 44 0 52 3;
#X connect 45 0 47 0;
#X connect 46 0 47 1;
#X connect 47 0 52 4;
#X connect 48 0 50 0;
#X connect 49 0 50 1;
#X connect 50 0 52 6;
#X connect 53 0 54 0;
#X connect 53 1 52 0;
#X connect 54 0 64 0;
#X connect 54 1 55 0;
#X connect 56 0 55 1;
#X connect 57 0 55 2;
#X connect 58 0 60 0;
#X connect 59 0 60 1;
#X connect 60 0 55 3;
#X connect 61 0 63 0;
#X connect 62 0 63 1;
#X connect 63 0 55 4;
#X connect 64 0 81 0;
#X connect 64 1 65 0;
#X connect 65 0 68 0;
#X connect 66 0 67 0;
#X connect 67 0 65 1;
#X connect 69 0 68 3;
#X connect 70 0 68 1;
#X connect 71 0 68 2;
#X connect 72 0 74 0;
#X connect 73 0 74 1;
#X connect 74 0 68 5;
#X connect 75 0 77 0;
#X connect 76 0 77 1;
#X connect 77 0 68 4;
#X connect 78 0 80 0;
#X connect 79 0 82 1;
#X connect 80 0 82 0;
#X connect 82 0 68 6;
#X connect 83 0 24 1;
