#N canvas 1549 95 1502 1122 16;
#X obj 52 33 inlet;
#X obj 164 94 s \$0_l;
#X obj 277 94 list split 1;
#X obj 277 155 s \$0_n;
#X obj 323 122 s \$0_n_prev;
#X obj 389 94 s \$0_alpha;
#X obj 1352 33 inlet dollar_zero;
#X obj 1352 61 s \$0_ns;
#X obj 502 94 s \$0_momentum;
#X obj 614 94 s \$0_rmsprop;
#X obj 727 94 s \$0_gd;
#N canvas 1051 788 1577 570 update_w_gradient_descent 0;
#X obj 122 137 f;
#X obj 143 104 r \$0_gd;
#X obj 61 170 spigot 0;
#X obj 35 55 inlet bang;
#X obj 35 83 t b b b;
#X obj 864 269 r \$0_ns;
#X obj 1211 269 r \$0_ns;
#X obj 438 269 r \$0_n_prev;
#X obj 421 236 r \$0_n;
#X obj 400 302 *;
#X obj 400 269 f;
#X obj 61 335 cml.update_params, f 170;
#X obj 1439 269 r \$0_alpha;
#X obj 739 302 cml.array_name W;
#X obj 1078 302 cml.array_name dW;
#X obj 760 236 r \$0_l;
#X obj 739 269 f;
#X obj 1099 236 r \$0_l;
#X obj 1078 269 f;
#X obj 1418 302 f;
#X obj 61 203 t b b b b b, f 170;
#X obj 35 378 outlet done;
#X connect 0 0 2 1;
#X connect 1 0 0 1;
#X connect 2 0 20 0;
#X connect 3 0 4 0;
#X connect 4 0 21 0;
#X connect 4 1 2 0;
#X connect 4 2 0 0;
#X connect 5 0 13 1;
#X connect 6 0 14 1;
#X connect 7 0 9 1;
#X connect 8 0 10 1;
#X connect 9 0 11 1;
#X connect 10 0 9 0;
#X connect 12 0 19 1;
#X connect 13 0 11 2;
#X connect 14 0 11 3;
#X connect 15 0 16 1;
#X connect 16 0 13 0;
#X connect 17 0 18 1;
#X connect 18 0 14 0;
#X connect 19 0 11 4;
#X connect 20 0 11 0;
#X connect 20 1 10 0;
#X connect 20 2 16 0;
#X connect 20 3 18 0;
#X connect 20 4 19 0;
#X restore 52 218 pd update_w_gradient_descent;
#N canvas 713 487 1582 473 update_w_momentum 0;
#X obj 161 122 r \$0_momentum;
#X obj 140 150 f;
#X obj 79 183 spigot 0;
#X obj 53 68 inlet bang;
#X obj 53 96 t b b b;
#X obj 79 211 t b b b b b, f 166;
#X obj 79 369 cml.update_params_with_momentum, f 166;
#X obj 53 412 outlet done;
#X obj 866 303 r \$0_ns;
#X obj 1213 303 r \$0_ns;
#X obj 448 303 r \$0_n_prev;
#X obj 431 270 r \$0_n;
#X obj 410 336 *;
#X obj 410 303 f;
#X obj 1425 303 r \$0_alpha;
#X obj 741 336 cml.array_name W;
#X obj 762 270 r \$0_l;
#X obj 741 303 f;
#X obj 1093 270 r \$0_l;
#X obj 1072 303 f;
#X obj 1404 336 f;
#X obj 1072 336 cml.array_name VdW;
#X connect 0 0 1 1;
#X connect 1 0 2 1;
#X connect 2 0 5 0;
#X connect 3 0 4 0;
#X connect 4 0 7 0;
#X connect 4 1 2 0;
#X connect 4 2 1 0;
#X connect 5 0 6 0;
#X connect 5 1 13 0;
#X connect 5 2 17 0;
#X connect 5 3 19 0;
#X connect 5 4 20 0;
#X connect 8 0 15 1;
#X connect 9 0 21 1;
#X connect 10 0 12 1;
#X connect 11 0 13 1;
#X connect 12 0 6 1;
#X connect 13 0 12 0;
#X connect 14 0 20 1;
#X connect 15 0 6 2;
#X connect 16 0 17 1;
#X connect 17 0 15 0;
#X connect 18 0 19 1;
#X connect 19 0 21 0;
#X connect 20 0 6 4;
#X connect 21 0 6 3;
#X restore 52 251 pd update_w_momentum;
#N canvas 647 134 1712 512 update_w_rmsprop 0;
#X obj 142 144 f;
#X obj 81 177 spigot 0;
#X obj 163 116 r \$0_rmsprop;
#X obj 55 55 inlet bang;
#X obj 55 83 t b b b;
#X obj 55 380 outlet done;
#X obj 81 337 cml.update_params_with_rmsprop, f 173;
#X obj 758 271 r \$0_ns;
#X obj 1042 271 r \$0_ns;
#X obj 395 271 r \$0_n_prev;
#X obj 378 238 r \$0_n;
#X obj 357 304 *;
#X obj 357 271 f;
#X obj 1483 271 r \$0_alpha;
#X obj 633 304 cml.array_name W;
#X obj 909 304 cml.array_name dW;
#X obj 654 238 r \$0_l;
#X obj 633 271 f;
#X obj 930 238 r \$0_l;
#X obj 909 271 f;
#X obj 1462 304 f;
#X obj 1326 271 r \$0_ns;
#X obj 1206 238 r \$0_l;
#X obj 1185 271 f;
#X obj 81 205 t b b b b b b, f 173;
#X obj 1185 304 cml.array_name SdW;
#X connect 0 0 1 1;
#X connect 1 0 24 0;
#X connect 2 0 0 1;
#X connect 3 0 4 0;
#X connect 4 0 5 0;
#X connect 4 1 1 0;
#X connect 4 2 0 0;
#X connect 7 0 14 1;
#X connect 8 0 15 1;
#X connect 9 0 11 1;
#X connect 10 0 12 1;
#X connect 11 0 6 1;
#X connect 12 0 11 0;
#X connect 13 0 20 1;
#X connect 14 0 6 2;
#X connect 15 0 6 3;
#X connect 16 0 17 1;
#X connect 17 0 14 0;
#X connect 18 0 19 1;
#X connect 19 0 15 0;
#X connect 20 0 6 5;
#X connect 21 0 25 1;
#X connect 22 0 23 1;
#X connect 23 0 25 0;
#X connect 24 0 6 0;
#X connect 24 1 12 0;
#X connect 24 2 17 0;
#X connect 24 3 19 0;
#X connect 24 4 23 0;
#X connect 24 5 20 0;
#X connect 25 0 6 4;
#X restore 52 284 pd update_w_rmsprop;
#N canvas 1011 453 1577 570 update_b_gradient_descent 0;
#X obj 122 137 f;
#X obj 143 104 r \$0_gd;
#X obj 61 170 spigot 0;
#X obj 35 55 inlet bang;
#X obj 35 83 t b b b;
#X obj 864 269 r \$0_ns;
#X obj 1211 269 r \$0_ns;
#X obj 421 269 r \$0_n;
#X obj 400 302 f;
#X obj 61 335 cml.update_params, f 170;
#X obj 1439 269 r \$0_alpha;
#X obj 760 236 r \$0_l;
#X obj 739 269 f;
#X obj 1099 236 r \$0_l;
#X obj 1078 269 f;
#X obj 1418 302 f;
#X obj 61 203 t b b b b b, f 170;
#X obj 35 378 outlet done;
#X obj 739 302 cml.array_name b;
#X obj 1078 302 cml.array_name db;
#X connect 0 0 2 1;
#X connect 1 0 0 1;
#X connect 2 0 16 0;
#X connect 3 0 4 0;
#X connect 4 0 17 0;
#X connect 4 1 2 0;
#X connect 4 2 0 0;
#X connect 5 0 18 1;
#X connect 6 0 19 1;
#X connect 7 0 8 1;
#X connect 8 0 9 1;
#X connect 10 0 15 1;
#X connect 11 0 12 1;
#X connect 12 0 18 0;
#X connect 13 0 14 1;
#X connect 14 0 19 0;
#X connect 15 0 9 4;
#X connect 16 0 9 0;
#X connect 16 1 8 0;
#X connect 16 2 12 0;
#X connect 16 3 14 0;
#X connect 16 4 15 0;
#X connect 18 0 9 2;
#X connect 19 0 9 3;
#X restore 52 360 pd update_b_gradient_descent;
#N canvas 717 523 1582 473 update_b_momentum 0;
#X obj 161 122 r \$0_momentum;
#X obj 140 150 f;
#X obj 79 183 spigot 0;
#X obj 53 68 inlet bang;
#X obj 53 96 t b b b;
#X obj 79 211 t b b b b b, f 166;
#X obj 79 369 cml.update_params_with_momentum, f 166;
#X obj 53 412 outlet done;
#X obj 866 303 r \$0_ns;
#X obj 1213 303 r \$0_ns;
#X obj 431 303 r \$0_n;
#X obj 410 336 f;
#X obj 1425 303 r \$0_alpha;
#X obj 762 270 r \$0_l;
#X obj 741 303 f;
#X obj 1093 270 r \$0_l;
#X obj 1072 303 f;
#X obj 1404 336 f;
#X obj 741 336 cml.array_name b;
#X obj 1072 336 cml.array_name Vdb;
#X connect 0 0 1 1;
#X connect 1 0 2 1;
#X connect 2 0 5 0;
#X connect 3 0 4 0;
#X connect 4 0 7 0;
#X connect 4 1 2 0;
#X connect 4 2 1 0;
#X connect 5 0 6 0;
#X connect 5 1 11 0;
#X connect 5 2 14 0;
#X connect 5 3 16 0;
#X connect 5 4 17 0;
#X connect 8 0 18 1;
#X connect 9 0 19 1;
#X connect 10 0 11 1;
#X connect 11 0 6 1;
#X connect 12 0 17 1;
#X connect 13 0 14 1;
#X connect 14 0 18 0;
#X connect 15 0 16 1;
#X connect 16 0 19 0;
#X connect 17 0 6 4;
#X connect 18 0 6 2;
#X connect 19 0 6 3;
#X restore 52 393 pd update_b_momentum;
#N canvas 647 134 1712 512 update_b_rmsprop 0;
#X obj 142 144 f;
#X obj 81 177 spigot 0;
#X obj 163 116 r \$0_rmsprop;
#X obj 55 55 inlet bang;
#X obj 55 83 t b b b;
#X obj 55 380 outlet done;
#X obj 81 337 cml.update_params_with_rmsprop, f 173;
#X obj 758 271 r \$0_ns;
#X obj 1042 271 r \$0_ns;
#X obj 378 271 r \$0_n;
#X obj 357 304 f;
#X obj 1483 271 r \$0_alpha;
#X obj 654 238 r \$0_l;
#X obj 633 271 f;
#X obj 930 238 r \$0_l;
#X obj 909 271 f;
#X obj 1462 304 f;
#X obj 1326 271 r \$0_ns;
#X obj 1206 238 r \$0_l;
#X obj 1185 271 f;
#X obj 81 205 t b b b b b b, f 173;
#X obj 633 304 cml.array_name b;
#X obj 909 304 cml.array_name db;
#X obj 1185 304 cml.array_name Sdb;
#X connect 0 0 1 1;
#X connect 1 0 20 0;
#X connect 2 0 0 1;
#X connect 3 0 4 0;
#X connect 4 0 5 0;
#X connect 4 1 1 0;
#X connect 4 2 0 0;
#X connect 7 0 21 1;
#X connect 8 0 22 1;
#X connect 9 0 10 1;
#X connect 10 0 6 1;
#X connect 11 0 16 1;
#X connect 12 0 13 1;
#X connect 13 0 21 0;
#X connect 14 0 15 1;
#X connect 15 0 22 0;
#X connect 16 0 6 5;
#X connect 17 0 23 1;
#X connect 18 0 19 1;
#X connect 19 0 23 0;
#X connect 20 0 6 0;
#X connect 20 1 10 0;
#X connect 20 2 13 0;
#X connect 20 3 15 0;
#X connect 20 4 19 0;
#X connect 20 5 16 0;
#X connect 21 0 6 2;
#X connect 22 0 6 3;
#X connect 23 0 6 4;
#X restore 52 426 pd update_b_rmsprop;
#X obj 52 522 outlet done;
#X obj 52 61 route bang layer_number layer_dims alpha momentum rmsprop gd adam mu rho, f 141;
#X obj 839 94 s \$0_adam;
#X obj 952 94 s \$0_mu;
#X obj 1064 94 s \$0_rho;
#N canvas 108 140 1967 1007 update_w_adam 0;
#X obj 142 104 f;
#X obj 81 137 spigot 0;
#X obj 55 15 inlet bang;
#X obj 55 43 t b b b;
#X obj 55 850 outlet done;
#X obj 623 741 r \$0_ns;
#X obj 327 741 r \$0_n_prev;
#X obj 310 708 r \$0_n;
#X obj 289 774 *;
#X obj 289 741 f;
#X obj 1771 741 r \$0_alpha;
#X obj 498 774 cml.array_name W;
#X obj 519 708 r \$0_l;
#X obj 498 741 f;
#X obj 1750 774 f;
#X obj 1056 741 r \$0_ns;
#X obj 936 708 r \$0_l;
#X obj 915 741 f;
#X obj 915 774 cml.array_name SdW;
#X obj 81 807 cml.update_params_with_adam, f 209;
#X obj 158 137 r \$0_reset;
#X obj 81 165 t b b;
#X obj 118 226 t f f;
#X obj 171 226 + 1;
#X obj 81 635 t b b b b b b b b b, f 209;
#X obj 847 741 r \$0_ns;
#X obj 727 708 r \$0_l;
#X obj 706 741 f;
#X obj 706 774 cml.array_name VdW;
#X obj 1145 741 r \$0_mu;
#X obj 1124 774 f;
#X obj 1332 774 f;
#X obj 1353 741 r \$0_rho;
#X obj 1541 774 f;
#X obj 163 76 r \$0_adam;
#X msg 158 165 1;
#X obj 118 198 f 1;
#X text 212 225 // Iteration count for bias correction \; The first iteration needs to be 1 \, not 0 \;;
#X connect 0 0 1 1;
#X connect 1 0 21 0;
#X connect 1 0 24 0;
#X connect 2 0 3 0;
#X connect 3 0 4 0;
#X connect 3 1 1 0;
#X connect 3 2 0 0;
#X connect 5 0 11 1;
#X connect 6 0 8 1;
#X connect 7 0 9 1;
#X connect 8 0 19 1;
#X connect 9 0 8 0;
#X connect 10 0 14 1;
#X connect 11 0 19 2;
#X connect 12 0 13 1;
#X connect 13 0 11 0;
#X connect 14 0 19 8;
#X connect 15 0 18 1;
#X connect 16 0 17 1;
#X connect 17 0 18 0;
#X connect 18 0 19 4;
#X connect 20 0 35 0;
#X connect 21 1 36 0;
#X connect 22 0 33 1;
#X connect 22 1 23 0;
#X connect 23 0 36 1;
#X connect 24 0 19 0;
#X connect 24 1 9 0;
#X connect 24 2 13 0;
#X connect 24 3 27 0;
#X connect 24 4 17 0;
#X connect 24 5 30 0;
#X connect 24 6 31 0;
#X connect 24 7 33 0;
#X connect 24 8 14 0;
#X connect 25 0 28 1;
#X connect 26 0 27 1;
#X connect 27 0 28 0;
#X connect 28 0 19 3;
#X connect 29 0 30 1;
#X connect 30 0 19 5;
#X connect 31 0 19 6;
#X connect 32 0 31 1;
#X connect 33 0 19 7;
#X connect 34 0 0 1;
#X connect 35 0 36 1;
#X connect 36 0 22 0;
#X restore 52 317 pd update_w_adam;
#X obj 1202 61 s \$0_reset;
#X obj 1202 33 inlet reset;
#N canvas 1080 423 1967 1007 update_b_adam 0;
#X obj 142 104 f;
#X obj 81 137 spigot 0;
#X obj 55 15 inlet bang;
#X obj 55 43 t b b b;
#X obj 55 850 outlet done;
#X obj 623 741 r \$0_ns;
#X obj 310 741 r \$0_n;
#X obj 289 774 f;
#X obj 1771 741 r \$0_alpha;
#X obj 519 708 r \$0_l;
#X obj 498 741 f;
#X obj 1750 774 f;
#X obj 1056 741 r \$0_ns;
#X obj 936 708 r \$0_l;
#X obj 915 741 f;
#X obj 81 807 cml.update_params_with_adam, f 209;
#X obj 158 137 r \$0_reset;
#X obj 81 165 t b b;
#X obj 118 198 f;
#X obj 118 226 t f f;
#X obj 171 226 + 1;
#X obj 81 635 t b b b b b b b b b, f 209;
#X obj 847 741 r \$0_ns;
#X obj 727 708 r \$0_l;
#X obj 706 741 f;
#X obj 1145 741 r \$0_mu;
#X obj 1124 774 f;
#X obj 1332 774 f;
#X obj 1353 741 r \$0_rho;
#X obj 1541 774 f;
#X text 212 225 // iteration count for bias correction \;;
#X obj 163 76 r \$0_adam;
#X obj 498 774 cml.array_name b;
#X obj 706 774 cml.array_name Vdb;
#X obj 915 774 cml.array_name Sdb;
#X msg 158 165 1;
#X connect 0 0 1 1;
#X connect 1 0 17 0;
#X connect 1 0 21 0;
#X connect 2 0 3 0;
#X connect 3 0 4 0;
#X connect 3 1 1 0;
#X connect 3 2 0 0;
#X connect 5 0 32 1;
#X connect 6 0 7 1;
#X connect 7 0 15 1;
#X connect 8 0 11 1;
#X connect 9 0 10 1;
#X connect 10 0 32 0;
#X connect 11 0 15 8;
#X connect 12 0 34 1;
#X connect 13 0 14 1;
#X connect 14 0 34 0;
#X connect 16 0 35 0;
#X connect 17 1 18 0;
#X connect 18 0 19 0;
#X connect 19 0 29 1;
#X connect 19 1 20 0;
#X connect 20 0 18 1;
#X connect 21 0 15 0;
#X connect 21 1 7 0;
#X connect 21 2 10 0;
#X connect 21 3 24 0;
#X connect 21 4 14 0;
#X connect 21 5 26 0;
#X connect 21 6 27 0;
#X connect 21 7 29 0;
#X connect 21 8 11 0;
#X connect 22 0 33 1;
#X connect 23 0 24 1;
#X connect 24 0 33 0;
#X connect 25 0 26 1;
#X connect 26 0 15 5;
#X connect 27 0 15 6;
#X connect 28 0 27 1;
#X connect 29 0 15 7;
#X connect 31 0 0 1;
#X connect 32 0 15 2;
#X connect 33 0 15 3;
#X connect 34 0 15 4;
#X connect 35 0 18 1;
#X restore 52 459 pd update_b_adam;
#X connect 0 0 18 0;
#X connect 2 0 3 0;
#X connect 2 1 4 0;
#X connect 6 0 7 0;
#X connect 11 0 12 0;
#X connect 12 0 13 0;
#X connect 13 0 22 0;
#X connect 14 0 15 0;
#X connect 15 0 16 0;
#X connect 16 0 25 0;
#X connect 18 0 11 0;
#X connect 18 1 1 0;
#X connect 18 2 2 0;
#X connect 18 3 5 0;
#X connect 18 4 8 0;
#X connect 18 5 9 0;
#X connect 18 6 10 0;
#X connect 18 7 19 0;
#X connect 18 8 20 0;
#X connect 18 9 21 0;
#X connect 22 0 14 0;
#X connect 24 0 23 0;
#X connect 25 0 17 0;
