#N canvas 1185 297 1083 713 16;
#X obj 22 49 inlet bang;
#X obj 405 49 inlet s_param;
#X obj 728 49 inlet alpha;
#X obj 152 49 inlet num_values;
#X obj 131 132 f;
#X obj 22 82 t b b;
#X obj 405 82 t b s s, f 10;
#X obj 371 621 array set, f 14;
#X obj 371 381 array get, f 11;
#X msg 405 348 1;
#X obj 371 465 expr $f1 - ($f2 * $f3), f 45;
#X obj 131 160 cml.range;
#X obj 583 49 inlet s_Vdparam;
#X obj 583 82 t b s;
#X obj 549 381 array get;
#X msg 583 348 1;
#X obj 131 188 t f f f, f 25;
#X obj 22 670 outlet done;
#X connect 0 0 5 0;
#X connect 1 0 6 0;
#X connect 2 0 10 2;
#X connect 3 0 4 1;
#X connect 4 0 11 0;
#X connect 5 0 17 0;
#X connect 5 1 4 0;
#X connect 6 0 9 0;
#X connect 6 1 8 2;
#X connect 6 2 7 2;
#X connect 8 0 10 0;
#X connect 9 0 8 1;
#X connect 10 0 7 0;
#X connect 11 0 16 0;
#X connect 12 0 13 0;
#X connect 13 0 15 0;
#X connect 13 1 14 2;
#X connect 14 0 10 1;
#X connect 15 0 14 1;
#X connect 16 0 8 0;
#X connect 16 1 7 1;
#X connect 16 2 14 0;
