#N canvas 0 66 3440 1340 16;
#X obj 87 3 inlet bang;
#X obj 1081 618 t b s;
#X obj 1049 681 array get;
#X msg 1083 648 1;
#X obj 988 639 t b s;
#X obj 956 702 array get;
#X msg 990 669 1;
#X obj 185 36 t f f;
#X obj 415 36 t f f;
#X obj 847 1296 array set, f 48;
#X obj 847 969 cml.plus_equal;
#X obj 222 65 v \$0_m;
#X obj 164 92 f;
#X obj 164 120 cml.range;
#X obj 394 236 f;
#X obj 624 376 f;
#X obj 394 264 cml.range;
#X obj 321 186 v \$0_i;
#X obj 559 330 v \$0_j;
#X obj 624 404 cml.range, f 14;
#X obj 661 470 v \$0_k;
#X obj 685 569 *, f 8;
#X obj 452 65 v \$0_p;
#X obj 707 65 v \$0_n;
#X obj 685 536 v \$0_i;
#X obj 746 536 v \$0_n;
#X obj 624 603 +, f 8;
#X obj 624 570 v \$0_k;
#X obj 870 569 *, f 8;
#X obj 809 603 +, f 8;
#X obj 956 936 *, f 12;
#X obj 624 437 t b f;
#X obj 624 503 t b b b b b b, f 39;
#X text 697 602 // A_index;
#X text 878 599 // B_index;
#X obj 164 153 t b f, f 20;
#X obj 394 297 t b f, f 21;
#X obj 924 822 *, f 8;
#X obj 863 856 +, f 8;
#X obj 985 789 v \$0_p;
#X obj 863 823 v \$0_j;
#X obj 924 789 v \$0_i;
#X text 931 855 // C_index;
#X obj 808 750 t b b b b, f 21;
#X obj 87 36 t b b, f 10;
#X obj 87 1289 outlet done;
#X text 129 462 // multiplying flattened matrices A (m x n) B (n x p) \; for i in range(m) \; ....for j in range(p) \; ........sum = 0 \; ........for k in range(n) \; ............sum += A[i*n + k] * B[k*p + j] \; ........C[i*p + j] = sum \;;
#X obj 809 570 v \$0_k;
#X obj 870 536 v \$0_j;
#X obj 931 536 v \$0_n;
#X text 128 620 // multiplying flattened matrices A(m x n) B(p x n).T \; for i in range(m) \; ....for j in range(p) \; ........sum = 0 \; ........for k in range(n) \; ............sum += A[i*n+k] * B[j*n+k] \; ........C[i*p+j] = sum \;;
#X text 134 427 // dW^[l] = 1/m dZ^[l]A^[l-1]T;
#X obj 988 3 inlet s_dz;
#X obj 1081 3 inlet s_a_prev;
#X obj 1228 3 inlet s_weights;
#X obj 185 3 inlet num_layer_nodes;
#X obj 415 3 inlet num_prev_layer_nodes;
#X obj 645 3 inlet num_examples;
#X obj 645 36 t f f f, f 16;
#X obj 847 1037 /;
#X obj 770 65 s \$0_num_examples;
#X obj 868 1005 r \$0_num_examples;
#X text 133 773 // NOTE: the variables i \, j \, k \, m \, n \, p in the patch refer to the formula above (although m is set but not used) \;;
#X text 244 119 // for i in range(num_nodes);
#X text 477 261 // for j in range(num_prev_nodes);
#X text 661 373 // for k in range(num_training_examples);
#X obj 1867 1201 array get;
#X msg 1901 1168 1;
#X obj 1901 36 t b s s, f 11;
#X obj 1725 1296 array set, f 33;
#X obj 1901 3 inlet s_sdw;
#X obj 1665 1234 expr $f3 * $f2 + (1 - $f3) * pow($f1 \, 2), f 51;
#X obj 2070 3 inlet rho;
#X text 137 831 // RMSProp \; SdW = rho * SdW + (1 - rho)dW^2 \;;
#X obj 1481 36 t b s s, f 11;
#X obj 1481 3 inlet s_vdw;
#X obj 1454 1201 array get;
#X msg 1488 1168 1;
#X obj 1360 1293 array set, f 26;
#X obj 1601 3 inlet mu;
#X obj 1308 1234 expr $f3 * $f2 + (1 - $f3) * $f1, f 37;
#X obj 863 889 t f f f f f, f 80;
#X obj 847 1080 t f f f, f 82;
#X connect 0 0 44 0;
#X connect 1 0 3 0;
#X connect 1 1 2 2;
#X connect 2 0 30 1;
#X connect 3 0 2 1;
#X connect 4 0 6 0;
#X connect 4 1 5 2;
#X connect 5 0 30 0;
#X connect 6 0 5 1;
#X connect 7 0 12 1;
#X connect 7 1 11 0;
#X connect 8 0 14 1;
#X connect 8 1 22 0;
#X connect 10 0 59 0;
#X connect 12 0 13 0;
#X connect 13 0 35 0;
#X connect 14 0 16 0;
#X connect 15 0 19 0;
#X connect 16 0 36 0;
#X connect 19 0 31 0;
#X connect 19 1 43 0;
#X connect 21 0 26 1;
#X connect 24 0 21 0;
#X connect 25 0 21 1;
#X connect 26 0 5 0;
#X connect 27 0 26 0;
#X connect 28 0 29 1;
#X connect 29 0 2 0;
#X connect 30 0 10 1;
#X connect 31 0 32 0;
#X connect 31 1 20 0;
#X connect 32 0 27 0;
#X connect 32 1 24 0;
#X connect 32 2 25 0;
#X connect 32 3 47 0;
#X connect 32 4 48 0;
#X connect 32 5 49 0;
#X connect 35 0 14 0;
#X connect 35 1 17 0;
#X connect 36 0 15 0;
#X connect 36 1 18 0;
#X connect 37 0 38 1;
#X connect 38 0 81 0;
#X connect 39 0 37 1;
#X connect 40 0 38 0;
#X connect 41 0 37 0;
#X connect 43 0 10 0;
#X connect 43 1 40 0;
#X connect 43 2 41 0;
#X connect 43 3 39 0;
#X connect 44 0 45 0;
#X connect 44 1 12 0;
#X connect 47 0 29 0;
#X connect 48 0 28 0;
#X connect 49 0 28 1;
#X connect 52 0 4 0;
#X connect 53 0 1 0;
#X connect 54 0 9 2;
#X connect 55 0 7 0;
#X connect 56 0 8 0;
#X connect 57 0 58 0;
#X connect 58 0 15 1;
#X connect 58 1 23 0;
#X connect 58 2 60 0;
#X connect 59 0 82 0;
#X connect 61 0 59 1;
#X connect 66 0 71 1;
#X connect 67 0 66 1;
#X connect 68 0 67 0;
#X connect 68 1 66 2;
#X connect 68 2 69 2;
#X connect 70 0 68 0;
#X connect 71 0 69 0;
#X connect 72 0 71 2;
#X connect 74 0 77 0;
#X connect 74 1 76 2;
#X connect 74 2 78 2;
#X connect 75 0 74 0;
#X connect 76 0 80 1;
#X connect 77 0 76 1;
#X connect 79 0 80 2;
#X connect 80 0 78 0;
#X connect 81 0 9 1;
#X connect 81 1 78 1;
#X connect 81 2 76 0;
#X connect 81 3 69 1;
#X connect 81 4 66 0;
#X connect 82 0 9 0;
#X connect 82 1 80 0;
#X connect 82 2 71 0;
