#N canvas 491 257 865 939 16;
#X obj 86 57 inlet bang;
#X obj 216 57 inlet size;
#X obj 366 57 inlet s_a_0;
#X obj 511 57 inlet s_a_1;
#X obj 644 57 inlet s_result;
#X obj 195 173 f;
#X obj 195 201 cml.range;
#X obj 195 229 t f f f, f 37;
#X obj 195 416 array get;
#X obj 341 416 array get;
#X obj 575 766 array set;
#X obj 265 489 -;
#X obj 86 90 t b b;
#X obj 86 806 outlet done;
#X msg 229 383 1;
#X msg 375 383 1;
#X obj 366 90 t b s;
#X obj 511 90 t b s;
#X connect 0 0 12 0;
#X connect 1 0 5 1;
#X connect 2 0 16 0;
#X connect 3 0 17 0;
#X connect 4 0 10 2;
#X connect 5 0 6 0;
#X connect 6 0 7 0;
#X connect 7 0 8 0;
#X connect 7 1 9 0;
#X connect 7 2 10 1;
#X connect 8 0 11 0;
#X connect 9 0 11 1;
#X connect 11 0 10 0;
#X connect 12 0 13 0;
#X connect 12 1 5 0;
#X connect 14 0 8 1;
#X connect 15 0 9 1;
#X connect 16 0 14 0;
#X connect 16 1 8 2;
#X connect 17 0 15 0;
#X connect 17 1 9 2;
