#N canvas 1760 133 743 899 16;
#X text 52 13 // db^[l] = 1/m sum(dZ^[l]) \;;
#X obj 28 52 inlet bang;
#X obj 279 517 array sum;
#X obj 353 718 array set;
#X obj 299 584 /, f 8;
#X obj 28 823 outlet done;
#X obj 28 85 t b b;
#X obj 458 52 inlet dz;
#X obj 582 52 inlet db;
#X obj 267 52 inlet m;
#X obj 128 52 inlet n;
#X obj 107 145 f;
#X obj 107 173 cml.range;
#X obj 177 234 *;
#X obj 267 85 t f f f, f 12;
#X obj 107 201 t b f f, f 18;
#X connect 1 0 6 0;
#X connect 2 0 4 0;
#X connect 4 0 3 0;
#X connect 6 0 5 0;
#X connect 6 1 11 0;
#X connect 7 0 2 2;
#X connect 8 0 3 2;
#X connect 9 0 14 0;
#X connect 10 0 11 1;
#X connect 11 0 12 0;
#X connect 12 0 15 0;
#X connect 13 0 2 0;
#X connect 14 0 13 1;
#X connect 14 1 2 1;
#X connect 14 2 4 1;
#X connect 15 0 2 0;
#X connect 15 1 13 0;
#X connect 15 2 3 1;
