#N canvas 631 47 1244 912 16;
#X obj 204 98 inlet row_number;
#X obj 351 98 inlet num_columns;
#X text 493 97 // e.g. m;
#X obj 943 99 inlet s_array;
#X obj 591 595 array get;
#X obj 1104 99 inlet d0;
#X obj 980 366 cml.d0;
#X obj 36 98 inlet index;
#X msg 625 562 1;
#X obj 309 341 *;
#X obj 591 833 outlet;
#X obj 288 374 +;
#X obj 183 204 f;
#X obj 943 165 t s s;
#X msg 943 441 set Index out of range for \$1;
#X msg 943 744;
#X obj 456 263 <=;
#X obj 456 291 sel 1;
#X obj 943 777 print;
#X obj 330 194 f;
#X obj 943 132 symbol;
#X obj 330 222 t f f, f 6;
#X obj 591 628 route float bang;
#X obj 653 661 t b b, f 16;
#X obj 456 682 t b b, f 20;
#X msg 652 728 0;
#X obj 36 131 t f b b f b, f 74;
#X obj 625 164 s \$0_init;
#X obj 625 534 r \$0_init;
#X msg 692 728 1;
#X obj 692 700 r \$0_init;
#X obj 591 766 spigot, f 8;
#X text 37 11 // Returns the value found at row_number/index of a conceptual 2D matrix \; Out-of-range errors return a bang \;;
#X msg 839 662 0;
#X msg 879 662 1;
#X obj 879 634 r \$0_init;
#X obj 778 700 spigot, f 8;
#X obj 456 324 t b b b, f 23;
#X text 96 491 // This catches all cases (except for negative index values) but it's a mess;
#X connect 0 0 12 1;
#X connect 1 0 19 1;
#X connect 3 0 20 0;
#X connect 4 0 22 0;
#X connect 5 0 6 1;
#X connect 6 0 4 2;
#X connect 7 0 26 0;
#X connect 8 0 4 1;
#X connect 9 0 11 1;
#X connect 11 0 4 0;
#X connect 12 0 9 0;
#X connect 13 0 14 0;
#X connect 13 1 6 0;
#X connect 14 0 15 0;
#X connect 15 0 18 0;
#X connect 16 0 17 0;
#X connect 17 0 37 0;
#X connect 19 0 21 0;
#X connect 20 0 13 0;
#X connect 21 0 9 1;
#X connect 21 1 16 0;
#X connect 22 0 31 0;
#X connect 22 1 23 0;
#X connect 23 0 31 0;
#X connect 23 1 36 0;
#X connect 24 0 10 0;
#X connect 24 1 25 0;
#X connect 25 0 31 1;
#X connect 26 0 11 0;
#X connect 26 1 12 0;
#X connect 26 2 19 0;
#X connect 26 3 16 1;
#X connect 26 4 27 0;
#X connect 28 0 8 0;
#X connect 29 0 31 1;
#X connect 30 0 29 0;
#X connect 31 0 10 0;
#X connect 33 0 36 1;
#X connect 34 0 36 1;
#X connect 35 0 34 0;
#X connect 36 0 15 0;
#X connect 37 0 24 0;
#X connect 37 1 33 0;
#X connect 37 2 15 0;
