#N canvas 1833 455 1075 848 16;
#X obj 240 103 inlet row_number;
#X obj 853 103 inlet s_array;
#X obj 994 103 inlet d0;
#X obj 853 366 cml.d0;
#X obj 853 136 symbol;
#X obj 363 542 array set;
#X obj 638 103 inlet num_columns;
#X obj 617 169 f;
#X obj 219 169 f;
#X text 624 28 // NOTE: this implementation has no error checking;
#X obj 20 103 inlet value;
#X obj 20 135 t f b b b, f 75;
#X obj 439 103 inlet index;
#X obj 418 169 f;
#X obj 397 382 +;
#X obj 219 277 *;
#X text 638 79 // e.g.: m;
#X text 23 13 // Set the value for a conceptual "row" at index \;;
#X connect 0 0 8 1;
#X connect 1 0 4 0;
#X connect 2 0 3 1;
#X connect 3 0 5 2;
#X connect 4 0 3 0;
#X connect 6 0 7 1;
#X connect 7 0 15 1;
#X connect 8 0 15 0;
#X connect 10 0 11 0;
#X connect 11 0 5 0;
#X connect 11 1 8 0;
#X connect 11 2 13 0;
#X connect 11 3 7 0;
#X connect 12 0 13 1;
#X connect 13 0 14 1;
#X connect 14 0 5 1;
#X connect 15 0 14 0;
