#N canvas 1724 70 1712 1332 16;
#X obj 977 65 inlet s_b;
#X obj 1174 65 inlet s_Z;
#X obj 33 65 inlet n;
#X obj 443 65 inlet n_prev;
#X text 826 28 // (n_prev x m);
#X text 976 35 // (n x 1);
#X text 617 28 // (n x n_prev);
#X text 1179 37 // (n x m);
#X obj 709 461 cml.get_element;
#X obj 900 846 cml.get_element;
#X obj 156 65 inlet m;
#X msg 978 813 1;
#X obj 978 719 t b s;
#X obj 238 131 s \$0_n;
#X obj 193 164 s \$0_m;
#X obj 1144 1113 r \$0_m;
#X obj 939 785 r \$0_n;
#X obj 1115 1085 r \$0_n;
#X obj 135 213 f;
#X obj 33 98 t b b f, f 26;
#X obj 135 246 cml.range;
#X obj 824 989 +;
#X obj 156 131 t f f;
#X obj 422 309 f;
#X obj 422 352 cml.range;
#X obj 1057 1146 cml.set_element;
#X obj 688 580 *;
#X text 220 248 // for i in range(m);
#X text 508 352 // for j in range(n_prev);
#X msg 900 813 0;
#X obj 579 807 cml.plus_equal;
#X obj 135 274 t b b f f, f 108;
#X obj 611 65 inlet s_W;
#X obj 826 65 inlet s_n_prev;
#X obj 422 466 cml.get_element, f 24;
#X obj 548 433 r \$0_n_prev;
#X obj 485 433 r \$0_n;
#X obj 787 428 r \$0_m;
#X obj 422 400 t f f, f 41;
#X obj 33 922 outlet done;
#X obj 135 613 t b b, f 96;
#X obj 927 916 print b;
#X obj 400 522 print w;
#X obj 746 510 print x;
#X connect 0 0 12 0;
#X connect 1 0 25 4;
#X connect 2 0 19 0;
#X connect 3 0 23 1;
#X connect 8 0 26 1;
#X connect 8 0 43 0;
#X connect 9 0 21 1;
#X connect 9 0 41 0;
#X connect 10 0 22 0;
#X connect 11 0 9 2;
#X connect 12 0 11 0;
#X connect 12 1 9 3;
#X connect 15 0 25 3;
#X connect 16 0 9 1;
#X connect 17 0 25 2;
#X connect 18 0 20 0;
#X connect 19 0 39 0;
#X connect 19 1 18 0;
#X connect 19 2 13 0;
#X connect 20 0 31 0;
#X connect 21 0 25 0;
#X connect 22 0 18 1;
#X connect 22 1 14 0;
#X connect 23 0 24 0;
#X connect 24 0 38 0;
#X connect 26 0 30 1;
#X connect 29 0 9 0;
#X connect 30 0 21 0;
#X connect 31 0 40 0;
#X connect 31 1 23 0;
#X connect 31 2 8 0;
#X connect 31 3 25 1;
#X connect 32 0 34 3;
#X connect 33 0 8 3;
#X connect 34 0 26 0;
#X connect 34 0 42 0;
#X connect 35 0 34 2;
#X connect 36 0 34 1;
#X connect 37 0 8 2;
#X connect 38 0 34 0;
#X connect 38 1 8 1;
#X connect 40 0 30 0;
#X connect 40 1 29 0;
