#N canvas 1088 281 1430 729 16;
#X obj 22 49 inlet bang;
#X obj 541 49 inlet s_param;
#X obj 731 49 inlet s_dparam;
#X obj 888 49 inlet alpha;
#X obj 152 49 inlet num_values;
#X obj 131 132 f;
#X obj 22 82 t b b;
#X obj 541 82 t b s s, f 10;
#X obj 507 621 array set, f 14;
#X obj 507 381 array get;
#X msg 541 348 1;
#X obj 731 82 t b s;
#X obj 697 384 array get;
#X msg 731 351 1;
#X obj 507 515 expr $f1 - ($f2 * $f3), f 48;
#X obj 131 160 cml.range;
#X obj 1018 49 inlet momentum;
#X obj 1198 49 inlet s_Vdparam;
#X obj 1018 82 s \$0_momentum;
#N canvas 1495 586 295 231 use_momentum 0;
#X obj 124 57 r \$0_momentum;
#X obj 103 90 f 0;
#X obj 103 118 == 1;
#X obj 42 146 spigot 0;
#X obj 42 54 t a b;
#X obj 42 179 outlet;
#X obj 42 21 inlet;
#X connect 0 0 1 1;
#X connect 1 0 2 0;
#X connect 2 0 3 1;
#X connect 3 0 5 0;
#X connect 4 0 3 0;
#X connect 4 1 1 0;
#X connect 6 0 4 0;
#X restore 432 221 pd use_momentum;
#X obj 1198 82 t b s;
#X obj 808 384 array get;
#X msg 842 351 1;
#N canvas 1495 586 283 250 use_gd 0;
#X obj 102 55 r \$0_momentum;
#X obj 81 88 f 0;
#X obj 20 144 spigot 0;
#X obj 81 116 != 1;
#X obj 20 52 t a b;
#X obj 20 177 outlet;
#X obj 20 19 inlet;
#X connect 0 0 1 1;
#X connect 1 0 3 0;
#X connect 2 0 5 0;
#X connect 3 0 2 1;
#X connect 4 0 2 0;
#X connect 4 1 1 0;
#X connect 6 0 4 0;
#X restore 331 220 pd use_gd;
#X obj 131 188 t f f f f, f 38;
#X connect 0 0 6 0;
#X connect 1 0 7 0;
#X connect 2 0 11 0;
#X connect 3 0 14 2;
#X connect 4 0 5 1;
#X connect 5 0 15 0;
#X connect 6 1 5 0;
#X connect 7 0 10 0;
#X connect 7 1 9 2;
#X connect 7 2 8 2;
#X connect 9 0 14 0;
#X connect 10 0 9 1;
#X connect 11 0 13 0;
#X connect 11 1 12 2;
#X connect 12 0 14 1;
#X connect 13 0 12 1;
#X connect 14 0 8 0;
#X connect 15 0 24 0;
#X connect 16 0 18 0;
#X connect 17 0 20 0;
#X connect 19 0 21 0;
#X connect 20 0 22 0;
#X connect 20 1 21 2;
#X connect 21 0 14 1;
#X connect 22 0 21 1;
#X connect 23 0 12 0;
#X connect 24 0 9 0;
#X connect 24 1 8 1;
#X connect 24 2 23 0;
#X connect 24 3 19 0;
