#N canvas 267 540 1011 682 16;
#X obj 39 55 inlet bang;
#X obj 424 55 inlet s_z;
#X obj 533 55 inlet s_a;
#X obj 653 55 inlet activation_type;
#X obj 849 55 inlet leak;
#X obj 392 436 cml.activation_functions, f 33;
#X obj 180 121 f;
#X obj 39 88 t b b, f 18;
#X obj 180 187 cml.range;
#X obj 424 88 t b s;
#X obj 392 331 array get;
#X msg 426 298 1;
#X obj 180 220 t f f, f 21;
#X obj 392 572 array set, f 18;
#X obj 39 615 outlet done;
#X obj 233 55 inlet n;
#X obj 331 55 inlet m;
#X obj 180 154 *;
#X connect 0 0 7 0;
#X connect 1 0 9 0;
#X connect 2 0 13 2;
#X connect 3 0 5 2;
#X connect 4 0 5 1;
#X connect 5 0 13 0;
#X connect 6 0 17 0;
#X connect 7 0 14 0;
#X connect 7 1 6 0;
#X connect 8 0 12 0;
#X connect 9 0 11 0;
#X connect 9 1 10 2;
#X connect 10 0 5 0;
#X connect 11 0 10 1;
#X connect 12 0 10 0;
#X connect 12 1 13 1;
#X connect 15 0 6 1;
#X connect 16 0 17 1;
#X connect 17 0 8 0;
