#N canvas 1765 497 860 603 16;
#X obj 35 37 inlet;
#X obj 675 37 inlet dollar_zero;
#X obj 675 70 s \$0_ns;
#X obj 35 70 route bang layer_number layer_dims scale, f 75;
#X obj 184 103 s \$0_l;
#X obj 333 103 list split 1;
#X obj 333 164 s \$0_n;
#X obj 379 131 s \$0_n_prev;
#X obj 179 221 r \$0_n;
#X obj 225 254 r \$0_n_prev;
#X obj 204 287 *;
#X obj 158 254 f;
#X obj 347 254 r \$0_l;
#X obj 472 254 r \$0_ns;
#X obj 347 287 cml.array_name W;
#X obj 61 320 cml.initialize_params, f 54;
#X obj 35 103 t b b b;
#X obj 482 103 s \$0_scale;
#X obj 490 287 r \$0_scale;
#X obj 204 396 r \$0_n;
#X obj 347 363 r \$0_l;
#X obj 472 363 r \$0_ns;
#X obj 61 429 cml.initialize_params, f 54;
#X obj 490 396 r \$0_scale;
#X obj 347 396 cml.array_name b;
#X obj 35 472 outlet done;
#X connect 0 0 3 0;
#X connect 1 0 2 0;
#X connect 3 0 16 0;
#X connect 3 1 4 0;
#X connect 3 2 5 0;
#X connect 3 3 17 0;
#X connect 5 0 6 0;
#X connect 5 1 7 0;
#X connect 8 0 11 1;
#X connect 9 0 10 1;
#X connect 10 0 15 1;
#X connect 11 0 10 0;
#X connect 12 0 14 0;
#X connect 13 0 14 1;
#X connect 14 0 15 2;
#X connect 15 0 22 0;
#X connect 16 0 25 0;
#X connect 16 1 15 0;
#X connect 16 2 11 0;
#X connect 18 0 15 3;
#X connect 19 0 22 1;
#X connect 20 0 24 0;
#X connect 21 0 24 1;
#X connect 23 0 22 3;
#X connect 24 0 22 2;
