#N canvas 0 66 3440 1340 16;
#X obj 34 15 inlet;
#X obj 2198 19 inlet dollar_zero;
#X obj 296 85 list split 1;
#X obj 558 113 select relu tanh sigmoid linear;
#X msg 558 146 1;
#X msg 619 146 2;
#X msg 680 146 3;
#X msg 739 146 4;
#X msg 803 146 0;
#X obj 2198 52 s \$0_ns;
#X obj 165 85 s \$0_l;
#X obj 296 147 s \$0_n;
#X obj 342 113 s \$0_n_prev;
#X obj 690 85 s \$0_leak;
#X obj 680 207 s \$0_activation;
#X obj 558 86 symbol;
#X obj 821 85 s \$0_skip_dz;
#X obj 952 112 s \$0_initial_layer;
#X obj 427 85 s \$0_m;
#X obj 60 441 cml.dz, f 205;
#X obj 490 375 r \$0_m;
#X obj 694 342 r \$0_l;
#X obj 806 375 r \$0_ns;
#X obj 673 408 cml.array_name dA;
#X obj 899 342 r \$0_l;
#X obj 1003 375 r \$0_ns;
#X obj 878 408 cml.array_name Z;
#X obj 1208 375 r \$0_ns;
#X obj 1083 408 cml.array_name A;
#X obj 1420 375 r \$0_ns;
#X obj 1287 408 cml.array_name dZ;
#X obj 1513 375 r \$0_leak;
#X obj 1718 377 r \$0_activation;
#X obj 60 1052 cml.da, f 164;
#X obj 735 896 r \$0_n;
#X obj 299 986 r \$0_n_prev;
#X obj 517 986 r \$0_m;
#X obj 1283 986 r \$0_ns;
#X obj 1150 1019 cml.array_name dZ;
#X obj 1057 986 r \$0_ns;
#X obj 932 1019 cml.array_name W;
#X obj 1502 986 r \$0_ns;
#X obj 1369 986 + 1;
#X obj 34 1095 outlet bang;
#X obj 1369 1019 cml.array_name dA;
#X obj 285 375 r \$0_n;
#X obj 264 408 f;
#X obj 469 408 f;
#X obj 673 375 f;
#X obj 878 375 f;
#X obj 1104 342 r \$0_l;
#X obj 1083 375 f;
#X obj 1308 342 r \$0_l;
#X obj 1287 375 f;
#X obj 1492 408 f;
#X obj 1697 408 f;
#X obj 953 953 r \$0_l;
#X obj 932 986 f;
#X obj 1171 953 r \$0_l;
#X obj 1150 986 f;
#X obj 1390 920 r \$0_l;
#X obj 1369 953 f;
#X obj 278 1019 f;
#X obj 496 1019 f;
#X obj 714 929 f;
#X obj 1083 84 s \$0_momentum;
#X obj 34 180 t b b b;
#X obj 60 276 spigot 1;
#X obj 121 246 != 1;
#X obj 142 180 r \$0_skip_dz;
#X obj 121 213 f 0;
#X obj 60 309 t b b b b b b b b b, f 205;
#X obj 60 892 spigot 1;
#X obj 142 794 r \$0_initial_layer;
#X obj 121 860 != 1;
#X obj 121 827 f 0;
#X obj 60 920 t b b b b b b b, f 164;
#X obj 34 762 t b b b;
#X obj 1346 84 s \$0_rmsprop;
#X obj 1477 84 s \$0_rho;
#X obj 1608 84 s \$0_gd;
#X obj 1214 84 s \$0_mu;
#N canvas 873 562 1659 574 dw_gradient_descent 0;
#X obj 1226 233 r \$0_initial_layer;
#N canvas 1035 607 526 394 a_prev_for_layer 0;
#X obj 55 251 cml.array_name A;
#X obj 255 251 cml.input_name;
#X obj 76 160 r \$0_l;
#X obj 76 188 + 1;
#X obj 180 218 r \$0_ns;
#X obj 364 218 r \$0_ns;
#X obj 81 67 t f f, f 18;
#X obj 81 95 != 1;
#X obj 222 95 == 1;
#X obj 81 123 sel 1;
#X obj 222 123 sel 1;
#X obj 55 216 f;
#X obj 81 34 inlet;
#X obj 55 304 outlet;
#X connect 0 0 13 0;
#X connect 1 0 13 0;
#X connect 2 0 3 0;
#X connect 3 0 11 1;
#X connect 4 0 0 1;
#X connect 5 0 1 1;
#X connect 6 0 7 0;
#X connect 6 1 8 0;
#X connect 7 0 9 0;
#X connect 8 0 10 0;
#X connect 9 0 11 0;
#X connect 10 0 1 0;
#X connect 11 0 0 0;
#X connect 12 0 6 0;
#X restore 1205 299 pd a_prev_for_layer;
#X obj 310 266 r \$0_n;
#X obj 539 266 r \$0_n_prev;
#X obj 768 266 r \$0_m;
#X obj 1109 264 r \$0_ns;
#X obj 976 297 cml.array_name dZ;
#X obj 1567 266 r \$0_ns;
#X obj 1434 299 cml.array_name dW;
#X obj 61 332 cml.dw, f 172;
#X obj 1455 233 r \$0_l;
#X obj 1434 266 f;
#X obj 997 231 r \$0_l;
#X obj 976 264 f;
#X obj 1205 266 f 0;
#X obj 289 299 f;
#X obj 518 299 f;
#X obj 747 299 f;
#X obj 122 137 f;
#X obj 61 198 t b b b b b b b, f 172;
#X obj 143 83 r \$0_gd;
#X obj 61 170 spigot 0;
#X obj 35 55 inlet bang;
#X obj 35 365 outlet done;
#X obj 35 83 t b b b;
#X obj 156 111 r \$0_reset;
#X connect 0 0 14 1;
#X connect 1 0 9 5;
#X connect 2 0 15 1;
#X connect 3 0 16 1;
#X connect 4 0 17 1;
#X connect 5 0 6 1;
#X connect 6 0 9 4;
#X connect 7 0 8 1;
#X connect 8 0 9 6;
#X connect 10 0 11 1;
#X connect 11 0 8 0;
#X connect 12 0 13 1;
#X connect 13 0 6 0;
#X connect 14 0 1 0;
#X connect 15 0 9 1;
#X connect 16 0 9 2;
#X connect 17 0 9 3;
#X connect 18 0 21 1;
#X connect 19 0 9 0;
#X connect 19 1 15 0;
#X connect 19 2 16 0;
#X connect 19 3 17 0;
#X connect 19 4 13 0;
#X connect 19 5 14 0;
#X connect 19 6 11 0;
#X connect 20 0 18 1;
#X connect 21 0 19 0;
#X connect 22 0 24 0;
#X connect 24 0 23 0;
#X connect 24 1 21 0;
#X connect 24 2 18 0;
#X connect 25 0 18 1;
#X restore 34 474 pd dw_gradient_descent;
#N canvas 675 853 1832 549 dw_momentum 0;
#X obj 1128 244 r \$0_initial_layer;
#N canvas 1035 607 526 394 a_prev_for_layer 0;
#X obj 55 251 cml.array_name A;
#X obj 255 251 cml.input_name;
#X obj 76 160 r \$0_l;
#X obj 76 188 + 1;
#X obj 180 218 r \$0_ns;
#X obj 364 218 r \$0_ns;
#X obj 81 67 t f f, f 18;
#X obj 81 95 != 1;
#X obj 222 95 == 1;
#X obj 81 123 sel 1;
#X obj 222 123 sel 1;
#X obj 55 216 f;
#X obj 81 34 inlet;
#X obj 55 304 outlet;
#X connect 0 0 13 0;
#X connect 1 0 13 0;
#X connect 2 0 3 0;
#X connect 3 0 11 1;
#X connect 4 0 0 1;
#X connect 5 0 1 1;
#X connect 6 0 7 0;
#X connect 6 1 8 0;
#X connect 7 0 9 0;
#X connect 8 0 10 0;
#X connect 9 0 11 0;
#X connect 10 0 1 0;
#X connect 11 0 0 0;
#X connect 12 0 6 0;
#X restore 1107 310 pd a_prev_for_layer;
#X obj 305 277 r \$0_n;
#X obj 511 277 r \$0_n_prev;
#X obj 716 277 r \$0_m;
#X obj 1034 275 r \$0_ns;
#X obj 901 308 cml.array_name dZ;
#X obj 1445 275 r \$0_ns;
#X obj 1312 308 cml.array_name dW;
#X obj 1333 242 r \$0_l;
#X obj 1312 275 f;
#X obj 922 242 r \$0_l;
#X obj 901 275 f;
#X obj 1107 277 f 0;
#X obj 284 310 f;
#X obj 490 310 f;
#X obj 695 310 f;
#X obj 79 343 cml.dw_with_momentum, f 206;
#X obj 1659 275 r \$0_ns;
#X obj 1539 242 r \$0_l;
#X obj 1518 275 f;
#X obj 1518 308 cml.array_name VdW;
#X obj 1724 275 f;
#X obj 161 82 r \$0_momentum;
#X obj 140 150 f;
#X obj 79 183 spigot 0;
#X obj 79 211 t b b b b b b b b b, f 206;
#X obj 1745 242 r \$0_mu;
#X obj 53 68 inlet bang;
#X obj 53 96 t b b b;
#X obj 53 406 outlet done;
#X obj 184 110 r \$0_reset;
#X connect 0 0 13 1;
#X connect 1 0 17 5;
#X connect 2 0 14 1;
#X connect 3 0 15 1;
#X connect 4 0 16 1;
#X connect 5 0 6 1;
#X connect 6 0 17 4;
#X connect 7 0 8 1;
#X connect 8 0 17 6;
#X connect 9 0 10 1;
#X connect 10 0 8 0;
#X connect 11 0 12 1;
#X connect 12 0 6 0;
#X connect 13 0 1 0;
#X connect 14 0 17 1;
#X connect 15 0 17 2;
#X connect 16 0 17 3;
#X connect 18 0 21 1;
#X connect 19 0 20 1;
#X connect 20 0 21 0;
#X connect 21 0 17 7;
#X connect 22 0 17 8;
#X connect 23 0 24 1;
#X connect 24 0 25 1;
#X connect 25 0 26 0;
#X connect 26 0 17 0;
#X connect 26 1 14 0;
#X connect 26 2 15 0;
#X connect 26 3 16 0;
#X connect 26 4 12 0;
#X connect 26 5 13 0;
#X connect 26 6 10 0;
#X connect 26 7 20 0;
#X connect 26 8 22 0;
#X connect 27 0 22 1;
#X connect 28 0 29 0;
#X connect 29 0 30 0;
#X connect 29 1 25 0;
#X connect 29 2 24 0;
#X connect 31 0 24 1;
#X restore 34 507 pd dw_momentum;
#N canvas 162 320 1712 863 dw_rmsprop 0;
#X obj 61 369 cml.dw_rmsprop, f 207;
#X obj 122 174 f;
#X obj 61 207 spigot 0;
#X obj 143 113 r \$0_rmsprop;
#X obj 61 237 t b b b b b b b b b, f 207;
#X obj 1735 303 r \$0_rho;
#X obj 1714 336 f;
#X obj 1647 303 r \$0_ns;
#X obj 1528 270 r \$0_l;
#X obj 1507 303 f;
#X obj 1507 336 cml.array_name SdW;
#X obj 1115 270 r \$0_initial_layer;
#N canvas 1035 607 526 394 a_prev_for_layer 0;
#X obj 55 251 cml.array_name A;
#X obj 255 251 cml.input_name;
#X obj 76 160 r \$0_l;
#X obj 76 188 + 1;
#X obj 180 218 r \$0_ns;
#X obj 364 218 r \$0_ns;
#X obj 81 67 t f f, f 18;
#X obj 81 95 != 1;
#X obj 222 95 == 1;
#X obj 81 123 sel 1;
#X obj 222 123 sel 1;
#X obj 55 216 f;
#X obj 81 34 inlet;
#X obj 55 304 outlet;
#X connect 0 0 13 0;
#X connect 1 0 13 0;
#X connect 2 0 3 0;
#X connect 3 0 11 1;
#X connect 4 0 0 1;
#X connect 5 0 1 1;
#X connect 6 0 7 0;
#X connect 6 1 8 0;
#X connect 7 0 9 0;
#X connect 8 0 10 0;
#X connect 9 0 11 0;
#X connect 10 0 1 0;
#X connect 11 0 0 0;
#X connect 12 0 6 0;
#X restore 1094 336 pd a_prev_for_layer;
#X obj 288 303 r \$0_n;
#X obj 495 303 r \$0_n_prev;
#X obj 701 303 r \$0_m;
#X obj 1020 303 r \$0_ns;
#X obj 887 336 cml.array_name dZ;
#X obj 1433 303 r \$0_ns;
#X obj 1300 336 cml.array_name dW;
#X obj 1321 270 r \$0_l;
#X obj 1300 303 f;
#X obj 908 270 r \$0_l;
#X obj 887 303 f;
#X obj 1094 303 f 0;
#X obj 267 336 f;
#X obj 474 336 f;
#X obj 680 336 f;
#X obj 35 85 inlet bang;
#X obj 35 113 t b b b;
#X obj 35 432 outlet done;
#X obj 159 141 r \$0_reset;
#X connect 1 0 2 1;
#X connect 2 0 4 0;
#X connect 3 0 1 1;
#X connect 4 0 0 0;
#X connect 4 1 25 0;
#X connect 4 2 26 0;
#X connect 4 3 27 0;
#X connect 4 4 23 0;
#X connect 4 5 24 0;
#X connect 4 6 21 0;
#X connect 4 7 9 0;
#X connect 4 8 6 0;
#X connect 5 0 6 1;
#X connect 6 0 0 8;
#X connect 7 0 10 1;
#X connect 8 0 9 1;
#X connect 9 0 10 0;
#X connect 10 0 0 7;
#X connect 11 0 24 1;
#X connect 12 0 0 5;
#X connect 13 0 25 1;
#X connect 14 0 26 1;
#X connect 15 0 27 1;
#X connect 16 0 17 1;
#X connect 17 0 0 4;
#X connect 18 0 19 1;
#X connect 19 0 0 6;
#X connect 20 0 21 1;
#X connect 21 0 19 0;
#X connect 22 0 23 1;
#X connect 23 0 17 0;
#X connect 24 0 12 0;
#X connect 25 0 0 1;
#X connect 26 0 0 2;
#X connect 27 0 0 3;
#X connect 28 0 29 0;
#X connect 29 0 30 0;
#X connect 29 1 2 0;
#X connect 29 2 1 0;
#X connect 31 0 1 1;
#X restore 34 540 pd dw_rmsprop;
#N canvas 721 532 1262 484 db_gradient_descent 0;
#X obj 77 301 cml.db, f 108;
#X obj 313 235 r \$0_n;
#X obj 528 235 r \$0_m;
#X obj 855 235 r \$0_ns;
#X obj 722 268 cml.array_name dZ;
#X obj 1071 235 r \$0_ns;
#X obj 938 268 cml.array_name db;
#X obj 292 268 f;
#X obj 507 268 f;
#X obj 743 203 r \$0_l;
#X obj 722 236 f;
#X obj 959 202 r \$0_l;
#X obj 938 235 f;
#X obj 139 106 f;
#X obj 77 170 t b b b b b, f 108;
#X obj 160 40 r \$0_gd;
#X obj 78 139 spigot 0;
#X obj 52 12 inlet bang;
#X obj 52 40 t b b b;
#X obj 52 344 outlet done;
#X obj 174 68 r \$0_reset;
#X connect 1 0 7 1;
#X connect 2 0 8 1;
#X connect 3 0 4 1;
#X connect 4 0 0 3;
#X connect 5 0 6 1;
#X connect 6 0 0 4;
#X connect 7 0 0 1;
#X connect 8 0 0 2;
#X connect 9 0 10 1;
#X connect 10 0 4 0;
#X connect 11 0 12 1;
#X connect 12 0 6 0;
#X connect 13 0 16 1;
#X connect 14 0 0 0;
#X connect 14 1 7 0;
#X connect 14 2 8 0;
#X connect 14 3 10 0;
#X connect 14 4 12 0;
#X connect 15 0 13 1;
#X connect 16 0 14 0;
#X connect 17 0 18 0;
#X connect 18 0 19 0;
#X connect 18 1 16 0;
#X connect 18 2 13 0;
#X connect 20 0 13 1;
#X restore 34 623 pd db_gradient_descent;
#N canvas 386 515 1557 474 db_momentum 0;
#X obj 121 308 cml.db_with_momentum, f 153;
#X obj 203 55 r \$0_momentum;
#X obj 182 116 f;
#X obj 121 149 spigot 0;
#X obj 345 242 r \$0_n;
#X obj 549 242 r \$0_m;
#X obj 864 242 r \$0_ns;
#X obj 731 275 cml.array_name dZ;
#X obj 1068 242 r \$0_ns;
#X obj 935 275 cml.array_name db;
#X obj 324 275 f;
#X obj 528 275 f;
#X obj 752 210 r \$0_l;
#X obj 731 243 f;
#X obj 956 209 r \$0_l;
#X obj 935 242 f;
#X obj 1279 242 r \$0_ns;
#X obj 1159 209 r \$0_l;
#X obj 1138 242 f;
#X obj 1138 275 cml.array_name Vdb;
#X obj 1342 275 f;
#X obj 121 177 t b b b b b b b, f 153;
#X obj 1363 242 r \$0_mu;
#X obj 95 55 t b b b;
#X obj 95 351 outlet done;
#X obj 95 27 inlet bang;
#X obj 227 83 r \$0_reset;
#X connect 1 0 2 1;
#X connect 2 0 3 1;
#X connect 3 0 21 0;
#X connect 4 0 10 1;
#X connect 5 0 11 1;
#X connect 6 0 7 1;
#X connect 7 0 0 3;
#X connect 8 0 9 1;
#X connect 9 0 0 4;
#X connect 10 0 0 1;
#X connect 11 0 0 2;
#X connect 12 0 13 1;
#X connect 13 0 7 0;
#X connect 14 0 15 1;
#X connect 15 0 9 0;
#X connect 16 0 19 1;
#X connect 17 0 18 1;
#X connect 18 0 19 0;
#X connect 19 0 0 5;
#X connect 20 0 0 6;
#X connect 21 0 0 0;
#X connect 21 1 10 0;
#X connect 21 2 11 0;
#X connect 21 3 13 0;
#X connect 21 4 15 0;
#X connect 21 5 18 0;
#X connect 21 6 20 0;
#X connect 22 0 20 1;
#X connect 23 0 24 0;
#X connect 23 1 3 0;
#X connect 23 2 2 0;
#X connect 25 0 23 0;
#X connect 26 0 2 1;
#X restore 34 656 pd db_momentum;
#N canvas 663 500 1512 549 db_rmsprop 0;
#X obj 81 310 cml.db_rmsprop, f 157;
#X obj 142 121 f;
#X obj 81 154 spigot 0;
#X obj 163 60 r \$0_rmsprop;
#X obj 81 182 t b b b b b b b, f 157;
#X obj 310 244 r \$0_n;
#X obj 519 244 r \$0_m;
#X obj 840 244 r \$0_ns;
#X obj 707 277 cml.array_name dZ;
#X obj 1049 244 r \$0_ns;
#X obj 916 277 cml.array_name db;
#X obj 289 277 f;
#X obj 498 277 f;
#X obj 728 212 r \$0_l;
#X obj 707 245 f;
#X obj 937 211 r \$0_l;
#X obj 916 244 f;
#X obj 1266 244 r \$0_ns;
#X obj 1146 211 r \$0_l;
#X obj 1125 244 f;
#X obj 1334 277 f;
#X obj 1125 277 cml.array_name Sdb;
#X obj 1355 244 r \$0_rho;
#X obj 55 32 inlet bang;
#X obj 55 60 t b b b;
#X obj 55 353 outlet done;
#X obj 179 88 r \$0_reset;
#X connect 1 0 2 1;
#X connect 2 0 4 0;
#X connect 3 0 1 1;
#X connect 4 0 0 0;
#X connect 4 1 11 0;
#X connect 4 2 12 0;
#X connect 4 3 14 0;
#X connect 4 4 16 0;
#X connect 4 5 19 0;
#X connect 4 6 20 0;
#X connect 5 0 11 1;
#X connect 6 0 12 1;
#X connect 7 0 8 1;
#X connect 8 0 0 3;
#X connect 9 0 10 1;
#X connect 10 0 0 4;
#X connect 11 0 0 1;
#X connect 12 0 0 2;
#X connect 13 0 14 1;
#X connect 14 0 8 0;
#X connect 15 0 16 1;
#X connect 16 0 10 0;
#X connect 17 0 21 1;
#X connect 18 0 19 1;
#X connect 19 0 21 0;
#X connect 20 0 0 6;
#X connect 21 0 0 5;
#X connect 22 0 20 1;
#X connect 23 0 24 0;
#X connect 24 0 25 0;
#X connect 24 1 2 0;
#X connect 24 2 1 0;
#X connect 26 0 1 1;
#X restore 34 689 pd db_rmsprop;
#X obj 34 52 route bang layer_number layer_dims m activation leak skip_dz initial_layer momentum mu rmsprop rho gd adam, f 230;
#N canvas 235 428 2233 597 dw_adam 0;
#X obj 122 174 f;
#X obj 61 207 spigot 0;
#X obj 2119 303 r \$0_rho;
#X obj 2098 336 f;
#X obj 2034 303 r \$0_ns;
#X obj 1915 270 r \$0_l;
#X obj 1894 303 f;
#X obj 1894 336 cml.array_name SdW;
#X obj 1100 270 r \$0_initial_layer;
#N canvas 1035 607 526 394 a_prev_for_layer 0;
#X obj 55 251 cml.array_name A;
#X obj 255 251 cml.input_name;
#X obj 76 160 r \$0_l;
#X obj 76 188 + 1;
#X obj 180 218 r \$0_ns;
#X obj 364 218 r \$0_ns;
#X obj 81 67 t f f, f 18;
#X obj 81 95 != 1;
#X obj 222 95 == 1;
#X obj 81 123 sel 1;
#X obj 222 123 sel 1;
#X obj 55 216 f;
#X obj 81 34 inlet;
#X obj 55 304 outlet;
#X connect 0 0 13 0;
#X connect 1 0 13 0;
#X connect 2 0 3 0;
#X connect 3 0 11 1;
#X connect 4 0 0 1;
#X connect 5 0 1 1;
#X connect 6 0 7 0;
#X connect 6 1 8 0;
#X connect 7 0 9 0;
#X connect 8 0 10 0;
#X connect 9 0 11 0;
#X connect 10 0 1 0;
#X connect 11 0 0 0;
#X connect 12 0 6 0;
#X restore 1079 336 pd a_prev_for_layer;
#X obj 285 303 r \$0_n;
#X obj 489 303 r \$0_n_prev;
#X obj 693 303 r \$0_m;
#X obj 1008 303 r \$0_ns;
#X obj 875 336 cml.array_name dZ;
#X obj 1416 303 r \$0_ns;
#X obj 1283 336 cml.array_name dW;
#X obj 1304 270 r \$0_l;
#X obj 1283 303 f;
#X obj 896 270 r \$0_l;
#X obj 875 303 f;
#X obj 1079 303 f 0;
#X obj 264 336 f;
#X obj 468 336 f;
#X obj 672 336 f;
#X obj 35 85 inlet bang;
#X obj 35 113 t b b b;
#X obj 35 432 outlet done;
#X obj 61 369 cml.dw_adam, f 255;
#X obj 61 237 t b b b b b b b b b b b, f 255;
#X obj 1627 303 r \$0_ns;
#X obj 1507 270 r \$0_l;
#X obj 1486 303 f;
#X obj 1486 336 cml.array_name VdW;
#X obj 1690 336 f;
#X obj 1711 303 r \$0_mu;
#X obj 143 116 r \$0_adam;
#X obj 158 144 r \$0_reset;
#X connect 0 0 1 1;
#X connect 1 0 29 0;
#X connect 2 0 3 1;
#X connect 3 0 28 10;
#X connect 4 0 7 1;
#X connect 5 0 6 1;
#X connect 6 0 7 0;
#X connect 7 0 28 9;
#X connect 8 0 21 1;
#X connect 9 0 28 5;
#X connect 10 0 22 1;
#X connect 11 0 23 1;
#X connect 12 0 24 1;
#X connect 13 0 14 1;
#X connect 14 0 28 4;
#X connect 15 0 16 1;
#X connect 16 0 28 6;
#X connect 17 0 18 1;
#X connect 18 0 16 0;
#X connect 19 0 20 1;
#X connect 20 0 14 0;
#X connect 21 0 9 0;
#X connect 22 0 28 1;
#X connect 23 0 28 2;
#X connect 24 0 28 3;
#X connect 25 0 26 0;
#X connect 26 0 27 0;
#X connect 26 1 1 0;
#X connect 26 2 0 0;
#X connect 29 0 28 0;
#X connect 29 1 22 0;
#X connect 29 2 23 0;
#X connect 29 3 24 0;
#X connect 29 4 20 0;
#X connect 29 5 21 0;
#X connect 29 6 18 0;
#X connect 29 7 32 0;
#X connect 29 8 34 0;
#X connect 29 9 6 0;
#X connect 29 10 3 0;
#X connect 30 0 33 1;
#X connect 31 0 32 1;
#X connect 32 0 33 0;
#X connect 33 0 28 7;
#X connect 34 0 28 8;
#X connect 35 0 34 1;
#X connect 36 0 0 1;
#X connect 37 0 0 1;
#X restore 34 573 pd dw_adam;
#X obj 1739 84 s \$0_adam;
#N canvas 115 544 2187 569 db_adam 0;
#X obj 142 121 f;
#X obj 81 154 spigot 0;
#X obj 311 248 r \$0_n;
#X obj 521 248 r \$0_m;
#X obj 842 248 r \$0_ns;
#X obj 709 281 cml.array_name dZ;
#X obj 1052 248 r \$0_ns;
#X obj 919 281 cml.array_name db;
#X obj 290 281 f;
#X obj 500 281 f;
#X obj 730 216 r \$0_l;
#X obj 709 249 f;
#X obj 940 215 r \$0_l;
#X obj 919 248 f;
#X obj 1270 248 r \$0_ns;
#X obj 1150 215 r \$0_l;
#X obj 1129 248 f;
#X obj 1338 281 f;
#X obj 55 32 inlet bang;
#X obj 55 60 t b b b;
#X obj 55 377 outlet done;
#X obj 163 60 r \$0_adam;
#X obj 1689 248 r \$0_ns;
#X obj 1569 215 r \$0_l;
#X obj 1548 248 f;
#X obj 1758 281 f;
#X obj 1548 281 cml.array_name Sdb;
#X obj 1779 248 r \$0_rho;
#X obj 1129 281 cml.array_name Vdb;
#X obj 1359 248 r \$0_mu;
#X obj 81 314 cml.db_adam, f 210;
#X obj 81 182 t b b b b b b b b b, f 210;
#X obj 176 88 r \$0_reset;
#X connect 0 0 1 1;
#X connect 1 0 31 0;
#X connect 2 0 8 1;
#X connect 3 0 9 1;
#X connect 4 0 5 1;
#X connect 5 0 30 3;
#X connect 6 0 7 1;
#X connect 7 0 30 4;
#X connect 8 0 30 1;
#X connect 9 0 30 2;
#X connect 10 0 11 1;
#X connect 11 0 5 0;
#X connect 12 0 13 1;
#X connect 13 0 7 0;
#X connect 14 0 28 1;
#X connect 15 0 16 1;
#X connect 16 0 28 0;
#X connect 17 0 30 6;
#X connect 18 0 19 0;
#X connect 19 0 20 0;
#X connect 19 1 1 0;
#X connect 19 2 0 0;
#X connect 21 0 0 1;
#X connect 22 0 26 1;
#X connect 23 0 24 1;
#X connect 24 0 26 0;
#X connect 25 0 30 8;
#X connect 26 0 30 7;
#X connect 27 0 25 1;
#X connect 28 0 30 5;
#X connect 29 0 17 1;
#X connect 31 0 30 0;
#X connect 31 1 8 0;
#X connect 31 2 9 0;
#X connect 31 3 11 0;
#X connect 31 4 13 0;
#X connect 31 5 16 0;
#X connect 31 6 17 0;
#X connect 31 7 24 0;
#X connect 31 8 25 0;
#X connect 32 0 0 1;
#X restore 34 722 pd db_adam;
#X obj 1988 85 s \$0_reset;
#X msg 1988 52 0;
#X obj 1988 19 inlet reset_optimizer;
#X connect 0 0 88 0;
#X connect 1 0 9 0;
#X connect 2 0 11 0;
#X connect 2 1 12 0;
#X connect 3 0 4 0;
#X connect 3 1 5 0;
#X connect 3 2 6 0;
#X connect 3 3 7 0;
#X connect 3 4 8 0;
#X connect 4 0 14 0;
#X connect 5 0 14 0;
#X connect 6 0 14 0;
#X connect 7 0 14 0;
#X connect 8 0 14 0;
#X connect 15 0 3 0;
#X connect 20 0 47 1;
#X connect 21 0 48 1;
#X connect 22 0 23 1;
#X connect 23 0 19 3;
#X connect 24 0 49 1;
#X connect 25 0 26 1;
#X connect 26 0 19 4;
#X connect 27 0 28 1;
#X connect 28 0 19 5;
#X connect 29 0 30 1;
#X connect 30 0 19 6;
#X connect 31 0 54 1;
#X connect 32 0 55 1;
#X connect 34 0 64 1;
#X connect 35 0 62 1;
#X connect 36 0 63 1;
#X connect 37 0 38 1;
#X connect 38 0 33 5;
#X connect 39 0 40 1;
#X connect 40 0 33 4;
#X connect 41 0 44 1;
#X connect 42 0 44 0;
#X connect 44 0 33 6;
#X connect 45 0 46 1;
#X connect 46 0 19 1;
#X connect 47 0 19 2;
#X connect 48 0 23 0;
#X connect 49 0 26 0;
#X connect 50 0 51 1;
#X connect 51 0 28 0;
#X connect 52 0 53 1;
#X connect 53 0 30 0;
#X connect 54 0 19 7;
#X connect 55 0 19 8;
#X connect 56 0 57 1;
#X connect 57 0 40 0;
#X connect 58 0 59 1;
#X connect 59 0 38 0;
#X connect 60 0 61 1;
#X connect 61 0 42 0;
#X connect 62 0 33 1;
#X connect 63 0 33 2;
#X connect 64 0 33 3;
#X connect 66 0 82 0;
#X connect 66 1 67 0;
#X connect 66 2 70 0;
#X connect 67 0 71 0;
#X connect 68 0 67 1;
#X connect 69 0 70 1;
#X connect 70 0 68 0;
#X connect 71 0 19 0;
#X connect 71 1 46 0;
#X connect 71 2 47 0;
#X connect 71 3 48 0;
#X connect 71 4 49 0;
#X connect 71 5 51 0;
#X connect 71 6 53 0;
#X connect 71 7 54 0;
#X connect 71 8 55 0;
#X connect 72 0 76 0;
#X connect 73 0 75 1;
#X connect 74 0 72 1;
#X connect 75 0 74 0;
#X connect 76 0 33 0;
#X connect 76 1 62 0;
#X connect 76 2 63 0;
#X connect 76 3 64 0;
#X connect 76 4 57 0;
#X connect 76 5 59 0;
#X connect 76 6 61 0;
#X connect 77 0 43 0;
#X connect 77 1 72 0;
#X connect 77 2 75 0;
#X connect 82 0 83 0;
#X connect 83 0 84 0;
#X connect 84 0 89 0;
#X connect 85 0 86 0;
#X connect 86 0 87 0;
#X connect 87 0 91 0;
#X connect 88 0 66 0;
#X connect 88 1 10 0;
#X connect 88 2 2 0;
#X connect 88 3 18 0;
#X connect 88 4 15 0;
#X connect 88 5 13 0;
#X connect 88 6 16 0;
#X connect 88 7 17 0;
#X connect 88 8 65 0;
#X connect 88 9 81 0;
#X connect 88 10 78 0;
#X connect 88 11 79 0;
#X connect 88 12 80 0;
#X connect 88 13 90 0;
#X connect 89 0 85 0;
#X connect 91 0 77 0;
#X connect 93 0 92 0;
#X connect 94 0 93 0;
