#N canvas 949 354 659 630 16;
#X obj 36 90 inlet;
#X obj 476 90 inlet dollar_zero;
#X obj 476 123 s \$0_ns;
#X obj 36 123 route bang m, f 27;
#X obj 38 371 cml.plus_equal;
#X msg 312 272 0;
#X obj 312 305 cml.array_name dZ;
#X obj 445 272 r \$0_ns;
#X obj 142 156 s \$0_m;
#X obj 57 219 r \$0_m;
#X obj 36 252 f;
#X obj 36 280 cml.range;
#X obj 147 338 expr pow($s2[$f1] \, 2);
#X obj 264 460 r \$0_m;
#X obj 36 156 t b b;
#X obj 38 567 outlet;
#X text 35 6 // MSE cost function \; J(w \, b) = 1/2m sum((y^(i) - y_hat^(i))^2) \;;
#X obj 243 501 f;
#X obj 38 399 t f b;
#X obj 38 534 expr (1 / (2 * $f2)) * $f1;
#X connect 0 0 3 0;
#X connect 1 0 2 0;
#X connect 3 0 14 0;
#X connect 3 1 8 0;
#X connect 4 0 18 0;
#X connect 5 0 6 0;
#X connect 6 0 12 1;
#X connect 7 0 6 1;
#X connect 9 0 10 1;
#X connect 10 0 11 0;
#X connect 11 0 12 0;
#X connect 11 1 4 0;
#X connect 12 0 4 1;
#X connect 13 0 17 1;
#X connect 14 0 10 0;
#X connect 14 1 5 0;
#X connect 17 0 19 1;
#X connect 18 0 19 0;
#X connect 18 1 17 0;
#X connect 19 0 15 0;
