#N canvas 45 70 1626 1332 16;
#X obj 42 66 inlet;
#X obj 184 127 list split 1;
#X obj 184 193 s \$0_n;
#X obj 230 160 s \$0_n_prev;
#X obj 100 305 r \$0_n;
#X obj 100 367 r \$0_n_prev;
#X obj 79 395 *;
#X obj 79 338 f;
#X obj 79 423 until;
#X obj 79 451 random 1e+06;
#X obj 79 479 / 1e+06;
#X obj 310 341 expr sqrt(2 / $f1);
#X obj 310 308 f;
#X obj 492 940 expr sqrt(-2 * ln($f1)) * cos(2 * (22 / 7) * $f2);
#X obj 79 940 expr sqrt(-2 * ln($f1)) * sin(2 * (22 / 7) * $f2);
#X obj 79 776 pack f f, f 27;
#X obj 292 743 spigot;
#X obj 79 743 spigot, f 7;
#X obj 79 535 t f f b;
#X obj 132 568 f 0;
#X obj 132 596 t f f;
#X obj 200 594 + 1;
#X obj 132 629 mod 2;
#X obj 132 657 t f f, f 26;
#X msg 163 537 0;
#X obj 132 710 == 1;
#X obj 337 710 != 1;
#X obj 79 804 unpack f f, f 49;
#X obj 468 837 t f f, f 8;
#X obj 79 837 t f f, f 8;
#X obj 331 275 r \$0_n_prev;
#X obj 310 369 s \$0_he;
#X obj 100 972 r \$0_he;
#X obj 513 972 r \$0_he;
#X obj 79 1052 pack f f, f 52;
#X obj 42 94 route bang layer layer_dims;
#X obj 113 127 s \$0_l;
#X obj 541 341 cml.array_name W;
#X obj 766 80 inlet dollar_zero;
#X obj 766 108 s \$0_ns;
#X obj 666 308 r \$0_ns;
#X obj 541 308 f;
#X obj 562 275 r \$0_l;
#X obj 772 275 s \$0_init;
#X obj 163 509 r \$0_init;
#X obj 79 1085 t l b;
#X obj 217 1201 f 0;
#X obj 217 1229 t f f;
#X msg 248 1169 0;
#X obj 248 1141 r \$0_init;
#X obj 285 1227 + 2;
#X obj 79 1262 array set, f 35;
#X obj 42 207 t b b;
#X obj 79 242 t b b b b, f 87;
#X text 383 372 // He scale for layer \;;
#X text 898 937 // Box-Muller transform \;;
#X text 378 1178 // increment the offset by 2 \, since pairs are being written to the array \; for the case of odd-sized arrays \, the final value will be ignored \;;
#X obj 42 1305 outlet done;
#X obj 492 1005 *;
#X obj 79 1005 *;
#X text 45 14 // NOTE: the randomly generated values are tending to have a slight negative bias \;;
#X obj 79 507 + 1e-06;
#X connect 0 0 35 0;
#X connect 1 0 2 0;
#X connect 1 1 3 0;
#X connect 4 0 7 1;
#X connect 5 0 6 1;
#X connect 6 0 8 0;
#X connect 7 0 6 0;
#X connect 8 0 9 0;
#X connect 9 0 10 0;
#X connect 10 0 61 0;
#X connect 11 0 31 0;
#X connect 12 0 11 0;
#X connect 13 0 58 0;
#X connect 14 0 59 0;
#X connect 15 0 27 0;
#X connect 16 0 15 1;
#X connect 17 0 15 0;
#X connect 18 0 17 0;
#X connect 18 1 16 0;
#X connect 18 2 19 0;
#X connect 19 0 20 0;
#X connect 20 0 22 0;
#X connect 20 1 21 0;
#X connect 21 0 19 1;
#X connect 22 0 23 0;
#X connect 23 0 25 0;
#X connect 23 1 26 0;
#X connect 24 0 19 1;
#X connect 25 0 17 1;
#X connect 26 0 16 1;
#X connect 27 0 29 0;
#X connect 27 1 28 0;
#X connect 28 0 14 1;
#X connect 28 1 13 1;
#X connect 29 0 14 0;
#X connect 29 1 13 0;
#X connect 30 0 12 1;
#X connect 32 0 59 1;
#X connect 33 0 58 1;
#X connect 34 0 45 0;
#X connect 35 0 52 0;
#X connect 35 1 36 0;
#X connect 35 2 1 0;
#X connect 37 0 51 2;
#X connect 38 0 39 0;
#X connect 40 0 37 1;
#X connect 41 0 37 0;
#X connect 42 0 41 1;
#X connect 44 0 24 0;
#X connect 45 0 51 0;
#X connect 45 1 46 0;
#X connect 46 0 47 0;
#X connect 47 0 51 1;
#X connect 47 1 50 0;
#X connect 48 0 46 1;
#X connect 49 0 48 0;
#X connect 50 0 46 1;
#X connect 52 0 57 0;
#X connect 52 1 53 0;
#X connect 53 0 7 0;
#X connect 53 1 12 0;
#X connect 53 2 41 0;
#X connect 53 3 43 0;
#X connect 58 0 34 1;
#X connect 59 0 34 0;
#X connect 61 0 18 0;
