#N canvas 141 119 1477 1377 16;
#X obj 1117 56 inlet s_b;
#X obj 1274 56 inlet s_Z;
#X obj 300 56 inlet n;
#X obj 592 56 inlet n_prev;
#X obj 437 56 inlet m;
#X obj 33 98 t b b f, f 26;
#X obj 777 56 inlet s_W;
#X obj 33 1122 outlet done;
#X obj 135 400 cml.dot_product_plus_b, f 144;
#X obj 939 56 inlet s_A_prev;
#X obj 34 56 inlet bang;
#X connect 0 0 8 6;
#X connect 1 0 8 7;
#X connect 2 0 8 1;
#X connect 3 0 8 3;
#X connect 4 0 8 2;
#X connect 5 0 7 0;
#X connect 5 1 8 0;
#X connect 6 0 8 4;
#X connect 9 0 8 5;
#X connect 10 0 5 0;
