#N canvas 1682 487 847 690 16;
#X obj 201 119 inlet dollar_zero;
#X msg 180 280 symbol \$1_\$2;
#X obj 180 199 f;
#X obj 22 394 list prepend;
#X obj 22 450 outlet symbol;
#X obj 180 252 list append;
#X obj 339 199 list store \$1;
#X obj 22 119 inlet layer_number;
#X obj 22 147 t f b b, f 40;
#X text 20 13 // Returns the dollar_zero symbol for array of type: type at layer: layer_number \; args \; \$1: symbol array_type \;;
#X msg 22 422 symbol \$1L-\$2;
#X connect 0 0 2 1;
#X connect 1 0 3 1;
#X connect 2 0 5 0;
#X connect 3 0 10 0;
#X connect 5 0 1 0;
#X connect 6 0 5 1;
#X connect 7 0 8 0;
#X connect 8 0 3 0;
#X connect 8 1 2 0;
#X connect 8 2 6 0;
#X connect 10 0 4 0;
