#N canvas 4 70 1712 1332 16;
#N canvas 970 812 450 250 (subpatch) 0;
#X array \$0_X 16 float 3;
#A 0 -0.300013 -0.128581 -6.55651e-06 0.0999957 0.15714 0.22857 0.271428 0.3 0.0571376 -0.142867 -0.242869 -0.300013 -0.400016 -0.500018 -0.642878 -0.700023;
#X coords 0 1 16 -1 200 140 1 0 0;
#X restore 249 381 graph;
#N canvas 0 50 450 250 (subpatch) 0;
#X array \$0_Y 4 float 3;
#A 0 0 0.247404 0.479426 0.681639;
#X coords 0 1 4 -1 200 140 1 0 0;
#X restore 248 553 graph;
#N canvas 775 729 689 326 init_layer_0 0;
#X obj 283 123 v \$0_m;
#X obj 522 123 v \$0_leak;
#X obj 45 60 t b b b b b, f 60;
#X obj 45 27 r \$0_init;
#X obj 45 156 pack f f f s f, f 60;
#X obj 45 123 v \$0_nL-0;
#X obj 164 123 v \$0_nL-1;
#X obj 45 240 s \$0_init_l0;
#X msg 45 189 layer_number 0 \, layer_dims \$1 \$2 \, m \$3 \, activation \$4 \, leak \$5;
#X msg 402 123 symbol linear;
#X connect 0 0 4 2;
#X connect 1 0 4 4;
#X connect 2 0 5 0;
#X connect 2 1 6 0;
#X connect 2 2 0 0;
#X connect 2 3 9 0;
#X connect 2 4 1 0;
#X connect 3 0 2 0;
#X connect 4 0 8 0;
#X connect 5 0 4 0;
#X connect 6 0 4 1;
#X connect 8 0 7 0;
#X connect 9 0 4 3;
#X restore 20 566 pd init_layer_0;
#N canvas 629 995 421 257 init_outer_dz 0;
#X obj 45 27 r \$0_init;
#X msg 45 159 m \$1 \, num_outputs \$2;
#X obj 45 60 t b b, f 9;
#X obj 45 126 pack f f, f 9;
#X obj 45 93 v \$0_m;
#X obj 114 93 v \$0_ny;
#X obj 45 192 s \$0_init_outer_dz;
#X connect 0 0 2 0;
#X connect 1 0 6 0;
#X connect 2 0 4 0;
#X connect 2 1 5 0;
#X connect 3 0 1 0;
#X connect 4 0 3 0;
#X connect 5 0 3 1;
#X restore 20 619 pd init_outer_dz;
#N canvas 753 1076 689 326 init_d_layer_0 0;
#X obj 283 123 v \$0_m;
#X obj 522 123 v \$0_leak;
#X obj 45 60 t b b b b b, f 60;
#X obj 45 27 r \$0_init;
#X obj 45 156 pack f f f s f, f 60;
#X obj 45 123 v \$0_nL-0;
#X obj 164 123 v \$0_nL-1;
#X obj 45 240 s \$0_init_d_l0;
#X msg 402 123 symbol linear;
#X msg 45 189 layer_number 0 \, layer_dims \$1 \$2 \, m \$3 \, activation \$4 \, leak \$5 \, skip_dz 1 \, adam 1;
#X connect 0 0 4 2;
#X connect 1 0 4 4;
#X connect 2 0 5 0;
#X connect 2 1 6 0;
#X connect 2 2 0 0;
#X connect 2 3 8 0;
#X connect 2 4 1 0;
#X connect 3 0 2 0;
#X connect 4 0 9 0;
#X connect 5 0 4 0;
#X connect 6 0 4 1;
#X connect 8 0 4 3;
#X connect 9 0 7 0;
#X restore 20 662 pd init_d_layer_0;
#N canvas 655 865 689 326 init_d_layer_1 0;
#X obj 283 123 v \$0_m;
#X obj 522 123 v \$0_leak;
#X obj 45 60 t b b b b b, f 60;
#X obj 45 27 r \$0_init;
#X obj 45 156 pack f f f s f, f 60;
#X obj 45 123 v \$0_nL-1;
#X obj 45 240 s \$0_init_d_l1;
#X obj 164 123 v \$0_nL-2;
#X msg 402 123 symbol relu;
#X msg 45 187 layer_number 1 \, layer_dims \$1 \$2 \, m \$3 \, activation \$4 \, leak \$5 \, adam 1;
#X connect 0 0 4 2;
#X connect 1 0 4 4;
#X connect 2 0 5 0;
#X connect 2 1 7 0;
#X connect 2 2 0 0;
#X connect 2 3 8 0;
#X connect 2 4 1 0;
#X connect 3 0 2 0;
#X connect 4 0 9 0;
#X connect 5 0 4 0;
#X connect 7 0 4 1;
#X connect 8 0 4 3;
#X connect 9 0 6 0;
#X restore 20 692 pd init_d_layer_1;
#N canvas 674 560 689 326 init_u_layer_0 0;
#X obj 45 27 r \$0_init;
#X obj 45 93 v \$0_nL-0;
#X obj 522 93 v \$0_nL-1;
#X obj 45 210 s \$0_init_u_l0;
#X obj 45 60 t b b, f 60;
#X obj 45 126 pack f f, f 60;
#X msg 45 159 layer_number 0 \, layer_dims \$1 \$2 \, rmsprop 0 \, gd 0 \, adam 1;
#X connect 0 0 4 0;
#X connect 1 0 5 0;
#X connect 2 0 5 1;
#X connect 4 0 1 0;
#X connect 4 1 2 0;
#X connect 5 0 6 0;
#X connect 6 0 3 0;
#X restore 20 975 pd init_u_layer_0;
#N canvas 727 1070 689 326 init_layer_2 0;
#X obj 283 123 v \$0_m;
#X obj 522 123 v \$0_leak;
#X obj 45 60 t b b b b b, f 60;
#X obj 45 27 r \$0_init;
#X obj 45 156 pack f f f s f, f 60;
#X obj 45 123 v \$0_nL-2;
#X obj 164 123 v \$0_nL-3;
#X obj 45 240 s \$0_init_l2;
#X msg 45 189 layer_number 2 \, layer_dims \$1 \$2 \, m \$3 \, activation \$4 \, leak \$5;
#X msg 402 123 symbol relu;
#X connect 0 0 4 2;
#X connect 1 0 4 4;
#X connect 2 0 5 0;
#X connect 2 1 6 0;
#X connect 2 2 0 0;
#X connect 2 3 9 0;
#X connect 2 4 1 0;
#X connect 3 0 2 0;
#X connect 4 0 8 0;
#X connect 5 0 4 0;
#X connect 6 0 4 1;
#X connect 8 0 7 0;
#X connect 9 0 4 3;
#X restore 20 506 pd init_layer_2;
#N canvas 483 1034 689 326 init_layer_3 0;
#X obj 283 123 v \$0_m;
#X obj 522 123 v \$0_leak;
#X obj 45 60 t b b b b b, f 60;
#X obj 45 27 r \$0_init;
#X obj 45 156 pack f f f s f, f 60;
#X obj 45 123 v \$0_nL-3;
#X obj 164 123 v \$0_nL-4;
#X msg 45 189 layer_number 3 \, layer_dims \$1 \$2 \, m \$3 \, activation \$4 \, leak \$5;
#X obj 45 240 s \$0_init_l3;
#X msg 401 123 symbol relu;
#X connect 0 0 4 2;
#X connect 1 0 4 4;
#X connect 2 0 5 0;
#X connect 2 1 6 0;
#X connect 2 2 0 0;
#X connect 2 3 9 0;
#X connect 2 4 1 0;
#X connect 3 0 2 0;
#X connect 4 0 7 0;
#X connect 5 0 4 0;
#X connect 6 0 4 1;
#X connect 7 0 8 0;
#X connect 9 0 4 3;
#X restore 20 476 pd init_layer_3;
#N canvas 471 963 689 326 init_layer_4 0;
#X obj 283 123 v \$0_m;
#X obj 522 123 v \$0_leak;
#X obj 45 60 t b b b b b, f 60;
#X obj 45 27 r \$0_init;
#X obj 45 156 pack f f f s f, f 60;
#X obj 45 123 v \$0_nL-4;
#X obj 45 240 s \$0_init_l4;
#X obj 164 123 v \$0_nL-5;
#X msg 45 189 layer_number 4 \, layer_dims \$1 \$2 \, m \$3 \, activation \$4 \, leak \$5;
#X msg 402 123 symbol relu;
#X connect 0 0 4 2;
#X connect 1 0 4 4;
#X connect 2 0 5 0;
#X connect 2 1 7 0;
#X connect 2 2 0 0;
#X connect 2 3 9 0;
#X connect 2 4 1 0;
#X connect 3 0 2 0;
#X connect 4 0 8 0;
#X connect 5 0 4 0;
#X connect 7 0 4 1;
#X connect 8 0 6 0;
#X connect 9 0 4 3;
#X restore 20 446 pd init_layer_4;
#N canvas 703 1009 689 326 init_d_layer_2 0;
#X obj 283 123 v \$0_m;
#X obj 522 123 v \$0_leak;
#X obj 45 60 t b b b b b, f 60;
#X obj 45 27 r \$0_init;
#X obj 45 156 pack f f f s f, f 60;
#X obj 45 240 s \$0_init_d_l2;
#X obj 45 123 v \$0_nL-2;
#X obj 164 123 v \$0_nL-3;
#X msg 402 124 symbol relu;
#X msg 45 187 layer_number 2 \, layer_dims \$1 \$2 \, m \$3 \, activation \$4 \, leak \$5 \, adam 1;
#X connect 0 0 4 2;
#X connect 1 0 4 4;
#X connect 2 0 6 0;
#X connect 2 1 7 0;
#X connect 2 2 0 0;
#X connect 2 3 8 0;
#X connect 2 4 1 0;
#X connect 3 0 2 0;
#X connect 4 0 9 0;
#X connect 6 0 4 0;
#X connect 7 0 4 1;
#X connect 8 0 4 3;
#X connect 9 0 5 0;
#X restore 20 722 pd init_d_layer_2;
#N canvas 597 973 689 326 init_d_layer_3 0;
#X obj 283 123 v \$0_m;
#X obj 522 123 v \$0_leak;
#X obj 45 60 t b b b b b, f 60;
#X obj 45 27 r \$0_init;
#X obj 45 156 pack f f f s f, f 60;
#X obj 45 123 v \$0_nL-3;
#X obj 164 123 v \$0_nL-4;
#X obj 45 240 s \$0_init_d_l3;
#X msg 403 123 symbol relu;
#X msg 46 187 layer_number 3 \, layer_dims \$1 \$2 \, m \$3 \, activation \$4 \, leak \$5 \, adam 1;
#X connect 0 0 4 2;
#X connect 1 0 4 4;
#X connect 2 0 5 0;
#X connect 2 1 6 0;
#X connect 2 2 0 0;
#X connect 2 3 8 0;
#X connect 2 4 1 0;
#X connect 3 0 2 0;
#X connect 4 0 9 0;
#X connect 5 0 4 0;
#X connect 6 0 4 1;
#X connect 8 0 4 3;
#X connect 9 0 7 0;
#X restore 20 752 pd init_d_layer_3;
#N canvas 690 1000 689 326 init_d_layer_4 0;
#X obj 283 123 v \$0_m;
#X obj 522 123 v \$0_leak;
#X obj 45 60 t b b b b b, f 60;
#X obj 45 27 r \$0_init;
#X obj 45 156 pack f f f s f, f 60;
#X obj 45 123 v \$0_nL-4;
#X obj 45 240 s \$0_init_d_l4;
#X obj 164 123 v \$0_nL-5;
#X msg 402 123 symbol relu;
#X msg 45 187 layer_number 4 \, layer_dims \$1 \$2 \, m \$3 \, activation \$4 \, leak \$5 \, adam 1;
#X connect 0 0 4 2;
#X connect 1 0 4 4;
#X connect 2 0 5 0;
#X connect 2 1 7 0;
#X connect 2 2 0 0;
#X connect 2 3 8 0;
#X connect 2 4 1 0;
#X connect 3 0 2 0;
#X connect 4 0 9 0;
#X connect 5 0 4 0;
#X connect 7 0 4 1;
#X connect 8 0 4 3;
#X connect 9 0 6 0;
#X restore 20 782 pd init_d_layer_4;
#N canvas 644 495 689 326 init_u_layer_1 0;
#X obj 45 27 r \$0_init;
#X obj 45 210 s \$0_init_u_l1;
#X obj 45 93 v \$0_nL-1;
#X obj 522 93 v \$0_nL-2;
#X obj 45 126 pack f f, f 60;
#X obj 45 60 t b b, f 60;
#X msg 45 159 layer_number 1 \, layer_dims \$1 \$2 \, rmsprop 0 \, gd 0 \, adam 1;
#X connect 0 0 5 0;
#X connect 2 0 4 0;
#X connect 3 0 4 1;
#X connect 4 0 6 0;
#X connect 5 0 2 0;
#X connect 5 1 3 0;
#X connect 6 0 1 0;
#X restore 20 1005 pd init_u_layer_1;
#N canvas 668 895 689 326 init_u_layer_2 0;
#X obj 45 27 r \$0_init;
#X obj 45 93 v \$0_nL-2;
#X obj 522 93 v \$0_nL-3;
#X obj 45 210 s \$0_init_u_l2;
#X obj 45 60 t b b, f 60;
#X obj 45 126 pack f f, f 60;
#X msg 45 159 layer_number 2 \, layer_dims \$1 \$2 \, rmsprop 0 \, gd 0 \, adam 1;
#X connect 0 0 4 0;
#X connect 1 0 5 0;
#X connect 2 0 5 1;
#X connect 4 0 1 0;
#X connect 4 1 2 0;
#X connect 5 0 6 0;
#X connect 6 0 3 0;
#X restore 20 1035 pd init_u_layer_2;
#N canvas 727 846 689 326 init_u_layer_3 0;
#X obj 45 27 r \$0_init;
#X obj 45 93 v \$0_nL-3;
#X obj 522 93 v \$0_nL-4;
#X obj 44 210 s \$0_init_u_l3;
#X obj 45 126 pack f f, f 60;
#X obj 45 60 t b b, f 60;
#X msg 44 159 layer_number 3 \, layer_dims \$1 \$2 \, rmsprop 0 \, gd 0 \, adam 1;
#X connect 0 0 5 0;
#X connect 1 0 4 0;
#X connect 2 0 4 1;
#X connect 4 0 6 0;
#X connect 5 0 1 0;
#X connect 5 1 2 0;
#X connect 6 0 3 0;
#X restore 20 1065 pd init_u_layer_3;
#N canvas 699 1039 689 326 init_u_layer_4 0;
#X obj 45 27 r \$0_init;
#X obj 45 93 v \$0_nL-4;
#X obj 45 210 s \$0_init_u_l4;
#X obj 522 93 v \$0_nL-5;
#X obj 45 60 t b b, f 60;
#X obj 45 126 pack f f, f 60;
#X msg 45 159 layer_number 4 \, layer_dims \$1 \$2 \, rmsprop 0 \, gd 0 \, adam 1;
#X connect 0 0 4 0;
#X connect 1 0 5 0;
#X connect 3 0 5 1;
#X connect 4 0 1 0;
#X connect 4 1 3 0;
#X connect 5 0 6 0;
#X connect 6 0 2 0;
#X restore 20 1095 pd init_u_layer_4;
#N canvas 734 1076 689 326 init_layer_1 0;
#X obj 283 123 v \$0_m;
#X obj 522 123 v \$0_leak;
#X obj 45 60 t b b b b b, f 60;
#X obj 45 27 r \$0_init;
#X obj 45 156 pack f f f s f, f 60;
#X msg 45 189 layer_number 1 \, layer_dims \$1 \$2 \, m \$3 \, activation \$4 \, leak \$5;
#X obj 45 123 v \$0_nL-1;
#X obj 164 123 v \$0_nL-2;
#X obj 45 240 s \$0_init_l1;
#X msg 402 123 symbol relu;
#X connect 0 0 4 2;
#X connect 1 0 4 4;
#X connect 2 0 6 0;
#X connect 2 1 7 0;
#X connect 2 2 0 0;
#X connect 2 3 9 0;
#X connect 2 4 1 0;
#X connect 3 0 2 0;
#X connect 4 0 5 0;
#X connect 5 0 8 0;
#X connect 6 0 4 0;
#X connect 7 0 4 1;
#X connect 9 0 4 3;
#X restore 20 539 pd init_layer_1;
#N canvas 2714 131 689 326 init_layer_5 0;
#X obj 283 123 v \$0_m;
#X obj 522 123 v \$0_leak;
#X obj 45 60 t b b b b b, f 60;
#X obj 45 27 r \$0_init;
#X obj 45 156 pack f f f s f, f 60;
#X obj 45 123 v \$0_nL-5;
#X obj 45 240 s \$0_init_l5;
#X msg 403 123 symbol relu;
#X obj 164 123 v \$0_nL-6;
#X msg 45 189 layer_number 5 \, layer_dims \$1 \$2 \, m \$3 \, activation \$4 \, leak \$5;
#X connect 0 0 4 2;
#X connect 1 0 4 4;
#X connect 2 0 5 0;
#X connect 2 1 8 0;
#X connect 2 2 0 0;
#X connect 2 3 7 0;
#X connect 2 4 1 0;
#X connect 3 0 2 0;
#X connect 4 0 9 0;
#X connect 5 0 4 0;
#X connect 7 0 4 3;
#X connect 8 0 4 1;
#X connect 9 0 6 0;
#X restore 20 416 pd init_layer_5;
#N canvas 1316 223 689 326 init_d_layer_5 0;
#X obj 283 123 v \$0_m;
#X obj 522 123 v \$0_leak;
#X obj 45 60 t b b b b b, f 60;
#X obj 45 27 r \$0_init;
#X obj 45 156 pack f f f s f, f 60;
#X obj 45 240 s \$0_init_d_l5;
#X obj 45 123 v \$0_nL-5;
#X msg 402 123 symbol relu;
#X msg 45 187 layer_number 5 \, layer_dims \$1 \$2 \, m \$3 \, activation \$4 \, leak \$5 \, adam 1;
#X obj 164 123 v \$0_nl-6;
#X connect 0 0 4 2;
#X connect 1 0 4 4;
#X connect 2 0 6 0;
#X connect 2 1 9 0;
#X connect 2 2 0 0;
#X connect 2 3 7 0;
#X connect 2 4 1 0;
#X connect 3 0 2 0;
#X connect 4 0 8 0;
#X connect 6 0 4 0;
#X connect 7 0 4 3;
#X connect 8 0 5 0;
#X connect 9 0 4 1;
#X restore 20 812 pd init_d_layer_5;
#N canvas 2032 173 689 326 init_u_layer_5 0;
#X obj 45 27 r \$0_init;
#X obj 45 60 t b b, f 60;
#X obj 45 126 pack f f, f 60;
#X obj 45 93 v \$0_nL-5;
#X obj 45 210 s \$0_init_u_l5;
#X msg 45 159 layer_number 5 \, layer_dims \$1 \$2 \, rmsprop 0 \, gd 0 \, adam 1;
#X obj 522 93 v \$0_nL-6;
#X connect 0 0 1 0;
#X connect 1 0 3 0;
#X connect 1 1 6 0;
#X connect 2 0 5 0;
#X connect 3 0 2 0;
#X connect 5 0 4 0;
#X connect 6 0 2 1;
#X restore 20 1125 pd init_u_layer_5;
#X obj 1418 1100 cml.layer_forward;
#X obj 1551 1072 v \$0_ns;
#X obj 1436 1040 t a b, f 12;
#X obj 1418 1221 cml.layer_forward;
#X obj 1551 1193 v \$0_ns;
#X obj 1436 1161 t a b, f 12;
#X obj 1436 1133 r \$0_init_l0;
#X obj 1418 850 cml.layer_forward;
#X obj 1551 822 v \$0_ns;
#X obj 1436 790 t a b, f 12;
#X obj 1418 971 cml.layer_forward;
#X obj 1551 943 v \$0_ns;
#X obj 1436 911 t a b, f 12;
#X obj 1436 883 r \$0_init_l2;
#X obj 1436 762 r \$0_init_l3;
#X obj 1418 730 cml.layer_forward;
#X obj 1551 702 v \$0_ns;
#X obj 1436 670 t a b, f 12;
#X obj 1436 642 r \$0_init_l4;
#X obj 1688 1117 f;
#X obj 1688 1145 t f f;
#X obj 1755 1145 + 1;
#X msg 1709 1089 0;
#X obj 1709 1028 r \$0_init;
#X obj 1709 1056 t b b, f 11;
#X obj 1794 1089 v \$0_m;
#X obj 1773 1265 sel;
#X obj 1773 1303 s \$0_backprop;
#X obj 1794 1117 t f f, f 6;
#X obj 1773 1200 mod;
#X obj 1839 1155 - 1;
#X obj 1810 1261 s \$0_m_i;
#X obj 1773 1228 t f f;
#X obj 1418 15 tgl 23 0 empty empty empty 0 -12 0 16 #fcfcfc #000000 #000000 0 1;
#X obj 1436 1012 r \$0_init_l1;
#X obj 490 509 /;
#X obj 607 443 r \$0_init;
#X obj 607 471 v \$0_m;
#X floatatom 531 509 5 0 0 0 - - - 0;
#X obj 490 545 * 1;
#X obj 490 646 * 1;
#X obj 490 582 sin;
#X floatatom 532 546 5 0 0 0 - - - 0;
#X floatatom 549 472 5 0 0 0 - - - 0;
#X obj 1418 609 cml.layer_forward;
#X obj 1551 581 v \$0_ns;
#X obj 1436 549 t a b, f 12;
#X obj 1436 521 r \$0_init_l5;
#X obj 490 352 r \$0_m_i;
#X obj 2209 252 cml.layer_backward;
#X obj 2223 38 r \$0_init_outer_dz;
#X obj 2209 127 cml.outer_dz;
#X obj 2223 66 t a b;
#X obj 2302 99 v \$0_ns;
#X obj 2219 155 r \$0_init_d_l0;
#X obj 2350 219 v \$0_ns;
#X obj 2219 183 t a b;
#X obj 2789 176 cml.update_layer_params;
#X obj 2799 78 r \$0_init_u_l0;
#X obj 2970 142 v \$0_ns;
#X obj 2799 106 t a b;
#X obj 2209 5 r \$0_backprop;
#X obj 2209 377 cml.layer_backward;
#X obj 2350 344 v \$0_ns;
#X obj 2219 308 t a b;
#X obj 2219 280 r \$0_init_d_l1;
#X obj 2209 502 cml.layer_backward;
#X obj 2350 469 v \$0_ns;
#X obj 2219 433 t a b;
#X obj 2219 405 r \$0_init_d_l2;
#X obj 2209 627 cml.layer_backward;
#X obj 2350 594 v \$0_ns;
#X obj 2219 558 t a b;
#X obj 2219 530 r \$0_init_d_l3;
#X obj 2209 752 cml.layer_backward;
#X obj 2350 719 v \$0_ns;
#X obj 2219 683 t a b;
#X obj 2219 655 r \$0_init_d_l4;
#X obj 2789 307 cml.update_layer_params;
#X obj 2970 273 v \$0_ns;
#X obj 2799 237 t a b;
#X obj 2799 209 r \$0_init_u_l1;
#X obj 2789 438 cml.update_layer_params;
#X obj 2970 404 v \$0_ns;
#X obj 2799 368 t a b;
#X obj 2799 340 r \$0_init_u_l2;
#X obj 2789 569 cml.update_layer_params;
#X obj 2970 535 v \$0_ns;
#X obj 2799 499 t a b;
#X obj 2799 471 r \$0_init_u_l3;
#X obj 2789 700 cml.update_layer_params;
#X obj 2970 666 v \$0_ns;
#X obj 2799 630 t a b;
#X obj 2799 602 r \$0_init_u_l4;
#X obj 2789 45 r \$0_update_params;
#X obj 2209 877 cml.layer_backward;
#X obj 2350 844 v \$0_ns;
#X obj 2219 808 t a b;
#X obj 2219 780 r \$0_init_d_l5;
#X obj 2789 831 cml.update_layer_params;
#X obj 2970 797 v \$0_ns;
#X obj 2799 761 t a b;
#X obj 2799 733 r \$0_init_u_l5;
#X obj 2460 101 r \$0_alpha;
#X msg 2460 129 alpha \$1;
#X obj 752 692 array set \$0_X, f 18;
#X obj 490 692 array set \$0_Y;
#X obj 490 387 t f f, f 27;
#X obj 1909 464 r \$0_rho;
#X msg 1909 492 rho \$1;
#X floatatom 1843 1195 5 0 0 0 - - - 0;
#X obj 1905 204 r \$0_mu;
#X msg 1905 232 mu \$1;
#X obj 2477 656 r \$0_rho;
#X msg 2477 684 rho \$1;
#X obj 2462 415 r \$0_mu;
#X msg 2462 443 mu \$1;
#X obj 3113 82 r \$0_init;
#N canvas 862 923 689 326 init_layer_6 0;
#X obj 283 123 v \$0_m;
#X obj 522 123 v \$0_leak;
#X obj 45 60 t b b b b b, f 60;
#X obj 45 27 r \$0_init;
#X obj 45 156 pack f f f s f, f 60;
#X msg 403 123 symbol relu;
#X obj 45 240 s \$0_init_l6;
#X obj 45 123 v \$0_nL-6;
#X obj 164 123 v \$0_nL-7;
#X msg 45 189 layer_number 6 \, layer_dims \$1 \$2 \, m \$3 \, activation \$4 \, leak \$5;
#X connect 0 0 4 2;
#X connect 1 0 4 4;
#X connect 2 0 7 0;
#X connect 2 1 8 0;
#X connect 2 2 0 0;
#X connect 2 3 5 0;
#X connect 2 4 1 0;
#X connect 3 0 2 0;
#X connect 4 0 9 0;
#X connect 5 0 4 3;
#X connect 7 0 4 0;
#X connect 8 0 4 1;
#X connect 9 0 6 0;
#X restore 20 381 pd init_layer_6;
#N canvas 707 1076 689 326 init_u_layer_6 0;
#X obj 45 27 r \$0_init;
#X obj 45 60 t b b, f 60;
#X obj 45 126 pack f f, f 60;
#X obj 45 93 v \$0_nL-6;
#X msg 45 159 layer_number 6 \, layer_dims \$1 \$2 \, rmsprop 0 \, gd 0 \, adam 1;
#X obj 45 210 s \$0_init_u_l6;
#X obj 522 93 v \$0_nL-7;
#X connect 0 0 1 0;
#X connect 1 0 3 0;
#X connect 1 1 6 0;
#X connect 2 0 4 0;
#X connect 3 0 2 0;
#X connect 4 0 5 0;
#X connect 6 0 2 1;
#X restore 19 1160 pd init_u_layer_6;
#X msg 1263 15 bang;
#X obj 1263 43 t b b;
#X obj 1300 76 s \$0_refresh;
#X obj 490 610 t f f;
#X msg 17 12 bang;
#X obj 17 40 t b b;
#X obj 54 73 f \$0;
#X obj 54 101 v \$0_ns;
#X obj 113 195 v \$0_m;
#X obj 209 196 v \$0_nx;
#X msg 306 167 1;
#X obj 306 195 v \$0_ny;
#X msg 402 167 1;
#X obj 402 195 v \$0_nL-0;
#X obj 498 195 v \$0_nL-1;
#X obj 595 195 v \$0_nL-2;
#X obj 691 195 v \$0_nL-3;
#X obj 788 195 v \$0_nL-4;
#X obj 884 195 v \$0_nL-5;
#X obj 980 195 v \$0_nL-6;
#N canvas 0 66 3440 1340 arrays 0;
#X obj 9 10 inlet;
#X obj 63 10 s \$0_size_arrays;
#X msg 425 11 const 0;
#X msg 27 190 resize \$1;
#X obj 27 158 *;
#X obj 27 92 t b b;
#X obj 27 64 r \$0_size_arrays;
#X msg 377 158 resize \$1;
#X obj 377 64 r \$0_size_arrays;
#X msg 27 517 resize \$1;
#X obj 27 484 *;
#X obj 27 418 t b b;
#X obj 27 390 r \$0_size_arrays;
#X obj 117 451 v \$0_m;
#X text 29 35 // output layer;
#X obj 27 125 v \$0_nL-0;
#X obj 117 125 v \$0_nL-1;
#X obj 27 251 array define \$0_WL-0;
#X obj 67 284 array define \$0_dWL-0;
#X obj 377 125 v \$0_nL-0;
#X obj 377 251 array define \$0_bL-0;
#X obj 417 284 array define \$0_dbL-0;
#X obj 27 451 v \$0_nL-0;
#X obj 27 583 array define \$0_ZL-0;
#X obj 156 616 array define \$0_dZL-0;
#X obj 206 583 array define \$0_AL-0;
#X obj 337 616 array define \$0_dAL-0;
#X obj 27 550 t a a a a, f 34;
#X obj 107 317 array define \$0_VdWL-0;
#X obj 457 317 array define \$0_VdbL-0;
#X obj 495 11 s \$0_const_arrays;
#X obj 232 64 r \$0_const_arrays;
#X obj 202 390 r \$0_const_arrays;
#X msg 657 190 resize \$1;
#X obj 657 158 *;
#X obj 657 92 t b b;
#X obj 657 64 r \$0_size_arrays;
#X msg 1007 158 resize \$1;
#X obj 1007 64 r \$0_size_arrays;
#X msg 657 517 resize \$1;
#X obj 657 484 *;
#X obj 657 418 t b b;
#X obj 657 390 r \$0_size_arrays;
#X obj 747 451 v \$0_m;
#X obj 657 550 t a a a a, f 34;
#X obj 862 64 r \$0_const_arrays;
#X obj 832 390 r \$0_const_arrays;
#X obj 657 125 v \$0_nL-1;
#X obj 747 125 v \$0_nL-2;
#X obj 1007 125 v \$0_nL-1;
#X obj 657 251 array define \$0_WL-1;
#X obj 697 284 array define \$0_dWL-1;
#X obj 737 317 array define \$0_VdWL-1;
#X obj 1007 251 array define \$0_bL-1;
#X obj 1047 284 array define \$0_dbL-1;
#X obj 1087 317 array define \$0_VdbL-1;
#X obj 657 583 array define \$0_ZL-1;
#X obj 836 583 array define \$0_AL-1;
#X obj 786 616 array define \$0_dZL-1;
#X obj 967 616 array define \$0_dAL-1;
#X text 667 32 // L-1;
#X obj 657 451 v \$0_nL-1;
#X msg 1287 190 resize \$1;
#X obj 1287 158 *;
#X obj 1287 92 t b b;
#X obj 1287 64 r \$0_size_arrays;
#X msg 1637 158 resize \$1;
#X obj 1637 64 r \$0_size_arrays;
#X msg 1287 517 resize \$1;
#X obj 1287 484 *;
#X obj 1287 418 t b b;
#X obj 1287 390 r \$0_size_arrays;
#X obj 1377 451 v \$0_m;
#X obj 1287 550 t a a a a, f 34;
#X obj 1492 64 r \$0_const_arrays;
#X obj 1462 390 r \$0_const_arrays;
#X text 1291 35 // L-2;
#X obj 1287 125 v \$0_nL-2;
#X obj 1637 125 v \$0_nL-2;
#X obj 1287 251 array define \$0_WL-2;
#X obj 1327 284 array define \$0_dWL-2;
#X obj 1367 317 array define \$0_VdWL-2;
#X obj 1637 251 array define \$0_bL-2;
#X obj 1675 284 array define \$0_dbL-2;
#X obj 1717 317 array define \$0_VdbL-2;
#X obj 1287 451 v \$0_nL-2;
#X obj 1287 583 array define \$0_ZL-2;
#X obj 1466 583 array define \$0_AL-2;
#X obj 1416 616 array define \$0_dZL-2;
#X obj 1597 616 array define \$0_dAL-2;
#X msg 1927 190 resize \$1;
#X obj 1927 158 *;
#X obj 1927 92 t b b;
#X obj 1927 64 r \$0_size_arrays;
#X msg 2277 158 resize \$1;
#X obj 2277 64 r \$0_size_arrays;
#X msg 1927 517 resize \$1;
#X obj 1927 484 *;
#X obj 1927 418 t b b;
#X obj 1927 390 r \$0_size_arrays;
#X obj 2017 451 v \$0_m;
#X obj 1927 550 t a a a a, f 34;
#X obj 2132 64 r \$0_const_arrays;
#X obj 2102 390 r \$0_const_arrays;
#X obj 275 11 inlet cont_arrays;
#X text 1928 38 // L-3;
#X obj 1927 125 v \$0_nL-3;
#X obj 2277 125 v \$0_nL-3;
#X obj 1927 251 array define \$0_WL-3;
#X obj 1967 284 array define \$0_dWL-3;
#X obj 2007 317 array define \$0_VdWL-3;
#X obj 2277 251 array define \$0_bL-3;
#X obj 2318 284 array define \$0_dbL-3;
#X obj 2357 317 array define \$0_VdbL-3;
#X obj 1927 451 v \$0_nL-3;
#X obj 1927 583 array define \$0_ZL-3;
#X obj 2106 583 array define \$0_AL-3;
#X obj 2056 616 array define \$0_dZL-3;
#X obj 2237 616 array define \$0_dAL-3;
#X obj 202 418 t a a a a;
#X obj 832 418 t a a a a;
#X obj 1462 418 t a a a a;
#X obj 2102 418 t a a a a;
#X obj 1377 125 v \$0_nL-3;
#X obj 2017 125 v \$0_nL-4;
#X msg 2557 190 resize \$1;
#X obj 2557 158 *;
#X obj 2557 92 t b b;
#X obj 2557 64 r \$0_size_arrays;
#X msg 2907 158 resize \$1;
#X obj 2907 64 r \$0_size_arrays;
#X msg 2557 517 resize \$1;
#X obj 2557 484 *;
#X obj 2557 418 t b b;
#X obj 2557 390 r \$0_size_arrays;
#X obj 2647 451 v \$0_m;
#X obj 2557 550 t a a a a, f 34;
#X obj 2762 64 r \$0_const_arrays;
#X obj 2732 390 r \$0_const_arrays;
#X obj 2732 418 t a a a a;
#X text 2558 38 // L-4;
#X obj 2557 125 v \$0_nL-4;
#X obj 2647 125 v \$0_nL-5;
#X obj 2907 125 v \$0_nL-4;
#X obj 2557 251 array define \$0_WL-4;
#X obj 2597 284 array define \$0_dWL-4;
#X obj 2637 317 array define \$0_VdWL-4;
#X obj 2907 251 array define \$0_bL-4;
#X obj 2948 284 array define \$0_dbL-4;
#X obj 2987 317 array define \$0_VdbL-4;
#X obj 2557 451 v \$0_nL-4;
#X obj 2557 583 array define \$0_ZL-4;
#X obj 2736 583 array define \$0_AL-4;
#X obj 2686 616 array define \$0_dZL-4;
#X obj 2867 616 array define \$0_dAL-4;
#X msg 27 820 resize \$1;
#X obj 27 788 *;
#X obj 27 722 t b b;
#X obj 27 694 r \$0_size_arrays;
#X msg 377 788 resize \$1;
#X obj 377 694 r \$0_size_arrays;
#X msg 27 1167 resize \$1;
#X obj 27 1134 *;
#X obj 27 1068 t b b;
#X obj 27 1040 r \$0_size_arrays;
#X obj 117 1101 v \$0_m;
#X obj 27 1200 t a a a a, f 34;
#X obj 232 694 r \$0_const_arrays;
#X obj 202 1040 r \$0_const_arrays;
#X obj 202 1068 t a a a a;
#X text 28 668 // L-5;
#X obj 27 755 v \$0_nL-5;
#X obj 377 755 v \$0_nL-5;
#X obj 27 881 array define \$0_WL-5;
#X obj 67 914 array define \$0_dWL-5;
#X obj 107 947 array define \$0_VdWL-5;
#X obj 377 881 array define \$0_bL-5;
#X obj 418 914 array define \$0_dbL-5;
#X obj 457 947 array define \$0_VdbL-5;
#X obj 27 1101 v \$0_nL-5;
#X obj 27 1233 array define \$0_ZL-5;
#X obj 206 1233 array define \$0_AL-5;
#X obj 156 1266 array define \$0_dZL-5;
#X obj 337 1266 array define \$0_dAL-5;
#X obj 137 347 array define \$0_SdWL-0;
#X obj 487 347 array define \$0_SdbL-0;
#X obj 27 218 t a a a a;
#X obj 377 186 t a a a a;
#X obj 232 92 t a a a a a a a a;
#X obj 767 347 array define \$0_SdWL-1;
#X obj 1117 347 array define \$0_SdbL-1;
#X obj 657 218 t a a a a;
#X obj 1007 186 t a a a a;
#X obj 862 91 t a a a a a a a a;
#X obj 1397 347 array define \$0_SdWL-2;
#X obj 1747 347 array define \$0_SdbL-2;
#X obj 1287 218 t a a a a;
#X obj 1637 186 t a a a a;
#X obj 1492 92 t a a a a a a a a;
#X obj 2037 347 array define \$0_SdWL-3;
#X obj 2387 347 array define \$0_SdbL-3;
#X obj 1927 218 t a a a a;
#X obj 2277 186 t a a a a;
#X obj 2132 92 t a a a a a a a a;
#X obj 2667 347 array define \$0_SdWL-4;
#X obj 3017 347 array define \$0_SdbL-4;
#X obj 2557 218 t a a a a;
#X obj 2907 186 t a a a a;
#X obj 2762 92 t a a a a a a a a;
#X obj 137 977 array define \$0_SdWL-5;
#X obj 487 977 array define \$0_SdbL-5;
#X obj 27 848 t a a a a;
#X obj 377 816 t a a a a;
#X obj 232 722 t a a a a a a a a;
#X msg 687 820 resize \$1;
#X obj 687 788 *;
#X obj 687 722 t b b;
#X obj 687 694 r \$0_size_arrays;
#X msg 1037 788 resize \$1;
#X obj 1037 694 r \$0_size_arrays;
#X msg 687 1167 resize \$1;
#X obj 687 1134 *;
#X obj 687 1068 t b b;
#X obj 687 1040 r \$0_size_arrays;
#X obj 777 1101 v \$0_m;
#X obj 687 1200 t a a a a, f 34;
#X obj 892 694 r \$0_const_arrays;
#X obj 862 1040 r \$0_const_arrays;
#X obj 862 1068 t a a a a;
#X obj 687 848 t a a a a;
#X obj 1037 816 t a a a a;
#X obj 892 722 t a a a a a a a a;
#X text 688 668 // L-6;
#X obj 687 755 v \$0_nL-6;
#X obj 1037 755 v \$0_nL-6;
#X obj 687 881 array define \$0_WL-6;
#X obj 727 914 array define \$0_dWL-6;
#X obj 767 947 array define \$0_VdWL-6;
#X obj 797 977 array define \$0_SdWL-6;
#X obj 1037 881 array define \$0_bL-6;
#X obj 1078 914 array define \$0_dbL-6;
#X obj 1117 947 array define \$0_VdbL-6;
#X obj 1147 977 array define \$0_SdbL-6;
#X obj 687 1101 v \$0_nL-6;
#X obj 687 1233 array define \$0_ZL-6;
#X obj 866 1233 array define \$0_AL-6;
#X obj 816 1266 array define \$0_dZL-6;
#X obj 997 1266 array define \$0_dAL-6;
#X msg 1357 820 resize \$1;
#X obj 1357 788 *;
#X obj 1357 722 t b b;
#X obj 1357 694 r \$0_size_arrays;
#X msg 1707 788 resize \$1;
#X obj 1707 694 r \$0_size_arrays;
#X msg 1357 1167 resize \$1;
#X obj 1357 1134 *;
#X obj 1357 1068 t b b;
#X obj 1357 1040 r \$0_size_arrays;
#X obj 1447 1101 v \$0_m;
#X obj 1357 1200 t a a a a, f 34;
#X obj 1562 694 r \$0_const_arrays;
#X obj 1532 1040 r \$0_const_arrays;
#X obj 1532 1068 t a a a a;
#X obj 1357 848 t a a a a;
#X obj 1707 816 t a a a a;
#X obj 1562 722 t a a a a a a a a;
#X text 1358 668 // L-7;
#X obj 1357 755 v \$0_nL-7;
#X obj 1447 755 v \$0_nL-8;
#X obj 1707 755 v \$0_nL-7;
#X obj 1357 881 array define \$0_WL-7;
#X obj 1397 914 array define \$0_dWL-7;
#X obj 1437 947 array define \$0_VdWL-7;
#X obj 1467 977 array define \$0_SdWL-7;
#X obj 1707 881 array define \$0_bL-7;
#X obj 1748 914 array define \$0_dbL-7;
#X obj 1787 947 array define \$0_VdbL-7;
#X obj 1817 977 array define \$0_SdbL-7;
#X obj 1357 1101 v \$0_nL-7;
#X obj 1357 1233 array define \$0_ZL-7;
#X obj 1536 1233 array define \$0_AL-7;
#X obj 1486 1266 array define \$0_dZL-7;
#X obj 1667 1266 array define \$0_dAL-7;
#N canvas 633 271 908 890 l-8 0;
#X msg 298 182 resize \$1;
#X obj 298 150 *;
#X obj 298 84 t b b;
#X obj 298 56 r \$0_size_arrays;
#X msg 648 150 resize \$1;
#X obj 648 56 r \$0_size_arrays;
#X msg 298 609 resize \$1;
#X obj 298 576 *;
#X obj 298 510 t b b;
#X obj 298 482 r \$0_size_arrays;
#X obj 388 543 v \$0_m;
#X obj 298 642 t a a a a, f 10;
#X obj 53 56 r \$0_const_arrays;
#X obj 53 482 r \$0_const_arrays;
#X obj 53 510 t a a a a, f 10;
#X obj 298 210 t a a a a, f 10;
#X obj 648 178 t a a a a;
#X obj 53 84 t a a a a a a a a;
#X text 299 30 // L-8;
#X obj 298 117 v \$0_nL-8;
#X obj 648 117 v \$0_nL-8;
#X obj 298 253 array define \$0_WL-8;
#X obj 298 296 array define \$0_dWL-8;
#X obj 298 339 array define \$0_VdWL-8;
#X obj 298 379 array define \$0_SdWL-8;
#X obj 648 253 array define \$0_bL-8;
#X obj 649 296 array define \$0_dbL-8;
#X obj 648 339 array define \$0_VdbL-8;
#X obj 648 379 array define \$0_SdbL-8;
#X obj 298 543 v \$0_nL-8;
#X obj 298 685 array define \$0_ZL-8;
#X obj 297 728 array define \$0_dZL-8;
#X obj 295 771 array define \$0_AL-8;
#X obj 296 814 array define \$0_dAL-8;
#X obj 388 117 v \$0_nx;
#X text 372 24 // *** CURRENT INITIAL LAYER ***;
#X connect 0 0 15 0;
#X connect 1 0 0 0;
#X connect 2 0 19 0;
#X connect 2 1 34 0;
#X connect 3 0 2 0;
#X connect 4 0 16 0;
#X connect 5 0 20 0;
#X connect 6 0 11 0;
#X connect 7 0 6 0;
#X connect 8 0 29 0;
#X connect 8 1 10 0;
#X connect 9 0 8 0;
#X connect 10 0 7 1;
#X connect 11 0 30 0;
#X connect 11 1 31 0;
#X connect 11 2 32 0;
#X connect 11 3 33 0;
#X connect 12 0 17 0;
#X connect 13 0 14 0;
#X connect 14 0 33 0;
#X connect 14 1 32 0;
#X connect 14 2 31 0;
#X connect 14 3 30 0;
#X connect 15 0 21 0;
#X connect 15 1 22 0;
#X connect 15 2 23 0;
#X connect 15 3 24 0;
#X connect 16 0 25 0;
#X connect 16 1 26 0;
#X connect 16 2 27 0;
#X connect 16 3 28 0;
#X connect 17 0 24 0;
#X connect 17 1 23 0;
#X connect 17 2 22 0;
#X connect 17 3 21 0;
#X connect 17 4 28 0;
#X connect 17 5 27 0;
#X connect 17 6 26 0;
#X connect 17 7 25 0;
#X connect 19 0 1 0;
#X connect 20 0 4 0;
#X connect 29 0 7 0;
#X connect 34 0 1 1;
#X restore 2119 719 pd l-8;
#N canvas 617 127 908 890 l-9 0;
#X msg 298 182 resize \$1;
#X obj 298 150 *;
#X obj 298 84 t b b;
#X obj 298 56 r \$0_size_arrays;
#X msg 648 150 resize \$1;
#X obj 648 56 r \$0_size_arrays;
#X msg 298 609 resize \$1;
#X obj 298 576 *;
#X obj 298 510 t b b;
#X obj 298 482 r \$0_size_arrays;
#X obj 388 543 v \$0_m;
#X obj 298 642 t a a a a, f 10;
#X obj 53 56 r \$0_const_arrays;
#X obj 53 482 r \$0_const_arrays;
#X obj 53 510 t a a a a, f 10;
#X obj 298 210 t a a a a, f 10;
#X obj 648 178 t a a a a;
#X obj 53 84 t a a a a a a a a;
#X text 299 30 // L-9;
#X obj 298 117 v \$0_nL-9;
#X obj 388 117 v \$0_nL-10;
#X obj 648 117 v \$0_nL-9;
#X obj 298 253 array define \$0_WL-9;
#X obj 298 296 array define \$0_dWL-9;
#X obj 298 339 array define \$0_VdWL-9;
#X obj 298 379 array define \$0_SdWL-9;
#X obj 648 253 array define \$0_bL-9;
#X obj 649 296 array define \$0_dbL-9;
#X obj 648 339 array define \$0_VdbL-9;
#X obj 648 379 array define \$0_SdbL-9;
#X obj 298 543 v \$0_nL-9;
#X obj 298 685 array define \$0_ZL-9;
#X obj 297 728 array define \$0_dZL-9;
#X obj 295 771 array define \$0_AL-9;
#X obj 296 814 array define \$0_dAL-9;
#X connect 0 0 15 0;
#X connect 1 0 0 0;
#X connect 2 0 19 0;
#X connect 2 1 20 0;
#X connect 3 0 2 0;
#X connect 4 0 16 0;
#X connect 5 0 21 0;
#X connect 6 0 11 0;
#X connect 7 0 6 0;
#X connect 8 0 30 0;
#X connect 8 1 10 0;
#X connect 9 0 8 0;
#X connect 10 0 7 1;
#X connect 11 0 31 0;
#X connect 11 1 32 0;
#X connect 11 2 33 0;
#X connect 11 3 34 0;
#X connect 12 0 17 0;
#X connect 13 0 14 0;
#X connect 14 0 34 0;
#X connect 14 1 33 0;
#X connect 14 2 32 0;
#X connect 14 3 31 0;
#X connect 15 0 22 0;
#X connect 15 1 23 0;
#X connect 15 2 24 0;
#X connect 15 3 25 0;
#X connect 16 0 26 0;
#X connect 16 1 27 0;
#X connect 16 2 28 0;
#X connect 16 3 29 0;
#X connect 17 0 25 0;
#X connect 17 1 24 0;
#X connect 17 2 23 0;
#X connect 17 3 22 0;
#X connect 17 4 29 0;
#X connect 17 5 28 0;
#X connect 17 6 27 0;
#X connect 17 7 26 0;
#X connect 19 0 1 0;
#X connect 20 0 1 1;
#X connect 21 0 4 0;
#X connect 30 0 7 0;
#X restore 2119 752 pd l-9;
#X text 2105 688 // more arrays;
#X obj 117 755 v \$0_nL-6;
#X obj 777 755 v \$0_nL-7;
#X text 2193 716 // *** CURRENT INITIAL LAYER ***;
#X connect 0 0 1 0;
#X connect 2 0 30 0;
#X connect 3 0 186 0;
#X connect 4 0 3 0;
#X connect 5 0 15 0;
#X connect 5 1 16 0;
#X connect 6 0 5 0;
#X connect 7 0 187 0;
#X connect 8 0 19 0;
#X connect 9 0 27 0;
#X connect 10 0 9 0;
#X connect 11 0 22 0;
#X connect 11 1 13 0;
#X connect 12 0 11 0;
#X connect 13 0 10 1;
#X connect 15 0 4 0;
#X connect 16 0 4 1;
#X connect 19 0 7 0;
#X connect 22 0 10 0;
#X connect 27 0 23 0;
#X connect 27 1 24 0;
#X connect 27 2 25 0;
#X connect 27 3 26 0;
#X connect 31 0 188 0;
#X connect 32 0 119 0;
#X connect 33 0 191 0;
#X connect 34 0 33 0;
#X connect 35 0 47 0;
#X connect 35 1 48 0;
#X connect 36 0 35 0;
#X connect 37 0 192 0;
#X connect 38 0 49 0;
#X connect 39 0 44 0;
#X connect 40 0 39 0;
#X connect 41 0 61 0;
#X connect 41 1 43 0;
#X connect 42 0 41 0;
#X connect 43 0 40 1;
#X connect 44 0 56 0;
#X connect 44 1 58 0;
#X connect 44 2 57 0;
#X connect 44 3 59 0;
#X connect 45 0 193 0;
#X connect 46 0 120 0;
#X connect 47 0 34 0;
#X connect 48 0 34 1;
#X connect 49 0 37 0;
#X connect 61 0 40 0;
#X connect 62 0 196 0;
#X connect 63 0 62 0;
#X connect 64 0 77 0;
#X connect 64 1 123 0;
#X connect 65 0 64 0;
#X connect 66 0 197 0;
#X connect 67 0 78 0;
#X connect 68 0 73 0;
#X connect 69 0 68 0;
#X connect 70 0 85 0;
#X connect 70 1 72 0;
#X connect 71 0 70 0;
#X connect 72 0 69 1;
#X connect 73 0 86 0;
#X connect 73 1 88 0;
#X connect 73 2 87 0;
#X connect 73 3 89 0;
#X connect 74 0 198 0;
#X connect 75 0 121 0;
#X connect 77 0 63 0;
#X connect 78 0 66 0;
#X connect 85 0 69 0;
#X connect 90 0 201 0;
#X connect 91 0 90 0;
#X connect 92 0 106 0;
#X connect 92 1 124 0;
#X connect 93 0 92 0;
#X connect 94 0 202 0;
#X connect 95 0 107 0;
#X connect 96 0 101 0;
#X connect 97 0 96 0;
#X connect 98 0 114 0;
#X connect 98 1 100 0;
#X connect 99 0 98 0;
#X connect 100 0 97 1;
#X connect 101 0 115 0;
#X connect 101 1 117 0;
#X connect 101 2 116 0;
#X connect 101 3 118 0;
#X connect 102 0 203 0;
#X connect 103 0 122 0;
#X connect 104 0 2 0;
#X connect 106 0 91 0;
#X connect 107 0 94 0;
#X connect 114 0 97 0;
#X connect 119 0 23 0;
#X connect 119 1 24 0;
#X connect 119 2 25 0;
#X connect 119 3 26 0;
#X connect 120 0 56 0;
#X connect 120 1 58 0;
#X connect 120 2 57 0;
#X connect 120 3 59 0;
#X connect 121 0 86 0;
#X connect 121 1 88 0;
#X connect 121 2 87 0;
#X connect 121 3 89 0;
#X connect 122 0 115 0;
#X connect 122 1 117 0;
#X connect 122 2 116 0;
#X connect 122 3 118 0;
#X connect 123 0 63 1;
#X connect 124 0 91 1;
#X connect 125 0 206 0;
#X connect 126 0 125 0;
#X connect 127 0 141 0;
#X connect 127 1 142 0;
#X connect 128 0 127 0;
#X connect 129 0 207 0;
#X connect 130 0 143 0;
#X connect 131 0 136 0;
#X connect 132 0 131 0;
#X connect 133 0 150 0;
#X connect 133 1 135 0;
#X connect 134 0 133 0;
#X connect 135 0 132 1;
#X connect 136 0 151 0;
#X connect 136 1 153 0;
#X connect 136 2 152 0;
#X connect 136 3 154 0;
#X connect 137 0 208 0;
#X connect 138 0 139 0;
#X connect 139 0 151 0;
#X connect 139 1 153 0;
#X connect 139 2 152 0;
#X connect 139 3 154 0;
#X connect 141 0 126 0;
#X connect 142 0 126 1;
#X connect 143 0 129 0;
#X connect 150 0 132 0;
#X connect 155 0 211 0;
#X connect 156 0 155 0;
#X connect 157 0 171 0;
#X connect 157 1 286 0;
#X connect 158 0 157 0;
#X connect 159 0 212 0;
#X connect 160 0 172 0;
#X connect 161 0 166 0;
#X connect 162 0 161 0;
#X connect 163 0 179 0;
#X connect 163 1 165 0;
#X connect 164 0 163 0;
#X connect 165 0 162 1;
#X connect 166 0 180 0;
#X connect 166 1 182 0;
#X connect 166 2 181 0;
#X connect 166 3 183 0;
#X connect 167 0 213 0;
#X connect 168 0 169 0;
#X connect 169 0 180 0;
#X connect 169 1 182 0;
#X connect 169 2 181 0;
#X connect 169 3 183 0;
#X connect 171 0 156 0;
#X connect 172 0 159 0;
#X connect 179 0 162 0;
#X connect 186 0 17 0;
#X connect 186 1 18 0;
#X connect 186 2 28 0;
#X connect 186 3 184 0;
#X connect 187 0 20 0;
#X connect 187 1 21 0;
#X connect 187 2 29 0;
#X connect 187 3 185 0;
#X connect 188 0 17 0;
#X connect 188 1 18 0;
#X connect 188 2 28 0;
#X connect 188 3 20 0;
#X connect 188 4 21 0;
#X connect 188 5 29 0;
#X connect 188 6 184 0;
#X connect 188 7 185 0;
#X connect 191 0 50 0;
#X connect 191 1 51 0;
#X connect 191 2 52 0;
#X connect 191 3 189 0;
#X connect 192 0 53 0;
#X connect 192 1 54 0;
#X connect 192 2 55 0;
#X connect 192 3 190 0;
#X connect 193 0 50 0;
#X connect 193 1 51 0;
#X connect 193 2 52 0;
#X connect 193 3 53 0;
#X connect 193 4 54 0;
#X connect 193 5 55 0;
#X connect 193 6 189 0;
#X connect 193 7 190 0;
#X connect 196 0 79 0;
#X connect 196 1 80 0;
#X connect 196 2 81 0;
#X connect 196 3 194 0;
#X connect 197 0 82 0;
#X connect 197 1 83 0;
#X connect 197 2 84 0;
#X connect 197 3 195 0;
#X connect 198 0 79 0;
#X connect 198 1 80 0;
#X connect 198 2 81 0;
#X connect 198 3 82 0;
#X connect 198 4 83 0;
#X connect 198 5 84 0;
#X connect 198 6 194 0;
#X connect 198 7 195 0;
#X connect 201 0 108 0;
#X connect 201 1 109 0;
#X connect 201 2 110 0;
#X connect 201 3 199 0;
#X connect 202 0 111 0;
#X connect 202 1 112 0;
#X connect 202 2 113 0;
#X connect 202 3 200 0;
#X connect 203 0 108 0;
#X connect 203 1 109 0;
#X connect 203 2 110 0;
#X connect 203 3 111 0;
#X connect 203 4 112 0;
#X connect 203 5 113 0;
#X connect 203 6 199 0;
#X connect 203 7 200 0;
#X connect 206 0 144 0;
#X connect 206 1 145 0;
#X connect 206 2 146 0;
#X connect 206 3 204 0;
#X connect 207 0 147 0;
#X connect 207 1 148 0;
#X connect 207 2 149 0;
#X connect 207 3 205 0;
#X connect 208 0 144 0;
#X connect 208 1 145 0;
#X connect 208 2 146 0;
#X connect 208 3 147 0;
#X connect 208 4 148 0;
#X connect 208 5 149 0;
#X connect 208 6 204 0;
#X connect 208 7 205 0;
#X connect 211 0 173 0;
#X connect 211 1 174 0;
#X connect 211 2 175 0;
#X connect 211 3 209 0;
#X connect 212 0 176 0;
#X connect 212 1 177 0;
#X connect 212 2 178 0;
#X connect 212 3 210 0;
#X connect 213 0 173 0;
#X connect 213 1 174 0;
#X connect 213 2 175 0;
#X connect 213 3 176 0;
#X connect 213 4 177 0;
#X connect 213 5 178 0;
#X connect 213 6 209 0;
#X connect 213 7 210 0;
#X connect 214 0 229 0;
#X connect 215 0 214 0;
#X connect 216 0 233 0;
#X connect 216 1 287 0;
#X connect 217 0 216 0;
#X connect 218 0 230 0;
#X connect 219 0 234 0;
#X connect 220 0 225 0;
#X connect 221 0 220 0;
#X connect 222 0 243 0;
#X connect 222 1 224 0;
#X connect 223 0 222 0;
#X connect 224 0 221 1;
#X connect 225 0 244 0;
#X connect 225 1 246 0;
#X connect 225 2 245 0;
#X connect 225 3 247 0;
#X connect 226 0 231 0;
#X connect 227 0 228 0;
#X connect 228 0 244 0;
#X connect 228 1 246 0;
#X connect 228 2 245 0;
#X connect 228 3 247 0;
#X connect 229 0 235 0;
#X connect 229 1 236 0;
#X connect 229 2 237 0;
#X connect 229 3 238 0;
#X connect 230 0 239 0;
#X connect 230 1 240 0;
#X connect 230 2 241 0;
#X connect 230 3 242 0;
#X connect 231 0 235 0;
#X connect 231 1 236 0;
#X connect 231 2 237 0;
#X connect 231 3 239 0;
#X connect 231 4 240 0;
#X connect 231 5 241 0;
#X connect 231 6 238 0;
#X connect 231 7 242 0;
#X connect 233 0 215 0;
#X connect 234 0 218 0;
#X connect 243 0 221 0;
#X connect 248 0 263 0;
#X connect 249 0 248 0;
#X connect 250 0 267 0;
#X connect 250 1 268 0;
#X connect 251 0 250 0;
#X connect 252 0 264 0;
#X connect 253 0 269 0;
#X connect 254 0 259 0;
#X connect 255 0 254 0;
#X connect 256 0 278 0;
#X connect 256 1 258 0;
#X connect 257 0 256 0;
#X connect 258 0 255 1;
#X connect 259 0 279 0;
#X connect 259 1 281 0;
#X connect 259 2 280 0;
#X connect 259 3 282 0;
#X connect 260 0 265 0;
#X connect 261 0 262 0;
#X connect 262 0 279 0;
#X connect 262 1 281 0;
#X connect 262 2 280 0;
#X connect 262 3 282 0;
#X connect 263 0 270 0;
#X connect 263 1 271 0;
#X connect 263 2 272 0;
#X connect 263 3 273 0;
#X connect 264 0 274 0;
#X connect 264 1 275 0;
#X connect 264 2 276 0;
#X connect 264 3 277 0;
#X connect 265 0 270 0;
#X connect 265 1 271 0;
#X connect 265 2 272 0;
#X connect 265 3 274 0;
#X connect 265 4 275 0;
#X connect 265 5 276 0;
#X connect 265 6 273 0;
#X connect 265 7 277 0;
#X connect 267 0 249 0;
#X connect 268 0 249 1;
#X connect 269 0 252 0;
#X connect 278 0 255 0;
#X connect 286 0 156 1;
#X connect 287 0 215 1;
#X restore 17 261 pd arrays;
#X msg 86 228 bang;
#N canvas 1507 694 521 409 resize_X_and_Y 0;
#X obj 66 248 array size \$0_X;
#X obj 92 154 v \$0_m;
#X obj 150 154 v \$0_nx;
#X obj 92 187 *;
#X msg 66 93 bang;
#X obj 66 121 t b b b;
#X obj 252 154 v \$0_m;
#X obj 252 187 *;
#X msg 226 93 bang;
#X obj 226 121 t b b b;
#X obj 310 154 v \$0_ny;
#X obj 226 248 array size \$0_Y;
#X obj 66 12 inlet bang;
#X obj 66 40 t b b;
#X obj 66 276 outlet X_size;
#X obj 226 276 outlet Y_size;
#X connect 0 0 14 0;
#X connect 1 0 3 0;
#X connect 2 0 3 1;
#X connect 3 0 0 0;
#X connect 4 0 5 0;
#X connect 5 0 0 0;
#X connect 5 1 1 0;
#X connect 5 2 2 0;
#X connect 6 0 7 0;
#X connect 7 0 11 0;
#X connect 8 0 9 0;
#X connect 9 0 11 0;
#X connect 9 1 6 0;
#X connect 9 2 10 0;
#X connect 10 0 7 1;
#X connect 11 0 15 0;
#X connect 12 0 13 0;
#X connect 13 0 4 0;
#X connect 13 1 8 0;
#X restore 496 261 pd resize_X_and_Y;
#X msg 496 228 bang;
#X obj 154 26 bng 40 250 50 0 \$0_init \$0_refresh init 0 -12 0 16 #fcfcfc #000000 #000000;
#X obj 240 59 v \$0_leak;
#X obj 240 30 nbx 5 21 0 1 0 1 empty \$0_init leak 0 -12 0 16 #fcfcfc #000000 #000000 0.02 256;
#X obj 380 30 nbx 6 21 0.01 1 1 1 empty \$0_init alpha 0 -12 0 16 #fcfcfc #000000 #000000 0.01 256;
#N canvas 808 121 1609 1281 initialize_params 0;
#X obj 154 46 inlet;
#X obj 1209 124 v \$0_nx;
#X obj 154 124 v \$0_nL-0;
#X obj 246 124 v \$0_nL-1;
#X obj 344 124 v \$0_nL-2;
#X obj 442 124 v \$0_nL-3;
#X obj 540 124 v \$0_nL-4;
#X obj 638 124 v \$0_nL-5;
#X obj 736 124 v \$0_nL-6;
#X obj 834 124 v \$0_nL-7;
#X obj 932 124 v \$0_nL-8;
#X obj 1030 124 v \$0_nL-9;
#X obj 1067 283 cml.he_initialization;
#X obj 1232 250 v \$0_ns;
#X obj 1067 185 pack f f;
#X obj 1067 246 t b a b;
#X msg 1067 218 layer 9 \, layer_dims \$1 \$2;
#X obj 1030 152 t f f;
#X obj 932 152 t f f;
#X obj 834 152 t f f;
#X obj 736 152 t f f;
#X obj 638 152 t f f;
#X obj 540 152 t f f;
#X obj 442 152 t f f;
#X obj 344 152 t f f;
#X obj 246 152 t f f;
#X obj 969 381 cml.he_initialization;
#X obj 1134 348 v \$0_ns;
#X obj 969 283 pack f f;
#X obj 969 344 t b a b;
#X msg 969 316 layer 8 \, layer_dims \$1 \$2;
#X obj 871 479 cml.he_initialization;
#X obj 1036 446 v \$0_ns;
#X obj 871 381 pack f f;
#X obj 871 442 t b a b;
#X msg 871 414 layer 7 \, layer_dims \$1 \$2;
#X obj 773 577 cml.he_initialization;
#X obj 938 544 v \$0_ns;
#X obj 773 479 pack f f;
#X obj 773 540 t b a b;
#X msg 773 512 layer 6 \, layer_dims \$1 \$2;
#X obj 675 675 cml.he_initialization;
#X obj 840 642 v \$0_ns;
#X obj 675 577 pack f f;
#X obj 675 638 t b a b;
#X msg 675 610 layer 5 \, layer_dims \$1 \$2;
#X obj 577 773 cml.he_initialization;
#X obj 742 740 v \$0_ns;
#X obj 577 675 pack f f;
#X obj 577 736 t b a b;
#X msg 577 708 layer 4 \, layer_dims \$1 \$2;
#X obj 479 871 cml.he_initialization;
#X obj 644 838 v \$0_ns;
#X obj 479 773 pack f f;
#X obj 479 834 t b a b;
#X msg 479 806 layer 3 \, layer_dims \$1 \$2;
#X obj 381 969 cml.he_initialization;
#X obj 546 936 v \$0_ns;
#X obj 381 871 pack f f;
#X obj 381 932 t b a b;
#X obj 283 1067 cml.he_initialization;
#X obj 448 1034 v \$0_ns;
#X obj 283 969 pack f f;
#X obj 283 1030 t b a b;
#X obj 153 1165 cml.he_initialization;
#X obj 318 1132 v \$0_ns;
#X obj 153 1067 pack f f, f 12;
#X obj 153 1128 t b a b;
#X msg 381 904 layer 2 \, layer_dims \$1 \$2;
#X msg 283 1002 layer 1 \, layer_dims \$1 \$2;
#X msg 153 1100 layer 0 \, layer_dims \$1 \$2;
#X obj 154 74 t b b b b b b b b b b b, f 114;
#X text 1296 125 // Set right inlet of initial layer to nx \;;
#X text 1188 312 // *** current initial layer *** \;;
#X obj 1209 152 t f f;
#X connect 0 0 71 0;
#X connect 1 0 74 0;
#X connect 2 0 66 0;
#X connect 3 0 25 0;
#X connect 4 0 24 0;
#X connect 5 0 23 0;
#X connect 6 0 22 0;
#X connect 7 0 21 0;
#X connect 8 0 20 0;
#X connect 9 0 19 0;
#X connect 10 0 18 0;
#X connect 11 0 17 0;
#X connect 13 0 12 1;
#X connect 14 0 16 0;
#X connect 15 0 12 0;
#X connect 15 1 12 0;
#X connect 15 2 13 0;
#X connect 16 0 15 0;
#X connect 17 0 14 0;
#X connect 18 0 33 1;
#X connect 18 1 28 0;
#X connect 19 0 38 1;
#X connect 19 1 33 0;
#X connect 20 0 43 1;
#X connect 20 1 38 0;
#X connect 21 0 48 1;
#X connect 21 1 43 0;
#X connect 22 0 53 1;
#X connect 22 1 48 0;
#X connect 23 0 58 1;
#X connect 23 1 53 0;
#X connect 24 0 62 1;
#X connect 24 1 58 0;
#X connect 25 0 66 1;
#X connect 25 1 62 0;
#X connect 27 0 26 1;
#X connect 28 0 30 0;
#X connect 29 0 26 0;
#X connect 29 1 26 0;
#X connect 29 2 27 0;
#X connect 30 0 29 0;
#X connect 32 0 31 1;
#X connect 33 0 35 0;
#X connect 34 0 31 0;
#X connect 34 1 31 0;
#X connect 34 2 32 0;
#X connect 35 0 34 0;
#X connect 37 0 36 1;
#X connect 38 0 40 0;
#X connect 39 0 36 0;
#X connect 39 1 36 0;
#X connect 39 2 37 0;
#X connect 40 0 39 0;
#X connect 42 0 41 1;
#X connect 43 0 45 0;
#X connect 44 0 41 0;
#X connect 44 1 41 0;
#X connect 44 2 42 0;
#X connect 45 0 44 0;
#X connect 47 0 46 1;
#X connect 48 0 50 0;
#X connect 49 0 46 0;
#X connect 49 1 46 0;
#X connect 49 2 47 0;
#X connect 50 0 49 0;
#X connect 52 0 51 1;
#X connect 53 0 55 0;
#X connect 54 0 51 0;
#X connect 54 1 51 0;
#X connect 54 2 52 0;
#X connect 55 0 54 0;
#X connect 57 0 56 1;
#X connect 58 0 68 0;
#X connect 59 0 56 0;
#X connect 59 1 56 0;
#X connect 59 2 57 0;
#X connect 61 0 60 1;
#X connect 62 0 69 0;
#X connect 63 0 60 0;
#X connect 63 1 60 0;
#X connect 63 2 61 0;
#X connect 65 0 64 1;
#X connect 66 0 70 0;
#X connect 67 0 64 0;
#X connect 67 1 64 0;
#X connect 67 2 65 0;
#X connect 68 0 59 0;
#X connect 69 0 63 0;
#X connect 70 0 67 0;
#X connect 71 0 2 0;
#X connect 71 1 3 0;
#X connect 71 2 4 0;
#X connect 71 3 5 0;
#X connect 71 4 6 0;
#X connect 71 5 7 0;
#X connect 71 6 8 0;
#X connect 71 7 9 0;
#X connect 71 8 10 0;
#X connect 71 9 11 0;
#X connect 71 10 1 0;
#X connect 74 0 14 1;
#X connect 74 1 28 1;
#X restore 307 261 pd initialize_params;
#X msg 307 228 bang;
#X obj 663 27 nbx 5 21 0.01 1 1 1 empty \$0_init mu 0 -12 0 16 #fcfcfc #000000 #000000 0.9 256;
#X obj 663 56 s \$0_beta;
#X obj 380 59 s \$0_alpha;
#X obj 771 30 nbx 5 21 0.01 1 1 1 empty \$0_init rho 0 -12 0 16 #fcfcfc #000000 #000000 0.999 256;
#X obj 770 59 s \$0_rho;
#X obj 1077 195 v \$0_nL-7;
#X obj 1173 195 v \$0_nL-8;
#X msg 1270 167 2;
#X obj 1270 195 v \$0_nL-9;
#X obj 17 134 t b b b b b b b b b b b b b b, f 157;
#X text 134 229 // Zero all arrays \;;
#X obj 1418 469 cml.layer_forward;
#X obj 1551 441 v \$0_ns;
#X obj 1436 409 t a b, f 12;
#X obj 1436 381 r \$0_init_l6;
#X msg 788 167 8;
#X obj 490 472 mod 5;
#X obj 1418 47 metro 87;
#X obj 1688 969 t b b;
#X obj 1725 997 s \$0_b_after_f;
#N canvas 736 213 1024 1004 midi_out 0;
#X obj 1740 65 f;
#X obj 1740 93 t f f;
#X obj 1798 93 + 1;
#X obj 1740 131 mod 4;
#X obj 1740 159 sel 0;
#X obj 1740 37 r \$0_m_b;
#X msg 151 299 1;
#X floatatom 1790 132 5 0 0 0 - - - 0;
#X obj 1740 187 f;
#X obj 1740 215 t f f;
#X obj 1798 216 + 1;
#X obj 1740 243 mod 4;
#N canvas 36 374 424 270 quantize 0;
#X obj 84 63 ftom;
#X obj 84 94 int;
#X obj 84 150 mtof;
#X obj 84 121 expr if($f1 % 2 == 0 \, $f1 \, $f1 - 1);
#X obj 84 27 inlet;
#X obj 84 178 outlet;
#X obj 186 179 outlet midi;
#X connect 0 0 1 0;
#X connect 1 0 3 0;
#X connect 2 0 5 0;
#X connect 3 0 2 0;
#X connect 3 0 6 0;
#X connect 4 0 0 0;
#X restore 85 492 pd quantize;
#X floatatom 1803 245 5 0 0 0 - - - 0;
#X obj 85 704 noteout;
#X obj 85 656 makenote;
#X obj 85 578 t f b b;
#X msg 156 618 25;
#X obj 85 326 array get \$0_AL-0;
#X msg 116 618 25;
#X obj 85 546 expr if($f1 < 82 \, $f1 \, 82);
#X obj 85 368 * 0.5;
#X obj 85 396 + 0.5;
#X obj 85 31 r \$0_m_i;
#X msg 603 274 1;
#X obj 573 26 r \$0_b_after_f;
#X obj 573 111 f;
#X obj 730 139 + 1;
#X msg 594 83 0;
#X obj 612 55 r \$0_init;
#X obj 573 139 t f f f, f 18;
#X obj 151 271 r \$0_init;
#X obj 603 246 r \$0_init;
#X obj 539 301 array get \$0_AL-1;
#X msg 806 274 1;
#X obj 806 246 r \$0_init;
#X obj 742 301 array get \$0_AL-2;
#X obj 85 424 * 127;
#X floatatom 141 423 5 0 0 0 - - - 0;
#X obj 85 452 + 1;
#X floatatom 128 453 5 0 0 0 - - - 0;
#X obj 85 62 t f;
#X obj 539 407 * 127;
#X floatatom 595 406 5 0 0 0 - - - 0;
#X floatatom 582 436 5 0 0 0 - - - 0;
#X obj 742 407 * 127;
#X floatatom 798 406 5 0 0 0 - - - 0;
#X floatatom 785 436 5 0 0 0 - - - 0;
#X obj 539 505 ctlout 1;
#X text 549 473 // mod output;
#X text 750 475 // cc output;
#X floatatom 365 711 5 0 0 0 - - - 0;
#X obj 742 505 ctlout 2;
#X obj 573 167 mod 16;
#X obj 643 167 mod 16;
#X obj 539 435 + 0;
#X obj 742 435 + 0;
#X connect 0 0 1 0;
#X connect 1 0 3 0;
#X connect 1 1 2 0;
#X connect 2 0 0 1;
#X connect 3 0 4 0;
#X connect 4 0 8 0;
#X connect 5 0 0 0;
#X connect 6 0 18 1;
#X connect 7 0 3 1;
#X connect 8 0 9 0;
#X connect 9 0 11 0;
#X connect 9 1 10 0;
#X connect 10 0 8 1;
#X connect 12 0 20 0;
#X connect 12 1 51 0;
#X connect 13 0 11 1;
#X connect 15 0 14 0;
#X connect 15 1 14 1;
#X connect 16 0 15 0;
#X connect 16 1 19 0;
#X connect 16 2 17 0;
#X connect 17 0 15 2;
#X connect 18 0 21 0;
#X connect 19 0 15 1;
#X connect 20 0 16 0;
#X connect 21 0 22 0;
#X connect 22 0 37 0;
#X connect 23 0 41 0;
#X connect 24 0 33 1;
#X connect 25 0 26 0;
#X connect 26 0 30 0;
#X connect 27 0 26 1;
#X connect 28 0 26 1;
#X connect 29 0 28 0;
#X connect 30 0 53 0;
#X connect 30 1 54 0;
#X connect 30 2 27 0;
#X connect 31 0 6 0;
#X connect 32 0 24 0;
#X connect 33 0 42 0;
#X connect 34 0 36 1;
#X connect 35 0 34 0;
#X connect 36 0 45 0;
#X connect 37 0 39 0;
#X connect 38 0 37 1;
#X connect 39 0 12 0;
#X connect 40 0 39 1;
#X connect 41 0 18 0;
#X connect 42 0 55 0;
#X connect 43 0 42 1;
#X connect 44 0 55 1;
#X connect 45 0 56 0;
#X connect 46 0 45 1;
#X connect 47 0 56 1;
#X connect 53 0 33 0;
#X connect 54 0 36 0;
#X connect 55 0 48 0;
#X connect 56 0 52 0;
#X restore 247 727 pd midi_out;
#X f 27;
#X obj 752 392 r \$0_b_after_f;
#X obj 752 477 f;
#X obj 909 505 + 1;
#X msg 773 449 0;
#X obj 791 421 r \$0_init;
#X obj 752 505 t f f f, f 18;
#X obj 752 533 mod 32;
#X obj 822 533 mod 32;
#X obj 822 561 / 32;
#X obj 822 589 * 360;
#X obj 822 617 sin;
#N canvas 858 887 689 326 init_layer_7 0;
#X obj 283 123 v \$0_m;
#X obj 522 123 v \$0_leak;
#X obj 45 60 t b b b b b, f 60;
#X obj 45 27 r \$0_init;
#X obj 45 156 pack f f f s f, f 60;
#X msg 403 123 symbol relu;
#X obj 45 123 v \$0_nL-7;
#X obj 164 123 v \$0_nL-8;
#X obj 45 240 s \$0_init_l7;
#X msg 45 189 layer_number 7 \, layer_dims \$1 \$2 \, m \$3 \, activation \$4 \, leak \$5;
#X connect 0 0 4 2;
#X connect 1 0 4 4;
#X connect 2 0 6 0;
#X connect 2 1 7 0;
#X connect 2 2 0 0;
#X connect 2 3 5 0;
#X connect 2 4 1 0;
#X connect 3 0 2 0;
#X connect 4 0 9 0;
#X connect 5 0 4 3;
#X connect 6 0 4 0;
#X connect 7 0 4 1;
#X connect 9 0 8 0;
#X restore 20 349 pd init_layer_7;
#N canvas 870 995 689 326 init_layer_8 0;
#X obj 283 123 v \$0_m;
#X obj 522 123 v \$0_leak;
#X obj 45 60 t b b b b b, f 60;
#X obj 45 27 r \$0_init;
#X obj 45 156 pack f f f s f, f 60;
#X msg 403 123 symbol relu;
#X obj 45 123 v \$0_nL-8;
#X obj 164 123 v \$0_nx;
#X obj 45 240 s \$0_init_l8;
#X msg 45 189 layer_number 8 \, layer_dims \$1 \$2 \, m \$3 \, activation \$4 \, leak \$5 \, initial_layer 1;
#X connect 0 0 4 2;
#X connect 1 0 4 4;
#X connect 2 0 6 0;
#X connect 2 1 7 0;
#X connect 2 2 0 0;
#X connect 2 3 5 0;
#X connect 2 4 1 0;
#X connect 3 0 2 0;
#X connect 4 0 9 0;
#X connect 5 0 4 3;
#X connect 6 0 4 0;
#X connect 7 0 4 1;
#X connect 9 0 8 0;
#X restore 22 320 pd init_layer_8;
#N canvas 624 1076 689 326 init_d_layer_7 0;
#X obj 283 123 v \$0_m;
#X obj 522 123 v \$0_leak;
#X obj 45 60 t b b b b b, f 60;
#X obj 45 27 r \$0_init;
#X obj 45 156 pack f f f s f, f 60;
#X msg 402 123 symbol relu;
#X obj 45 123 v \$0_nL-7;
#X obj 164 123 v \$0_nL-8;
#X obj 45 240 s \$0_init_d_l7;
#X msg 45 187 layer_number 7 \, layer_dims \$1 \$2 \, m \$3 \, activation \$4 \, leak \$5 \, adam 1;
#X connect 0 0 4 2;
#X connect 1 0 4 4;
#X connect 2 0 6 0;
#X connect 2 1 7 0;
#X connect 2 2 0 0;
#X connect 2 3 5 0;
#X connect 2 4 1 0;
#X connect 3 0 2 0;
#X connect 4 0 9 0;
#X connect 5 0 4 3;
#X connect 6 0 4 0;
#X connect 7 0 4 1;
#X connect 9 0 8 0;
#X restore 19 875 pd init_d_layer_7;
#N canvas 520 958 689 326 init_d_layer_8 0;
#X obj 283 123 v \$0_m;
#X obj 522 123 v \$0_leak;
#X obj 45 60 t b b b b b, f 60;
#X obj 45 27 r \$0_init;
#X obj 45 156 pack f f f s f, f 60;
#X msg 402 123 symbol relu;
#X obj 45 123 v \$0_nL-8;
#X obj 164 123 v \$0_nx;
#X obj 45 240 s \$0_init_d_l8;
#X msg 45 187 layer_number 8 \, layer_dims \$1 \$2 \, m \$3 \, activation \$4 \, leak \$5 \, adam 1 \, initial_layer 1;
#X connect 0 0 4 2;
#X connect 1 0 4 4;
#X connect 2 0 6 0;
#X connect 2 1 7 0;
#X connect 2 2 0 0;
#X connect 2 3 5 0;
#X connect 2 4 1 0;
#X connect 3 0 2 0;
#X connect 4 0 9 0;
#X connect 5 0 4 3;
#X connect 6 0 4 0;
#X connect 7 0 4 1;
#X connect 9 0 8 0;
#X restore 19 905 pd init_d_layer_8;
#N canvas 707 1076 689 326 init_u_layer_7 0;
#X obj 45 27 r \$0_init;
#X obj 45 60 t b b, f 60;
#X obj 45 126 pack f f, f 60;
#X obj 45 93 v \$0_nL-7;
#X msg 45 159 layer_number 7 \, layer_dims \$1 \$2 \, rmsprop 0 \, gd 0 \, adam 1;
#X obj 45 210 s \$0_init_u_l7;
#X obj 522 93 v \$0_nL-8;
#X connect 0 0 1 0;
#X connect 1 0 3 0;
#X connect 1 1 6 0;
#X connect 2 0 4 0;
#X connect 3 0 2 0;
#X connect 4 0 5 0;
#X connect 6 0 2 1;
#X restore 19 1194 pd init_u_layer_7;
#N canvas 703 1075 689 326 init_u_layer_8 0;
#X obj 45 27 r \$0_init;
#X obj 45 60 t b b, f 60;
#X obj 45 126 pack f f, f 60;
#X obj 45 93 v \$0_nL-8;
#X obj 522 93 v \$0_nx;
#X msg 45 159 layer_number 8 \, layer_dims \$1 \$2 \, rmsprop 0 \, gd 0 \, adam 1;
#X obj 45 210 s \$0_init_u_l8;
#X connect 0 0 1 0;
#X connect 1 0 3 0;
#X connect 1 1 4 0;
#X connect 2 0 5 0;
#X connect 3 0 2 0;
#X connect 4 0 2 1;
#X connect 5 0 6 0;
#X restore 19 1224 pd init_u_layer_8;
#N canvas 576 1076 689 326 init_d_layer_6 0;
#X obj 283 123 v \$0_m;
#X obj 522 123 v \$0_leak;
#X obj 45 60 t b b b b b, f 60;
#X obj 45 27 r \$0_init;
#X obj 45 156 pack f f f s f, f 60;
#X msg 402 123 symbol relu;
#X obj 45 123 v \$0_nL-6;
#X obj 164 123 v \$0_nL-7;
#X obj 45 240 s \$0_init_d_l6;
#X msg 45 187 layer_number 6 \, layer_dims \$1 \$2 \, m \$3 \, activation \$4 \, leak \$5 \, adam 1;
#X connect 0 0 4 2;
#X connect 1 0 4 4;
#X connect 2 0 6 0;
#X connect 2 1 7 0;
#X connect 2 2 0 0;
#X connect 2 3 5 0;
#X connect 2 4 1 0;
#X connect 3 0 2 0;
#X connect 4 0 9 0;
#X connect 5 0 4 3;
#X connect 6 0 4 0;
#X connect 7 0 4 1;
#X connect 9 0 8 0;
#X restore 20 842 pd init_d_layer_6;
#X obj 1418 319 cml.layer_forward;
#X obj 1551 291 v \$0_ns;
#X obj 1436 259 t a b, f 12;
#X obj 1418 179 cml.layer_forward;
#X obj 1551 151 v \$0_ns;
#X obj 1436 119 t a b, f 12;
#X obj 1436 91 r \$0_init_l8;
#X obj 1436 231 r \$0_init_l7;
#X obj 2209 1002 cml.layer_backward;
#X obj 2350 969 v \$0_ns;
#X obj 2219 933 t a b;
#X obj 2209 1127 cml.layer_backward;
#X obj 2350 1094 v \$0_ns;
#X obj 2219 1058 t a b;
#X obj 2209 1251 cml.layer_backward;
#X obj 2350 1218 v \$0_ns;
#X obj 2219 1182 t a b;
#X obj 2219 905 r \$0_init_d_l6;
#X obj 2219 1030 r \$0_init_d_l7;
#X obj 2219 1154 r \$0_init_d_l8;
#X obj 2209 1295 s \$0_update_params;
#X obj 2789 959 cml.update_layer_params;
#X obj 2970 925 v \$0_ns;
#X obj 2799 889 t a b;
#X obj 2789 1090 cml.update_layer_params;
#X obj 2970 1056 v \$0_ns;
#X obj 2799 1020 t a b;
#X obj 2789 1221 cml.update_layer_params;
#X obj 2970 1187 v \$0_ns;
#X obj 2799 1151 t a b;
#X obj 2799 861 r \$0_init_u_l6;
#X obj 2799 992 r \$0_init_u_l7;
#X obj 2799 1123 r \$0_init_u_l8;
#X msg 114 167 4;
#X msg 209 167 4;
#X msg 498 167 4;
#X msg 595 167 4;
#X msg 691 167 4;
#X msg 884 167 8;
#X msg 980 167 8;
#X msg 1077 167 8;
#X msg 1173 167 16;
#X obj 305 1058 print;
#X msg 305 1002 bang;
#X obj 305 1030 array get \$0_dbL-5;
#X connect 21 0 24 0;
#X connect 22 0 21 1;
#X connect 23 0 21 0;
#X connect 23 1 22 0;
#X connect 24 0 189 0;
#X connect 25 0 24 1;
#X connect 26 0 24 0;
#X connect 26 1 25 0;
#X connect 27 0 26 0;
#X connect 28 0 31 0;
#X connect 29 0 28 1;
#X connect 30 0 28 0;
#X connect 30 1 29 0;
#X connect 31 0 21 0;
#X connect 32 0 31 1;
#X connect 33 0 31 0;
#X connect 33 1 32 0;
#X connect 34 0 33 0;
#X connect 35 0 30 0;
#X connect 36 0 28 0;
#X connect 37 0 36 1;
#X connect 38 0 36 0;
#X connect 38 1 37 0;
#X connect 39 0 38 0;
#X connect 40 0 41 0;
#X connect 41 0 50 0;
#X connect 41 1 42 0;
#X connect 42 0 40 1;
#X connect 43 0 40 1;
#X connect 44 0 45 0;
#X connect 45 0 43 0;
#X connect 45 1 46 0;
#X connect 46 0 49 0;
#X connect 47 0 48 0;
#X connect 49 0 50 1;
#X connect 49 1 51 0;
#X connect 50 0 53 0;
#X connect 51 0 47 1;
#X connect 53 0 47 0;
#X connect 53 1 52 0;
#X connect 54 0 188 0;
#X connect 55 0 23 0;
#X connect 56 0 60 0;
#X connect 57 0 58 0;
#X connect 58 0 56 1;
#X connect 59 0 56 1;
#X connect 60 0 62 0;
#X connect 62 0 144 0;
#X connect 63 0 60 1;
#X connect 64 0 187 1;
#X connect 65 0 36 0;
#X connect 66 0 65 1;
#X connect 67 0 65 0;
#X connect 67 1 66 0;
#X connect 68 0 67 0;
#X connect 69 0 128 0;
#X connect 70 0 83 0;
#X connect 71 0 73 0;
#X connect 72 0 70 0;
#X connect 73 0 72 0;
#X connect 73 1 74 0;
#X connect 74 0 72 1;
#X connect 75 0 77 0;
#X connect 76 0 70 1;
#X connect 77 0 70 0;
#X connect 77 1 76 0;
#X connect 78 0 99 0;
#X connect 79 0 81 0;
#X connect 80 0 78 2;
#X connect 81 0 78 0;
#X connect 81 1 80 0;
#X connect 82 0 72 0;
#X connect 83 0 87 0;
#X connect 84 0 83 1;
#X connect 85 0 83 0;
#X connect 85 1 84 0;
#X connect 86 0 85 0;
#X connect 87 0 91 0;
#X connect 88 0 87 1;
#X connect 89 0 87 0;
#X connect 89 1 88 0;
#X connect 90 0 89 0;
#X connect 91 0 95 0;
#X connect 92 0 91 1;
#X connect 93 0 91 0;
#X connect 93 1 92 0;
#X connect 94 0 93 0;
#X connect 95 0 116 0;
#X connect 96 0 95 1;
#X connect 97 0 95 0;
#X connect 97 1 96 0;
#X connect 98 0 97 0;
#X connect 99 0 103 0;
#X connect 100 0 99 2;
#X connect 101 0 99 0;
#X connect 101 1 100 0;
#X connect 102 0 101 0;
#X connect 103 0 107 0;
#X connect 104 0 103 2;
#X connect 105 0 103 0;
#X connect 105 1 104 0;
#X connect 106 0 105 0;
#X connect 107 0 111 0;
#X connect 108 0 107 2;
#X connect 109 0 107 0;
#X connect 109 1 108 0;
#X connect 110 0 109 0;
#X connect 111 0 120 0;
#X connect 112 0 111 2;
#X connect 113 0 111 0;
#X connect 113 1 112 0;
#X connect 114 0 113 0;
#X connect 115 0 78 0;
#X connect 116 0 218 0;
#X connect 117 0 116 1;
#X connect 118 0 116 0;
#X connect 118 1 117 0;
#X connect 119 0 118 0;
#X connect 120 0 231 0;
#X connect 121 0 120 2;
#X connect 122 0 120 0;
#X connect 122 1 121 0;
#X connect 123 0 122 0;
#X connect 124 0 125 0;
#X connect 125 0 103 0;
#X connect 125 0 78 0;
#X connect 125 0 120 0;
#X connect 125 0 111 0;
#X connect 125 0 107 0;
#X connect 125 0 99 0;
#X connect 125 0 231 0;
#X connect 125 0 237 0;
#X connect 125 0 234 0;
#X connect 128 0 187 0;
#X connect 128 1 127 1;
#X connect 129 0 130 0;
#X connect 130 0 87 0;
#X connect 130 0 70 0;
#X connect 130 0 116 0;
#X connect 130 0 95 0;
#X connect 130 0 91 0;
#X connect 130 0 83 0;
#X connect 130 0 218 0;
#X connect 130 0 224 0;
#X connect 130 0 221 0;
#X connect 131 0 50 1;
#X connect 132 0 133 0;
#X connect 133 0 70 0;
#X connect 133 0 116 0;
#X connect 133 0 95 0;
#X connect 133 0 91 0;
#X connect 133 0 87 0;
#X connect 133 0 83 0;
#X connect 133 0 218 0;
#X connect 133 0 224 0;
#X connect 133 0 221 0;
#X connect 134 0 135 0;
#X connect 135 0 78 0;
#X connect 135 0 120 0;
#X connect 135 0 111 0;
#X connect 135 0 107 0;
#X connect 135 0 103 0;
#X connect 135 0 99 0;
#X connect 135 0 231 0;
#X connect 135 0 237 0;
#X connect 135 0 234 0;
#X connect 136 0 137 0;
#X connect 137 0 78 0;
#X connect 137 0 120 0;
#X connect 137 0 111 0;
#X connect 137 0 107 0;
#X connect 137 0 103 0;
#X connect 137 0 99 0;
#X connect 137 0 231 0;
#X connect 137 0 237 0;
#X connect 137 0 234 0;
#X connect 138 0 78 1;
#X connect 138 0 120 1;
#X connect 138 0 111 1;
#X connect 138 0 107 1;
#X connect 138 0 103 1;
#X connect 138 0 99 1;
#X connect 138 0 231 1;
#X connect 138 0 237 1;
#X connect 138 0 234 1;
#X connect 141 0 142 0;
#X connect 142 0 54 0;
#X connect 142 1 143 0;
#X connect 144 0 61 0;
#X connect 145 0 146 0;
#X connect 146 0 180 0;
#X connect 146 1 147 0;
#X connect 147 0 148 0;
#X connect 151 0 152 0;
#X connect 153 0 154 0;
#X connect 162 0 161 1;
#X connect 164 0 163 0;
#X connect 167 0 166 0;
#X connect 168 0 173 0;
#X connect 170 0 169 0;
#X connect 171 0 172 0;
#X connect 174 0 175 0;
#X connect 178 0 179 0;
#X connect 180 0 161 0;
#X connect 180 1 243 0;
#X connect 180 2 244 0;
#X connect 180 3 151 0;
#X connect 180 4 153 0;
#X connect 180 5 245 0;
#X connect 180 6 246 0;
#X connect 180 7 247 0;
#X connect 180 8 186 0;
#X connect 180 9 248 0;
#X connect 180 10 249 0;
#X connect 180 11 250 0;
#X connect 180 12 251 0;
#X connect 180 13 178 0;
#X connect 182 0 65 0;
#X connect 183 0 182 1;
#X connect 184 0 182 0;
#X connect 184 1 183 0;
#X connect 185 0 184 0;
#X connect 186 0 158 0;
#X connect 187 0 56 0;
#X connect 188 0 213 0;
#X connect 189 0 40 0;
#X connect 189 1 190 0;
#X connect 192 0 193 0;
#X connect 193 0 197 0;
#X connect 194 0 193 1;
#X connect 195 0 193 1;
#X connect 196 0 195 0;
#X connect 197 0 198 0;
#X connect 197 1 199 0;
#X connect 197 2 194 0;
#X connect 199 0 200 0;
#X connect 200 0 201 0;
#X connect 201 0 202 0;
#X connect 202 0 126 1;
#X connect 210 0 182 0;
#X connect 211 0 210 1;
#X connect 212 0 210 0;
#X connect 212 1 211 0;
#X connect 213 0 210 0;
#X connect 214 0 213 1;
#X connect 215 0 213 0;
#X connect 215 1 214 0;
#X connect 216 0 215 0;
#X connect 217 0 212 0;
#X connect 218 0 221 0;
#X connect 219 0 218 1;
#X connect 220 0 218 0;
#X connect 220 1 219 0;
#X connect 221 0 224 0;
#X connect 222 0 221 1;
#X connect 223 0 221 0;
#X connect 223 1 222 0;
#X connect 224 0 230 0;
#X connect 225 0 224 1;
#X connect 226 0 224 0;
#X connect 226 1 225 0;
#X connect 227 0 220 0;
#X connect 228 0 223 0;
#X connect 229 0 226 0;
#X connect 231 0 234 0;
#X connect 232 0 231 2;
#X connect 233 0 231 0;
#X connect 233 1 232 0;
#X connect 234 0 237 0;
#X connect 235 0 234 2;
#X connect 236 0 234 0;
#X connect 236 1 235 0;
#X connect 238 0 237 2;
#X connect 239 0 237 0;
#X connect 239 1 238 0;
#X connect 240 0 233 0;
#X connect 241 0 236 0;
#X connect 242 0 239 0;
#X connect 243 0 149 0;
#X connect 244 0 150 0;
#X connect 245 0 155 0;
#X connect 246 0 156 0;
#X connect 247 0 157 0;
#X connect 248 0 159 0;
#X connect 249 0 160 0;
#X connect 250 0 176 0;
#X connect 251 0 177 0;
#X connect 253 0 254 0;
#X connect 254 0 252 0;
