#N canvas 989 70 563 450 16;
#X obj 44 39 inlet bang;
#X obj 343 39 inlet s_array;
#X obj 154 39 inlet size;
#X obj 343 67 t b s;
#X obj 311 228 array get;
#X msg 345 200 1;
#X obj 133 112 f;
#X obj 133 140 cml.range;
#X obj 311 256 pow 2;
#X obj 202 284 cml.plus_equal;
#X obj 202 312 outlet norm;
#X connect 0 0 6 0;
#X connect 1 0 3 0;
#X connect 2 0 6 1;
#X connect 3 0 5 0;
#X connect 3 1 4 2;
#X connect 4 0 8 0;
#X connect 5 0 4 1;
#X connect 6 0 7 0;
#X connect 7 0 4 0;
#X connect 7 1 9 0;
#X connect 8 0 9 1;
#X connect 9 0 10 0;
