#N canvas 4 70 1712 1332 16;
#N canvas 94 206 3051 1196 arrays 0;
#X obj 61 36 inlet;
#X obj 61 64 s \$0_size_arrays;
#X msg 856 52 const 0;
#X msg 649 480 resize \$1;
#X obj 649 448 *;
#X obj 649 374 t b b;
#X obj 649 343 r \$0_size_arrays;
#X msg 879 426 resize \$1;
#X obj 879 360 r \$0_size_arrays;
#X msg 649 754 resize \$1;
#X obj 649 723 *;
#X obj 649 649 t b b;
#X obj 649 617 r \$0_size_arrays;
#X obj 739 687 v \$0_m;
#X obj 649 413 v \$0_nL-1;
#X obj 649 541 array define \$0_WL-1;
#X obj 686 574 array define \$0_dWL-1;
#X obj 879 393 v \$0_nL-1;
#X obj 879 541 array define \$0_bL-1;
#X obj 916 574 array define \$0_dbL-1;
#X obj 649 687 v \$0_nL-1;
#X obj 649 820 array define \$0_ZL-1;
#X obj 749 850 array define \$0_dZL-1;
#X obj 849 820 array define \$0_AL-1;
#X obj 950 850 array define \$0_dAL-1;
#X msg 51 480 resize \$1;
#X obj 51 448 *;
#X obj 51 374 t b b;
#X obj 51 343 r \$0_size_arrays;
#X msg 281 426 resize \$1;
#X obj 281 360 r \$0_size_arrays;
#X msg 51 754 resize \$1;
#X obj 51 723 *;
#X obj 51 649 t b b;
#X obj 51 617 r \$0_size_arrays;
#X obj 141 687 v \$0_m;
#X text 53 314 // output layer;
#X obj 51 413 v \$0_nL-0;
#X obj 141 413 v \$0_nL-1;
#X obj 51 541 array define \$0_WL-0;
#X obj 88 574 array define \$0_dWL-0;
#X obj 281 393 v \$0_nL-0;
#X obj 281 541 array define \$0_bL-0;
#X obj 318 574 array define \$0_dbL-0;
#X obj 51 687 v \$0_nL-0;
#X obj 51 820 array define \$0_ZL-0;
#X obj 151 850 array define \$0_dZL-0;
#X obj 251 820 array define \$0_AL-0;
#X obj 352 850 array define \$0_dAL-0;
#X obj 649 508 t a a;
#X obj 879 454 t a a;
#X obj 649 786 t a a a a, f 38;
#X obj 51 508 t a a;
#X obj 281 454 t a a;
#X obj 51 787 t a a a a, f 38;
#X obj 856 24 inlet zero_arrays;
#X obj 856 80 s \$0_zero_arrays;
#X obj 446 460 r \$0_zero_arrays;
#X obj 446 660 r \$0_zero_arrays;
#X obj 1026 460 r \$0_zero_arrays;
#X obj 1026 710 r \$0_zero_arrays;
#X msg 1239 480 resize \$1;
#X obj 1239 448 *;
#X obj 1239 374 t b b;
#X obj 1239 343 r \$0_size_arrays;
#X msg 1469 426 resize \$1;
#X obj 1469 360 r \$0_size_arrays;
#X msg 1239 754 resize \$1;
#X obj 1239 723 *;
#X obj 1239 649 t b b;
#X obj 1239 617 r \$0_size_arrays;
#X obj 1329 687 v \$0_m;
#X obj 1239 508 t a a;
#X obj 1469 454 t a a;
#X obj 1239 786 t a a a a, f 38;
#X obj 1616 460 r \$0_zero_arrays;
#X obj 1616 710 r \$0_zero_arrays;
#X obj 1239 413 v \$0_nL-2;
#X obj 1469 393 v \$0_nL-2;
#X obj 1239 541 array define \$0_WL-2;
#X obj 1276 574 array define \$0_dWL-2;
#X obj 1469 541 array define \$0_bL-2;
#X obj 1506 574 array define \$0_dbL-2;
#X obj 1239 687 v \$0_nL-2;
#X obj 1239 820 array define \$0_ZL-2;
#X obj 1339 850 array define \$0_dZL-2;
#X obj 1439 820 array define \$0_AL-2;
#X obj 1540 850 array define \$0_dAL-2;
#X msg 1789 480 resize \$1;
#X obj 1789 448 *;
#X obj 1789 374 t b b;
#X obj 1789 343 r \$0_size_arrays;
#X msg 2019 426 resize \$1;
#X obj 2019 360 r \$0_size_arrays;
#X msg 1789 754 resize \$1;
#X obj 1789 723 *;
#X obj 1789 649 t b b;
#X obj 1789 617 r \$0_size_arrays;
#X obj 1879 687 v \$0_m;
#X obj 1789 508 t a a;
#X obj 2019 454 t a a;
#X obj 1789 786 t a a a a, f 38;
#X obj 2166 460 r \$0_zero_arrays;
#X obj 2166 710 r \$0_zero_arrays;
#X obj 1329 413 v \$0_nL-3;
#X obj 1789 413 v \$0_nL-3;
#X obj 1879 413 v \$0_nL-4;
#X obj 2019 393 v \$0_nL-3;
#X obj 1789 541 array define \$0_WL-3;
#X obj 1826 574 array define \$0_dWL-3;
#X obj 2019 541 array define \$0_bL-3;
#X obj 2056 574 array define \$0_dbL-3;
#X obj 1789 687 v \$0_nL-3;
#X obj 1789 820 array define \$0_ZL-3;
#X obj 1989 820 array define \$0_AL-3;
#X obj 1889 850 array define \$0_dZL-3;
#X obj 2090 850 array define \$0_dAL-3;
#X msg 2339 480 resize \$1;
#X obj 2339 448 *;
#X obj 2339 374 t b b;
#X obj 2339 343 r \$0_size_arrays;
#X msg 2569 426 resize \$1;
#X obj 2569 360 r \$0_size_arrays;
#X msg 2339 754 resize \$1;
#X obj 2339 723 *;
#X obj 2339 649 t b b;
#X obj 2339 617 r \$0_size_arrays;
#X obj 2429 687 v \$0_m;
#X obj 2339 508 t a a;
#X obj 2569 454 t a a;
#X obj 2339 786 t a a a a, f 38;
#X obj 2716 460 r \$0_zero_arrays;
#X obj 2716 710 r \$0_zero_arrays;
#X text 650 303 // initial layer;
#X obj 2339 413 v \$0_nL-4;
#X obj 2569 393 v \$0_nL-4;
#X obj 2339 541 array define \$0_WL-4;
#X obj 2376 574 array define \$0_dWL-4;
#X obj 2569 541 array define \$0_bL-4;
#X obj 2606 574 array define \$0_dbL-4;
#X obj 2339 687 v \$0_nL-4;
#X obj 2339 820 array define \$0_ZL-4;
#X obj 2539 820 array define \$0_AL-4;
#X obj 2439 850 array define \$0_dZL-4;
#X obj 2640 850 array define \$0_dAL-4;
#X obj 1447 156 v \$0_ns;
#X obj 1338 189 cml.input_name;
#X obj 1261 156 v \$0_nx;
#X obj 1261 222 array size;
#X obj 1261 70 r \$0_size_arrays;
#X obj 1261 103 t b b b b, f 15;
#X obj 1326 156 v \$0_m;
#X obj 1261 189 *;
#X obj 798 303 v \$0_nL-2;
#X obj 739 413 v \$0_nx;
#X obj 2429 413 v \$0_nL-5;
#X obj 1737 156 v \$0_ns;
#X obj 1551 222 array size;
#X obj 1551 70 r \$0_size_arrays;
#X obj 1551 103 t b b b b, f 15;
#X obj 1616 156 v \$0_m;
#X obj 1551 189 *;
#X obj 1551 156 v \$0_ny;
#X obj 1628 189 cml.label_name;
#X connect 0 0 1 0;
#X connect 2 0 56 0;
#X connect 3 0 49 0;
#X connect 4 0 3 0;
#X connect 5 0 14 0;
#X connect 5 1 154 0;
#X connect 6 0 5 0;
#X connect 7 0 50 0;
#X connect 8 0 17 0;
#X connect 9 0 51 0;
#X connect 10 0 9 0;
#X connect 11 0 20 0;
#X connect 11 1 13 0;
#X connect 12 0 11 0;
#X connect 13 0 10 1;
#X connect 14 0 4 0;
#X connect 17 0 7 0;
#X connect 20 0 10 0;
#X connect 25 0 52 0;
#X connect 26 0 25 0;
#X connect 27 0 37 0;
#X connect 27 1 38 0;
#X connect 28 0 27 0;
#X connect 29 0 53 0;
#X connect 30 0 41 0;
#X connect 31 0 54 0;
#X connect 32 0 31 0;
#X connect 33 0 44 0;
#X connect 33 1 35 0;
#X connect 34 0 33 0;
#X connect 35 0 32 1;
#X connect 37 0 26 0;
#X connect 38 0 26 1;
#X connect 41 0 29 0;
#X connect 44 0 32 0;
#X connect 49 0 15 0;
#X connect 49 1 16 0;
#X connect 50 0 18 0;
#X connect 50 1 19 0;
#X connect 51 0 21 0;
#X connect 51 1 22 0;
#X connect 51 2 23 0;
#X connect 51 3 24 0;
#X connect 52 0 39 0;
#X connect 52 1 40 0;
#X connect 53 0 42 0;
#X connect 53 1 43 0;
#X connect 54 0 45 0;
#X connect 54 1 46 0;
#X connect 54 2 47 0;
#X connect 54 3 48 0;
#X connect 55 0 2 0;
#X connect 57 0 39 0;
#X connect 57 0 43 0;
#X connect 57 0 42 0;
#X connect 57 0 40 0;
#X connect 58 0 45 0;
#X connect 58 0 48 0;
#X connect 58 0 47 0;
#X connect 58 0 46 0;
#X connect 59 0 15 0;
#X connect 59 0 19 0;
#X connect 59 0 18 0;
#X connect 59 0 16 0;
#X connect 60 0 21 0;
#X connect 60 0 24 0;
#X connect 60 0 23 0;
#X connect 60 0 22 0;
#X connect 61 0 72 0;
#X connect 62 0 61 0;
#X connect 63 0 77 0;
#X connect 63 1 104 0;
#X connect 64 0 63 0;
#X connect 65 0 73 0;
#X connect 66 0 78 0;
#X connect 67 0 74 0;
#X connect 68 0 67 0;
#X connect 69 0 83 0;
#X connect 69 1 71 0;
#X connect 70 0 69 0;
#X connect 71 0 68 1;
#X connect 72 0 79 0;
#X connect 72 1 80 0;
#X connect 73 0 81 0;
#X connect 73 1 82 0;
#X connect 74 0 84 0;
#X connect 74 1 85 0;
#X connect 74 2 86 0;
#X connect 74 3 87 0;
#X connect 75 0 79 0;
#X connect 75 0 80 0;
#X connect 75 0 81 0;
#X connect 75 0 82 0;
#X connect 76 0 84 0;
#X connect 76 0 85 0;
#X connect 76 0 86 0;
#X connect 76 0 87 0;
#X connect 77 0 62 0;
#X connect 78 0 65 0;
#X connect 83 0 68 0;
#X connect 88 0 99 0;
#X connect 89 0 88 0;
#X connect 90 0 105 0;
#X connect 90 1 106 0;
#X connect 91 0 90 0;
#X connect 92 0 100 0;
#X connect 93 0 107 0;
#X connect 94 0 101 0;
#X connect 95 0 94 0;
#X connect 96 0 112 0;
#X connect 96 1 98 0;
#X connect 97 0 96 0;
#X connect 98 0 95 1;
#X connect 99 0 108 0;
#X connect 99 1 109 0;
#X connect 100 0 110 0;
#X connect 100 1 111 0;
#X connect 101 0 113 0;
#X connect 101 1 115 0;
#X connect 101 2 114 0;
#X connect 101 3 116 0;
#X connect 102 0 108 0;
#X connect 102 0 109 0;
#X connect 102 0 110 0;
#X connect 102 0 111 0;
#X connect 103 0 113 0;
#X connect 103 0 114 0;
#X connect 103 0 115 0;
#X connect 103 0 116 0;
#X connect 104 0 62 1;
#X connect 105 0 89 0;
#X connect 106 0 89 1;
#X connect 107 0 92 0;
#X connect 112 0 95 0;
#X connect 117 0 128 0;
#X connect 118 0 117 0;
#X connect 119 0 134 0;
#X connect 119 1 155 0;
#X connect 120 0 119 0;
#X connect 121 0 129 0;
#X connect 122 0 135 0;
#X connect 123 0 130 0;
#X connect 124 0 123 0;
#X connect 125 0 140 0;
#X connect 125 1 127 0;
#X connect 126 0 125 0;
#X connect 127 0 124 1;
#X connect 128 0 136 0;
#X connect 128 1 137 0;
#X connect 129 0 138 0;
#X connect 129 1 139 0;
#X connect 130 0 141 0;
#X connect 130 1 143 0;
#X connect 130 2 142 0;
#X connect 130 3 144 0;
#X connect 131 0 136 0;
#X connect 131 0 137 0;
#X connect 131 0 138 0;
#X connect 131 0 139 0;
#X connect 132 0 141 0;
#X connect 132 0 142 0;
#X connect 132 0 143 0;
#X connect 132 0 144 0;
#X connect 134 0 118 0;
#X connect 135 0 121 0;
#X connect 140 0 124 0;
#X connect 145 0 146 1;
#X connect 146 0 148 1;
#X connect 147 0 152 0;
#X connect 149 0 150 0;
#X connect 150 0 147 0;
#X connect 150 1 151 0;
#X connect 150 2 146 0;
#X connect 150 3 145 0;
#X connect 151 0 152 1;
#X connect 152 0 148 0;
#X connect 154 0 4 1;
#X connect 155 0 118 1;
#X connect 156 0 163 1;
#X connect 158 0 159 0;
#X connect 159 0 162 0;
#X connect 159 1 160 0;
#X connect 159 2 163 0;
#X connect 159 3 156 0;
#X connect 160 0 161 1;
#X connect 161 0 157 0;
#X connect 162 0 161 0;
#X connect 163 0 157 1;
#X restore 31 265 pd arrays;
#X msg 31 232 bang;
#X msg 100 232 bang;
#N canvas 970 812 450 250 (subpatch) 0;
#X array \$0_X 8 float 3;
#A 0 0.1 0.2 0.3 0.4 0.5 0.4 0.3 0.2;
#X coords 0 1 8 -1 200 140 1 0 0;
#X restore 44 558 graph;
#X obj 31 39 f \$0;
#X obj 31 67 v \$0_ns;
#X msg 31 11 bang;
#N canvas 0 50 450 250 (subpatch) 0;
#X array \$0_Y 8 float 3;
#A 0 0.5 0.3 0.4 0.2 -0.2 -0.1 0.8 0.7;
#X coords 0 1 8 -1 200 140 1;
#X restore 43 748 graph;
#X msg 130 135 4;
#X obj 919 308 cml.layer_forward;
#X obj 1052 280 v \$0_ns;
#X obj 144 26 bng 40 250 50 0 \$0_init empty init 0 -12 0 16 #fcfcfc #000000 #000000;
#X obj 937 220 r \$0_init_l1;
#X obj 937 248 t a b, f 12;
#N canvas 654 666 689 326 init_layer_1 0;
#X obj 45 123 v \$0_nL-1;
#X obj 164 123 v \$0_nx;
#X obj 283 123 v \$0_m;
#X obj 522 123 v \$0_leak;
#X obj 45 60 t b b b b b, f 60;
#X obj 45 27 r \$0_init;
#X obj 45 156 pack f f f s f, f 60;
#X obj 45 240 s \$0_init_l1;
#X msg 45 189 layer_number 1 \, layer_dims \$1 \$2 \, m \$3 \, activation \$4 \, leak \$5 \, initial_layer 1;
#X msg 402 123 symbol linear;
#X connect 0 0 6 0;
#X connect 1 0 6 1;
#X connect 2 0 6 2;
#X connect 3 0 6 4;
#X connect 4 0 0 0;
#X connect 4 1 1 0;
#X connect 4 2 2 0;
#X connect 4 3 9 0;
#X connect 4 4 3 0;
#X connect 5 0 4 0;
#X connect 6 0 8 0;
#X connect 8 0 7 0;
#X connect 9 0 6 3;
#X restore 31 308 pd init_layer_1;
#N canvas 1400 534 689 326 init_layer_0 0;
#X obj 283 123 v \$0_m;
#X obj 522 123 v \$0_leak;
#X obj 45 60 t b b b b b, f 60;
#X obj 45 27 r \$0_init;
#X obj 45 156 pack f f f s f, f 60;
#X obj 45 123 v \$0_nL-0;
#X obj 164 123 v \$0_nL-1;
#X obj 45 240 s \$0_init_l0;
#X msg 45 189 layer_number 0 \, layer_dims \$1 \$2 \, m \$3 \, activation \$4 \, leak \$5;
#X msg 402 123 symbol tanh;
#X connect 0 0 4 2;
#X connect 1 0 4 4;
#X connect 2 0 5 0;
#X connect 2 1 6 0;
#X connect 2 2 0 0;
#X connect 2 3 9 0;
#X connect 2 4 1 0;
#X connect 3 0 2 0;
#X connect 4 0 8 0;
#X connect 5 0 4 0;
#X connect 6 0 4 1;
#X connect 8 0 7 0;
#X connect 9 0 4 3;
#X restore 31 338 pd init_layer_0;
#X msg 919 187 bang;
#X obj 919 429 cml.layer_forward;
#X obj 1052 401 v \$0_ns;
#X obj 937 369 t a b, f 12;
#X obj 937 341 r \$0_init_l0;
#N canvas 667 196 2048 1042 test_data 1;
#X obj 97 253 cml.input_name;
#X obj 206 221 v \$0_ns;
#X obj 28 286 array set;
#X obj 28 143 t b b b;
#X obj 516 221 v \$0_ns;
#X obj 338 285 array set;
#X obj 338 143 t b b b;
#X obj 407 253 cml.label_name;
#X msg 13 16 bang;
#X obj 63 49 s \$0_update_testdata;
#X obj 28 109 r \$0_update_testdata;
#X obj 338 109 r \$0_update_testdata;
#X obj 709 263 cml.array_name W;
#X obj 834 230 v \$0_ns;
#X msg 709 230 1;
#X obj 640 296 array set;
#X obj 640 143 t b b b;
#X obj 640 109 r \$0_update_testdata;
#X obj 1134 230 v \$0_ns;
#X msg 1009 230 1;
#X obj 940 296 array set;
#X obj 940 143 t b b b;
#X obj 940 109 r \$0_update_testdata;
#X obj 1009 263 cml.array_name b;
#X msg 940 197 0.5 0.6;
#X obj 399 533 cml.array_name W;
#X obj 524 500 v \$0_ns;
#X obj 330 566 array set;
#X obj 330 413 t b b b;
#X obj 330 379 r \$0_update_testdata;
#X obj 824 500 v \$0_ns;
#X obj 630 566 array set;
#X obj 630 413 t b b b;
#X obj 630 379 r \$0_update_testdata;
#X obj 699 533 cml.array_name b;
#X msg 399 500 0;
#X msg 699 500 0;
#X obj 63 16 inlet;
#X msg 28 188 0.1 0.2 0.3 0.4 0.5 0.4 0.3 0.2;
#X msg 640 197 0.1 0.2 0.3 0.4;
#X obj 224 500 v \$0_ns;
#X obj 30 566 array set;
#X obj 30 413 t b b b;
#X obj 30 379 r \$0_update_testdata;
#X msg 99 500 0;
#X obj 99 533 cml.array_name A;
#X msg 30 467 0.1 -0.1 0.2 -0.3;
#X obj 224 740 v \$0_ns;
#X obj 30 806 array set;
#X obj 30 653 t b b b;
#X obj 30 619 r \$0_update_testdata;
#X msg 99 740 0;
#X obj 514 740 v \$0_ns;
#X obj 320 806 array set;
#X obj 320 653 t b b b;
#X obj 320 619 r \$0_update_testdata;
#X msg 389 740 0;
#X obj 99 772 cml.array_name Z;
#X obj 390 772 cml.array_name dA;
#X msg 30 707 0.2 0.3 -0.5 -0.2;
#X msg 320 707 0.9 0.8 -0.5 -0.4;
#X obj 1464 230 v \$0_ns;
#X msg 1339 230 1;
#X obj 1270 296 array set;
#X obj 1270 143 t b b b;
#X obj 1270 109 r \$0_update_testdata;
#X obj 1339 263 cml.array_name A;
#X msg 1270 197 1 2 3 4 2 3 4 5;
#X msg 330 467 0.3 0.4 0.1 0.2;
#X msg 630 466 0.7 0.6;
#X msg 338 188 0.5 0.3 0.4 0.2 -0.2 -0.1 0.8 0.7;
#X connect 0 0 2 2;
#X connect 1 0 0 1;
#X connect 3 0 38 0;
#X connect 3 1 0 0;
#X connect 3 2 1 0;
#X connect 4 0 7 1;
#X connect 6 0 70 0;
#X connect 6 1 7 0;
#X connect 6 2 4 0;
#X connect 7 0 5 2;
#X connect 8 0 9 0;
#X connect 10 0 3 0;
#X connect 11 0 6 0;
#X connect 12 0 15 2;
#X connect 13 0 12 1;
#X connect 14 0 12 0;
#X connect 16 0 39 0;
#X connect 16 1 14 0;
#X connect 16 2 13 0;
#X connect 17 0 16 0;
#X connect 18 0 23 1;
#X connect 19 0 23 0;
#X connect 21 0 24 0;
#X connect 21 1 19 0;
#X connect 21 2 18 0;
#X connect 22 0 21 0;
#X connect 23 0 20 2;
#X connect 24 0 20 0;
#X connect 25 0 27 2;
#X connect 26 0 25 1;
#X connect 28 0 68 0;
#X connect 28 1 35 0;
#X connect 28 2 26 0;
#X connect 29 0 28 0;
#X connect 30 0 34 1;
#X connect 32 0 69 0;
#X connect 32 1 36 0;
#X connect 32 2 30 0;
#X connect 33 0 32 0;
#X connect 34 0 31 2;
#X connect 35 0 25 0;
#X connect 36 0 34 0;
#X connect 37 0 9 0;
#X connect 38 0 2 0;
#X connect 39 0 15 0;
#X connect 40 0 45 1;
#X connect 42 0 46 0;
#X connect 42 1 44 0;
#X connect 42 2 40 0;
#X connect 43 0 42 0;
#X connect 44 0 45 0;
#X connect 45 0 41 2;
#X connect 46 0 41 0;
#X connect 47 0 57 1;
#X connect 49 0 59 0;
#X connect 49 1 51 0;
#X connect 49 2 47 0;
#X connect 50 0 49 0;
#X connect 51 0 57 0;
#X connect 52 0 58 1;
#X connect 54 0 60 0;
#X connect 54 1 56 0;
#X connect 54 2 52 0;
#X connect 55 0 54 0;
#X connect 56 0 58 0;
#X connect 57 0 48 2;
#X connect 58 0 53 2;
#X connect 59 0 48 0;
#X connect 60 0 53 0;
#X connect 61 0 66 1;
#X connect 62 0 66 0;
#X connect 64 0 67 0;
#X connect 64 1 62 0;
#X connect 64 2 61 0;
#X connect 65 0 64 0;
#X connect 66 0 63 2;
#X connect 67 0 63 0;
#X connect 68 0 27 0;
#X connect 69 0 31 0;
#X connect 70 0 5 0;
#X restore 198 268 pd test_data;
#X msg 198 235 bang;
#X obj 324 1054 array get;
#X obj 518 988 v \$0_ns;
#X obj 324 940 t b b b;
#X obj 324 1082 print arr;
#X obj 324 907 bng 23 250 50 0 empty empty empty 0 -12 0 16 #fcfcfc #000000 #000000;
#X msg 80 135 2;
#X obj 883 857 cml.layer_backward;
#N canvas 593 671 421 257 init_outer_dz 0;
#X obj 45 27 r \$0_init;
#X msg 45 159 m \$1 \, num_outputs \$2;
#X obj 45 60 t b b, f 9;
#X obj 45 126 pack f f, f 9;
#X obj 45 93 v \$0_m;
#X obj 114 93 v \$0_ny;
#X obj 45 192 s \$0_init_outer_dz;
#X connect 0 0 2 0;
#X connect 1 0 6 0;
#X connect 2 0 4 0;
#X connect 2 1 5 0;
#X connect 3 0 1 0;
#X connect 4 0 3 0;
#X connect 5 0 3 1;
#X restore 31 381 pd init_outer_dz;
#N canvas 166 561 1636 376 set_n_nx_m_ny 0;
#X obj 29 92 unpack f f f f f f f f f f f f, f 155;
#X obj 29 125 v \$0_nL-0;
#X obj 141 125 v \$0_nL-1;
#X obj 253 125 v \$0_nL-2;
#X obj 366 125 v \$0_nL-3;
#X obj 478 125 v \$0_nL-4;
#X obj 591 125 v \$0_nL-5;
#X obj 703 125 v \$0_nL-6;
#X obj 816 125 v \$0_nL-7;
#X obj 1419 13 inlet m;
#X obj 1279 13 inlet nx;
#X obj 1419 41 v \$0_m;
#X obj 1279 41 v \$0_nx;
#X obj 29 53 inlet layer_nodes;
#X obj 1513 13 inlet ny;
#X obj 1513 41 v \$0_ny;
#X connect 0 0 1 0;
#X connect 0 1 2 0;
#X connect 0 2 3 0;
#X connect 0 3 4 0;
#X connect 0 4 5 0;
#X connect 0 5 6 0;
#X connect 0 6 7 0;
#X connect 0 7 8 0;
#X connect 9 0 11 0;
#X connect 10 0 12 0;
#X connect 13 0 0 0;
#X connect 14 0 15 0;
#X restore 31 168 pd set_n_nx_m_ny;
#X f 19;
#X obj 897 579 r \$0_init_outer_dz;
#X obj 883 668 cml.outer_dz;
#X obj 897 607 t a b;
#X obj 976 640 v \$0_ns;
#X msg 868 524 bang;
#N canvas 631 848 689 326 init_d_layer_0 0;
#X obj 283 123 v \$0_m;
#X obj 522 123 v \$0_leak;
#X obj 45 60 t b b b b b, f 60;
#X obj 45 27 r \$0_init;
#X obj 45 156 pack f f f s f, f 60;
#X obj 45 123 v \$0_nL-0;
#X obj 164 123 v \$0_nL-1;
#X obj 45 240 s \$0_init_d_l0;
#X msg 45 189 layer_number 0 \, layer_dims \$1 \$2 \, m \$3 \, activation \$4 \, leak \$5 \, skip_dz 0;
#X msg 402 123 symbol linear;
#X connect 0 0 4 2;
#X connect 1 0 4 4;
#X connect 2 0 5 0;
#X connect 2 1 6 0;
#X connect 2 2 0 0;
#X connect 2 3 9 0;
#X connect 2 4 1 0;
#X connect 3 0 2 0;
#X connect 4 0 8 0;
#X connect 5 0 4 0;
#X connect 6 0 4 1;
#X connect 8 0 7 0;
#X connect 9 0 4 3;
#X restore 31 414 pd init_d_layer_0;
#X obj 893 760 r \$0_init_d_l0;
#X obj 1024 824 v \$0_ns;
#X obj 893 788 t a b;
#X msg 826 761 bang;
#X obj 293 103 v \$0_leak;
#X obj 293 74 nbx 5 21 0 1 0 1 empty empty leak 0 -12 0 16 #fcfcfc #000000 #000000 0.2 256;
#N canvas 659 1076 689 326 init_d_layer_1 1;
#X obj 283 123 v \$0_m;
#X obj 522 123 v \$0_leak;
#X obj 45 60 t b b b b b, f 60;
#X obj 45 27 r \$0_init;
#X obj 45 156 pack f f f s f, f 60;
#X msg 402 123 symbol relu;
#X obj 45 123 v \$0_nL-1;
#X obj 164 123 v \$0_nx;
#X obj 45 240 s \$0_init_d_l1;
#X msg 45 187 layer_number 1 \, layer_dims \$1 \$2 \, m \$3 \, activation \$4 \, leak \$5 \, initial_layer 0;
#X connect 0 0 4 2;
#X connect 1 0 4 4;
#X connect 2 0 6 0;
#X connect 2 1 7 0;
#X connect 2 2 0 0;
#X connect 2 3 5 0;
#X connect 2 4 1 0;
#X connect 3 0 2 0;
#X connect 4 0 9 0;
#X connect 5 0 4 3;
#X connect 6 0 4 0;
#X connect 7 0 4 1;
#X connect 9 0 8 0;
#X restore 31 444 pd init_d_layer_1;
#X obj 883 1007 cml.layer_backward;
#X obj 1024 974 v \$0_ns;
#X obj 893 938 t a b;
#X msg 826 911 bang;
#X obj 893 910 r \$0_init_d_l1;
#X obj 58 1055 array get;
#X obj 252 989 v \$0_ns;
#X obj 58 941 t b b b;
#X obj 58 1083 print arr;
#X obj 58 908 bng 23 250 50 0 empty empty empty 0 -12 0 16 #fcfcfc #000000 #000000;
#X obj 126 1022 cml.input_name;
#X msg 31 102 2 2;
#X msg 180 135 2;
#X msg 393 987 1;
#X obj 392 1021 cml.array_name dA;
#X connect 1 0 0 0;
#X connect 2 0 0 1;
#X connect 4 0 5 0;
#X connect 6 0 4 0;
#X connect 8 0 31 2;
#X connect 9 0 17 0;
#X connect 10 0 9 1;
#X connect 12 0 13 0;
#X connect 13 0 9 0;
#X connect 13 1 10 0;
#X connect 16 0 9 0;
#X connect 18 0 17 1;
#X connect 19 0 17 0;
#X connect 19 1 18 0;
#X connect 20 0 19 0;
#X connect 22 0 21 0;
#X connect 23 0 26 0;
#X connect 24 0 59 1;
#X connect 25 0 23 0;
#X connect 25 1 58 0;
#X connect 25 2 24 0;
#X connect 27 0 25 0;
#X connect 28 0 31 1;
#X connect 32 0 34 0;
#X connect 34 0 33 0;
#X connect 34 1 35 0;
#X connect 35 0 33 1;
#X connect 36 0 33 0;
#X connect 38 0 40 0;
#X connect 39 0 29 1;
#X connect 40 0 29 0;
#X connect 40 1 39 0;
#X connect 41 0 29 0;
#X connect 43 0 42 0;
#X connect 46 0 45 1;
#X connect 47 0 45 0;
#X connect 47 1 46 0;
#X connect 48 0 45 0;
#X connect 49 0 47 0;
#X connect 50 0 53 0;
#X connect 51 0 55 1;
#X connect 52 0 50 0;
#X connect 52 1 55 0;
#X connect 52 2 51 0;
#X connect 54 0 52 0;
#X connect 55 0 50 2;
#X connect 56 0 31 0;
#X connect 57 0 31 3;
#X connect 58 0 59 0;
#X connect 59 0 23 2;
