#N canvas 1495 586 831 366 16;
#X msg 327 26 0;
#X msg 142 26 linear;
#X msg 50 26 1;
#N canvas 8 106 1429 818 initialize_layer_forward 0;
#N canvas 12 142 578 316 forward_message 0;
#X obj 74 35 inlet a;
#X obj 164 35 inlet layer_number;
#X obj 164 68 list prepend \$0_init_forward;
#X obj 143 144 s;
#X msg 164 96 symbol \$1_\$2;
#X connect 0 0 3 0;
#X connect 1 0 2 0;
#X connect 2 0 4 0;
#X connect 4 0 3 1;
#X restore 1081 431 pd forward_message;
#X obj 1081 347 t b f, f 18;
#X obj 1081 375 v \$0_m;
#X msg 1081 403 m \$1;
#X text 30 16 // layer_number initial_layer layer_dims m activation leak;
#X obj 987 54 inlet layer_number;
#N canvas 12 142 578 316 forward_message 0;
#X obj 74 35 inlet a;
#X obj 164 35 inlet layer_number;
#X obj 164 68 list prepend \$0_init_forward;
#X obj 143 144 s;
#X msg 164 96 symbol \$1_\$2;
#X connect 0 0 3 0;
#X connect 1 0 2 0;
#X connect 2 0 4 0;
#X connect 4 0 3 1;
#X restore 1176 319 pd forward_message;
#X msg 1176 291 layer_number \$1;
#X obj 1176 263 t f f, f 18;
#X obj 987 115 t f f f, f 24;
#X obj 987 143 t f f f;
#X obj 970 329 f;
#N canvas 12 142 578 316 forward_message 0;
#X obj 74 35 inlet a;
#X obj 164 35 inlet layer_number;
#X obj 164 68 list prepend \$0_init_forward;
#X obj 143 144 s;
#X msg 164 96 symbol \$1_\$2;
#X connect 0 0 3 0;
#X connect 1 0 2 0;
#X connect 2 0 4 0;
#X connect 4 0 3 1;
#X restore 829 399 pd forward_message;
#X obj 829 54 inlet leak;
#X msg 829 371 leak \$1;
#X obj 829 82 t f b;
#X obj 541 54 inlet activation_type;
#X obj 682 325 f;
#X obj 541 82 t a b;
#X msg 541 367 activation \$1;
#N canvas 16 178 578 316 forward_message 0;
#X obj 74 35 inlet a;
#X obj 164 35 inlet layer_number;
#X obj 164 68 list prepend \$0_init_forward;
#X obj 143 144 s;
#X msg 164 96 symbol \$1_\$2;
#X connect 0 0 3 0;
#X connect 1 0 2 0;
#X connect 2 0 4 0;
#X connect 4 0 3 1;
#X restore 541 395 pd forward_message;
#X obj 541 339 symbol;
#X obj 41 54 inlet initial_layer;
#X obj 218 325 f;
#N canvas 16 178 578 316 forward_message 0;
#X obj 74 35 inlet a;
#X obj 164 35 inlet layer_number;
#X obj 164 68 list prepend \$0_init_forward;
#X obj 143 144 s;
#X msg 164 96 symbol \$1_\$2;
#X connect 0 0 3 0;
#X connect 1 0 2 0;
#X connect 2 0 4 0;
#X connect 4 0 3 1;
#X restore 114 430 pd forward_message;
#X msg 114 402 initial_layer \$1;
#X obj 41 82 t f f b, f 11;
#X obj 218 353 t f f;
#X obj 41 463 sel 0 1, f 13;
#N canvas 1423 470 510 490 hidden_layer_dims 0;
#X obj 264 155 list prepend \$0_nL;
#X obj 264 122 + 1;
#X obj 111 155 list prepend \$0_nL;
#X msg 111 183 symbol \$1-\$2;
#X msg 264 183 symbol \$1-\$2;
#X obj 70 32 inlet layer;
#X obj 70 216 v;
#X obj 243 216 v;
#X obj 70 244 pack f f, f 22;
#X obj 70 60 t b f b f;
#X msg 70 272 layer_dims \$1 \$2;
#X obj 70 300 outlet;
#X connect 0 0 4 0;
#X connect 1 0 0 0;
#X connect 2 0 3 0;
#X connect 3 0 6 1;
#X connect 4 0 7 1;
#X connect 5 0 9 0;
#X connect 6 0 8 0;
#X connect 7 0 8 1;
#X connect 8 0 10 0;
#X connect 9 0 6 0;
#X connect 9 1 2 0;
#X connect 9 2 7 0;
#X connect 9 3 1 0;
#X connect 10 0 11 0;
#X restore 197 673 pd hidden_layer_dims;
#N canvas 1427 506 510 490 initial_layer_dims 0;
#X obj 111 155 list prepend \$0_nL;
#X msg 111 183 symbol \$1-\$2;
#X obj 70 32 inlet layer;
#X obj 70 216 v;
#X obj 70 244 pack f f, f 22;
#X msg 70 272 layer_dims \$1 \$2;
#X obj 70 300 outlet;
#X obj 70 60 t b f b;
#X obj 243 216 v \$0_nx;
#X connect 0 0 1 0;
#X connect 1 0 3 1;
#X connect 2 0 7 0;
#X connect 3 0 4 0;
#X connect 4 0 5 0;
#X connect 5 0 6 0;
#X connect 7 0 3 0;
#X connect 7 1 0 0;
#X connect 7 2 8 0;
#X connect 8 0 4 1;
#X restore 243 612 pd initial_layer_dims;
#X obj 197 584 f;
#X obj 243 584 f;
#N canvas 16 178 578 316 forward_message 0;
#X obj 74 35 inlet a;
#X obj 164 35 inlet layer_number;
#X obj 164 68 list prepend \$0_init_forward;
#X obj 143 144 s;
#X msg 164 96 symbol \$1_\$2;
#X connect 0 0 3 0;
#X connect 1 0 2 0;
#X connect 2 0 4 0;
#X connect 4 0 3 1;
#X restore 197 701 pd forward_message;
#X f 24;
#N canvas 16 178 578 316 forward_message 0;
#X obj 74 35 inlet a;
#X obj 164 35 inlet layer_number;
#X obj 164 68 list prepend \$0_init_forward;
#X obj 143 144 s;
#X msg 164 96 symbol \$1_\$2;
#X connect 0 0 3 0;
#X connect 1 0 2 0;
#X connect 2 0 4 0;
#X connect 4 0 3 1;
#X restore 243 640 pd forward_message;
#X f 29;
#X obj 218 481 t f f f f;
#X connect 1 0 2 0;
#X connect 1 1 0 1;
#X connect 2 0 3 0;
#X connect 3 0 0 0;
#X connect 5 0 9 0;
#X connect 7 0 6 0;
#X connect 8 0 7 0;
#X connect 8 1 6 1;
#X connect 9 0 10 0;
#X connect 9 1 1 0;
#X connect 9 2 8 0;
#X connect 10 0 23 1;
#X connect 10 1 17 1;
#X connect 10 2 11 1;
#X connect 11 0 12 1;
#X connect 13 0 15 0;
#X connect 14 0 12 0;
#X connect 15 0 14 0;
#X connect 15 1 11 0;
#X connect 16 0 18 0;
#X connect 17 0 20 1;
#X connect 18 0 21 0;
#X connect 18 1 17 0;
#X connect 19 0 20 0;
#X connect 21 0 19 0;
#X connect 22 0 26 0;
#X connect 23 0 27 0;
#X connect 25 0 24 0;
#X connect 26 0 28 0;
#X connect 26 1 25 0;
#X connect 26 2 23 0;
#X connect 27 0 35 0;
#X connect 27 1 24 1;
#X connect 28 0 31 0;
#X connect 28 1 32 0;
#X connect 29 0 33 0;
#X connect 30 0 34 0;
#X connect 31 0 29 0;
#X connect 32 0 30 0;
#X connect 35 0 31 1;
#X connect 35 1 33 1;
#X connect 35 2 32 1;
#X connect 35 3 34 1;
#X restore 50 66 pd initialize_layer_forward;
#X f 35;
#X msg 619 129 4;
#X msg 538 129 0.999;
#X msg 457 129 0.9;
#X msg 376 128 0.002;
#X msg 296 128 adam;
#X msg 215 128 relu;
#X msg 134 128 0;
#X msg 54 128 0;
#N canvas 16 178 2064 1092 initialize_layer_backward 0;
#X text 30 16 // layer_number initial_layer layer_dims m skip_dz activation optimizer (gd \, momentum \, rmsprop \, adam) leak mu rho \;;
#X obj 1386 91 inlet layer_number;
#X msg 1583 208 layer_number \$1;
#X obj 1583 180 t f f, f 19;
#N canvas 16 178 578 316 backward_message 0;
#X obj 74 35 inlet a;
#X obj 164 35 inlet layer_number;
#X obj 143 144 s;
#X msg 164 96 symbol \$1_\$2;
#X obj 164 68 list prepend \$0_init_backward;
#X connect 0 0 2 0;
#X connect 1 0 4 0;
#X connect 3 0 2 1;
#X connect 4 0 3 0;
#X restore 1583 236 pd backward_message;
#X obj 1386 152 t f f f, f 25;
#X obj 1484 264 t b f, f 19;
#X obj 1484 292 v \$0_m;
#X msg 1484 320 m \$1;
#N canvas 20 214 578 316 backward_message 0;
#X obj 74 35 inlet a;
#X obj 164 35 inlet layer_number;
#X obj 143 144 s;
#X msg 164 96 symbol \$1_\$2;
#X obj 164 68 list prepend \$0_init_backward;
#X connect 0 0 2 0;
#X connect 1 0 4 0;
#X connect 3 0 2 1;
#X connect 4 0 3 0;
#X restore 1484 348 pd backward_message;
#X obj 1386 180 t f f f f f f f;
#X obj 1345 555 f;
#X obj 1196 119 t f b;
#X obj 1196 91 inlet rho;
#X msg 1196 555 rho \$1;
#N canvas 16 178 578 316 backward_message 0;
#X obj 74 35 inlet a;
#X obj 164 35 inlet layer_number;
#X obj 143 144 s;
#X msg 164 96 symbol \$1_\$2;
#X obj 164 68 list prepend \$0_init_backward;
#X connect 0 0 2 0;
#X connect 1 0 4 0;
#X connect 3 0 2 1;
#X connect 4 0 3 0;
#X restore 1196 583 pd backward_message;
#X obj 1158 555 f;
#X obj 1009 91 inlet mu;
#X msg 1009 555 mu \$1;
#X obj 1009 119 t f b;
#N canvas 16 178 578 316 backward_message 0;
#X obj 74 35 inlet a;
#X obj 164 35 inlet layer_number;
#X obj 143 144 s;
#X msg 164 96 symbol \$1_\$2;
#X obj 164 68 list prepend \$0_init_backward;
#X connect 0 0 2 0;
#X connect 1 0 4 0;
#X connect 3 0 2 1;
#X connect 4 0 3 0;
#X restore 1009 583 pd backward_message;
#X obj 971 555 f;
#X obj 822 91 inlet leak;
#X msg 822 555 leak \$1;
#X obj 822 119 t f b;
#N canvas 16 178 578 316 backward_message 0;
#X obj 74 35 inlet a;
#X obj 164 35 inlet layer_number;
#X obj 143 144 s;
#X msg 164 96 symbol \$1_\$2;
#X obj 164 68 list prepend \$0_init_backward;
#X connect 0 0 2 0;
#X connect 1 0 4 0;
#X connect 3 0 2 1;
#X connect 4 0 3 0;
#X restore 822 583 pd backward_message;
#X obj 636 91 inlet optimizer;
#X obj 636 119 t a b;
#X obj 785 555 f;
#X obj 636 527 symbol;
#X msg 636 555 \$1 1;
#N canvas 16 178 578 316 backward_message 0;
#X obj 74 35 inlet a;
#X obj 164 35 inlet layer_number;
#X obj 143 144 s;
#X msg 164 96 symbol \$1_\$2;
#X obj 164 68 list prepend \$0_init_backward;
#X connect 0 0 2 0;
#X connect 1 0 4 0;
#X connect 3 0 2 1;
#X connect 4 0 3 0;
#X restore 636 583 pd backward_message;
#X obj 449 91 inlet activation_type;
#X obj 598 555 f;
#X obj 449 119 t a b;
#X msg 449 555 activation \$1;
#X obj 449 527 symbol;
#N canvas 16 178 578 316 backward_message 0;
#X obj 74 35 inlet a;
#X obj 164 35 inlet layer_number;
#X obj 143 144 s;
#X msg 164 96 symbol \$1_\$2;
#X obj 164 68 list prepend \$0_init_backward;
#X connect 0 0 2 0;
#X connect 1 0 4 0;
#X connect 3 0 2 1;
#X connect 4 0 3 0;
#X restore 449 583 pd backward_message;
#X obj 411 555 f;
#X obj 262 119 t f b;
#X obj 262 91 inlet skip_dz;
#X msg 262 555 skip_dz \$1;
#N canvas 16 178 578 316 backward_message 0;
#X obj 74 35 inlet a;
#X obj 164 35 inlet layer_number;
#X obj 143 144 s;
#X msg 164 96 symbol \$1_\$2;
#X obj 164 68 list prepend \$0_init_backward;
#X connect 0 0 2 0;
#X connect 1 0 4 0;
#X connect 3 0 2 1;
#X connect 4 0 3 0;
#X restore 262 583 pd backward_message;
#X obj 31 91 inlet initial_layer;
#X obj 208 555 f;
#X msg 104 632 initial_layer \$1;
#X obj 31 119 t f f b, f 11;
#X obj 208 583 t f f;
#X obj 31 693 sel 0 1, f 13;
#N canvas 1419 434 510 490 hidden_layer_dims 0;
#X obj 264 155 list prepend \$0_nL;
#X obj 264 122 + 1;
#X obj 111 155 list prepend \$0_nL;
#X msg 111 183 symbol \$1-\$2;
#X msg 264 183 symbol \$1-\$2;
#X obj 70 32 inlet layer;
#X obj 70 216 v;
#X obj 243 216 v;
#X obj 70 244 pack f f, f 22;
#X obj 70 60 t b f b f;
#X msg 70 272 layer_dims \$1 \$2;
#X obj 70 300 outlet;
#X connect 0 0 4 0;
#X connect 1 0 0 0;
#X connect 2 0 3 0;
#X connect 3 0 6 1;
#X connect 4 0 7 1;
#X connect 5 0 9 0;
#X connect 6 0 8 0;
#X connect 7 0 8 1;
#X connect 8 0 10 0;
#X connect 9 0 6 0;
#X connect 9 1 2 0;
#X connect 9 2 7 0;
#X connect 9 3 1 0;
#X connect 10 0 11 0;
#X restore 187 903 pd hidden_layer_dims;
#N canvas 1427 506 510 490 initial_layer_dims 0;
#X obj 111 155 list prepend \$0_nL;
#X msg 111 183 symbol \$1-\$2;
#X obj 70 32 inlet layer;
#X obj 70 216 v;
#X obj 70 244 pack f f, f 22;
#X msg 70 272 layer_dims \$1 \$2;
#X obj 70 300 outlet;
#X obj 70 60 t b f b;
#X obj 243 216 v \$0_nx;
#X connect 0 0 1 0;
#X connect 1 0 3 1;
#X connect 2 0 7 0;
#X connect 3 0 4 0;
#X connect 4 0 5 0;
#X connect 5 0 6 0;
#X connect 7 0 3 0;
#X connect 7 1 0 0;
#X connect 7 2 8 0;
#X connect 8 0 4 1;
#X restore 233 842 pd initial_layer_dims;
#X obj 187 814 f;
#X obj 233 814 f;
#X obj 208 711 t f f f f;
#N canvas 20 214 578 316 backward_message 0;
#X obj 74 35 inlet a;
#X obj 164 35 inlet layer_number;
#X obj 143 144 s;
#X msg 164 96 symbol \$1_\$2;
#X obj 164 68 list prepend \$0_init_backward;
#X connect 0 0 2 0;
#X connect 1 0 4 0;
#X connect 3 0 2 1;
#X connect 4 0 3 0;
#X restore 104 660 pd backward_message;
#N canvas 20 214 578 316 backward_message 0;
#X obj 74 35 inlet a;
#X obj 164 35 inlet layer_number;
#X obj 143 144 s;
#X msg 164 96 symbol \$1_\$2;
#X obj 164 68 list prepend \$0_init_backward;
#X connect 0 0 2 0;
#X connect 1 0 4 0;
#X connect 3 0 2 1;
#X connect 4 0 3 0;
#X restore 187 931 pd backward_message;
#X f 35;
#N canvas 20 214 578 316 backward_message 0;
#X obj 74 35 inlet a;
#X obj 164 35 inlet layer_number;
#X obj 143 144 s;
#X msg 164 96 symbol \$1_\$2;
#X obj 164 68 list prepend \$0_init_backward;
#X connect 0 0 2 0;
#X connect 1 0 4 0;
#X connect 3 0 2 1;
#X connect 4 0 3 0;
#X restore 233 870 pd backward_message;
#X f 28;
#X connect 1 0 5 0;
#X connect 2 0 4 0;
#X connect 3 0 2 0;
#X connect 3 1 4 1;
#X connect 5 0 10 0;
#X connect 5 1 6 0;
#X connect 5 2 3 0;
#X connect 6 0 7 0;
#X connect 6 1 9 1;
#X connect 7 0 8 0;
#X connect 8 0 9 0;
#X connect 10 0 44 1;
#X connect 10 1 38 1;
#X connect 10 2 33 1;
#X connect 10 3 28 1;
#X connect 10 4 21 1;
#X connect 10 5 16 1;
#X connect 10 6 11 1;
#X connect 11 0 15 1;
#X connect 12 0 14 0;
#X connect 12 1 11 0;
#X connect 13 0 12 0;
#X connect 14 0 15 0;
#X connect 16 0 20 1;
#X connect 17 0 19 0;
#X connect 18 0 20 0;
#X connect 19 0 18 0;
#X connect 19 1 16 0;
#X connect 21 0 25 1;
#X connect 22 0 24 0;
#X connect 23 0 25 0;
#X connect 24 0 23 0;
#X connect 24 1 21 0;
#X connect 26 0 27 0;
#X connect 27 0 29 0;
#X connect 27 1 28 0;
#X connect 28 0 31 1;
#X connect 29 0 30 0;
#X connect 30 0 31 0;
#X connect 32 0 34 0;
#X connect 33 0 37 1;
#X connect 34 0 36 0;
#X connect 34 1 33 0;
#X connect 35 0 37 0;
#X connect 36 0 35 0;
#X connect 38 0 42 1;
#X connect 39 0 41 0;
#X connect 39 1 38 0;
#X connect 40 0 39 0;
#X connect 41 0 42 0;
#X connect 43 0 46 0;
#X connect 44 0 47 0;
#X connect 45 0 54 0;
#X connect 46 0 48 0;
#X connect 46 1 45 0;
#X connect 46 2 44 0;
#X connect 47 0 53 0;
#X connect 47 1 54 1;
#X connect 48 0 51 0;
#X connect 48 1 52 0;
#X connect 49 0 55 0;
#X connect 50 0 56 0;
#X connect 51 0 49 0;
#X connect 52 0 50 0;
#X connect 53 0 51 1;
#X connect 53 1 55 1;
#X connect 53 2 52 1;
#X connect 53 3 56 1;
#X restore 54 162 pd initialize_layer_backward;
#X f 71;
#X msg 132 226 momentum;
#X msg 215 226 0.9;
#X msg 382 226 1;
#X msg 49 226 0;
#X msg 298 226 0.999;
#N canvas 279 264 1468 869 initialize_layer_update_reverse 0;
#X text 25 5 // layer_number initial_layer layer_dims optimizer mu rho alpha \;;
#X obj 964 107 inlet layer_number;
#X msg 1193 224 layer_number \$1;
#X obj 1193 196 t f f, f 18;
#N canvas 16 178 578 316 update_message 0;
#X obj 74 35 inlet a;
#X obj 164 35 inlet layer_number;
#X obj 143 144 s;
#X msg 164 96 symbol \$1_\$2;
#X obj 164 68 list prepend \$0_init_update;
#X connect 0 0 2 0;
#X connect 1 0 4 0;
#X connect 3 0 2 1;
#X connect 4 0 3 0;
#X restore 1193 252 pd update_message;
#X f 18;
#X obj 964 168 t f f, f 29;
#X obj 964 196 t f f f f;
#X obj 906 441 f;
#X obj 773 135 t f b;
#X obj 773 107 inlet rho;
#N canvas 16 178 578 316 update_message 0;
#X obj 74 35 inlet a;
#X obj 164 35 inlet layer_number;
#X obj 143 144 s;
#X msg 164 96 symbol \$1_\$2;
#X obj 164 68 list prepend \$0_init_update;
#X connect 0 0 2 0;
#X connect 1 0 4 0;
#X connect 3 0 2 1;
#X connect 4 0 3 0;
#X restore 773 469 pd update_message;
#X msg 773 441 rho \$1;
#X obj 714 441 f;
#X obj 581 135 t f b;
#N canvas 16 178 578 316 update_message 0;
#X obj 74 35 inlet a;
#X obj 164 35 inlet layer_number;
#X obj 143 144 s;
#X msg 164 96 symbol \$1_\$2;
#X obj 164 68 list prepend \$0_init_update;
#X connect 0 0 2 0;
#X connect 1 0 4 0;
#X connect 3 0 2 1;
#X connect 4 0 3 0;
#X restore 581 469 pd update_message;
#X obj 581 107 inlet mu;
#X msg 581 441 mu \$1;
#X obj 519 441 f;
#X obj 386 135 t a b;
#X obj 386 455 symbol;
#X obj 386 107 inlet optimizer;
#X msg 386 483 \$1 1;
#N canvas 16 178 578 316 update_message 0;
#X obj 74 35 inlet a;
#X obj 164 35 inlet layer_number;
#X obj 143 144 s;
#X msg 164 96 symbol \$1_\$2;
#X obj 164 68 list prepend \$0_init_update;
#X connect 0 0 2 0;
#X connect 1 0 4 0;
#X connect 3 0 2 1;
#X connect 4 0 3 0;
#X restore 386 511 pd update_message;
#X obj 31 107 inlet initial_layer;
#X obj 208 441 f;
#X obj 31 135 t f f b, f 11;
#X obj 31 441 sel 0 1, f 13;
#N canvas 1419 434 510 490 hidden_layer_dims 0;
#X obj 264 155 list prepend \$0_nL;
#X obj 264 122 + 1;
#X obj 111 155 list prepend \$0_nL;
#X msg 111 183 symbol \$1-\$2;
#X msg 264 183 symbol \$1-\$2;
#X obj 70 32 inlet layer;
#X obj 70 216 v;
#X obj 243 216 v;
#X obj 70 244 pack f f, f 22;
#X obj 70 60 t b f b f;
#X msg 70 272 layer_dims \$1 \$2;
#X obj 70 300 outlet;
#X connect 0 0 4 0;
#X connect 1 0 0 0;
#X connect 2 0 3 0;
#X connect 3 0 6 1;
#X connect 4 0 7 1;
#X connect 5 0 9 0;
#X connect 6 0 8 0;
#X connect 7 0 8 1;
#X connect 8 0 10 0;
#X connect 9 0 6 0;
#X connect 9 1 2 0;
#X connect 9 2 7 0;
#X connect 9 3 1 0;
#X connect 10 0 11 0;
#X restore 187 651 pd hidden_layer_dims;
#N canvas 1423 470 510 490 initial_layer_dims 0;
#X obj 111 155 list prepend \$0_nL;
#X msg 111 183 symbol \$1-\$2;
#X obj 70 32 inlet layer;
#X obj 70 216 v;
#X obj 70 244 pack f f, f 22;
#X msg 70 272 layer_dims \$1 \$2;
#X obj 70 300 outlet;
#X obj 70 60 t b f b;
#X obj 243 216 v \$0_nx;
#X connect 0 0 1 0;
#X connect 1 0 3 1;
#X connect 2 0 7 0;
#X connect 3 0 4 0;
#X connect 4 0 5 0;
#X connect 5 0 6 0;
#X connect 7 0 3 0;
#X connect 7 1 0 0;
#X connect 7 2 8 0;
#X connect 8 0 4 1;
#X restore 233 590 pd initial_layer_dims;
#X obj 187 562 f;
#X obj 233 562 f;
#X obj 208 469 t f f f f;
#N canvas 20 214 578 316 update_message 0;
#X obj 74 35 inlet a;
#X obj 164 35 inlet layer_number;
#X obj 143 144 s;
#X msg 164 96 symbol \$1_\$2;
#X obj 164 68 list prepend \$0_init_update;
#X connect 0 0 2 0;
#X connect 1 0 4 0;
#X connect 3 0 2 1;
#X connect 4 0 3 0;
#X restore 233 618 pd update_message;
#X f 30;
#N canvas 16 178 578 316 update_message 0;
#X obj 74 35 inlet a;
#X obj 164 35 inlet layer_number;
#X obj 143 144 s;
#X msg 164 96 symbol \$1_\$2;
#X obj 164 68 list prepend \$0_init_update;
#X connect 0 0 2 0;
#X connect 1 0 4 0;
#X connect 3 0 2 1;
#X connect 4 0 3 0;
#X restore 187 679 pd update_message;
#X f 24;
#X connect 1 0 5 0;
#X connect 2 0 4 0;
#X connect 3 0 2 0;
#X connect 3 1 4 1;
#X connect 5 0 6 0;
#X connect 5 1 3 0;
#X connect 6 0 24 1;
#X connect 6 1 17 1;
#X connect 6 2 12 1;
#X connect 6 3 7 1;
#X connect 7 0 10 1;
#X connect 8 0 11 0;
#X connect 8 1 7 0;
#X connect 9 0 8 0;
#X connect 11 0 10 0;
#X connect 12 0 14 1;
#X connect 13 0 16 0;
#X connect 13 1 12 0;
#X connect 15 0 13 0;
#X connect 16 0 14 0;
#X connect 17 0 22 1;
#X connect 18 0 19 0;
#X connect 18 1 17 0;
#X connect 19 0 21 0;
#X connect 20 0 18 0;
#X connect 21 0 22 0;
#X connect 23 0 25 0;
#X connect 24 0 31 0;
#X connect 25 0 26 0;
#X connect 25 2 24 0;
#X connect 26 0 29 0;
#X connect 26 1 30 0;
#X connect 27 0 33 0;
#X connect 28 0 32 0;
#X connect 29 0 27 0;
#X connect 30 0 28 0;
#X connect 31 0 29 1;
#X connect 31 1 33 1;
#X connect 31 2 30 1;
#X connect 31 3 32 1;
#X restore 49 259 pd initialize_layer_update_reverse;
#X f 42;
#X connect 0 0 3 3;
#X connect 1 0 3 1;
#X connect 2 0 3 0;
#X connect 4 0 12 7;
#X connect 5 0 12 6;
#X connect 6 0 12 5;
#X connect 7 0 12 4;
#X connect 8 0 12 3;
#X connect 9 0 12 2;
#X connect 10 0 12 1;
#X connect 11 0 12 0;
#X connect 13 0 18 1;
#X connect 14 0 18 2;
#X connect 15 0 18 4;
#X connect 16 0 18 0;
#X connect 17 0 18 3;
