#N canvas 423 183 921 889 16;
#N canvas 955 220 1626 1182 synth 0;
#X obj 388 327 nbx 5 21 -1e+37 1e+37 0 1 empty empty empty 0 -12 0 16 #fcfcfc #000000 #000000 456.41 256;
#X obj 604 75 lop~ 5;
#X obj 660 1042 dac~;
#X obj 663 936 +~;
#X obj 1740 65 f;
#X obj 1740 93 t f f;
#X obj 1798 93 + 1;
#X obj 1740 131 mod 4;
#X obj 1740 159 sel 0;
#X obj 1740 37 r \$0_m_b;
#X msg 290 320 1;
#X floatatom 1790 132 5 0 0 0 - - - 0;
#N canvas 12 158 1762 1184 triangle 0;
#X obj 231 51 inlet freq;
#X obj 231 104 t f f f f f f f, f 144;
#X obj 231 237 * 1;
#X obj 231 265 osc~;
#X obj 231 293 *~, f 6;
#X obj 252 149 nbx 4 21 0 20 0 1 empty \$0_h_bang harmonic 0 -12 0 16 #fcfcfc #000000 #000000 1 256;
#X obj 252 175 t f f;
#X obj 289 203 expr if ($f1 > 0 \, 1 / ($f1 * $f1) \, 0);
#X obj 422 337 * 1;
#X obj 422 365 osc~;
#X obj 422 393 *~, f 6;
#X obj 443 249 nbx 4 21 0 20 0 1 empty \$0_h_bang harmonic 0 -12 0 16 #fcfcfc #000000 #000000 3 256;
#X obj 443 275 t f f;
#X obj 480 303 expr if ($f1 > 0 \, 1 / ($f1 * $f1) \, 0);
#X obj 614 437 * 1;
#X obj 614 465 osc~;
#X obj 614 493 *~, f 6;
#X obj 635 349 nbx 4 21 0 20 0 1 empty \$0_h_bang harmonic 0 -12 0 16 #fcfcfc #000000 #000000 5 256;
#X obj 635 375 t f f;
#X obj 672 403 expr if ($f1 > 0 \, 1 / ($f1 * $f1) \, 0);
#X obj 805 537 * 1;
#X obj 805 565 osc~;
#X obj 805 593 *~, f 6;
#X obj 826 449 nbx 4 21 0 20 0 1 empty \$0_h_bang harmonic 0 -12 0 16 #fcfcfc #000000 #000000 7 256;
#X obj 826 475 t f f;
#X obj 863 503 expr if ($f1 > 0 \, 1 / ($f1 * $f1) \, 0);
#X obj 997 637 * 1;
#X obj 997 665 osc~;
#X obj 997 693 *~, f 6;
#X obj 1018 549 nbx 4 21 0 20 0 1 empty \$0_h_bang harmonic 0 -12 0 16 #fcfcfc #000000 #000000 9 256;
#X obj 1018 575 t f f;
#X obj 1055 603 expr if ($f1 > 0 \, 1 / ($f1 * $f1) \, 0);
#X obj 1188 737 * 1;
#X obj 1188 765 osc~;
#X obj 1188 793 *~, f 6;
#X obj 1209 649 nbx 4 21 0 20 0 1 empty \$0_h_bang harmonic 0 -12 0 16 #fcfcfc #000000 #000000 11 256;
#X obj 1209 675 t f f;
#X obj 1246 703 expr if ($f1 > 0 \, 1 / ($f1 * $f1) \, 0);
#X obj 1380 837 * 1;
#X obj 1380 865 osc~;
#X obj 1380 893 *~, f 6;
#X obj 1401 749 nbx 4 21 0 20 0 1 empty \$0_h_bang harmonic 0 -12 0 16 #fcfcfc #000000 #000000 13 256;
#X obj 1401 775 t f f;
#X obj 1438 803 expr if ($f1 > 0 \, 1 / ($f1 * $f1) \, 0);
#X obj 34 21 r \$0_init;
#X obj 34 49 s \$0_h_bang;
#X obj 615 968 *~ 1;
#X obj 616 1072 outlet~;
#X connect 0 0 1 0;
#X connect 1 0 2 0;
#X connect 1 1 8 0;
#X connect 1 2 14 0;
#X connect 1 3 20 0;
#X connect 1 4 26 0;
#X connect 1 5 32 0;
#X connect 1 6 38 0;
#X connect 2 0 3 0;
#X connect 3 0 4 0;
#X connect 4 0 46 0;
#X connect 5 0 6 0;
#X connect 6 0 2 1;
#X connect 6 1 7 0;
#X connect 7 0 4 1;
#X connect 8 0 9 0;
#X connect 9 0 10 0;
#X connect 10 0 46 0;
#X connect 11 0 12 0;
#X connect 12 0 8 1;
#X connect 12 1 13 0;
#X connect 13 0 10 1;
#X connect 14 0 15 0;
#X connect 15 0 16 0;
#X connect 16 0 46 0;
#X connect 17 0 18 0;
#X connect 18 0 14 1;
#X connect 18 1 19 0;
#X connect 19 0 16 1;
#X connect 20 0 21 0;
#X connect 21 0 22 0;
#X connect 22 0 46 0;
#X connect 23 0 24 0;
#X connect 24 0 20 1;
#X connect 24 1 25 0;
#X connect 25 0 22 1;
#X connect 26 0 27 0;
#X connect 27 0 28 0;
#X connect 28 0 46 0;
#X connect 29 0 30 0;
#X connect 30 0 26 1;
#X connect 30 1 31 0;
#X connect 31 0 28 1;
#X connect 32 0 33 0;
#X connect 33 0 34 0;
#X connect 34 0 46 0;
#X connect 35 0 36 0;
#X connect 36 0 32 1;
#X connect 36 1 37 0;
#X connect 37 0 34 1;
#X connect 38 0 39 0;
#X connect 39 0 40 0;
#X connect 40 0 46 0;
#X connect 41 0 42 0;
#X connect 42 0 38 1;
#X connect 42 1 43 0;
#X connect 43 0 40 1;
#X connect 44 0 45 0;
#X connect 46 0 47 0;
#X restore 220 595 pd triangle;
#X obj 1740 187 f;
#X obj 1740 215 t f f;
#X obj 1798 216 + 1;
#X obj 1740 243 mod 4;
#N canvas 673 1003 475 293 normalize 0;
#X obj 33 15 inlet denormalized;
#X obj 280 45 inlet scale;
#X obj 33 149 * 1;
#X obj 33 242 outlet;
#X obj 280 73 t f f;
#X obj 33 182 + 110;
#X floatatom 98 183 5 0 0 0 - - - 0;
#X obj 33 65 * 0.5;
#X obj 32 105 + 0.5;
#X connect 0 0 7 0;
#X connect 1 0 4 0;
#X connect 2 0 5 0;
#X connect 4 0 2 1;
#X connect 5 0 3 0;
#X connect 6 0 5 1;
#X connect 7 0 8 0;
#X connect 8 0 2 0;
#X restore 220 455 pd normalize;
#X obj 388 353 t f f, f 7;
#N canvas 32 338 424 270 quantize 0;
#X obj 84 63 ftom;
#X obj 84 94 int;
#X obj 84 150 mtof;
#X obj 84 121 expr if($f1 % 2 == 0 \, $f1 \, $f1 - 1);
#X obj 84 27 inlet;
#X obj 84 178 outlet;
#X obj 186 179 outlet midi;
#X connect 0 0 1 0;
#X connect 1 0 3 0;
#X connect 2 0 5 0;
#X connect 3 0 2 0;
#X connect 3 0 6 0;
#X connect 4 0 0 0;
#X restore 296 548 pd quantize;
#X obj 220 483 t f f;
#X obj 604 9 inlet amp_Y;
#X obj 744 75 lop~ 5;
#X obj 744 9 inlet amp_y_hat;
#X obj 261 715 +~;
#X obj 388 15 inlet norm_range;
#X floatatom 1803 245 5 0 0 0 - - - 0;
#X obj 77 264 t f f f;
#X obj 337 990 noteout;
#X obj 337 942 makenote;
#X obj 339 864 t f b b;
#X msg 408 904 25;
#X obj 77 233 r \$0_m_i;
#X obj 220 353 array get \$0_AL-0;
#X obj 429 1014 print;
#X msg 368 904 25;
#X obj 316 736 expr if($f1 < 82 \, $f1 \, 82);
#X obj 115 624 osc~;
#X floatatom 384 492 5 0 0 0 - - - 0;
#X obj 49 496 * 0.5;
#X obj 49 524 + 0.5;
#X obj 49 552 * 1;
#X floatatom 128 560 5 0 0 0 - - - 0;
#X connect 0 0 18 0;
#X connect 3 0 2 0;
#X connect 3 0 2 1;
#X connect 4 0 5 0;
#X connect 5 0 7 0;
#X connect 5 1 6 0;
#X connect 6 0 4 1;
#X connect 7 0 8 0;
#X connect 8 0 13 0;
#X connect 9 0 4 0;
#X connect 10 0 33 1;
#X connect 11 0 7 1;
#X connect 12 0 24 0;
#X connect 13 0 14 0;
#X connect 14 0 16 0;
#X connect 14 1 15 0;
#X connect 15 0 13 1;
#X connect 17 0 20 0;
#X connect 17 0 38 0;
#X connect 18 1 17 1;
#X connect 19 0 12 0;
#X connect 19 1 36 0;
#X connect 21 0 1 0;
#X connect 23 0 22 0;
#X connect 24 0 3 0;
#X connect 25 0 0 0;
#X connect 26 0 16 1;
#X connect 27 1 33 0;
#X connect 29 0 28 0;
#X connect 29 1 28 1;
#X connect 30 0 29 0;
#X connect 30 1 35 0;
#X connect 30 2 31 0;
#X connect 31 0 29 2;
#X connect 32 0 27 0;
#X connect 33 0 17 0;
#X connect 33 0 39 0;
#X connect 35 0 29 1;
#X connect 36 0 30 0;
#X connect 39 0 40 0;
#X connect 40 0 41 0;
#X connect 41 0 19 0;
#X connect 42 0 41 1;
#X restore 120 363 pd synth;
#X f 27;
#X obj 225 160 vsl 23 196 0 1 0 0 empty empty amp\ Y 0 -9 0 16 #fcfcfc #000000 #000000 0 1;
#X obj 120 159 vsl 23 196 0 1000 0 0 empty empty range 0 -9 0 16 #fcfcfc #000000 #000000 0 1;
#X obj 333 158 vsl 23 196 0 1 0 0 empty empty amp\ y_hat 0 -9 0 16 #fcfcfc #000000 #000000 0 1;
#X obj 487 757 noteout;
#X obj 487 709 makenote;
#X obj 489 631 t f b b;
#X msg 558 671 25;
#X msg 518 671 25;
#X obj 489 381 metro 100;
#X obj 489 479 t f f;
#X obj 551 481 + 1;
#X obj 489 567 mod 12;
#X obj 489 595 + 40;
#X obj 489 348 tgl 23 0 empty empty empty 0 -12 0 16 #fcfcfc #000000 #000000 0 1;
#X obj 660 319 bng 23 250 50 0 empty empty empty 0 -12 0 16 #fcfcfc #000000 #000000;
#X obj 489 449 f;
#X obj 79 510 vsl 23 196 0 127 0 0 empty empty empty 0 -9 0 16 #fcfcfc #000000 #000000 0 1;
#X msg 237 732 1;
#X msg 199 731 1;
#X obj 622 528 mod 127;
#X floatatom 637 704 5 0 0 0 - - - 0;
#X msg 704 588 1;
#X msg 666 587 2;
#X obj 168 775 ctlout;
#X obj 645 623 ctlout;
#X text 712 621 uMIDI cc output;
#X text 228 774 // uMIDI mod output;
#X connect 1 0 0 1;
#X connect 2 0 0 0;
#X connect 3 0 0 2;
#X connect 5 0 4 0;
#X connect 5 1 4 1;
#X connect 6 0 5 0;
#X connect 6 1 8 0;
#X connect 6 2 7 0;
#X connect 7 0 5 2;
#X connect 8 0 5 1;
#X connect 9 0 16 0;
#X connect 10 0 12 0;
#X connect 10 0 20 0;
#X connect 10 1 11 0;
#X connect 11 0 16 1;
#X connect 12 0 13 0;
#X connect 13 0 6 0;
#X connect 14 0 9 0;
#X connect 16 0 10 0;
#X connect 17 0 24 0;
#X connect 18 0 24 2;
#X connect 19 0 24 1;
#X connect 20 0 21 0;
#X connect 20 0 25 0;
#X connect 22 0 25 2;
#X connect 23 0 25 1;
