#N canvas 1724 70 1712 1332 16;
#N canvas 1986 653 776 583 phasemod 0;
#X obj 67 46 inlet freq;
#X obj 256 46 inlet ratio;
#X obj 235 293 osc~ 50;
#X obj 67 302 phasor~ 400;
#X obj 236 252 *~;
#X obj 366 46 inlet index;
#X obj 366 392 line~;
#X obj 234 358 *~;
#X obj 67 330 +~;
#X obj 67 358 cos~;
#X obj 67 386 outlet~;
#X msg 256 74 \$1 30;
#X obj 256 102 line~;
#X msg 67 74 \$1 30;
#X obj 67 102 line~;
#X msg 366 74 \$1 30;
#X connect 0 0 13 0;
#X connect 1 0 11 0;
#X connect 2 0 7 0;
#X connect 3 0 8 0;
#X connect 4 0 2 0;
#X connect 5 0 15 0;
#X connect 6 0 7 1;
#X connect 7 0 8 1;
#X connect 8 0 9 0;
#X connect 9 0 10 0;
#X connect 11 0 12 0;
#X connect 12 0 4 1;
#X connect 13 0 14 0;
#X connect 14 0 3 0;
#X connect 14 0 4 0;
#X connect 15 0 6 0;
#X restore 95 491 pd phasemod;
#X f 21;
#X obj 75 518 *~;
#X obj 20 382 vsl 23 100 0 1 0 1 empty empty empty 0 -9 0 16 #fcfcfc #000000 #000000 0 1;
#X msg 20 490 \$1 30;
#X obj 20 518 line~;
#X obj 546 1285 dac~;
#X obj 202 835 vsl 23 196 0 1 0 1 empty empty empty 0 -9 0 16 #fcfcfc #000000 #000000 0 1;
#X msg 202 1039 \$1 30;
#X obj 202 1067 line~;
#X obj 567 759 +~;
#X obj 567 972 *~;
#X floatatom 95 464 5 0 0 0 - - - 0;
#X floatatom 177 464 5 0 30 0 - - - 0;
#N canvas 1986 653 776 583 phasemod 0;
#X obj 67 46 inlet freq;
#X obj 256 46 inlet ratio;
#X obj 235 293 osc~ 50;
#X obj 67 302 phasor~ 400;
#X obj 236 252 *~;
#X obj 366 46 inlet index;
#X obj 366 392 line~;
#X obj 234 358 *~;
#X obj 67 330 +~;
#X obj 67 358 cos~;
#X obj 67 386 outlet~;
#X msg 256 74 \$1 30;
#X obj 256 102 line~;
#X msg 67 74 \$1 30;
#X obj 67 102 line~;
#X msg 366 74 \$1 30;
#X connect 0 0 13 0;
#X connect 1 0 11 0;
#X connect 2 0 7 0;
#X connect 3 0 8 0;
#X connect 4 0 2 0;
#X connect 5 0 15 0;
#X connect 6 0 7 1;
#X connect 7 0 8 1;
#X connect 8 0 9 0;
#X connect 9 0 10 0;
#X connect 11 0 12 0;
#X connect 12 0 4 1;
#X connect 13 0 14 0;
#X connect 14 0 3 0;
#X connect 14 0 4 0;
#X connect 15 0 6 0;
#X restore 447 546 pd phasemod;
#X f 21;
#X obj 427 573 *~;
#X obj 372 437 vsl 23 100 0 1 0 1 empty empty empty 0 -9 0 16 #fcfcfc #000000 #000000 2000 1;
#X msg 372 545 \$1 30;
#X obj 372 573 line~;
#X floatatom 447 519 5 0 0 0 - - - 0;
#X floatatom 529 519 5 0 30 0 - - - 0;
#N canvas 1986 653 776 583 phasemod 0;
#X obj 67 46 inlet freq;
#X obj 256 46 inlet ratio;
#X obj 235 293 osc~ 50;
#X obj 67 302 phasor~ 400;
#X obj 236 252 *~;
#X obj 366 46 inlet index;
#X obj 366 392 line~;
#X obj 234 358 *~;
#X obj 67 330 +~;
#X obj 67 358 cos~;
#X obj 67 386 outlet~;
#X msg 256 74 \$1 30;
#X obj 256 102 line~;
#X msg 67 74 \$1 30;
#X obj 67 102 line~;
#X msg 366 74 \$1 30;
#X connect 0 0 13 0;
#X connect 1 0 11 0;
#X connect 2 0 7 0;
#X connect 3 0 8 0;
#X connect 4 0 2 0;
#X connect 5 0 15 0;
#X connect 6 0 7 1;
#X connect 7 0 8 1;
#X connect 8 0 9 0;
#X connect 9 0 10 0;
#X connect 11 0 12 0;
#X connect 12 0 4 1;
#X connect 13 0 14 0;
#X connect 14 0 3 0;
#X connect 14 0 4 0;
#X connect 15 0 6 0;
#X restore 775 551 pd phasemod;
#X f 21;
#X obj 755 578 *~;
#X obj 700 442 vsl 23 100 0 1 0 1 empty empty empty 0 -9 0 16 #fcfcfc #000000 #000000 1800 1;
#X msg 700 550 \$1 30;
#X obj 700 578 line~;
#X floatatom 775 524 5 0 0 0 - - - 0;
#X floatatom 857 524 5 0 30 0 - - - 0;
#N canvas 1986 653 776 583 phasemod 0;
#X obj 67 46 inlet freq;
#X obj 256 46 inlet ratio;
#X obj 235 293 osc~ 50;
#X obj 67 302 phasor~ 400;
#X obj 236 252 *~;
#X obj 366 46 inlet index;
#X obj 366 392 line~;
#X obj 234 358 *~;
#X obj 67 330 +~;
#X obj 67 358 cos~;
#X obj 67 386 outlet~;
#X msg 256 74 \$1 30;
#X obj 256 102 line~;
#X msg 67 74 \$1 30;
#X obj 67 102 line~;
#X msg 366 74 \$1 30;
#X connect 0 0 13 0;
#X connect 1 0 11 0;
#X connect 2 0 7 0;
#X connect 3 0 8 0;
#X connect 4 0 2 0;
#X connect 5 0 15 0;
#X connect 6 0 7 1;
#X connect 7 0 8 1;
#X connect 8 0 9 0;
#X connect 9 0 10 0;
#X connect 11 0 12 0;
#X connect 12 0 4 1;
#X connect 13 0 14 0;
#X connect 14 0 3 0;
#X connect 14 0 4 0;
#X connect 15 0 6 0;
#X restore 1127 546 pd phasemod;
#X f 21;
#X obj 1107 573 *~;
#X obj 1052 437 vsl 23 100 0 1 0 1 empty empty empty 0 -9 0 16 #fcfcfc #000000 #000000 1700 1;
#X msg 1052 545 \$1 30;
#X obj 1052 573 line~;
#X floatatom 1127 519 5 0 0 0 - - - 0;
#X floatatom 1209 519 5 0 30 0 - - - 0;
#N canvas 1998 761 776 583 phasemod 0;
#X obj 67 46 inlet freq;
#X obj 256 46 inlet ratio;
#X obj 235 293 osc~ 50;
#X obj 67 302 phasor~ 400;
#X obj 236 252 *~;
#X obj 366 46 inlet index;
#X obj 366 392 line~;
#X obj 234 358 *~;
#X obj 67 330 +~;
#X obj 67 358 cos~;
#X obj 67 386 outlet~;
#X msg 256 74 \$1 30;
#X obj 256 102 line~;
#X obj 67 102 line~;
#X msg 366 74 \$1 30;
#X msg 67 74 \$1 10;
#X connect 0 0 15 0;
#X connect 1 0 11 0;
#X connect 2 0 7 0;
#X connect 3 0 8 0;
#X connect 4 0 2 0;
#X connect 5 0 14 0;
#X connect 6 0 7 1;
#X connect 7 0 8 1;
#X connect 8 0 9 0;
#X connect 9 0 10 0;
#X connect 11 0 12 0;
#X connect 12 0 4 1;
#X connect 13 0 3 0;
#X connect 13 0 4 0;
#X connect 14 0 6 0;
#X connect 15 0 13 0;
#X restore 235 201 pd phasemod;
#X f 21;
#X obj 215 228 *~;
#X obj 160 92 vsl 23 100 0 1 0 1 empty empty empty 0 -9 0 16 #fcfcfc #000000 #000000 5600 1;
#X msg 160 200 \$1 30;
#X obj 160 228 line~;
#X floatatom 235 174 5 0 0 0 - - - 0;
#X floatatom 317 174 5 0 30 0 - - - 0;
#N canvas 1990 689 776 583 phasemod 0;
#X obj 67 46 inlet freq;
#X obj 256 46 inlet ratio;
#X obj 235 293 osc~ 50;
#X obj 67 302 phasor~ 400;
#X obj 236 252 *~;
#X obj 366 46 inlet index;
#X obj 366 392 line~;
#X obj 234 358 *~;
#X obj 67 330 +~;
#X obj 67 358 cos~;
#X obj 67 386 outlet~;
#X msg 256 74 \$1 30;
#X obj 256 102 line~;
#X obj 67 102 line~;
#X msg 366 74 \$1 30;
#X msg 67 74 \$1 10;
#X connect 0 0 15 0;
#X connect 1 0 11 0;
#X connect 2 0 7 0;
#X connect 3 0 8 0;
#X connect 4 0 2 0;
#X connect 5 0 14 0;
#X connect 6 0 7 1;
#X connect 7 0 8 1;
#X connect 8 0 9 0;
#X connect 9 0 10 0;
#X connect 11 0 12 0;
#X connect 12 0 4 1;
#X connect 13 0 3 0;
#X connect 13 0 4 0;
#X connect 14 0 6 0;
#X connect 15 0 13 0;
#X restore 600 206 pd phasemod;
#X f 21;
#X obj 580 233 *~;
#X obj 525 97 vsl 23 100 0 1 0 1 empty empty empty 0 -9 0 16 #fcfcfc #000000 #000000 0 1;
#X msg 525 205 \$1 30;
#X obj 525 233 line~;
#X floatatom 600 179 5 0 0 0 - - - 0;
#X floatatom 682 179 5 0 30 0 - - - 0;
#N canvas 1990 689 776 583 phasemod 0;
#X obj 67 46 inlet freq;
#X obj 256 46 inlet ratio;
#X obj 235 293 osc~ 50;
#X obj 67 302 phasor~ 400;
#X obj 236 252 *~;
#X obj 366 46 inlet index;
#X obj 366 392 line~;
#X obj 234 358 *~;
#X obj 67 330 +~;
#X obj 67 358 cos~;
#X obj 67 386 outlet~;
#X msg 256 74 \$1 30;
#X obj 256 102 line~;
#X obj 67 102 line~;
#X msg 366 74 \$1 30;
#X msg 67 74 \$1 10;
#X connect 0 0 15 0;
#X connect 1 0 11 0;
#X connect 2 0 7 0;
#X connect 3 0 8 0;
#X connect 4 0 2 0;
#X connect 5 0 14 0;
#X connect 6 0 7 1;
#X connect 7 0 8 1;
#X connect 8 0 9 0;
#X connect 9 0 10 0;
#X connect 11 0 12 0;
#X connect 12 0 4 1;
#X connect 13 0 3 0;
#X connect 13 0 4 0;
#X connect 14 0 6 0;
#X connect 15 0 13 0;
#X restore 905 211 pd phasemod;
#X f 21;
#X obj 885 238 *~;
#X obj 830 102 vsl 23 100 0 1 0 1 empty empty empty 0 -9 0 16 #fcfcfc #000000 #000000 0 1;
#X msg 830 210 \$1 30;
#X obj 830 238 line~;
#X floatatom 905 184 5 0 0 0 - - - 0;
#X floatatom 987 184 5 0 30 0 - - - 0;
#N canvas 1990 689 776 583 phasemod 0;
#X obj 67 46 inlet freq;
#X obj 256 46 inlet ratio;
#X obj 235 293 osc~ 50;
#X obj 67 302 phasor~ 400;
#X obj 236 252 *~;
#X obj 366 46 inlet index;
#X obj 366 392 line~;
#X obj 234 358 *~;
#X obj 67 330 +~;
#X obj 67 358 cos~;
#X obj 67 386 outlet~;
#X msg 256 74 \$1 30;
#X obj 256 102 line~;
#X obj 67 102 line~;
#X msg 366 74 \$1 30;
#X msg 67 74 \$1 10;
#X connect 0 0 15 0;
#X connect 1 0 11 0;
#X connect 2 0 7 0;
#X connect 3 0 8 0;
#X connect 4 0 2 0;
#X connect 5 0 14 0;
#X connect 6 0 7 1;
#X connect 7 0 8 1;
#X connect 8 0 9 0;
#X connect 9 0 10 0;
#X connect 11 0 12 0;
#X connect 12 0 4 1;
#X connect 13 0 3 0;
#X connect 13 0 4 0;
#X connect 14 0 6 0;
#X connect 15 0 13 0;
#X restore 1227 206 pd phasemod;
#X f 21;
#X obj 1207 233 *~;
#X obj 1152 97 vsl 23 100 0 1 0 1 empty empty empty 0 -9 0 16 #fcfcfc #000000 #000000 0 1;
#X msg 1152 205 \$1 30;
#X obj 1152 233 line~;
#X floatatom 1227 179 5 0 0 0 - - - 0;
#X floatatom 1309 179 5 0 30 0 - - - 0;
#N canvas 1986 653 776 583 phasemod 0;
#X obj 67 46 inlet freq;
#X obj 256 46 inlet ratio;
#X obj 235 293 osc~ 50;
#X obj 67 302 phasor~ 400;
#X obj 236 252 *~;
#X obj 366 46 inlet index;
#X obj 366 392 line~;
#X obj 234 358 *~;
#X obj 67 330 +~;
#X obj 67 358 cos~;
#X obj 67 386 outlet~;
#X msg 256 74 \$1 30;
#X obj 256 102 line~;
#X msg 67 74 \$1 30;
#X obj 67 102 line~;
#X msg 366 74 \$1 30;
#X connect 0 0 13 0;
#X connect 1 0 11 0;
#X connect 2 0 7 0;
#X connect 3 0 8 0;
#X connect 4 0 2 0;
#X connect 5 0 15 0;
#X connect 6 0 7 1;
#X connect 7 0 8 1;
#X connect 8 0 9 0;
#X connect 9 0 10 0;
#X connect 11 0 12 0;
#X connect 12 0 4 1;
#X connect 13 0 14 0;
#X connect 14 0 3 0;
#X connect 14 0 4 0;
#X connect 15 0 6 0;
#X restore 1455 546 pd phasemod;
#X f 21;
#X obj 1435 573 *~;
#X obj 1380 437 vsl 23 100 0 1 0 1 empty empty empty 0 -9 0 16 #fcfcfc #000000 #000000 1900 1;
#X msg 1380 545 \$1 30;
#X obj 1380 573 line~;
#X floatatom 1455 519 5 0 0 0 - - - 0;
#X floatatom 1537 519 5 0 30 0 - - - 0;
#X obj 546 1217 +~;
#X obj 498 23 netreceive -f 5829;
#X obj 498 66 unpack f f f f f f f f f f f f f f f f f f f f, f 243;
#N canvas 1986 653 776 583 phasemod 0;
#X obj 67 46 inlet freq;
#X obj 256 46 inlet ratio;
#X obj 235 293 osc~ 50;
#X obj 67 302 phasor~ 400;
#X obj 236 252 *~;
#X obj 366 46 inlet index;
#X obj 366 392 line~;
#X obj 234 358 *~;
#X obj 67 330 +~;
#X obj 67 358 cos~;
#X obj 67 386 outlet~;
#X msg 256 74 \$1 30;
#X obj 256 102 line~;
#X msg 67 74 \$1 30;
#X obj 67 102 line~;
#X msg 366 74 \$1 30;
#X connect 0 0 13 0;
#X connect 1 0 11 0;
#X connect 2 0 7 0;
#X connect 3 0 8 0;
#X connect 4 0 2 0;
#X connect 5 0 15 0;
#X connect 6 0 7 1;
#X connect 7 0 8 1;
#X connect 8 0 9 0;
#X connect 9 0 10 0;
#X connect 11 0 12 0;
#X connect 12 0 4 1;
#X connect 13 0 14 0;
#X connect 14 0 3 0;
#X connect 14 0 4 0;
#X connect 15 0 6 0;
#X restore 1875 726 pd phasemod;
#X f 21;
#X obj 1855 753 *~;
#X obj 1800 617 vsl 23 100 0 1 0 1 empty empty empty 0 -9 0 16 #fcfcfc #000000 #000000 0 1;
#X msg 1800 725 \$1 30;
#X obj 1800 753 line~;
#X floatatom 1875 699 5 0 0 0 - - - 0;
#X floatatom 1957 699 5 0 30 0 - - - 0;
#X floatatom 2040 699 5 0 1 0 - - - 0;
#N canvas 1986 653 776 583 phasemod 0;
#X obj 67 46 inlet freq;
#X obj 256 46 inlet ratio;
#X obj 235 293 osc~ 50;
#X obj 67 302 phasor~ 400;
#X obj 236 252 *~;
#X obj 366 46 inlet index;
#X obj 366 392 line~;
#X obj 234 358 *~;
#X obj 67 330 +~;
#X obj 67 358 cos~;
#X obj 67 386 outlet~;
#X msg 256 74 \$1 30;
#X obj 256 102 line~;
#X msg 67 74 \$1 30;
#X obj 67 102 line~;
#X msg 366 74 \$1 30;
#X connect 0 0 13 0;
#X connect 1 0 11 0;
#X connect 2 0 7 0;
#X connect 3 0 8 0;
#X connect 4 0 2 0;
#X connect 5 0 15 0;
#X connect 6 0 7 1;
#X connect 7 0 8 1;
#X connect 8 0 9 0;
#X connect 9 0 10 0;
#X connect 11 0 12 0;
#X connect 12 0 4 1;
#X connect 13 0 14 0;
#X connect 14 0 3 0;
#X connect 14 0 4 0;
#X connect 15 0 6 0;
#X restore 1575 736 pd phasemod;
#X f 21;
#X obj 1555 763 *~;
#X obj 1500 627 vsl 23 100 0 1 0 1 empty empty empty 0 -9 0 16 #fcfcfc #000000 #000000 0 1;
#X msg 1500 735 \$1 30;
#X obj 1500 763 line~;
#X floatatom 1575 709 5 0 0 0 - - - 0;
#X floatatom 1657 709 5 0 30 0 - - - 0;
#X floatatom 1740 709 5 0 1 0 - - - 0;
#X obj 567 788 +~;
#X obj 566 897 +~;
#X obj 568 825 delwrite~ \$0_A2 1000;
#X obj 608 1079 rev2~, f 26;
#X obj 653 1042 nbx 5 21 0 100 0 0 empty empty db 0 -12 0 16 #fcfcfc #000000 #000000 0 256;
#X obj 723 1012 nbx 5 21 -1e+37 1e+37 0 0 empty empty feedback\ (0-100) 0 -12 0 16 #fcfcfc #000000 #000000 0 256;
#X obj 793 962 nbx 5 21 -1e+37 1e+37 0 0 empty empty crossover\ freq 0 -12 0 16 #fcfcfc #000000 #000000 0 256;
#X obj 863 915 nbx 5 21 -1e+37 1e+37 0 0 empty empty damping\ (0-100) 0 -12 0 16 #fcfcfc #000000 #000000 0 256;
#X obj 608 1107 *~ 0.3;
#X obj 670 1107 nbx 5 21 -1e+37 1e+37 0 0 empty empty empty 0 -12 0 16 #fcfcfc #000000 #000000 0 256;
#X obj 497 1083 *~ 0.3;
#X obj 541 1044 nbx 5 21 -1e+37 1e+37 0 0 empty empty empty 0 -12 0 16 #fcfcfc #000000 #000000 0 256;
#X msg 759 813 123;
#X msg 639 775 clear;
#X obj 568 865 delread~ \$0_A2 990;
#X obj 679 917 *~ 0.07;
#X msg 118 963 0;
#X floatatom 986 481 5 0 1 0 - - - 0;
#X obj 948 483 *;
#X floatatom 1317 462 5 0 1 0 - - - 0;
#X obj 1279 464 *;
#X floatatom 1657 456 5 0 1 0 - - - 0;
#X obj 1619 458 *;
#X obj 609 917 *~ 0.1;
#X floatatom 1658 496 5 0 0 0 - - - 0;
#X obj 1618 494 +;
#X floatatom 986 513 5 0 1 0 - - - 0;
#X obj 948 515 +;
#X floatatom 640 467 5 0 1 0 - - - 0;
#X obj 602 469 *;
#X floatatom 640 499 5 0 1 0 - - - 0;
#X obj 602 501 +;
#X floatatom 294 421 5 0 1 0 - - - 0;
#X obj 256 423 *;
#X floatatom 294 453 5 0 1 0 - - - 0;
#X obj 256 455 +;
#X floatatom 1445 142 5 0 1 0 - - - 0;
#X obj 1407 144 *;
#X floatatom 1445 174 5 0 1 0 - - - 0;
#X obj 1407 176 +;
#X floatatom 1109 141 5 0 1 0 - - - 0;
#X obj 1071 143 *;
#X floatatom 1109 173 5 0 1 0 - - - 0;
#X obj 1071 175 +;
#X floatatom 802 138 5 0 1 0 - - - 0;
#X obj 764 140 *;
#X floatatom 802 170 5 0 1 0 - - - 0;
#X obj 764 172 +;
#X floatatom 444 126 5 0 1 0 - - - 0;
#X obj 406 128 *;
#X floatatom 444 158 5 0 1 0 - - - 0;
#X obj 406 160 +;
#X obj 1279 491 + 0.1;
#X connect 0 0 1 1;
#X connect 1 0 9 0;
#X connect 2 0 3 0;
#X connect 3 0 4 0;
#X connect 4 0 1 0;
#X connect 6 0 7 0;
#X connect 7 0 8 0;
#X connect 8 0 10 1;
#X connect 9 0 88 0;
#X connect 10 0 91 0;
#X connect 10 0 98 0;
#X connect 11 0 0 0;
#X connect 12 0 0 1;
#X connect 13 0 14 1;
#X connect 14 0 9 0;
#X connect 15 0 16 0;
#X connect 16 0 17 0;
#X connect 17 0 14 0;
#X connect 18 0 13 0;
#X connect 19 0 13 1;
#X connect 20 0 21 1;
#X connect 21 0 9 0;
#X connect 22 0 23 0;
#X connect 23 0 24 0;
#X connect 24 0 21 0;
#X connect 25 0 20 0;
#X connect 26 0 20 1;
#X connect 27 0 28 1;
#X connect 28 0 9 0;
#X connect 29 0 30 0;
#X connect 30 0 31 0;
#X connect 31 0 28 0;
#X connect 32 0 27 0;
#X connect 33 0 27 1;
#X connect 34 0 35 1;
#X connect 35 0 9 0;
#X connect 36 0 37 0;
#X connect 37 0 38 0;
#X connect 38 0 35 0;
#X connect 39 0 34 0;
#X connect 40 0 34 1;
#X connect 41 0 42 1;
#X connect 42 0 9 0;
#X connect 43 0 44 0;
#X connect 44 0 45 0;
#X connect 45 0 42 0;
#X connect 46 0 41 0;
#X connect 47 0 41 1;
#X connect 48 0 49 1;
#X connect 49 0 9 0;
#X connect 50 0 51 0;
#X connect 51 0 52 0;
#X connect 52 0 49 0;
#X connect 53 0 48 0;
#X connect 54 0 48 1;
#X connect 55 0 56 1;
#X connect 56 0 9 0;
#X connect 57 0 58 0;
#X connect 58 0 59 0;
#X connect 59 0 56 0;
#X connect 60 0 55 0;
#X connect 61 0 55 1;
#X connect 62 0 63 1;
#X connect 63 0 9 0;
#X connect 64 0 65 0;
#X connect 65 0 66 0;
#X connect 66 0 63 0;
#X connect 67 0 62 0;
#X connect 68 0 62 1;
#X connect 69 0 5 0;
#X connect 69 0 5 1;
#X connect 70 0 71 0;
#X connect 71 0 39 0;
#X connect 71 1 46 0;
#X connect 71 2 53 0;
#X connect 71 3 60 0;
#X connect 71 4 11 0;
#X connect 71 5 18 0;
#X connect 71 6 25 0;
#X connect 71 7 32 0;
#X connect 71 8 67 0;
#X connect 71 9 137 0;
#X connect 71 10 133 0;
#X connect 71 11 129 0;
#X connect 71 12 125 0;
#X connect 71 13 121 0;
#X connect 71 14 117 0;
#X connect 71 15 106 0;
#X connect 71 16 108 0;
#X connect 71 17 110 0;
#X connect 71 18 85 0;
#X connect 71 19 77 0;
#X connect 72 0 73 1;
#X connect 73 0 9 0;
#X connect 74 0 75 0;
#X connect 75 0 76 0;
#X connect 76 0 73 0;
#X connect 77 0 72 0;
#X connect 78 0 72 1;
#X connect 79 0 72 2;
#X connect 80 0 81 1;
#X connect 81 0 9 0;
#X connect 82 0 83 0;
#X connect 83 0 84 0;
#X connect 84 0 81 0;
#X connect 85 0 80 0;
#X connect 86 0 80 1;
#X connect 87 0 80 2;
#X connect 88 0 89 0;
#X connect 88 0 90 0;
#X connect 89 0 10 0;
#X connect 91 0 96 0;
#X connect 92 0 91 1;
#X connect 93 0 91 2;
#X connect 94 0 91 3;
#X connect 95 0 91 4;
#X connect 96 0 69 1;
#X connect 97 0 96 1;
#X connect 98 0 69 0;
#X connect 99 0 98 1;
#X connect 100 0 102 0;
#X connect 101 0 90 0;
#X connect 102 0 103 0;
#X connect 102 0 111 0;
#X connect 103 0 88 1;
#X connect 104 0 7 0;
#X connect 105 0 106 1;
#X connect 106 0 115 0;
#X connect 107 0 108 1;
#X connect 108 0 140 0;
#X connect 109 0 110 1;
#X connect 110 0 113 0;
#X connect 111 0 89 1;
#X connect 112 0 113 1;
#X connect 113 0 62 2;
#X connect 114 0 115 1;
#X connect 115 0 20 2;
#X connect 116 0 117 1;
#X connect 117 0 119 0;
#X connect 118 0 119 1;
#X connect 119 0 13 2;
#X connect 120 0 121 1;
#X connect 121 0 123 0;
#X connect 122 0 123 1;
#X connect 123 0 0 2;
#X connect 124 0 125 1;
#X connect 125 0 127 0;
#X connect 126 0 127 1;
#X connect 127 0 55 2;
#X connect 128 0 129 1;
#X connect 129 0 131 0;
#X connect 130 0 131 1;
#X connect 131 0 48 2;
#X connect 132 0 133 1;
#X connect 133 0 135 0;
#X connect 134 0 135 1;
#X connect 135 0 41 2;
#X connect 136 0 137 1;
#X connect 137 0 139 0;
#X connect 138 0 139 1;
#X connect 139 0 34 2;
#X connect 140 0 27 2;
