#N canvas 4 70 1712 1332 16;
#X msg 57 31 bang;
#N canvas 265 649 1011 806 arrays 0;
#X obj 119 184 *;
#X obj 229 152 value \$0_nx;
#X obj 119 117 t b b;
#X msg 119 218 resize \$1;
#X obj 119 152 value \$0_m;
#X obj 119 280 array define -k \$0_X;
#A resize 12;
#A 0 1 2 3 4 5 6 7 8 9 10 11 12;
#X obj 120 325 array define -k \$0_Y;
#A resize 100;
#A 0 0 0 0 0 0 0 0 0 0 0 0 0 0 0 0 0 0 0 0 0 0 0 0 0 0 0 0 0 0 0 0 0 0 0 0 0 0 0 0 0 0 0 0 0 0 0 0 0 0 0 0 0 0 0 0 0 0 0 0 0 0 0 0 0 0 0 0 0 0 0 0 0 0 0 0 0 0 0 0 0 0 0 0 0 0 0 0 0 0 0 0 0 0 0 0 0 0 0 0 0;
#X obj 62 20 inlet bang;
#X connect 0 0 3 0;
#X connect 1 0 0 1;
#X connect 2 0 4 0;
#X connect 2 1 1 0;
#X connect 3 0 5 0;
#X connect 4 0 0 0;
#X connect 7 0 2 0;
#X restore 72 280 pd arrays;
#X obj 57 125 value \$0_m;
#X obj 175 125 value \$0_nx;
#X msg 57 92 4;
#X msg 175 92 3;
#X msg 72 243 bang;
#X obj 57 59 t b b b, f 30;
#X obj 294 96 f \$0;
#X obj 294 128 s \$0_ns;
#X obj 858 240 r \$0_ns;
#X obj 659 238 value \$0_m;
#X floatatom 557 234 5 0 0 0 - - - 0;
#X obj 557 306 print;
#X obj 659 180 t b b;
#X obj 659 145 bng 23 250 50 0 empty empty empty 0 -12 0 16 #fcfcfc #000000 #000000;
#X obj 1328 230 cml.d0;
#X obj 1423 193 r \$0_ns;
#X msg 1084 194 1 2 3 4 5 6 7 8 9 10 11 12;
#X obj 1259 275 array set;
#X obj 1084 133 t b b;
#X obj 1084 93 bng 23 250 50 0 empty empty empty 0 -12 0 16 #fcfcfc #000000 #000000;
#X msg 1328 193 X;
#X msg 757 237 X;
#X obj 735 565 cml.get_element, f 49;
#X obj 557 278 cml.get_row, f 38;
#X obj 1124 532 r \$0_ns;
#X msg 1026 532 X;
#X obj 929 532 value \$0_m;
#X floatatom 832 530 5 0 0 0 - - - 0;
#X floatatom 735 529 5 0 0 0 - - - 0;
#X obj 929 490 t b b;
#X obj 929 455 bng 23 250 50 0 empty empty empty 0 -12 0 16 #fcfcfc #000000 #000000;
#X obj 735 610 print;
#X obj 919 893 print;
#X floatatom 980 805 5 0 0 0 - - - 0;
#X floatatom 870 793 5 0 0 0 - - - 0;
#X obj 922 848 <=;
#X connect 0 0 7 0;
#X connect 4 0 2 0;
#X connect 5 0 3 0;
#X connect 6 0 1 0;
#X connect 7 0 4 0;
#X connect 7 1 5 0;
#X connect 7 2 8 0;
#X connect 8 0 9 0;
#X connect 10 0 25 3;
#X connect 11 0 25 1;
#X connect 12 0 25 0;
#X connect 14 0 11 0;
#X connect 14 1 23 0;
#X connect 15 0 14 0;
#X connect 16 0 19 2;
#X connect 17 0 16 1;
#X connect 18 0 19 0;
#X connect 20 0 18 0;
#X connect 20 1 22 0;
#X connect 21 0 20 0;
#X connect 22 0 16 0;
#X connect 23 0 25 2;
#X connect 24 0 33 0;
#X connect 25 0 13 0;
#X connect 26 0 24 4;
#X connect 27 0 24 3;
#X connect 28 0 24 2;
#X connect 29 0 24 1;
#X connect 30 0 24 0;
#X connect 31 0 28 0;
#X connect 31 1 27 0;
#X connect 32 0 31 0;
#X connect 35 0 37 1;
#X connect 36 0 37 0;
#X connect 37 0 34 0;
