#N canvas 1724 70 1712 1332 16;
#X msg 57 31 bang;
#N canvas 1818 70 1054 1332 arrays 0;
#X obj 209 214 *;
#X obj 270 182 value \$0_nx;
#X obj 209 147 t b b, f 8;
#X msg 209 248 resize \$1;
#X obj 209 310 array define -k \$0_X;
#A resize 12;
#A 0 1 2 3 4 5 6 7 8 9 10 11 12;
#X obj 27 219 array define -k \$0_Y;
#A resize 4;
#A 0 0 0 0 0;
#X obj 119 20 inlet bang;
#X obj 19 798 *;
#X obj 19 731 t b b, f 11;
#X msg 19 832 resize \$1;
#X obj 104 766 v \$0_nx;
#X obj 19 766 v \$0_nL-0;
#X obj 209 181 v \$0_m;
#X obj 27 150 v \$0_m;
#X msg 27 178 resize \$1;
#X msg 21 1061 resize \$1;
#X obj 21 1023 v \$0_nL-0;
#X obj 119 48 s \$0_size_arrays;
#X obj 27 115 r \$0_size_arrays;
#X obj 209 115 r \$0_size_arrays;
#X obj 19 699 r \$0_size_arrays;
#X obj 21 988 r \$0_size_arrays;
#X obj 19 518 *;
#X obj 19 451 t b b, f 11;
#X msg 19 552 resize \$1;
#X obj 19 486 v \$0_nL-0;
#X obj 19 419 r \$0_size_arrays;
#X obj 104 486 v \$0_m;
#X obj 239 518 *;
#X obj 239 451 t b b, f 11;
#X msg 239 552 resize \$1;
#X obj 239 486 v \$0_nL-0;
#X obj 239 419 r \$0_size_arrays;
#X obj 324 486 v \$0_m;
#X obj 479 518 *;
#X obj 479 451 t b b, f 11;
#X msg 479 552 resize \$1;
#X obj 479 486 v \$0_nL-0;
#X obj 479 419 r \$0_size_arrays;
#X obj 564 486 v \$0_m;
#X obj 19 610 array define -k \$0_AL-0;
#A resize 12;
#A 0 0 0 0 0 0 0 0 0 0 0 0 0;
#X obj 239 610 array define -k \$0_dAL-0;
#A resize 12;
#A 0 0 0 0 0 0 0 0 0 0 0 0 0;
#X obj 479 609 array define -k \$0_ZL-0;
#A resize 12;
#A 0 55 64 73 82 101 119 137 155 147 174 201 228;
#X obj 699 518 *;
#X obj 699 451 t b b, f 11;
#X msg 699 552 resize \$1;
#X obj 699 486 v \$0_nL-0;
#X obj 699 419 r \$0_size_arrays;
#X obj 784 486 v \$0_m;
#X obj 699 609 array define -k \$0_dZL-0;
#A resize 12;
#A 0 0 0 0 0 0 0 0 0 0 0 0 0;
#X obj 19 890 array define -k \$0_WL-0;
#A resize 9;
#A 0 2 3 4 5 6 7 8 9 10;
#X obj 289 798 *;
#X obj 289 731 t b b, f 11;
#X msg 289 832 resize \$1;
#X obj 374 766 v \$0_nx;
#X obj 289 766 v \$0_nL-0;
#X obj 289 699 r \$0_size_arrays;
#X obj 289 890 array define -k \$0_dWL-0;
#A resize 9;
#A 0 0 0 0 0 0 0 0 0 0;
#X msg 291 1061 resize \$1;
#X obj 291 1023 v \$0_nL-0;
#X obj 291 988 r \$0_size_arrays;
#X obj 22 1118 array define -k \$0_bL-0;
#A resize 3;
#A 0 2 3 4;
#X obj 291 1118 array define -k \$0_dbL-0;
#A resize 3;
#A 0 0 0 0;
#X connect 0 0 3 0;
#X connect 1 0 0 1;
#X connect 2 0 12 0;
#X connect 2 1 1 0;
#X connect 3 0 4 0;
#X connect 6 0 17 0;
#X connect 7 0 9 0;
#X connect 8 0 11 0;
#X connect 8 1 10 0;
#X connect 9 0 50 0;
#X connect 10 0 7 1;
#X connect 11 0 7 0;
#X connect 12 0 0 0;
#X connect 13 0 14 0;
#X connect 14 0 5 0;
#X connect 15 0 61 0;
#X connect 16 0 15 0;
#X connect 18 0 13 0;
#X connect 19 0 2 0;
#X connect 20 0 8 0;
#X connect 21 0 16 0;
#X connect 22 0 24 0;
#X connect 23 0 25 0;
#X connect 23 1 27 0;
#X connect 24 0 40 0;
#X connect 25 0 22 0;
#X connect 26 0 23 0;
#X connect 27 0 22 1;
#X connect 28 0 30 0;
#X connect 29 0 31 0;
#X connect 29 1 33 0;
#X connect 30 0 41 0;
#X connect 31 0 28 0;
#X connect 32 0 29 0;
#X connect 33 0 28 1;
#X connect 34 0 36 0;
#X connect 35 0 37 0;
#X connect 35 1 39 0;
#X connect 36 0 42 0;
#X connect 37 0 34 0;
#X connect 38 0 35 0;
#X connect 39 0 34 1;
#X connect 43 0 45 0;
#X connect 44 0 46 0;
#X connect 44 1 48 0;
#X connect 45 0 49 0;
#X connect 46 0 43 0;
#X connect 47 0 44 0;
#X connect 48 0 43 1;
#X connect 51 0 53 0;
#X connect 52 0 55 0;
#X connect 52 1 54 0;
#X connect 53 0 57 0;
#X connect 54 0 51 1;
#X connect 55 0 51 0;
#X connect 56 0 52 0;
#X connect 58 0 62 0;
#X connect 59 0 58 0;
#X connect 60 0 59 0;
#X restore 72 280 pd arrays;
#X msg 57 92 4;
#X msg 176 92 3;
#X msg 72 243 bang;
#X obj 414 96 f \$0;
#N canvas 0 50 450 250 (subpatch) 0;
#X array \$0_X_0 4 float 3;
#A 0 0.328576 8.22544e-06 -0.357159 0.128586;
#X coords 0 1 4 -1 200 140 1;
#X restore 55 596 graph;
#N canvas 0 50 450 250 (subpatch) 0;
#X array \$0_X_1 4 float 3;
#A 0 -0.814295 -0.285722 0.328578 0.814302;
#X coords 0 1 4 -1 200 140 1;
#X restore 53 788 graph;
#N canvas 0 50 450 250 (subpatch) 0;
#X array \$0_X_2 4 float 3;
#A 0 -0.385677 -0.214256 -0.0428747 -0.685669;
#X coords 0 1 4 -1 200 140 1;
#X restore 47 982 graph;
#X msg 313 218 4;
#X obj 313 246 value \$0_nL-0;
#X obj 57 59 t b b b b, f 45;
#X msg 295 92 3;
#X obj 57 125 v \$0_m;
#X obj 176 125 v \$0_nx;
#X obj 414 128 v \$0_ns;
#X obj 295 125 v \$0_nL-0;
#N canvas 129 266 1504 843 set_and_get_examples 0;
#X floatatom 49 98 5 0 0 0 - - - 0;
#X obj 49 170 print;
#X obj 149 19 bng 23 250 50 0 empty empty empty 0 -12 0 16 #fcfcfc #000000 #000000;
#X obj 706 166 cml.d0;
#X obj 637 211 array set;
#X obj 462 29 bng 23 250 50 0 empty empty empty 0 -12 0 16 #fcfcfc #000000 #000000;
#X msg 706 129 X;
#X msg 249 101 X;
#X obj 438 379 cml.get_element, f 49;
#X obj 49 142 cml.get_row, f 38;
#X msg 729 346 X;
#X obj 632 346 value \$0_m;
#X floatatom 535 344 5 0 0 0 - - - 0;
#X floatatom 438 343 5 0 0 0 - - - 0;
#X obj 632 269 bng 23 250 50 0 empty empty empty 0 -12 0 16 #fcfcfc #000000 #000000;
#X obj 438 424 print;
#X obj 37 412 cml.set_row, f 38;
#X obj 350 104 v \$0_ns;
#X obj 149 103 v \$0_m;
#X obj 149 54 t b b b;
#X obj 795 129 v \$0_ns;
#X obj 462 69 t b b b, f 42;
#X obj 632 304 t b b b;
#X obj 827 346 v \$0_ns;
#X obj 338 379 v \$0_ns;
#X msg 262 379 X;
#X obj 187 379 v \$0_m;
#X floatatom 112 379 5 0 0 0 - - - 0;
#X msg 37 324 100 200 300 400;
#X obj 187 296 bng 23 250 50 0 empty empty empty 0 -12 0 16 #fcfcfc #000000 #000000;
#X obj 187 324 t b b b;
#X obj 36 690 cml.set_element, f 48;
#X obj 417 657 v \$0_ns;
#X msg 340 657 X;
#X obj 264 657 v \$0_m;
#X obj 264 602 t b b b;
#X floatatom 188 658 5 0 0 0 - - - 0;
#X floatatom 112 658 5 0 0 0 - - - 0;
#X floatatom 36 658 5 0 0 0 - - - 0;
#X obj 996 366 cml.d0;
#X msg 996 329 X;
#X obj 1085 329 v \$0_ns;
#X obj 927 399 array get;
#X obj 927 268 bng 23 250 50 0 empty empty empty 0 -12 0 16 #fcfcfc #000000 #000000;
#X obj 927 296 t b b b;
#X obj 927 427 print;
#X obj 57 587 tabread \$0_X_0;
#X floatatom 36 490 5 0 0 0 - - - 0;
#X obj 36 517 mod 4;
#X obj 36 627 f;
#X msg 462 130 0 0 0 0 0 0 0 0 0 0 0 0;
#X obj 36 545 t b f f b, f 29;
#X obj 517 703 cml.set_element, f 48;
#X obj 898 670 v \$0_ns;
#X msg 821 670 X;
#X obj 745 670 v \$0_m;
#X obj 745 615 t b b b;
#X floatatom 669 671 5 0 0 0 - - - 0;
#X floatatom 593 671 5 0 0 0 - - - 0;
#X floatatom 517 671 5 0 0 0 - - - 0;
#X floatatom 517 503 5 0 0 0 - - - 0;
#X obj 517 530 mod 4;
#X obj 517 640 f;
#X obj 517 558 t b f f b, f 29;
#X obj 538 600 tabread \$0_X_1;
#X obj 987 703 cml.set_element, f 48;
#X obj 1368 670 v \$0_ns;
#X msg 1291 670 X;
#X obj 1215 670 v \$0_m;
#X obj 1215 615 t b b b;
#X floatatom 1139 671 5 0 0 0 - - - 0;
#X floatatom 1063 671 5 0 0 0 - - - 0;
#X floatatom 987 671 5 0 0 0 - - - 0;
#X floatatom 987 503 5 0 0 0 - - - 0;
#X obj 987 530 mod 4;
#X obj 987 640 f;
#X obj 987 558 t b f f b, f 29;
#X obj 1008 600 tabread \$0_X_2;
#X connect 0 0 9 0;
#X connect 2 0 19 0;
#X connect 3 0 4 2;
#X connect 5 0 21 0;
#X connect 6 0 3 0;
#X connect 7 0 9 2;
#X connect 8 0 15 0;
#X connect 9 0 1 0;
#X connect 10 0 8 3;
#X connect 11 0 8 2;
#X connect 12 0 8 1;
#X connect 13 0 8 0;
#X connect 14 0 22 0;
#X connect 17 0 9 3;
#X connect 18 0 9 1;
#X connect 19 0 18 0;
#X connect 19 1 7 0;
#X connect 19 2 17 0;
#X connect 20 0 3 1;
#X connect 21 0 50 0;
#X connect 21 1 6 0;
#X connect 21 2 20 0;
#X connect 22 0 11 0;
#X connect 22 1 10 0;
#X connect 22 2 23 0;
#X connect 24 0 16 4;
#X connect 25 0 16 3;
#X connect 26 0 16 2;
#X connect 27 0 16 1;
#X connect 28 0 16 0;
#X connect 29 0 30 0;
#X connect 30 0 26 0;
#X connect 30 1 25 0;
#X connect 30 2 24 0;
#X connect 33 0 31 4;
#X connect 34 0 31 3;
#X connect 35 0 34 0;
#X connect 35 1 33 0;
#X connect 35 2 32 0;
#X connect 36 0 31 2;
#X connect 37 0 31 1;
#X connect 38 0 31 0;
#X connect 39 0 42 2;
#X connect 40 0 39 0;
#X connect 41 0 39 1;
#X connect 42 0 45 0;
#X connect 43 0 44 0;
#X connect 44 0 42 0;
#X connect 44 1 40 0;
#X connect 44 2 41 0;
#X connect 46 0 49 1;
#X connect 47 0 48 0;
#X connect 48 0 51 0;
#X connect 49 0 38 0;
#X connect 50 0 4 0;
#X connect 51 0 49 0;
#X connect 51 1 46 0;
#X connect 51 2 36 0;
#X connect 51 3 35 0;
#X connect 54 0 52 4;
#X connect 55 0 52 3;
#X connect 56 0 55 0;
#X connect 56 1 54 0;
#X connect 56 2 53 0;
#X connect 57 0 52 2;
#X connect 58 0 52 1;
#X connect 59 0 52 0;
#X connect 60 0 61 0;
#X connect 61 0 63 0;
#X connect 62 0 59 0;
#X connect 63 0 62 0;
#X connect 63 1 64 0;
#X connect 63 2 57 0;
#X connect 63 3 56 0;
#X connect 64 0 62 1;
#X connect 67 0 65 4;
#X connect 68 0 65 3;
#X connect 69 0 68 0;
#X connect 69 1 67 0;
#X connect 69 2 66 0;
#X connect 70 0 65 2;
#X connect 71 0 65 1;
#X connect 72 0 65 0;
#X connect 73 0 74 0;
#X connect 74 0 76 0;
#X connect 75 0 72 0;
#X connect 76 0 75 0;
#X connect 76 1 77 0;
#X connect 76 2 70 0;
#X connect 76 3 69 0;
#X connect 77 0 75 1;
#X restore 58 329 pd set_and_get_examples;
#X obj 297 1138 cml.initialize_params;
#X obj 375 1095 cml.d0;
#X obj 432 1068 v \$0_ns;
#X floatatom 491 1114 5 0 0 0 - - - 0;
#X msg 297 997 bang;
#X obj 297 1025 t b b b;
#X obj 578 739 cml.layer_forward;
#X obj 711 706 v \$0_ns;
#X msg 578 605 bang;
#X obj 578 633 t b b b;
#X msg 604 673 layer_number 0 \, layer_dims 3 3 \, m 4 \, initial_layer 1;
#X obj 1060 780 array get \$0_ZL-0;
#X obj 1060 808 print;
#X obj 1059 741 bng 23 250 50 0 empty empty empty 0 -12 0 16 #fcfcfc #000000 #000000;
#X msg 375 1067 WL-0;
#X obj 682 212 array set;
#X msg 751 147 WL-0;
#X obj 751 175 cml.d0;
#X obj 809 145 v \$0_ns;
#X msg 572 144 2 3 4 5 6 7 8 9 10;
#X obj 572 83 t b b b;
#X msg 572 50 bang;
#X obj 1032 212 array set;
#X obj 1101 175 cml.d0;
#X obj 1159 145 v \$0_ns;
#X obj 922 83 t b b b;
#X msg 922 50 bang;
#X msg 1101 147 bL-0;
#X msg 922 144 2 3 4;
#X obj 1362 212 array set;
#X obj 1431 175 cml.d0;
#X obj 1489 145 v \$0_ns;
#X obj 1252 53 t b b b;
#X msg 1252 20 bang;
#X msg 1431 147 X;
#X msg 1252 114 1 2 3 4 5 6 7 8 9 10 11 12;
#X connect 0 0 11 0;
#X connect 2 0 13 0;
#X connect 3 0 14 0;
#X connect 4 0 1 0;
#X connect 5 0 15 0;
#X connect 9 0 10 0;
#X connect 11 0 2 0;
#X connect 11 1 3 0;
#X connect 11 2 12 0;
#X connect 11 3 5 0;
#X connect 12 0 16 0;
#X connect 19 0 18 1;
#X connect 20 0 19 1;
#X connect 21 0 18 2;
#X connect 22 0 23 0;
#X connect 23 0 18 0;
#X connect 23 1 32 0;
#X connect 23 2 20 0;
#X connect 25 0 24 1;
#X connect 26 0 27 0;
#X connect 27 0 24 0;
#X connect 27 1 28 0;
#X connect 27 2 25 0;
#X connect 28 0 24 0;
#X connect 29 0 30 0;
#X connect 31 0 29 0;
#X connect 32 0 19 0;
#X connect 34 0 35 0;
#X connect 35 0 33 2;
#X connect 36 0 35 1;
#X connect 37 0 33 0;
#X connect 38 0 37 0;
#X connect 38 1 34 0;
#X connect 38 2 36 0;
#X connect 39 0 38 0;
#X connect 41 0 40 2;
#X connect 42 0 41 1;
#X connect 43 0 46 0;
#X connect 43 1 45 0;
#X connect 43 2 42 0;
#X connect 44 0 43 0;
#X connect 45 0 41 0;
#X connect 46 0 40 0;
#X connect 48 0 47 2;
#X connect 49 0 48 1;
#X connect 50 0 53 0;
#X connect 50 1 52 0;
#X connect 50 2 49 0;
#X connect 51 0 50 0;
#X connect 52 0 48 0;
#X connect 53 0 47 0;
