#N canvas 4 70 1729 1332 16;
#X msg 57 31 bang;
#N canvas 189 70 2420 1332 arrays 0;
#X obj 209 214 *;
#X obj 270 182 value \$0_nx;
#X obj 209 147 t b b, f 8;
#X msg 209 248 resize \$1;
#X obj 209 280 array define -k \$0_X;
#A resize 12;
#A 0 1 2 3 4 5 6 7 8 9 10 11 12;
#X obj 27 209 array define -k \$0_Y;
#A resize 4;
#A 0 1 0 -1 -2;
#X obj 119 20 inlet bang;
#X obj 19 750 *;
#X obj 19 681 t b b, f 11;
#X msg 19 782 resize \$1;
#X obj 104 716 v \$0_nx;
#X obj 19 716 v \$0_nL-0;
#X obj 209 181 v \$0_m;
#X obj 27 150 v \$0_m;
#X msg 27 178 resize \$1;
#X msg 21 941 resize \$1;
#X obj 21 903 v \$0_nL-0;
#X obj 119 48 s \$0_size_arrays;
#X obj 27 115 r \$0_size_arrays;
#X obj 209 115 r \$0_size_arrays;
#X obj 19 649 r \$0_size_arrays;
#X obj 21 868 r \$0_size_arrays;
#X obj 19 518 *;
#X obj 19 451 t b b, f 11;
#X msg 19 552 resize \$1;
#X obj 19 486 v \$0_nL-0;
#X obj 19 419 r \$0_size_arrays;
#X obj 104 486 v \$0_m;
#X obj 239 518 *;
#X obj 239 451 t b b, f 11;
#X msg 239 552 resize \$1;
#X obj 239 486 v \$0_nL-0;
#X obj 239 419 r \$0_size_arrays;
#X obj 324 486 v \$0_m;
#X obj 479 518 *;
#X obj 479 451 t b b, f 11;
#X msg 479 552 resize \$1;
#X obj 479 486 v \$0_nL-0;
#X obj 479 419 r \$0_size_arrays;
#X obj 564 486 v \$0_m;
#X obj 19 590 array define -k \$0_AL-0;
#A resize 4;
#A 0 2 3 4 5;
#X obj 239 590 array define -k \$0_dAL-0;
#A resize 4;
#A 0 0 0 0 0;
#X obj 479 589 array define -k \$0_ZL-0;
#A resize 4;
#A 0 -6.45528 -5.3763 -4.51891 -3.89625;
#X obj 699 518 *;
#X obj 699 451 t b b, f 11;
#X msg 699 552 resize \$1;
#X obj 699 486 v \$0_nL-0;
#X obj 699 419 r \$0_size_arrays;
#X obj 784 486 v \$0_m;
#X obj 699 589 array define -k \$0_dZL-0;
#A resize 4;
#A 0 1 3 5 7;
#X obj 19 810 array define -k \$0_WL-0;
#A resize 3;
#A 0 -0.22204 -0.02587 -0.485;
#X obj 289 748 *;
#X obj 289 681 t b b, f 11;
#X msg 289 782 resize \$1;
#X obj 374 716 v \$0_nx;
#X obj 289 716 v \$0_nL-0;
#X obj 289 649 r \$0_size_arrays;
#X obj 289 810 array define -k \$0_dWL-0;
#A resize 3;
#A 0 0 0 0;
#X msg 291 941 resize \$1;
#X obj 291 903 v \$0_nL-0;
#X obj 291 868 r \$0_size_arrays;
#X obj 21 978 array define -k \$0_bL-0;
#A resize 1;
#A 0 0.03088;
#X obj 291 978 array define -k \$0_dbL-0;
#A resize 1;
#A 0 0;
#X obj 989 750 *;
#X obj 989 681 t b b, f 11;
#X msg 989 782 resize \$1;
#X msg 991 941 resize \$1;
#X obj 989 649 r \$0_size_arrays;
#X obj 991 868 r \$0_size_arrays;
#X obj 989 518 *;
#X obj 989 451 t b b, f 11;
#X msg 989 552 resize \$1;
#X obj 989 419 r \$0_size_arrays;
#X obj 1074 486 v \$0_m;
#X obj 1209 518 *;
#X obj 1209 451 t b b, f 11;
#X msg 1209 552 resize \$1;
#X obj 1209 419 r \$0_size_arrays;
#X obj 1294 486 v \$0_m;
#X obj 1449 518 *;
#X obj 1449 451 t b b, f 11;
#X msg 1449 552 resize \$1;
#X obj 1449 419 r \$0_size_arrays;
#X obj 1534 486 v \$0_m;
#X obj 1669 518 *;
#X obj 1669 451 t b b, f 11;
#X msg 1669 552 resize \$1;
#X obj 1669 419 r \$0_size_arrays;
#X obj 1754 486 v \$0_m;
#X obj 1259 748 *;
#X obj 1259 681 t b b, f 11;
#X msg 1259 782 resize \$1;
#X obj 1259 649 r \$0_size_arrays;
#X msg 1261 941 resize \$1;
#X obj 1261 868 r \$0_size_arrays;
#X obj 989 486 v \$0_nL-1;
#X obj 1209 486 v \$0_nL-1;
#X obj 1449 486 v \$0_nL-1;
#X obj 1669 486 v \$0_nL-1;
#X obj 989 590 array define -k \$0_AL-1;
#A resize 16;
#A 0 0.0262338 0.326682 0.573001 0.746432 -0.455271 -0.412625 -0.368088 -0.321797 -0.831164 -0.87887 -0.913731 -0.938886 -0.99749 -0.999061 -0.999649 -0.999869;
#X obj 1209 590 array define -k \$0_dAL-1;
#A resize 16;
#A 0 0 0 0 0 0 0 0 0 0 0 0 0 0 0 0 0;
#X obj 1449 589 array define -k \$0_ZL-1;
#A resize 16;
#A 0 0.0262398 0.33911 0.65198 0.96485 -0.49133 -0.43877 -0.38621 -0.33365 -1.19189 -1.37078 -1.54967 -1.72856 -3.33969 -3.83173 -4.32377 -4.81581;
#X obj 1669 589 array define -k \$0_dZL-1;
#A resize 16;
#A 0 0 0 0 0 0 0 0 0 0 0 0 0 0 0 0 0;
#X obj 989 716 v \$0_nL-1;
#X obj 1074 716 v \$0_nL-0;
#X obj 1344 716 v \$0_nL-0;
#X obj 1259 716 v \$0_nL-1;
#X obj 991 903 v \$0_nL-1;
#X obj 1261 903 v \$0_nL-1;
#X obj 989 810 array define -k \$0_WL-1;
#A resize 4;
#A 0 0.31785 0.000859976 -0.00584 0.21856;
#X obj 1259 810 array define -k \$0_dWL-1;
#A resize 4;
#A 0 0 0 0 0;
#X obj 991 978 array define -k \$0_bL-1;
#A resize 4;
#A 0 -0.24335 -0.15373 -0.0886 0.20875;
#X obj 1261 978 array define -k \$0_dbL-1;
#A resize 4;
#A 0 0 0 0 0;
#X connect 0 0 3 0;
#X connect 1 0 0 1;
#X connect 2 0 12 0;
#X connect 2 1 1 0;
#X connect 3 0 4 0;
#X connect 6 0 17 0;
#X connect 7 0 9 0;
#X connect 8 0 11 0;
#X connect 8 1 10 0;
#X connect 9 0 50 0;
#X connect 10 0 7 1;
#X connect 11 0 7 0;
#X connect 12 0 0 0;
#X connect 13 0 14 0;
#X connect 14 0 5 0;
#X connect 15 0 61 0;
#X connect 16 0 15 0;
#X connect 18 0 13 0;
#X connect 19 0 2 0;
#X connect 20 0 8 0;
#X connect 21 0 16 0;
#X connect 22 0 24 0;
#X connect 23 0 25 0;
#X connect 23 1 27 0;
#X connect 24 0 40 0;
#X connect 25 0 22 0;
#X connect 26 0 23 0;
#X connect 27 0 22 1;
#X connect 28 0 30 0;
#X connect 29 0 31 0;
#X connect 29 1 33 0;
#X connect 30 0 41 0;
#X connect 31 0 28 0;
#X connect 32 0 29 0;
#X connect 33 0 28 1;
#X connect 34 0 36 0;
#X connect 35 0 37 0;
#X connect 35 1 39 0;
#X connect 36 0 42 0;
#X connect 37 0 34 0;
#X connect 38 0 35 0;
#X connect 39 0 34 1;
#X connect 43 0 45 0;
#X connect 44 0 46 0;
#X connect 44 1 48 0;
#X connect 45 0 49 0;
#X connect 46 0 43 0;
#X connect 47 0 44 0;
#X connect 48 0 43 1;
#X connect 51 0 53 0;
#X connect 52 0 55 0;
#X connect 52 1 54 0;
#X connect 53 0 57 0;
#X connect 54 0 51 1;
#X connect 55 0 51 0;
#X connect 56 0 52 0;
#X connect 58 0 62 0;
#X connect 59 0 58 0;
#X connect 60 0 59 0;
#X connect 63 0 65 0;
#X connect 64 0 103 0;
#X connect 64 1 104 0;
#X connect 65 0 109 0;
#X connect 66 0 111 0;
#X connect 67 0 64 0;
#X connect 68 0 107 0;
#X connect 69 0 71 0;
#X connect 70 0 95 0;
#X connect 70 1 73 0;
#X connect 71 0 99 0;
#X connect 72 0 70 0;
#X connect 73 0 69 1;
#X connect 74 0 76 0;
#X connect 75 0 96 0;
#X connect 75 1 78 0;
#X connect 76 0 100 0;
#X connect 77 0 75 0;
#X connect 78 0 74 1;
#X connect 79 0 81 0;
#X connect 80 0 97 0;
#X connect 80 1 83 0;
#X connect 81 0 101 0;
#X connect 82 0 80 0;
#X connect 83 0 79 1;
#X connect 84 0 86 0;
#X connect 85 0 98 0;
#X connect 85 1 88 0;
#X connect 86 0 102 0;
#X connect 87 0 85 0;
#X connect 88 0 84 1;
#X connect 89 0 91 0;
#X connect 90 0 106 0;
#X connect 90 1 105 0;
#X connect 91 0 110 0;
#X connect 92 0 90 0;
#X connect 93 0 112 0;
#X connect 94 0 108 0;
#X connect 95 0 69 0;
#X connect 96 0 74 0;
#X connect 97 0 79 0;
#X connect 98 0 84 0;
#X connect 103 0 63 0;
#X connect 104 0 63 1;
#X connect 105 0 89 1;
#X connect 106 0 89 0;
#X connect 107 0 66 0;
#X connect 108 0 93 0;
#X restore 72 280 pd arrays;
#X msg 57 92 4;
#X msg 195 92 3;
#X msg 72 243 bang;
#X obj 606 96 f \$0;
#N canvas 0 50 450 250 (subpatch) 0;
#X array \$0_X_0 4 float 3;
#A 0 0.328576 0.185717 -0.057138 0.128586;
#X coords 0 1 4 -1 200 140 1;
#X restore 55 596 graph;
#N canvas 0 50 450 250 (subpatch) 0;
#X array \$0_X_1 4 float 3;
#A 0 -0.399992 6.19888e-06 0.328578 0.814302;
#X coords 0 1 4 -1 200 140 1;
#X restore 53 788 graph;
#N canvas 0 50 450 250 (subpatch) 0;
#X array \$0_X_2 4 float 3;
#A 0 -0.385677 -0.214256 -0.0428747 0.257107;
#X coords 0 1 4 -1 200 140 1;
#X restore 47 982 graph;
#X obj 57 125 v \$0_m;
#X obj 195 125 v \$0_nx;
#X obj 606 128 v \$0_ns;
#N canvas 133 302 1504 843 set_and_get_examples 0;
#X floatatom 49 98 5 0 0 0 - - - 0;
#X obj 49 170 print;
#X obj 149 19 bng 23 250 50 0 empty empty empty 0 -12 0 16 #fcfcfc #000000 #000000;
#X obj 706 166 cml.d0;
#X obj 637 211 array set;
#X obj 462 29 bng 23 250 50 0 empty empty empty 0 -12 0 16 #fcfcfc #000000 #000000;
#X msg 706 129 X;
#X msg 249 101 X;
#X obj 438 379 cml.get_element, f 49;
#X obj 49 142 cml.get_row, f 38;
#X msg 729 346 X;
#X obj 632 346 value \$0_m;
#X floatatom 535 344 5 0 0 0 - - - 0;
#X floatatom 438 343 5 0 0 0 - - - 0;
#X obj 632 269 bng 23 250 50 0 empty empty empty 0 -12 0 16 #fcfcfc #000000 #000000;
#X obj 438 424 print;
#X obj 37 412 cml.set_row, f 38;
#X obj 350 104 v \$0_ns;
#X obj 149 103 v \$0_m;
#X obj 149 54 t b b b;
#X obj 795 129 v \$0_ns;
#X obj 462 69 t b b b, f 42;
#X obj 632 304 t b b b;
#X obj 827 346 v \$0_ns;
#X obj 338 379 v \$0_ns;
#X msg 262 379 X;
#X obj 187 379 v \$0_m;
#X floatatom 112 379 5 0 0 0 - - - 0;
#X msg 37 324 100 200 300 400;
#X obj 187 296 bng 23 250 50 0 empty empty empty 0 -12 0 16 #fcfcfc #000000 #000000;
#X obj 187 324 t b b b;
#X obj 36 690 cml.set_element, f 48;
#X obj 417 657 v \$0_ns;
#X msg 340 657 X;
#X obj 264 657 v \$0_m;
#X obj 264 602 t b b b;
#X floatatom 188 658 5 0 0 0 - - - 0;
#X floatatom 112 658 5 0 0 0 - - - 0;
#X floatatom 36 658 5 0 0 0 - - - 0;
#X obj 996 366 cml.d0;
#X msg 996 329 X;
#X obj 1085 329 v \$0_ns;
#X obj 927 399 array get;
#X obj 927 268 bng 23 250 50 0 empty empty empty 0 -12 0 16 #fcfcfc #000000 #000000;
#X obj 927 296 t b b b;
#X obj 927 427 print;
#X obj 57 587 tabread \$0_X_0;
#X floatatom 36 490 5 0 0 0 - - - 0;
#X obj 36 517 mod 4;
#X obj 36 627 f;
#X msg 462 130 0 0 0 0 0 0 0 0 0 0 0 0;
#X obj 36 545 t b f f b, f 29;
#X obj 517 703 cml.set_element, f 48;
#X obj 898 670 v \$0_ns;
#X msg 821 670 X;
#X obj 745 670 v \$0_m;
#X obj 745 615 t b b b;
#X floatatom 669 671 5 0 0 0 - - - 0;
#X floatatom 593 671 5 0 0 0 - - - 0;
#X floatatom 517 671 5 0 0 0 - - - 0;
#X floatatom 517 503 5 0 0 0 - - - 0;
#X obj 517 530 mod 4;
#X obj 517 640 f;
#X obj 517 558 t b f f b, f 29;
#X obj 538 600 tabread \$0_X_1;
#X obj 987 703 cml.set_element, f 48;
#X obj 1368 670 v \$0_ns;
#X msg 1291 670 X;
#X obj 1215 670 v \$0_m;
#X obj 1215 615 t b b b;
#X floatatom 1139 671 5 0 0 0 - - - 0;
#X floatatom 1063 671 5 0 0 0 - - - 0;
#X floatatom 987 671 5 0 0 0 - - - 0;
#X floatatom 987 503 5 0 0 0 - - - 0;
#X obj 987 530 mod 4;
#X obj 987 640 f;
#X obj 987 558 t b f f b, f 29;
#X obj 1008 600 tabread \$0_X_2;
#X connect 0 0 9 0;
#X connect 2 0 19 0;
#X connect 3 0 4 2;
#X connect 5 0 21 0;
#X connect 6 0 3 0;
#X connect 7 0 9 2;
#X connect 8 0 15 0;
#X connect 9 0 1 0;
#X connect 10 0 8 3;
#X connect 11 0 8 2;
#X connect 12 0 8 1;
#X connect 13 0 8 0;
#X connect 14 0 22 0;
#X connect 17 0 9 3;
#X connect 18 0 9 1;
#X connect 19 0 18 0;
#X connect 19 1 7 0;
#X connect 19 2 17 0;
#X connect 20 0 3 1;
#X connect 21 0 50 0;
#X connect 21 1 6 0;
#X connect 21 2 20 0;
#X connect 22 0 11 0;
#X connect 22 1 10 0;
#X connect 22 2 23 0;
#X connect 24 0 16 4;
#X connect 25 0 16 3;
#X connect 26 0 16 2;
#X connect 27 0 16 1;
#X connect 28 0 16 0;
#X connect 29 0 30 0;
#X connect 30 0 26 0;
#X connect 30 1 25 0;
#X connect 30 2 24 0;
#X connect 33 0 31 4;
#X connect 34 0 31 3;
#X connect 35 0 34 0;
#X connect 35 1 33 0;
#X connect 35 2 32 0;
#X connect 36 0 31 2;
#X connect 37 0 31 1;
#X connect 38 0 31 0;
#X connect 39 0 42 2;
#X connect 40 0 39 0;
#X connect 41 0 39 1;
#X connect 42 0 45 0;
#X connect 43 0 44 0;
#X connect 44 0 42 0;
#X connect 44 1 40 0;
#X connect 44 2 41 0;
#X connect 46 0 49 1;
#X connect 47 0 48 0;
#X connect 48 0 51 0;
#X connect 49 0 38 0;
#X connect 50 0 4 0;
#X connect 51 0 49 0;
#X connect 51 1 46 0;
#X connect 51 2 36 0;
#X connect 51 3 35 0;
#X connect 54 0 52 4;
#X connect 55 0 52 3;
#X connect 56 0 55 0;
#X connect 56 1 54 0;
#X connect 56 2 53 0;
#X connect 57 0 52 2;
#X connect 58 0 52 1;
#X connect 59 0 52 0;
#X connect 60 0 61 0;
#X connect 61 0 63 0;
#X connect 62 0 59 0;
#X connect 63 0 62 0;
#X connect 63 1 64 0;
#X connect 63 2 57 0;
#X connect 63 3 56 0;
#X connect 64 0 62 1;
#X connect 67 0 65 4;
#X connect 68 0 65 3;
#X connect 69 0 68 0;
#X connect 69 1 67 0;
#X connect 69 2 66 0;
#X connect 70 0 65 2;
#X connect 71 0 65 1;
#X connect 72 0 65 0;
#X connect 73 0 74 0;
#X connect 74 0 76 0;
#X connect 75 0 72 0;
#X connect 76 0 75 0;
#X connect 76 1 77 0;
#X connect 76 2 70 0;
#X connect 76 3 69 0;
#X connect 77 0 75 1;
#X restore 58 450 pd set_and_get_examples;
#X obj 297 1138 cml.initialize_params;
#X obj 375 1095 cml.d0;
#X obj 432 1068 v \$0_ns;
#X floatatom 491 1114 5 0 0 0 - - - 0;
#X msg 297 997 bang;
#X obj 297 1025 t b b b;
#X obj 293 886 print;
#X obj 292 819 bng 23 250 50 0 empty empty empty 0 -12 0 16 #fcfcfc #000000 #000000;
#X obj 57 59 t b b b b b, f 69;
#X obj 331 125 v \$0_nL-1;
#X obj 468 125 v \$0_nL-0;
#X obj 766 264 cml.layer_forward;
#X obj 899 231 v \$0_ns;
#X obj 766 394 cml.layer_forward;
#X obj 899 361 v \$0_ns;
#X msg 766 90 bang;
#X obj 766 118 t b b b b b, f 17;
#X msg 786 179 layer_number 1 \, layer_dims 100 3 \, m 4 \, activation tanh \, initial_layer 1;
#X msg 792 308 layer_number 0 \, layer_dims 3 100 \, m 4 \, activation tanh \, initial_layer 0;
#X msg 375 1066 WL-1;
#X msg 331 92 4;
#N canvas -255 420 1789 803 set_test_values 0;
#X obj 466 642 array set;
#X msg 535 577 WL-0;
#X obj 535 605 cml.d0;
#X obj 593 575 v \$0_ns;
#X msg 356 574 2 3 4 5 6 7 8 9 10;
#X obj 356 513 t b b b;
#X msg 356 480 bang;
#X obj 816 642 array set;
#X obj 885 605 cml.d0;
#X obj 943 575 v \$0_ns;
#X obj 706 513 t b b b;
#X msg 706 480 bang;
#X msg 885 577 bL-0;
#X msg 706 574 2 3 4;
#X obj 1146 642 array set;
#X obj 1215 605 cml.d0;
#X obj 1273 575 v \$0_ns;
#X obj 1036 483 t b b b;
#X msg 1036 450 bang;
#X msg 1215 577 X;
#X msg 1036 544 1 2 3 4 5 6 7 8 9 10 11 12;
#X obj 475 148 cml.array_name A;
#X obj 600 116 v \$0_ns;
#X msg 475 115 0;
#X msg 440 37 bang;
#X obj 440 65 t b b b;
#X obj 1118 173 cml.label_name;
#X obj 1227 140 v \$0_ns;
#X msg 1119 75 bang;
#X obj 1119 103 t b b b;
#X obj 406 199 array set;
#X msg 359 134 2 3 4 5;
#X msg 984 142 1 0 -1 -2;
#X obj 1006 225 array set;
#X connect 1 0 2 0;
#X connect 2 0 0 2;
#X connect 3 0 2 1;
#X connect 4 0 0 0;
#X connect 5 0 4 0;
#X connect 5 1 1 0;
#X connect 5 2 3 0;
#X connect 6 0 5 0;
#X connect 8 0 7 2;
#X connect 9 0 8 1;
#X connect 10 0 13 0;
#X connect 10 1 12 0;
#X connect 10 2 9 0;
#X connect 11 0 10 0;
#X connect 12 0 8 0;
#X connect 13 0 7 0;
#X connect 15 0 14 2;
#X connect 16 0 15 1;
#X connect 17 0 20 0;
#X connect 17 1 19 0;
#X connect 17 2 16 0;
#X connect 18 0 17 0;
#X connect 19 0 15 0;
#X connect 20 0 14 0;
#X connect 21 0 30 2;
#X connect 22 0 21 1;
#X connect 23 0 21 0;
#X connect 24 0 25 0;
#X connect 25 0 31 0;
#X connect 25 1 23 0;
#X connect 25 2 22 0;
#X connect 26 0 33 2;
#X connect 27 0 26 1;
#X connect 28 0 29 0;
#X connect 29 0 32 0;
#X connect 29 1 26 0;
#X connect 29 2 27 0;
#X connect 31 0 30 0;
#X connect 32 0 33 0;
#X restore 70 336 pd set_test_values;
#X msg 468 92 1;
#X obj 366 471 cml.outer_dz;
#X msg 381 400 m 4 \, num_outputs 1;
#X obj 459 438 v \$0_ns;
#X msg 366 332 bang;
#X obj 366 360 t b b b;
#N canvas 458 142 1157 839 dot_product_test_data 1;
#X obj 275 389 array define \$0_a;
#X obj 494 389 array define \$0_b;
#X obj 714 389 array define \$0_r;
#X msg 33 11 bang;
#X msg 33 94 2;
#X obj 33 122 v \$0_rows_a;
#X msg 163 94 4;
#X obj 163 122 v \$0_cols_a;
#X msg 313 94 4;
#X obj 313 122 v \$0_rows_b;
#X msg 473 94 3;
#X obj 473 122 v \$0_cols_b;
#X msg 259 220 bang;
#X obj 259 248 t b b;
#X obj 296 288 v \$0_cols_a;
#X obj 196 288 v \$0_rows_a;
#X obj 275 328 *;
#X msg 275 356 resize \$1;
#X msg 478 220 bang;
#X obj 478 248 t b b;
#X obj 494 328 *;
#X msg 494 356 resize \$1;
#X obj 415 288 v \$0_rows_b;
#X obj 515 288 v \$0_cols_b;
#X msg 698 220 bang;
#X obj 698 248 t b b;
#X obj 714 328 *;
#X msg 714 356 resize \$1;
#X obj 735 288 v \$0_cols_b;
#X obj 635 288 v \$0_rows_a;
#X obj 337 657 cml.d0;
#X obj 268 702 array set;
#X obj 93 520 bng 23 250 50 0 empty empty empty 0 -12 0 16 #fcfcfc #000000 #000000;
#X obj 426 620 v \$0_ns;
#X obj 93 560 t b b b, f 42;
#X msg 337 620 a;
#X msg 93 621 1 2 3 4 3 4 5 6;
#X obj 915 642 cml.d0;
#X obj 726 687 array set;
#X obj 551 505 bng 23 250 50 0 empty empty empty 0 -12 0 16 #fcfcfc #000000 #000000;
#X obj 1004 605 v \$0_ns;
#X obj 551 545 t b b b, f 42;
#X msg 915 605 b;
#X msg 551 606 1 2 3 3 4 5 5 6 7 7 8 9;
#X connect 3 0 4 0;
#X connect 3 0 10 0;
#X connect 3 0 8 0;
#X connect 3 0 6 0;
#X connect 4 0 5 0;
#X connect 6 0 7 0;
#X connect 8 0 9 0;
#X connect 10 0 11 0;
#X connect 12 0 13 0;
#X connect 13 0 15 0;
#X connect 13 1 14 0;
#X connect 14 0 16 1;
#X connect 15 0 16 0;
#X connect 16 0 17 0;
#X connect 17 0 0 0;
#X connect 18 0 19 0;
#X connect 19 0 22 0;
#X connect 19 1 23 0;
#X connect 20 0 21 0;
#X connect 21 0 1 0;
#X connect 22 0 20 0;
#X connect 23 0 20 1;
#X connect 24 0 25 0;
#X connect 25 0 29 0;
#X connect 25 1 28 0;
#X connect 26 0 27 0;
#X connect 27 0 2 0;
#X connect 28 0 26 1;
#X connect 29 0 26 0;
#X connect 30 0 31 2;
#X connect 32 0 34 0;
#X connect 33 0 30 1;
#X connect 34 0 36 0;
#X connect 34 1 35 0;
#X connect 34 2 33 0;
#X connect 35 0 30 0;
#X connect 36 0 31 0;
#X connect 37 0 38 2;
#X connect 39 0 41 0;
#X connect 40 0 37 1;
#X connect 41 0 43 0;
#X connect 41 1 42 0;
#X connect 41 2 40 0;
#X connect 42 0 37 0;
#X connect 43 0 38 0;
#X restore 1069 431 pd dot_product_test_data;
#X obj 1334 861 v \$0_ns;
#X obj 1289 893 cml.d0;
#X msg 1289 861 a;
#X obj 1475 861 v \$0_ns;
#X obj 1430 893 cml.d0;
#X obj 1616 861 v \$0_ns;
#X obj 1571 893 cml.d0;
#X msg 1430 861 b;
#X msg 1571 861 r;
#X msg 976 432 bang;
#X msg 976 515 2;
#X obj 976 543 v \$0_rows_a;
#X msg 1106 515 4;
#X obj 1106 543 v \$0_cols_a;
#X msg 1256 515 4;
#X obj 1256 543 v \$0_rows_b;
#X msg 1416 515 3;
#X obj 1416 543 v \$0_cols_b;
#X obj 726 926 cml.dot_product, f 106;
#X obj 866 893 v \$0_rows_a;
#X msg 726 762 bang;
#X obj 1289 828 t b b;
#X obj 1430 828 t b b;
#X obj 1571 828 t b b;
#X obj 293 858 array get \$0_b;
#X obj 726 790 t b b b b b b b, f 106;
#X obj 1007 893 v \$0_cols_b;
#X obj 1148 892 v \$0_cols_a;
#X connect 0 0 21 0;
#X connect 2 0 9 0;
#X connect 3 0 10 0;
#X connect 4 0 1 0;
#X connect 5 0 11 0;
#X connect 14 0 13 1;
#X connect 15 0 14 1;
#X connect 16 0 13 2;
#X connect 17 0 18 0;
#X connect 18 0 13 0;
#X connect 18 1 32 0;
#X connect 18 2 15 0;
#X connect 20 0 66 0;
#X connect 21 0 2 0;
#X connect 21 1 3 0;
#X connect 21 2 33 0;
#X connect 21 3 35 0;
#X connect 21 4 5 0;
#X connect 24 0 26 0;
#X connect 25 0 24 1;
#X connect 27 0 26 1;
#X connect 28 0 29 0;
#X connect 29 0 24 0;
#X connect 29 1 30 0;
#X connect 29 2 31 0;
#X connect 29 3 25 0;
#X connect 29 4 27 0;
#X connect 30 0 24 0;
#X connect 31 0 26 0;
#X connect 32 0 14 0;
#X connect 33 0 22 0;
#X connect 35 0 23 0;
#X connect 37 0 36 0;
#X connect 38 0 36 1;
#X connect 39 0 40 0;
#X connect 40 0 36 0;
#X connect 40 1 37 0;
#X connect 40 2 38 0;
#X connect 42 0 43 1;
#X connect 43 0 60 4;
#X connect 44 0 43 0;
#X connect 45 0 46 1;
#X connect 46 0 60 5;
#X connect 47 0 48 1;
#X connect 48 0 60 6;
#X connect 49 0 46 0;
#X connect 50 0 48 0;
#X connect 51 0 52 0;
#X connect 51 0 58 0;
#X connect 51 0 56 0;
#X connect 51 0 54 0;
#X connect 52 0 53 0;
#X connect 54 0 55 0;
#X connect 56 0 57 0;
#X connect 58 0 59 0;
#X connect 61 0 60 1;
#X connect 62 0 67 0;
#X connect 63 0 44 0;
#X connect 63 1 42 0;
#X connect 64 0 49 0;
#X connect 64 1 45 0;
#X connect 65 0 50 0;
#X connect 65 1 47 0;
#X connect 66 0 19 0;
#X connect 67 0 60 0;
#X connect 67 1 61 0;
#X connect 67 2 68 0;
#X connect 67 3 69 0;
#X connect 67 4 63 0;
#X connect 67 5 64 0;
#X connect 67 6 65 0;
#X connect 68 0 60 2;
#X connect 69 0 60 3;
