#N canvas 4 70 1712 1332 16;
#X msg 17 12 bang;
#X obj 17 40 t b b;
#X obj 54 73 f \$0;
#X obj 54 101 v \$0_ns;
#X obj 123 216 v \$0_m;
#X obj 229 216 v \$0_nx;
#X msg 335 188 1;
#X obj 335 216 v \$0_ny;
#X msg 441 188 1;
#X obj 441 216 v \$0_nL-0;
#X obj 547 216 v \$0_nL-1;
#X obj 653 216 v \$0_nL-2;
#X obj 759 216 v \$0_nL-3;
#X obj 865 216 v \$0_nL-4;
#X obj 971 216 v \$0_nL-5;
#X obj 1078 216 v \$0_nL-6;
#N canvas 0 66 3440 1340 arrays 0;
#X obj 9 10 inlet;
#X obj 9 43 s \$0_size_arrays;
#X msg 155 44 const 0;
#X msg 27 270 resize \$1;
#X obj 27 238 *;
#X obj 27 172 t b b;
#X obj 27 144 r \$0_size_arrays;
#X msg 377 238 resize \$1;
#X obj 377 144 r \$0_size_arrays;
#X msg 27 597 resize \$1;
#X obj 27 594 *;
#X obj 27 498 t b b;
#X obj 27 470 r \$0_size_arrays;
#X obj 117 531 v \$0_m;
#X text 29 115 // output layer;
#X obj 27 205 v \$0_nL-0;
#X obj 117 205 v \$0_nL-1;
#X obj 27 331 array define \$0_WL-0;
#X obj 67 364 array define \$0_dWL-0;
#X obj 377 205 v \$0_nL-0;
#X obj 377 331 array define \$0_bL-0;
#X obj 417 364 array define \$0_dbL-0;
#X obj 27 531 v \$0_nL-0;
#X obj 27 663 array define \$0_ZL-0;
#X obj 156 696 array define \$0_dZL-0;
#X obj 206 663 array define \$0_AL-0;
#X obj 337 696 array define \$0_dAL-0;
#X obj 27 630 t a a a a, f 34;
#X obj 107 397 array define \$0_VdWL-0;
#X obj 457 397 array define \$0_VdbL-0;
#X obj 155 77 s \$0_const_arrays;
#X obj 232 144 r \$0_const_arrays;
#X obj 202 470 r \$0_const_arrays;
#X msg 657 270 resize \$1;
#X obj 657 238 *;
#X obj 657 172 t b b;
#X obj 657 144 r \$0_size_arrays;
#X msg 1007 238 resize \$1;
#X obj 1007 144 r \$0_size_arrays;
#X msg 657 597 resize \$1;
#X obj 657 564 *;
#X obj 657 498 t b b;
#X obj 657 470 r \$0_size_arrays;
#X obj 747 531 v \$0_m;
#X obj 657 630 t a a a a, f 34;
#X obj 862 144 r \$0_const_arrays;
#X obj 832 470 r \$0_const_arrays;
#X obj 657 205 v \$0_nL-1;
#X obj 747 205 v \$0_nL-2;
#X obj 1007 205 v \$0_nL-1;
#X obj 657 331 array define \$0_WL-1;
#X obj 697 364 array define \$0_dWL-1;
#X obj 737 397 array define \$0_VdWL-1;
#X obj 1007 331 array define \$0_bL-1;
#X obj 1047 364 array define \$0_dbL-1;
#X obj 1087 397 array define \$0_VdbL-1;
#X obj 657 663 array define \$0_ZL-1;
#X obj 836 663 array define \$0_AL-1;
#X obj 786 696 array define \$0_dZL-1;
#X obj 967 696 array define \$0_dAL-1;
#X text 667 112 // L-1;
#X obj 657 531 v \$0_nL-1;
#X msg 1287 270 resize \$1;
#X obj 1287 238 *;
#X obj 1287 172 t b b;
#X obj 1287 144 r \$0_size_arrays;
#X msg 1637 238 resize \$1;
#X obj 1637 144 r \$0_size_arrays;
#X msg 1287 597 resize \$1;
#X obj 1287 564 *;
#X obj 1287 498 t b b;
#X obj 1287 470 r \$0_size_arrays;
#X obj 1377 531 v \$0_m;
#X obj 1287 630 t a a a a, f 34;
#X obj 1492 144 r \$0_const_arrays;
#X obj 1462 470 r \$0_const_arrays;
#X text 1291 115 // L-2;
#X obj 1287 205 v \$0_nL-2;
#X obj 1637 205 v \$0_nL-2;
#X obj 1287 331 array define \$0_WL-2;
#X obj 1327 364 array define \$0_dWL-2;
#X obj 1367 397 array define \$0_VdWL-2;
#X obj 1637 331 array define \$0_bL-2;
#X obj 1675 364 array define \$0_dbL-2;
#X obj 1717 397 array define \$0_VdbL-2;
#X obj 1287 531 v \$0_nL-2;
#X obj 1287 663 array define \$0_ZL-2;
#X obj 1466 663 array define \$0_AL-2;
#X obj 1416 696 array define \$0_dZL-2;
#X obj 1597 696 array define \$0_dAL-2;
#X msg 1927 270 resize \$1;
#X obj 1927 238 *;
#X obj 1927 172 t b b;
#X obj 1927 144 r \$0_size_arrays;
#X msg 2277 238 resize \$1;
#X obj 2277 144 r \$0_size_arrays;
#X msg 1927 597 resize \$1;
#X obj 1927 564 *;
#X obj 1927 498 t b b;
#X obj 1927 470 r \$0_size_arrays;
#X obj 2017 531 v \$0_m;
#X obj 1927 630 t a a a a, f 34;
#X obj 2132 144 r \$0_const_arrays;
#X obj 2102 470 r \$0_const_arrays;
#X obj 155 11 inlet cont_arrays;
#X text 1928 118 // L-3;
#X obj 1927 205 v \$0_nL-3;
#X obj 2277 205 v \$0_nL-3;
#X obj 1927 331 array define \$0_WL-3;
#X obj 1967 364 array define \$0_dWL-3;
#X obj 2007 397 array define \$0_VdWL-3;
#X obj 2277 331 array define \$0_bL-3;
#X obj 2318 364 array define \$0_dbL-3;
#X obj 2357 397 array define \$0_VdbL-3;
#X obj 1927 531 v \$0_nL-3;
#X obj 1927 663 array define \$0_ZL-3;
#X obj 2106 663 array define \$0_AL-3;
#X obj 2056 696 array define \$0_dZL-3;
#X obj 2237 696 array define \$0_dAL-3;
#X obj 202 498 t a a a a;
#X obj 832 498 t a a a a;
#X obj 1462 498 t a a a a;
#X obj 2102 498 t a a a a;
#X obj 1377 205 v \$0_nL-3;
#X obj 2017 205 v \$0_nL-4;
#X msg 2557 270 resize \$1;
#X obj 2557 238 *;
#X obj 2557 172 t b b;
#X obj 2557 144 r \$0_size_arrays;
#X msg 2907 238 resize \$1;
#X obj 2907 144 r \$0_size_arrays;
#X msg 2557 597 resize \$1;
#X obj 2557 564 *;
#X obj 2557 498 t b b;
#X obj 2557 470 r \$0_size_arrays;
#X obj 2647 531 v \$0_m;
#X obj 2557 630 t a a a a, f 34;
#X obj 2762 144 r \$0_const_arrays;
#X obj 2732 470 r \$0_const_arrays;
#X obj 2732 498 t a a a a;
#X text 2558 118 // L-4;
#X obj 2557 205 v \$0_nL-4;
#X obj 2647 205 v \$0_nL-5;
#X obj 2907 205 v \$0_nL-4;
#X obj 2557 331 array define \$0_WL-4;
#X obj 2597 364 array define \$0_dWL-4;
#X obj 2637 397 array define \$0_VdWL-4;
#X obj 2907 331 array define \$0_bL-4;
#X obj 2948 364 array define \$0_dbL-4;
#X obj 2987 397 array define \$0_VdbL-4;
#X obj 2557 531 v \$0_nL-4;
#X obj 2557 663 array define \$0_ZL-4;
#X obj 2736 663 array define \$0_AL-4;
#X obj 2686 696 array define \$0_dZL-4;
#X obj 2867 696 array define \$0_dAL-4;
#X msg 27 860 resize \$1;
#X obj 27 828 *;
#X obj 27 762 t b b;
#X obj 27 734 r \$0_size_arrays;
#X msg 377 828 resize \$1;
#X obj 377 734 r \$0_size_arrays;
#X msg 27 1207 resize \$1;
#X obj 27 1174 *;
#X obj 27 1108 t b b;
#X obj 27 1080 r \$0_size_arrays;
#X obj 117 1141 v \$0_m;
#X obj 27 1240 t a a a a, f 34;
#X obj 232 734 r \$0_const_arrays;
#X obj 202 1080 r \$0_const_arrays;
#X obj 202 1108 t a a a a;
#X text 28 708 // L-5;
#X obj 27 795 v \$0_nL-5;
#X obj 377 795 v \$0_nL-5;
#X obj 27 921 array define \$0_WL-5;
#X obj 67 954 array define \$0_dWL-5;
#X obj 107 987 array define \$0_VdWL-5;
#X obj 377 921 array define \$0_bL-5;
#X obj 418 954 array define \$0_dbL-5;
#X obj 457 987 array define \$0_VdbL-5;
#X obj 27 1141 v \$0_nL-5;
#X obj 27 1273 array define \$0_ZL-5;
#X obj 206 1273 array define \$0_AL-5;
#X obj 156 1306 array define \$0_dZL-5;
#X obj 337 1306 array define \$0_dAL-5;
#X obj 137 427 array define \$0_SdWL-0;
#X obj 487 427 array define \$0_SdbL-0;
#X obj 27 298 t a a a a;
#X obj 377 266 t a a a a;
#X obj 232 172 t a a a a a a a a;
#X obj 767 427 array define \$0_SdWL-1;
#X obj 1117 427 array define \$0_SdbL-1;
#X obj 657 298 t a a a a;
#X obj 1007 266 t a a a a;
#X obj 862 171 t a a a a a a a a;
#X obj 1397 427 array define \$0_SdWL-2;
#X obj 1747 427 array define \$0_SdbL-2;
#X obj 1287 298 t a a a a;
#X obj 1637 266 t a a a a;
#X obj 1492 172 t a a a a a a a a;
#X obj 2037 427 array define \$0_SdWL-3;
#X obj 2387 427 array define \$0_SdbL-3;
#X obj 1927 298 t a a a a;
#X obj 2277 266 t a a a a;
#X obj 2132 172 t a a a a a a a a;
#X obj 2667 427 array define \$0_SdWL-4;
#X obj 3017 427 array define \$0_SdbL-4;
#X obj 2557 298 t a a a a;
#X obj 2907 266 t a a a a;
#X obj 2762 172 t a a a a a a a a;
#X obj 117 795 v \$0_nx;
#X obj 137 1017 array define \$0_SdWL-5;
#X obj 487 1017 array define \$0_SdbL-5;
#X obj 27 888 t a a a a;
#X obj 377 856 t a a a a;
#X obj 232 762 t a a a a a a a a;
#X connect 0 0 1 0;
#X connect 2 0 30 0;
#X connect 3 0 186 0;
#X connect 4 0 3 0;
#X connect 5 0 15 0;
#X connect 5 1 16 0;
#X connect 6 0 5 0;
#X connect 7 0 187 0;
#X connect 8 0 19 0;
#X connect 9 0 27 0;
#X connect 10 0 9 0;
#X connect 11 0 22 0;
#X connect 11 1 13 0;
#X connect 12 0 11 0;
#X connect 13 0 10 1;
#X connect 15 0 4 0;
#X connect 16 0 4 1;
#X connect 19 0 7 0;
#X connect 22 0 10 0;
#X connect 27 0 23 0;
#X connect 27 1 24 0;
#X connect 27 2 25 0;
#X connect 27 3 26 0;
#X connect 31 0 188 0;
#X connect 32 0 119 0;
#X connect 33 0 191 0;
#X connect 34 0 33 0;
#X connect 35 0 47 0;
#X connect 35 1 48 0;
#X connect 36 0 35 0;
#X connect 37 0 192 0;
#X connect 38 0 49 0;
#X connect 39 0 44 0;
#X connect 40 0 39 0;
#X connect 41 0 61 0;
#X connect 41 1 43 0;
#X connect 42 0 41 0;
#X connect 43 0 40 1;
#X connect 44 0 56 0;
#X connect 44 1 58 0;
#X connect 44 2 57 0;
#X connect 44 3 59 0;
#X connect 45 0 193 0;
#X connect 46 0 120 0;
#X connect 47 0 34 0;
#X connect 48 0 34 1;
#X connect 49 0 37 0;
#X connect 61 0 40 0;
#X connect 62 0 196 0;
#X connect 63 0 62 0;
#X connect 64 0 77 0;
#X connect 64 1 123 0;
#X connect 65 0 64 0;
#X connect 66 0 197 0;
#X connect 67 0 78 0;
#X connect 68 0 73 0;
#X connect 69 0 68 0;
#X connect 70 0 85 0;
#X connect 70 1 72 0;
#X connect 71 0 70 0;
#X connect 72 0 69 1;
#X connect 73 0 86 0;
#X connect 73 1 88 0;
#X connect 73 2 87 0;
#X connect 73 3 89 0;
#X connect 74 0 198 0;
#X connect 75 0 121 0;
#X connect 77 0 63 0;
#X connect 78 0 66 0;
#X connect 85 0 69 0;
#X connect 90 0 201 0;
#X connect 91 0 90 0;
#X connect 92 0 106 0;
#X connect 92 1 124 0;
#X connect 93 0 92 0;
#X connect 94 0 202 0;
#X connect 95 0 107 0;
#X connect 96 0 101 0;
#X connect 97 0 96 0;
#X connect 98 0 114 0;
#X connect 98 1 100 0;
#X connect 99 0 98 0;
#X connect 100 0 97 1;
#X connect 101 0 115 0;
#X connect 101 1 117 0;
#X connect 101 2 116 0;
#X connect 101 3 118 0;
#X connect 102 0 203 0;
#X connect 103 0 122 0;
#X connect 104 0 2 0;
#X connect 106 0 91 0;
#X connect 107 0 94 0;
#X connect 114 0 97 0;
#X connect 119 0 23 0;
#X connect 119 1 24 0;
#X connect 119 2 25 0;
#X connect 119 3 26 0;
#X connect 120 0 56 0;
#X connect 120 1 58 0;
#X connect 120 2 57 0;
#X connect 120 3 59 0;
#X connect 121 0 86 0;
#X connect 121 1 88 0;
#X connect 121 2 87 0;
#X connect 121 3 89 0;
#X connect 122 0 115 0;
#X connect 122 1 117 0;
#X connect 122 2 116 0;
#X connect 122 3 118 0;
#X connect 123 0 63 1;
#X connect 124 0 91 1;
#X connect 125 0 206 0;
#X connect 126 0 125 0;
#X connect 127 0 141 0;
#X connect 127 1 142 0;
#X connect 128 0 127 0;
#X connect 129 0 207 0;
#X connect 130 0 143 0;
#X connect 131 0 136 0;
#X connect 132 0 131 0;
#X connect 133 0 150 0;
#X connect 133 1 135 0;
#X connect 134 0 133 0;
#X connect 135 0 132 1;
#X connect 136 0 151 0;
#X connect 136 1 153 0;
#X connect 136 2 152 0;
#X connect 136 3 154 0;
#X connect 137 0 208 0;
#X connect 138 0 139 0;
#X connect 139 0 151 0;
#X connect 139 1 153 0;
#X connect 139 2 152 0;
#X connect 139 3 154 0;
#X connect 141 0 126 0;
#X connect 142 0 126 1;
#X connect 143 0 129 0;
#X connect 150 0 132 0;
#X connect 155 0 212 0;
#X connect 156 0 155 0;
#X connect 157 0 171 0;
#X connect 157 1 209 0;
#X connect 158 0 157 0;
#X connect 159 0 213 0;
#X connect 160 0 172 0;
#X connect 161 0 166 0;
#X connect 162 0 161 0;
#X connect 163 0 179 0;
#X connect 163 1 165 0;
#X connect 164 0 163 0;
#X connect 165 0 162 1;
#X connect 166 0 180 0;
#X connect 166 1 182 0;
#X connect 166 2 181 0;
#X connect 166 3 183 0;
#X connect 167 0 214 0;
#X connect 168 0 169 0;
#X connect 169 0 180 0;
#X connect 169 1 182 0;
#X connect 169 2 181 0;
#X connect 169 3 183 0;
#X connect 171 0 156 0;
#X connect 172 0 159 0;
#X connect 179 0 162 0;
#X connect 186 0 17 0;
#X connect 186 1 18 0;
#X connect 186 2 28 0;
#X connect 186 3 184 0;
#X connect 187 0 20 0;
#X connect 187 1 21 0;
#X connect 187 2 29 0;
#X connect 187 3 185 0;
#X connect 188 0 17 0;
#X connect 188 1 18 0;
#X connect 188 2 28 0;
#X connect 188 3 20 0;
#X connect 188 4 21 0;
#X connect 188 5 29 0;
#X connect 188 6 184 0;
#X connect 188 7 185 0;
#X connect 191 0 50 0;
#X connect 191 1 51 0;
#X connect 191 2 52 0;
#X connect 191 3 189 0;
#X connect 192 0 53 0;
#X connect 192 1 54 0;
#X connect 192 2 55 0;
#X connect 192 3 190 0;
#X connect 193 0 50 0;
#X connect 193 1 51 0;
#X connect 193 2 52 0;
#X connect 193 3 53 0;
#X connect 193 4 54 0;
#X connect 193 5 55 0;
#X connect 193 6 189 0;
#X connect 193 7 190 0;
#X connect 196 0 79 0;
#X connect 196 1 80 0;
#X connect 196 2 81 0;
#X connect 196 3 194 0;
#X connect 197 0 82 0;
#X connect 197 1 83 0;
#X connect 197 2 84 0;
#X connect 197 3 195 0;
#X connect 198 0 79 0;
#X connect 198 1 80 0;
#X connect 198 2 81 0;
#X connect 198 3 82 0;
#X connect 198 4 83 0;
#X connect 198 5 84 0;
#X connect 198 6 194 0;
#X connect 198 7 195 0;
#X connect 201 0 108 0;
#X connect 201 1 109 0;
#X connect 201 2 110 0;
#X connect 201 3 199 0;
#X connect 202 0 111 0;
#X connect 202 1 112 0;
#X connect 202 2 113 0;
#X connect 202 3 200 0;
#X connect 203 0 108 0;
#X connect 203 1 109 0;
#X connect 203 2 110 0;
#X connect 203 3 111 0;
#X connect 203 4 112 0;
#X connect 203 5 113 0;
#X connect 203 6 199 0;
#X connect 203 7 200 0;
#X connect 206 0 144 0;
#X connect 206 1 145 0;
#X connect 206 2 146 0;
#X connect 206 3 204 0;
#X connect 207 0 147 0;
#X connect 207 1 148 0;
#X connect 207 2 149 0;
#X connect 207 3 205 0;
#X connect 208 0 144 0;
#X connect 208 1 145 0;
#X connect 208 2 146 0;
#X connect 208 3 147 0;
#X connect 208 4 148 0;
#X connect 208 5 149 0;
#X connect 208 6 204 0;
#X connect 208 7 205 0;
#X connect 209 0 156 1;
#X connect 212 0 173 0;
#X connect 212 1 174 0;
#X connect 212 2 175 0;
#X connect 212 3 210 0;
#X connect 213 0 176 0;
#X connect 213 1 177 0;
#X connect 213 2 178 0;
#X connect 213 3 211 0;
#X connect 214 0 173 0;
#X connect 214 1 174 0;
#X connect 214 2 175 0;
#X connect 214 3 176 0;
#X connect 214 4 177 0;
#X connect 214 5 178 0;
#X connect 214 6 210 0;
#X connect 214 7 211 0;
#X restore 17 282 pd arrays;
#X msg 86 249 bang;
#N canvas 970 812 450 250 (subpatch) 0;
#X array \$0_X 4 float 3;
#A 0 -0.257159 -0.0428683 -0.0285822 -0.0142962;
#X coords 0 1 4 -1 200 140 1 0 0;
#X restore 17 493 graph;
#N canvas 0 50 450 250 (subpatch) 0;
#X array \$0_Y 4 float 3;
#A 0 0 -0.981639 -0.374494 0.838769;
#X coords 0 1 4 -1 200 140 1 0 0;
#X restore 15 661 graph;
#N canvas 1499 622 521 409 resize_X_and_Y 0;
#X obj 66 248 array size \$0_X;
#X obj 92 154 v \$0_m;
#X obj 150 154 v \$0_nx;
#X obj 92 187 *;
#X msg 66 93 bang;
#X obj 66 121 t b b b;
#X obj 252 154 v \$0_m;
#X obj 252 187 *;
#X msg 226 93 bang;
#X obj 226 121 t b b b;
#X obj 310 154 v \$0_ny;
#X obj 226 248 array size \$0_Y;
#X obj 66 12 inlet bang;
#X obj 66 40 t b b;
#X obj 66 276 outlet X_size;
#X obj 226 276 outlet Y_size;
#X connect 0 0 14 0;
#X connect 1 0 3 0;
#X connect 2 0 3 1;
#X connect 3 0 0 0;
#X connect 4 0 5 0;
#X connect 5 0 0 0;
#X connect 5 1 1 0;
#X connect 5 2 2 0;
#X connect 6 0 7 0;
#X connect 7 0 11 0;
#X connect 8 0 9 0;
#X connect 9 0 11 0;
#X connect 9 1 6 0;
#X connect 9 2 10 0;
#X connect 10 0 7 1;
#X connect 11 0 15 0;
#X connect 12 0 13 0;
#X connect 13 0 4 0;
#X connect 13 1 8 0;
#X restore 16 358 pd resize_X_and_Y;
#X msg 16 325 bang;
#X obj 154 26 bng 40 250 50 0 \$0_init empty init 0 -12 0 16 #fcfcfc #000000 #000000;
#X obj 240 59 v \$0_leak;
#X obj 240 30 nbx 5 21 0 1 0 1 empty \$0_init leak 0 -12 0 16 #fcfcfc #000000 #000000 0.1 256;
#X obj 380 30 nbx 5 21 0.01 1 1 1 empty \$0_init alpha 0 -12 0 16 #fcfcfc #000000 #000000 0.01 256;
#N canvas 1101 96 1198 1306 initialize_params 0;
#X obj 103 275 cml.initialize_layer_params;
#X obj 129 209 pack f f;
#X obj 129 176 v \$0_nL-0;
#X obj 219 176 v \$0_nL-1;
#X msg 103 25 bang;
#X obj 103 143 t b b b;
#X obj 103 440 cml.initialize_layer_params;
#X obj 129 374 pack f f;
#X obj 103 308 t b b b;
#X obj 129 341 v \$0_nL-1;
#X obj 103 605 cml.initialize_layer_params;
#X obj 129 539 pack f f;
#X obj 103 473 t b b b;
#X obj 129 506 v \$0_nL-2;
#X obj 103 770 cml.initialize_layer_params;
#X obj 129 704 pack f f;
#X obj 103 638 t b b b;
#X obj 129 671 v \$0_nL-3;
#X obj 103 935 cml.initialize_layer_params;
#X obj 129 869 pack f f;
#X obj 103 803 t b b b;
#X obj 129 836 v \$0_nL-4;
#X obj 103 1100 cml.initialize_layer_params;
#X obj 129 1034 pack f f;
#X obj 103 968 t b b b;
#X obj 129 1001 v \$0_nL-5;
#X obj 219 1001 v \$0_nx;
#X text 496 1029 // initial layer;
#X obj 101 92 t b b;
#X obj 763 176 v \$0_ns;
#X obj 11 6 inlet;
#X obj 219 341 v \$0_nL-2;
#X obj 219 506 v \$0_nL-3;
#X obj 219 671 v \$0_nL-4;
#X obj 219 836 v \$0_nL-5;
#X msg 129 902 layer_number 4 \, layer_dims \$1 \$2 \, scale 1;
#X msg 129 1067 layer_number 5 \, layer_dims \$1 \$2 \, scale 1;
#X msg 129 737 layer_number 3 \, layer_dims \$1 \$2 \, scale 1;
#X msg 129 572 layer_number 2 \, layer_dims \$1 \$2 \, scale 1;
#X msg 129 407 layer_number 1 \, layer_dims \$1 \$2 \, scale 1;
#X msg 129 242 layer_number 0 \, layer_dims \$1 \$2 \, scale 1;
#X obj 865 985 cml.he_initialization;
#X obj 865 873 t b b b;
#X obj 1030 952 v \$0_ns;
#X obj 863 252 cml.he_initialization;
#X obj 863 140 t b b b;
#X obj 1028 219 v \$0_ns;
#X msg 863 108 bang;
#X msg 891 187 layer 0 \, layer_dims 1 8;
#X obj 863 397 cml.he_initialization;
#X obj 863 285 t b b b;
#X obj 1028 364 v \$0_ns;
#X obj 863 542 cml.he_initialization;
#X obj 863 430 t b b b;
#X obj 1028 509 v \$0_ns;
#X obj 863 687 cml.he_initialization;
#X obj 863 575 t b b b;
#X obj 1028 654 v \$0_ns;
#X obj 863 832 cml.he_initialization;
#X obj 863 720 t b b b;
#X obj 1028 799 v \$0_ns;
#X msg 891 767 layer 4 \, layer_dims 16 32;
#X msg 891 332 layer 1 \, layer_dims 8 16;
#X msg 891 477 layer 2 \, layer_dims 16 16;
#X msg 891 622 layer 3 \, layer_dims 16 16;
#X msg 893 920 layer 5 \, layer_dims 32 16;
#X connect 0 0 8 0;
#X connect 1 0 40 0;
#X connect 2 0 1 0;
#X connect 3 0 1 1;
#X connect 5 0 0 0;
#X connect 5 1 2 0;
#X connect 5 2 3 0;
#X connect 6 0 12 0;
#X connect 7 0 39 0;
#X connect 8 0 6 0;
#X connect 8 1 9 0;
#X connect 8 2 31 0;
#X connect 9 0 7 0;
#X connect 10 0 16 0;
#X connect 11 0 38 0;
#X connect 12 0 10 0;
#X connect 12 1 13 0;
#X connect 12 2 32 0;
#X connect 13 0 11 0;
#X connect 14 0 20 0;
#X connect 15 0 37 0;
#X connect 16 0 14 0;
#X connect 16 1 17 0;
#X connect 16 2 33 0;
#X connect 17 0 15 0;
#X connect 18 0 24 0;
#X connect 19 0 35 0;
#X connect 20 0 18 0;
#X connect 20 1 21 0;
#X connect 20 2 34 0;
#X connect 21 0 19 0;
#X connect 23 0 36 0;
#X connect 24 0 22 0;
#X connect 24 1 25 0;
#X connect 24 2 26 0;
#X connect 25 0 23 0;
#X connect 26 0 23 1;
#X connect 28 0 5 0;
#X connect 28 1 29 0;
#X connect 29 0 0 1;
#X connect 29 0 18 1;
#X connect 29 0 14 1;
#X connect 29 0 10 1;
#X connect 29 0 6 1;
#X connect 29 0 22 1;
#X connect 30 0 45 0;
#X connect 31 0 7 1;
#X connect 32 0 11 1;
#X connect 33 0 15 1;
#X connect 34 0 19 1;
#X connect 35 0 18 0;
#X connect 36 0 22 0;
#X connect 37 0 14 0;
#X connect 38 0 10 0;
#X connect 39 0 6 0;
#X connect 40 0 0 0;
#X connect 42 0 41 0;
#X connect 42 1 65 0;
#X connect 42 2 43 0;
#X connect 43 0 41 1;
#X connect 44 0 50 0;
#X connect 45 0 44 0;
#X connect 45 1 48 0;
#X connect 45 2 46 0;
#X connect 46 0 44 1;
#X connect 47 0 45 0;
#X connect 48 0 44 0;
#X connect 49 0 53 0;
#X connect 50 0 49 0;
#X connect 50 1 62 0;
#X connect 50 2 51 0;
#X connect 51 0 49 1;
#X connect 52 0 56 0;
#X connect 53 0 52 0;
#X connect 53 1 63 0;
#X connect 53 2 54 0;
#X connect 54 0 52 1;
#X connect 55 0 59 0;
#X connect 56 0 55 0;
#X connect 56 1 64 0;
#X connect 56 2 57 0;
#X connect 57 0 55 1;
#X connect 58 0 42 0;
#X connect 59 0 58 0;
#X connect 59 1 61 0;
#X connect 59 2 60 0;
#X connect 60 0 58 1;
#X connect 61 0 58 0;
#X connect 62 0 49 0;
#X connect 63 0 52 0;
#X connect 64 0 55 0;
#X connect 65 0 41 0;
#X restore 17 424 pd initialize_params;
#X msg 17 391 bang;
#X obj 490 30 nbx 5 21 0.01 1 1 1 empty \$0_init beta 0 -12 0 16 #fcfcfc #000000 #000000 0.9 256;
#X obj 490 59 s \$0_beta;
#X obj 380 59 s \$0_alpha;
#X obj 490 262 r \$0_m_i;
#X obj 616 45 nbx 5 21 -1e+37 1e+37 0 0 empty \$0_init empty 0 -12 0 16 #fcfcfc #000000 #000000 0 256;
#X obj 616 71 s \$0_momentum;
#X msg 616 14 0;
#X msg 665 15 1;
#X obj 17 134 t b b b b b b b b b b b, f 133;
#X obj 770 30 nbx 5 21 0.01 1 1 1 empty \$0_init rho 0 -12 0 16 #fcfcfc #000000 #000000 0.98 256;
#X obj 770 59 s \$0_rho;
#X msg 1078 188 1;
#X obj 1108 437 cml.layer_backward;
#X msg 547 188 2;
#X obj 1249 404 v \$0_ns;
#X obj 1202 371 t a b;
#X obj 309 476 cml.array_name dA;
#X obj 442 443 v \$0_ns;
#X obj 395 410 t a b;
#X obj 240 509 array set;
#X msg 123 187 4;
#X msg 229 187 1;
#X msg 653 188 2;
#X msg 759 188 2;
#X msg 865 188 2;
#X msg 971 188 2;
#X msg 240 304 0.1 0.2 0.3 0.4;
#X obj 240 332 t l b;
#X msg 395 382 0;
#X obj 435 943 v \$0_ns;
#X obj 388 910 t a b;
#X obj 240 1009 array set;
#X obj 240 832 t l b;
#X obj 310 976 cml.array_name A;
#X msg 240 804 0.1 0.2 0.3 0.4 0.2 0.3 0.4 0.5;
#X msg 388 882 1;
#X obj 442 693 v \$0_ns;
#X obj 395 660 t a b;
#X obj 240 759 array set;
#X obj 240 582 t l b;
#X msg 395 632 0;
#X obj 309 726 cml.array_name W;
#X msg 240 554 0.2 0.3;
#X obj 712 693 v \$0_ns;
#X obj 665 660 t a b;
#X obj 510 759 array set;
#X obj 510 582 t l b;
#X msg 665 632 0;
#X obj 579 726 cml.array_name b;
#X msg 510 554 0.2;
#X obj 712 443 v \$0_ns;
#X obj 665 410 t a b;
#X obj 510 509 array set;
#X obj 510 332 t l b;
#X msg 665 382 0;
#X obj 579 476 cml.array_name Z;
#X msg 510 304 0.4 0.5 0.6 0.7;
#X obj 982 443 v \$0_ns;
#X obj 935 410 t a b;
#X obj 780 509 array set;
#X obj 780 332 t l b;
#X msg 935 382 0;
#X msg 780 304 0.4 0.5 0.6 0.7;
#X obj 849 476 cml.array_name A;
#X obj 1333 771 v \$0_ns;
#X obj 1286 738 t a b;
#X msg 1286 710 0;
#X obj 1131 837 array get;
#X obj 1200 804 cml.array_name dW;
#X obj 1131 677 t b b;
#X msg 1131 644 bang;
#X obj 1131 865 print dW;
#X obj 1603 773 v \$0_ns;
#X obj 1556 740 t a b;
#X msg 1556 712 0;
#X obj 1401 839 array get;
#X obj 1401 679 t b b;
#X msg 1401 646 bang;
#X obj 1470 806 cml.array_name db;
#X obj 1401 867 print db;
#X obj 1333 1051 v \$0_ns;
#X obj 1286 1018 t a b;
#X msg 1286 990 0;
#X obj 1131 1117 array get;
#X obj 1131 957 t b b;
#X msg 1131 924 bang;
#X obj 1603 1053 v \$0_ns;
#X obj 1556 1020 t a b;
#X msg 1556 992 0;
#X obj 1401 1119 array get;
#X obj 1401 959 t b b;
#X msg 1401 926 bang;
#X obj 233 1146 v \$0_ns;
#X obj 186 1113 t a b;
#X obj 31 1212 array get;
#X obj 31 1052 t b b;
#X msg 31 1019 bang;
#X obj 31 1240 print array;
#X msg 1108 259 bang;
#X obj 1108 287 t b b;
#X obj 1052 771 v \$0_ns;
#X obj 1005 738 t a b;
#X msg 1005 710 0;
#X obj 850 837 array get;
#X obj 850 677 t b b;
#X msg 850 644 bang;
#X obj 919 804 cml.array_name dZ;
#X obj 850 865 print dZ;
#X obj 1052 1041 v \$0_ns;
#X obj 1005 1008 t a b;
#X obj 850 1107 array get;
#X obj 850 947 t b b;
#X msg 850 914 bang;
#X obj 919 1074 cml.array_name dZ;
#X msg 1005 980 1;
#X obj 850 1135 print dAprev;
#X msg 186 1085 1;
#X obj 100 1179 cml.array_name A;
#X obj 1108 612 cml.update_layer_params, f 38;
#X obj 1409 584 v \$0_ns;
#X obj 1145 556 t a b;
#X obj 1108 475 t b b;
#X obj 742 1042 v \$0_ns;
#X obj 695 1009 t a b;
#X msg 695 981 0;
#X obj 540 1108 array get;
#X obj 540 948 t b b;
#X msg 540 915 bang;
#X obj 609 1074 cml.array_name W;
#X obj 540 1136 print W;
#X obj 1200 1084 cml.array_name SdW;
#X obj 1131 1145 print SdW;
#X msg 1202 322 layer_number 0 \, layer_dims 1 2 \, m 4 \, activation linear \, gd 0 \, rmsprop 1 \, momentum 1 \, rho 0.9 \, mu 0.9;
#X obj 1470 1086 cml.array_name VdW;
#X obj 1258 581 r \$0_init;
#X obj 1401 1147 print VdW;
#X msg 1145 508 layer_number 0 \, layer_dims 1 2 \, alpha 0.1 \, rmsprop 0 \, gd 0 \, momentum 0 \, adam 1 \, rho 0.9 \, mu 0.99;
#X connect 0 0 1 0;
#X connect 1 0 36 0;
#X connect 1 1 2 0;
#X connect 2 0 3 0;
#X connect 6 0 7 0;
#X connect 8 0 9 0;
#X connect 17 0 16 1;
#X connect 21 0 20 0;
#X connect 24 0 23 0;
#X connect 25 0 30 0;
#X connect 27 0 26 0;
#X connect 28 0 29 0;
#X connect 32 0 33 0;
#X connect 34 0 32 0;
#X connect 35 0 32 0;
#X connect 36 0 16 0;
#X connect 36 1 48 0;
#X connect 36 2 49 0;
#X connect 36 3 6 0;
#X connect 36 4 8 0;
#X connect 36 5 41 0;
#X connect 36 6 50 0;
#X connect 36 7 51 0;
#X connect 36 8 52 0;
#X connect 36 9 53 0;
#X connect 36 10 39 0;
#X connect 37 0 38 0;
#X connect 39 0 15 0;
#X connect 40 0 149 0;
#X connect 41 0 10 0;
#X connect 42 0 40 1;
#X connect 43 0 40 0;
#X connect 43 1 42 0;
#X connect 44 0 47 2;
#X connect 45 0 44 1;
#X connect 46 0 44 0;
#X connect 46 1 45 0;
#X connect 48 0 4 0;
#X connect 49 0 5 0;
#X connect 50 0 11 0;
#X connect 51 0 12 0;
#X connect 52 0 13 0;
#X connect 53 0 14 0;
#X connect 54 0 55 0;
#X connect 55 0 47 0;
#X connect 55 1 56 0;
#X connect 56 0 46 0;
#X connect 57 0 61 1;
#X connect 58 0 61 0;
#X connect 58 1 57 0;
#X connect 60 0 59 0;
#X connect 60 1 63 0;
#X connect 61 0 59 2;
#X connect 62 0 60 0;
#X connect 63 0 58 0;
#X connect 64 0 69 1;
#X connect 65 0 69 0;
#X connect 65 1 64 0;
#X connect 67 0 66 0;
#X connect 67 1 68 0;
#X connect 68 0 65 0;
#X connect 69 0 66 2;
#X connect 70 0 67 0;
#X connect 71 0 76 1;
#X connect 72 0 76 0;
#X connect 72 1 71 0;
#X connect 74 0 73 0;
#X connect 74 1 75 0;
#X connect 75 0 72 0;
#X connect 76 0 73 2;
#X connect 77 0 74 0;
#X connect 78 0 83 1;
#X connect 79 0 83 0;
#X connect 79 1 78 0;
#X connect 81 0 80 0;
#X connect 81 1 82 0;
#X connect 82 0 79 0;
#X connect 83 0 80 2;
#X connect 84 0 81 0;
#X connect 85 0 91 1;
#X connect 86 0 91 0;
#X connect 86 1 85 0;
#X connect 88 0 87 0;
#X connect 88 1 89 0;
#X connect 89 0 86 0;
#X connect 90 0 88 0;
#X connect 91 0 87 2;
#X connect 92 0 96 1;
#X connect 93 0 96 0;
#X connect 93 1 92 0;
#X connect 94 0 93 0;
#X connect 95 0 99 0;
#X connect 96 0 95 2;
#X connect 97 0 95 0;
#X connect 97 1 94 0;
#X connect 98 0 97 0;
#X connect 100 0 106 1;
#X connect 101 0 106 0;
#X connect 101 1 100 0;
#X connect 102 0 101 0;
#X connect 103 0 107 0;
#X connect 104 0 103 0;
#X connect 104 1 102 0;
#X connect 105 0 104 0;
#X connect 106 0 103 2;
#X connect 108 0 158 1;
#X connect 109 0 158 0;
#X connect 109 1 108 0;
#X connect 110 0 109 0;
#X connect 111 0 159 0;
#X connect 112 0 111 0;
#X connect 112 1 110 0;
#X connect 113 0 112 0;
#X connect 114 0 161 1;
#X connect 115 0 161 0;
#X connect 115 1 114 0;
#X connect 116 0 115 0;
#X connect 117 0 163 0;
#X connect 118 0 117 0;
#X connect 118 1 116 0;
#X connect 119 0 118 0;
#X connect 120 0 145 1;
#X connect 121 0 145 0;
#X connect 121 1 120 0;
#X connect 122 0 125 0;
#X connect 123 0 122 0;
#X connect 123 1 144 0;
#X connect 124 0 123 0;
#X connect 126 0 127 0;
#X connect 127 0 40 0;
#X connect 127 1 160 0;
#X connect 128 0 134 1;
#X connect 129 0 134 0;
#X connect 129 1 128 0;
#X connect 130 0 129 0;
#X connect 131 0 135 0;
#X connect 132 0 131 0;
#X connect 132 1 130 0;
#X connect 133 0 132 0;
#X connect 134 0 131 2;
#X connect 136 0 141 1;
#X connect 137 0 141 0;
#X connect 137 1 136 0;
#X connect 138 0 143 0;
#X connect 139 0 138 0;
#X connect 139 1 142 0;
#X connect 140 0 139 0;
#X connect 141 0 138 2;
#X connect 142 0 137 0;
#X connect 144 0 121 0;
#X connect 145 0 122 2;
#X connect 147 0 146 2;
#X connect 148 0 146 0;
#X connect 148 1 147 0;
#X connect 149 0 146 0;
#X connect 149 1 164 0;
#X connect 150 0 156 1;
#X connect 151 0 156 0;
#X connect 151 1 150 0;
#X connect 152 0 151 0;
#X connect 153 0 157 0;
#X connect 154 0 153 0;
#X connect 154 1 152 0;
#X connect 155 0 154 0;
#X connect 156 0 153 2;
#X connect 158 0 111 2;
#X connect 160 0 43 0;
#X connect 161 0 117 2;
#X connect 162 0 146 1;
#X connect 164 0 148 0;
