#N canvas 4 70 1712 1332 16;
#X msg 17 12 bang;
#X obj 17 134 t b b b b b b b b b b b b b, f 133;
#X obj 17 40 t b b;
#X obj 54 73 f \$0;
#X obj 54 101 v \$0_ns;
#X obj 105 216 v \$0_m;
#X obj 193 216 v \$0_nx;
#X msg 193 188 1;
#X msg 105 188 4;
#X msg 282 188 1;
#X obj 282 216 v \$0_ny;
#X msg 370 188 1;
#X obj 370 216 v \$0_nL-0;
#X obj 459 216 v \$0_nL-1;
#X obj 547 216 v \$0_nL-0;
#X obj 635 216 v \$0_nL-1;
#X obj 724 216 v \$0_nL-2;
#X obj 812 216 v \$0_nL-3;
#X obj 901 216 v \$0_nL-4;
#X obj 989 216 v \$0_nL-5;
#X obj 1078 216 v \$0_nL-6;
#X msg 459 188 2;
#X msg 547 188 2;
#X msg 635 188 2;
#X msg 724 188 2;
#X msg 812 188 2;
#X msg 901 188 2;
#X msg 989 188 2;
#X msg 1078 188 2;
#N canvas 0 66 3440 1340 arrays 0;
#X obj 513 196 array define \$0_X;
#X msg 513 163 resize \$1;
#X obj 513 130 *;
#X obj 513 97 v \$0_m;
#X obj 575 97 v \$0_nx;
#X obj 513 64 t b b;
#X obj 513 36 r \$0_size_arrays;
#X obj 61 36 inlet;
#X obj 61 69 s \$0_size_arrays;
#X msg 294 69 const 0;
#X msg 27 380 resize \$1;
#X obj 27 348 *;
#X obj 27 282 t b b;
#X obj 27 254 r \$0_size_arrays;
#X msg 377 348 resize \$1;
#X obj 377 254 r \$0_size_arrays;
#X msg 27 677 resize \$1;
#X obj 27 644 *;
#X obj 27 578 t b b;
#X obj 27 550 r \$0_size_arrays;
#X obj 117 611 v \$0_m;
#X text 29 225 // output layer;
#X obj 27 315 v \$0_nL-0;
#X obj 117 315 v \$0_nL-1;
#X obj 27 441 array define \$0_WL-0;
#X obj 67 474 array define \$0_dWL-0;
#X obj 377 315 v \$0_nL-0;
#X obj 377 441 array define \$0_bL-0;
#X obj 417 474 array define \$0_dbL-0;
#X obj 27 611 v \$0_nL-0;
#X obj 27 743 array define \$0_ZL-0;
#X obj 156 776 array define \$0_dZL-0;
#X obj 206 743 array define \$0_AL-0;
#X obj 337 776 array define \$0_dAL-0;
#X obj 27 710 t a a a a, f 34;
#X obj 107 507 array define \$0_VdWL-0;
#X obj 457 507 array define \$0_VdbL-0;
#X obj 27 408 t a a a;
#X obj 377 376 t a a a;
#X obj 294 102 s \$0_const_arrays;
#X obj 232 254 r \$0_const_arrays;
#X obj 232 282 t b b b b b b;
#X obj 202 550 r \$0_const_arrays;
#X obj 202 578 t b b b b;
#X msg 657 380 resize \$1;
#X obj 657 348 *;
#X obj 657 282 t b b;
#X obj 657 254 r \$0_size_arrays;
#X msg 1007 348 resize \$1;
#X obj 1007 254 r \$0_size_arrays;
#X msg 657 677 resize \$1;
#X obj 657 644 *;
#X obj 657 578 t b b;
#X obj 657 550 r \$0_size_arrays;
#X obj 747 611 v \$0_m;
#X obj 657 710 t a a a a, f 34;
#X obj 657 408 t a a a;
#X obj 1007 376 t a a a;
#X obj 862 254 r \$0_const_arrays;
#X obj 862 282 t b b b b b b;
#X obj 832 550 r \$0_const_arrays;
#X obj 832 578 t b b b b;
#X obj 657 315 v \$0_nL-1;
#X obj 747 315 v \$0_nL-2;
#X obj 1007 315 v \$0_nL-1;
#X obj 657 441 array define \$0_WL-1;
#X obj 697 474 array define \$0_dWL-1;
#X obj 737 507 array define \$0_VdWL-1;
#X obj 1007 441 array define \$0_bL-1;
#X obj 1047 474 array define \$0_dbL-1;
#X obj 1087 507 array define \$0_VdbL-1;
#X obj 657 743 array define \$0_ZL-1;
#X obj 836 743 array define \$0_AL-1;
#X obj 786 776 array define \$0_dZL-1;
#X obj 967 776 array define \$0_dAL-1;
#X text 667 222 // L-1;
#X obj 657 611 v \$0_nL-1;
#X msg 1287 380 resize \$1;
#X obj 1287 348 *;
#X obj 1287 282 t b b;
#X obj 1287 254 r \$0_size_arrays;
#X msg 1637 348 resize \$1;
#X obj 1637 254 r \$0_size_arrays;
#X msg 1287 677 resize \$1;
#X obj 1287 644 *;
#X obj 1287 578 t b b;
#X obj 1287 550 r \$0_size_arrays;
#X obj 1377 611 v \$0_m;
#X obj 1287 710 t a a a a, f 34;
#X obj 1287 408 t a a a;
#X obj 1637 376 t a a a;
#X obj 1492 254 r \$0_const_arrays;
#X obj 1492 282 t b b b b b b;
#X obj 1462 550 r \$0_const_arrays;
#X obj 1462 578 t b b b b;
#X text 1291 225 // L-2;
#X obj 1287 315 v \$0_nL-2;
#X obj 1377 315 v \$0_nL-1;
#X obj 1637 315 v \$0_nL-2;
#X obj 1287 441 array define \$0_WL-2;
#X obj 1327 474 array define \$0_dWL-2;
#X obj 1367 507 array define \$0_VdWL-2;
#X obj 1637 441 array define \$0_bL-2;
#X obj 1675 474 array define \$0_dbL-2;
#X obj 1717 507 array define \$0_VdbL-2;
#X obj 1287 611 v \$0_nL-2;
#X obj 1287 743 array define \$0_ZL-2;
#X obj 1466 743 array define \$0_AL-2;
#X obj 1416 776 array define \$0_dZL-2;
#X obj 1597 776 array define \$0_dAL-2;
#X msg 1917 380 resize \$1;
#X obj 1917 348 *;
#X obj 1917 282 t b b;
#X obj 1917 254 r \$0_size_arrays;
#X msg 2267 348 resize \$1;
#X obj 2267 254 r \$0_size_arrays;
#X msg 1917 677 resize \$1;
#X obj 1917 644 *;
#X obj 1917 578 t b b;
#X obj 1917 550 r \$0_size_arrays;
#X obj 2007 611 v \$0_m;
#X obj 1917 710 t a a a a, f 34;
#X obj 1917 408 t a a a;
#X obj 2267 376 t a a a;
#X obj 2122 254 r \$0_const_arrays;
#X obj 2122 282 t b b b b b b;
#X obj 2092 550 r \$0_const_arrays;
#X obj 2092 578 t b b b b;
#X obj 294 36 inlet cont_arrays;
#X obj 662 36 r \$0_const_arrays;
#X text 1918 228 // L-3;
#X obj 1917 315 v \$0_nL-3;
#X obj 2007 315 v \$0_nL-2;
#X obj 2267 315 v \$0_nL-3;
#X obj 1917 441 array define \$0_WL-3;
#X obj 1957 474 array define \$0_dWL-3;
#X obj 1997 507 array define \$0_VdWL-3;
#X obj 2267 441 array define \$0_bL-3;
#X obj 2308 474 array define \$0_dbL-3;
#X obj 2347 507 array define \$0_VdbL-3;
#X obj 1917 611 v \$0_nL-3;
#X obj 1917 743 array define \$0_ZL-3;
#X obj 2096 743 array define \$0_AL-3;
#X obj 2046 776 array define \$0_dZL-3;
#X obj 2227 776 array define \$0_dAL-3;
#X connect 1 0 0 0;
#X connect 2 0 1 0;
#X connect 3 0 2 0;
#X connect 4 0 2 1;
#X connect 5 0 3 0;
#X connect 5 1 4 0;
#X connect 6 0 5 0;
#X connect 7 0 8 0;
#X connect 9 0 39 0;
#X connect 10 0 37 0;
#X connect 11 0 10 0;
#X connect 12 0 22 0;
#X connect 12 1 23 0;
#X connect 13 0 12 0;
#X connect 14 0 38 0;
#X connect 15 0 26 0;
#X connect 16 0 34 0;
#X connect 17 0 16 0;
#X connect 18 0 29 0;
#X connect 18 1 20 0;
#X connect 19 0 18 0;
#X connect 20 0 17 1;
#X connect 22 0 11 0;
#X connect 23 0 11 1;
#X connect 26 0 14 0;
#X connect 29 0 17 0;
#X connect 34 0 30 0;
#X connect 34 1 31 0;
#X connect 34 2 32 0;
#X connect 34 3 33 0;
#X connect 37 0 24 0;
#X connect 37 1 25 0;
#X connect 37 2 35 0;
#X connect 38 0 27 0;
#X connect 38 1 28 0;
#X connect 38 2 36 0;
#X connect 40 0 41 0;
#X connect 41 0 24 0;
#X connect 41 1 25 0;
#X connect 41 2 35 0;
#X connect 41 3 27 0;
#X connect 41 4 28 0;
#X connect 41 5 36 0;
#X connect 42 0 43 0;
#X connect 43 0 30 0;
#X connect 43 1 31 0;
#X connect 43 2 32 0;
#X connect 43 3 33 0;
#X connect 44 0 56 0;
#X connect 45 0 44 0;
#X connect 46 0 62 0;
#X connect 46 1 63 0;
#X connect 47 0 46 0;
#X connect 48 0 57 0;
#X connect 49 0 64 0;
#X connect 50 0 55 0;
#X connect 51 0 50 0;
#X connect 52 0 76 0;
#X connect 52 1 54 0;
#X connect 53 0 52 0;
#X connect 54 0 51 1;
#X connect 55 0 71 0;
#X connect 55 1 73 0;
#X connect 55 2 72 0;
#X connect 55 3 74 0;
#X connect 56 0 65 0;
#X connect 56 1 66 0;
#X connect 56 2 67 0;
#X connect 57 0 68 0;
#X connect 57 1 69 0;
#X connect 57 2 70 0;
#X connect 58 0 59 0;
#X connect 59 0 65 0;
#X connect 59 1 66 0;
#X connect 59 2 67 0;
#X connect 59 3 68 0;
#X connect 59 4 69 0;
#X connect 59 5 70 0;
#X connect 60 0 61 0;
#X connect 61 0 71 0;
#X connect 61 1 73 0;
#X connect 61 2 72 0;
#X connect 61 3 74 0;
#X connect 62 0 45 0;
#X connect 63 0 45 1;
#X connect 64 0 48 0;
#X connect 76 0 51 0;
#X connect 77 0 89 0;
#X connect 78 0 77 0;
#X connect 79 0 96 0;
#X connect 79 1 97 0;
#X connect 80 0 79 0;
#X connect 81 0 90 0;
#X connect 82 0 98 0;
#X connect 83 0 88 0;
#X connect 84 0 83 0;
#X connect 85 0 105 0;
#X connect 85 1 87 0;
#X connect 86 0 85 0;
#X connect 87 0 84 1;
#X connect 88 0 106 0;
#X connect 88 1 108 0;
#X connect 88 2 107 0;
#X connect 88 3 109 0;
#X connect 89 0 99 0;
#X connect 89 1 100 0;
#X connect 89 2 101 0;
#X connect 90 0 102 0;
#X connect 90 1 103 0;
#X connect 90 2 104 0;
#X connect 91 0 92 0;
#X connect 92 0 99 0;
#X connect 92 1 100 0;
#X connect 92 2 101 0;
#X connect 92 3 102 0;
#X connect 92 4 103 0;
#X connect 92 5 104 0;
#X connect 93 0 94 0;
#X connect 94 0 106 0;
#X connect 94 1 108 0;
#X connect 94 2 107 0;
#X connect 94 3 109 0;
#X connect 96 0 78 0;
#X connect 97 0 78 1;
#X connect 98 0 81 0;
#X connect 105 0 84 0;
#X connect 110 0 122 0;
#X connect 111 0 110 0;
#X connect 112 0 131 0;
#X connect 112 1 132 0;
#X connect 113 0 112 0;
#X connect 114 0 123 0;
#X connect 115 0 133 0;
#X connect 116 0 121 0;
#X connect 117 0 116 0;
#X connect 118 0 140 0;
#X connect 118 1 120 0;
#X connect 119 0 118 0;
#X connect 120 0 117 1;
#X connect 121 0 141 0;
#X connect 121 1 143 0;
#X connect 121 2 142 0;
#X connect 121 3 144 0;
#X connect 122 0 134 0;
#X connect 122 1 135 0;
#X connect 122 2 136 0;
#X connect 123 0 137 0;
#X connect 123 1 138 0;
#X connect 123 2 139 0;
#X connect 124 0 125 0;
#X connect 125 0 134 0;
#X connect 125 1 135 0;
#X connect 125 2 136 0;
#X connect 125 3 137 0;
#X connect 125 4 138 0;
#X connect 125 5 139 0;
#X connect 126 0 127 0;
#X connect 127 0 141 0;
#X connect 127 1 143 0;
#X connect 127 2 142 0;
#X connect 127 3 144 0;
#X connect 128 0 9 0;
#X connect 129 0 0 0;
#X connect 131 0 111 0;
#X connect 132 0 111 1;
#X connect 133 0 114 0;
#X connect 140 0 117 0;
#X restore 17 167 pd arrays;
#X connect 0 0 2 0;
#X connect 1 0 29 0;
#X connect 1 1 8 0;
#X connect 1 2 7 0;
#X connect 1 3 9 0;
#X connect 1 4 11 0;
#X connect 1 5 21 0;
#X connect 1 6 22 0;
#X connect 1 7 23 0;
#X connect 1 8 24 0;
#X connect 1 9 25 0;
#X connect 1 10 26 0;
#X connect 1 11 27 0;
#X connect 1 12 28 0;
#X connect 2 0 1 0;
#X connect 2 1 3 0;
#X connect 3 0 4 0;
#X connect 7 0 6 0;
#X connect 8 0 5 0;
#X connect 9 0 10 0;
#X connect 11 0 12 0;
#X connect 21 0 13 0;
#X connect 22 0 14 0;
#X connect 23 0 15 0;
#X connect 24 0 16 0;
#X connect 25 0 17 0;
#X connect 26 0 18 0;
#X connect 27 0 19 0;
#X connect 28 0 20 0;
