#N canvas 4 60 1526 1359 16;
#X msg 17 12 bang;
#X obj 17 40 t b b;
#X obj 54 73 f \$0;
#X obj 54 101 v \$0_ns;
#X obj 123 216 v \$0_m;
#X obj 229 216 v \$0_nx;
#X msg 335 188 1;
#X obj 335 216 v \$0_ny;
#X msg 441 188 1;
#X obj 441 216 v \$0_nL-0;
#X obj 547 216 v \$0_nL-1;
#X obj 653 216 v \$0_nL-2;
#X obj 759 216 v \$0_nL-3;
#X obj 865 216 v \$0_nL-4;
#X obj 971 216 v \$0_nL-5;
#X obj 1078 216 v \$0_nL-6;
#X msg 1078 188 2;
#N canvas 0 66 3440 1340 arrays 0;
#X obj 9 10 inlet;
#X obj 9 43 s \$0_size_arrays;
#X msg 155 44 const 0;
#X msg 27 270 resize \$1;
#X obj 27 238 *;
#X obj 27 172 t b b;
#X obj 27 144 r \$0_size_arrays;
#X msg 377 238 resize \$1;
#X obj 377 144 r \$0_size_arrays;
#X msg 27 567 resize \$1;
#X obj 27 534 *;
#X obj 27 468 t b b;
#X obj 27 440 r \$0_size_arrays;
#X obj 117 501 v \$0_m;
#X text 29 115 // output layer;
#X obj 27 205 v \$0_nL-0;
#X obj 117 205 v \$0_nL-1;
#X obj 27 331 array define \$0_WL-0;
#X obj 67 364 array define \$0_dWL-0;
#X obj 377 205 v \$0_nL-0;
#X obj 377 331 array define \$0_bL-0;
#X obj 417 364 array define \$0_dbL-0;
#X obj 27 501 v \$0_nL-0;
#X obj 27 633 array define \$0_ZL-0;
#X obj 156 666 array define \$0_dZL-0;
#X obj 206 633 array define \$0_AL-0;
#X obj 337 666 array define \$0_dAL-0;
#X obj 27 600 t a a a a, f 34;
#X obj 107 397 array define \$0_VdWL-0;
#X obj 457 397 array define \$0_VdbL-0;
#X obj 27 298 t a a a;
#X obj 377 266 t a a a;
#X obj 155 77 s \$0_const_arrays;
#X obj 232 144 r \$0_const_arrays;
#X obj 202 440 r \$0_const_arrays;
#X msg 657 270 resize \$1;
#X obj 657 238 *;
#X obj 657 172 t b b;
#X obj 657 144 r \$0_size_arrays;
#X msg 1007 238 resize \$1;
#X obj 1007 144 r \$0_size_arrays;
#X msg 657 567 resize \$1;
#X obj 657 534 *;
#X obj 657 468 t b b;
#X obj 657 440 r \$0_size_arrays;
#X obj 747 501 v \$0_m;
#X obj 657 600 t a a a a, f 34;
#X obj 657 298 t a a a;
#X obj 1007 266 t a a a;
#X obj 862 144 r \$0_const_arrays;
#X obj 832 440 r \$0_const_arrays;
#X obj 657 205 v \$0_nL-1;
#X obj 747 205 v \$0_nL-2;
#X obj 1007 205 v \$0_nL-1;
#X obj 657 331 array define \$0_WL-1;
#X obj 697 364 array define \$0_dWL-1;
#X obj 737 397 array define \$0_VdWL-1;
#X obj 1007 331 array define \$0_bL-1;
#X obj 1047 364 array define \$0_dbL-1;
#X obj 1087 397 array define \$0_VdbL-1;
#X obj 657 633 array define \$0_ZL-1;
#X obj 836 633 array define \$0_AL-1;
#X obj 786 666 array define \$0_dZL-1;
#X obj 967 666 array define \$0_dAL-1;
#X text 667 112 // L-1;
#X obj 657 501 v \$0_nL-1;
#X msg 1287 270 resize \$1;
#X obj 1287 238 *;
#X obj 1287 172 t b b;
#X obj 1287 144 r \$0_size_arrays;
#X msg 1637 238 resize \$1;
#X obj 1637 144 r \$0_size_arrays;
#X msg 1287 567 resize \$1;
#X obj 1287 534 *;
#X obj 1287 468 t b b;
#X obj 1287 440 r \$0_size_arrays;
#X obj 1377 501 v \$0_m;
#X obj 1287 600 t a a a a, f 34;
#X obj 1287 298 t a a a;
#X obj 1637 266 t a a a;
#X obj 1492 144 r \$0_const_arrays;
#X obj 1462 440 r \$0_const_arrays;
#X text 1291 115 // L-2;
#X obj 1287 205 v \$0_nL-2;
#X obj 1637 205 v \$0_nL-2;
#X obj 1287 331 array define \$0_WL-2;
#X obj 1327 364 array define \$0_dWL-2;
#X obj 1367 397 array define \$0_VdWL-2;
#X obj 1637 331 array define \$0_bL-2;
#X obj 1675 364 array define \$0_dbL-2;
#X obj 1717 397 array define \$0_VdbL-2;
#X obj 1287 501 v \$0_nL-2;
#X obj 1287 633 array define \$0_ZL-2;
#X obj 1466 633 array define \$0_AL-2;
#X obj 1416 666 array define \$0_dZL-2;
#X obj 1597 666 array define \$0_dAL-2;
#X msg 1927 270 resize \$1;
#X obj 1927 238 *;
#X obj 1927 172 t b b;
#X obj 1927 144 r \$0_size_arrays;
#X msg 2277 238 resize \$1;
#X obj 2277 144 r \$0_size_arrays;
#X msg 1927 567 resize \$1;
#X obj 1927 534 *;
#X obj 1927 468 t b b;
#X obj 1927 440 r \$0_size_arrays;
#X obj 2017 501 v \$0_m;
#X obj 1927 600 t a a a a, f 34;
#X obj 1927 298 t a a a;
#X obj 2277 266 t a a a;
#X obj 2132 144 r \$0_const_arrays;
#X obj 2102 440 r \$0_const_arrays;
#X obj 155 11 inlet cont_arrays;
#X text 1928 118 // L-3;
#X obj 1927 205 v \$0_nL-3;
#X obj 2277 205 v \$0_nL-3;
#X obj 1927 331 array define \$0_WL-3;
#X obj 1967 364 array define \$0_dWL-3;
#X obj 2007 397 array define \$0_VdWL-3;
#X obj 2277 331 array define \$0_bL-3;
#X obj 2318 364 array define \$0_dbL-3;
#X obj 2357 397 array define \$0_VdbL-3;
#X obj 1927 501 v \$0_nL-3;
#X obj 1927 633 array define \$0_ZL-3;
#X obj 2106 633 array define \$0_AL-3;
#X obj 2056 666 array define \$0_dZL-3;
#X obj 2237 666 array define \$0_dAL-3;
#X obj 232 172 t a a a a a a;
#X obj 202 468 t a a a a;
#X obj 862 171 t a a a a a a;
#X obj 832 468 t a a a a;
#X obj 1492 172 t a a a a a a;
#X obj 1462 468 t a a a a;
#X obj 2132 172 t a a a a a a;
#X obj 2102 468 t a a a a;
#X obj 1377 205 v \$0_nL-3;
#X obj 2017 205 v \$0_nL-4;
#X msg 2557 270 resize \$1;
#X obj 2557 238 *;
#X obj 2557 172 t b b;
#X obj 2557 144 r \$0_size_arrays;
#X msg 2907 238 resize \$1;
#X obj 2907 144 r \$0_size_arrays;
#X msg 2557 567 resize \$1;
#X obj 2557 534 *;
#X obj 2557 468 t b b;
#X obj 2557 440 r \$0_size_arrays;
#X obj 2647 501 v \$0_m;
#X obj 2557 600 t a a a a, f 34;
#X obj 2557 298 t a a a;
#X obj 2907 266 t a a a;
#X obj 2762 144 r \$0_const_arrays;
#X obj 2732 440 r \$0_const_arrays;
#X obj 2762 172 t a a a a a a;
#X obj 2732 468 t a a a a;
#X text 2558 118 // L-4;
#X obj 2557 205 v \$0_nL-4;
#X obj 2647 205 v \$0_nL-5;
#X obj 2907 205 v \$0_nL-4;
#X obj 2557 331 array define \$0_WL-4;
#X obj 2597 364 array define \$0_dWL-4;
#X obj 2637 397 array define \$0_VdWL-4;
#X obj 2907 331 array define \$0_bL-4;
#X obj 2948 364 array define \$0_dbL-4;
#X obj 2987 397 array define \$0_VdbL-4;
#X obj 2557 501 v \$0_nL-4;
#X obj 2557 633 array define \$0_ZL-4;
#X obj 2736 633 array define \$0_AL-4;
#X obj 2686 666 array define \$0_dZL-4;
#X obj 2867 666 array define \$0_dAL-4;
#X msg 27 880 resize \$1;
#X obj 27 848 *;
#X obj 27 782 t b b;
#X obj 27 754 r \$0_size_arrays;
#X msg 377 848 resize \$1;
#X obj 377 754 r \$0_size_arrays;
#X msg 27 1177 resize \$1;
#X obj 27 1144 *;
#X obj 27 1078 t b b;
#X obj 27 1050 r \$0_size_arrays;
#X obj 117 1111 v \$0_m;
#X obj 27 1210 t a a a a, f 34;
#X obj 27 908 t a a a;
#X obj 377 876 t a a a;
#X obj 232 754 r \$0_const_arrays;
#X obj 202 1050 r \$0_const_arrays;
#X obj 232 782 t a a a a a a;
#X obj 202 1078 t a a a a;
#X text 28 728 // L-5;
#X obj 27 815 v \$0_nL-5;
#X obj 117 815 v \$0_nL-6;
#X obj 377 815 v \$0_nL-5;
#X obj 27 941 array define \$0_WL-5;
#X obj 67 974 array define \$0_dWL-5;
#X obj 107 1007 array define \$0_VdWL-5;
#X obj 377 941 array define \$0_bL-5;
#X obj 418 974 array define \$0_dbL-5;
#X obj 457 1007 array define \$0_VdbL-5;
#X obj 27 1111 v \$0_nL-5;
#X obj 27 1243 array define \$0_ZL-5;
#X obj 206 1243 array define \$0_AL-5;
#X obj 156 1276 array define \$0_dZL-5;
#X obj 337 1276 array define \$0_dAL-5;
#X connect 0 0 1 0;
#X connect 2 0 32 0;
#X connect 3 0 30 0;
#X connect 4 0 3 0;
#X connect 5 0 15 0;
#X connect 5 1 16 0;
#X connect 6 0 5 0;
#X connect 7 0 31 0;
#X connect 8 0 19 0;
#X connect 9 0 27 0;
#X connect 10 0 9 0;
#X connect 11 0 22 0;
#X connect 11 1 13 0;
#X connect 12 0 11 0;
#X connect 13 0 10 1;
#X connect 15 0 4 0;
#X connect 16 0 4 1;
#X connect 19 0 7 0;
#X connect 22 0 10 0;
#X connect 27 0 23 0;
#X connect 27 1 24 0;
#X connect 27 2 25 0;
#X connect 27 3 26 0;
#X connect 30 0 17 0;
#X connect 30 1 18 0;
#X connect 30 2 28 0;
#X connect 31 0 20 0;
#X connect 31 1 21 0;
#X connect 31 2 29 0;
#X connect 33 0 127 0;
#X connect 34 0 128 0;
#X connect 35 0 47 0;
#X connect 36 0 35 0;
#X connect 37 0 51 0;
#X connect 37 1 52 0;
#X connect 38 0 37 0;
#X connect 39 0 48 0;
#X connect 40 0 53 0;
#X connect 41 0 46 0;
#X connect 42 0 41 0;
#X connect 43 0 65 0;
#X connect 43 1 45 0;
#X connect 44 0 43 0;
#X connect 45 0 42 1;
#X connect 46 0 60 0;
#X connect 46 1 62 0;
#X connect 46 2 61 0;
#X connect 46 3 63 0;
#X connect 47 0 54 0;
#X connect 47 1 55 0;
#X connect 47 2 56 0;
#X connect 48 0 57 0;
#X connect 48 1 58 0;
#X connect 48 2 59 0;
#X connect 49 0 129 0;
#X connect 50 0 130 0;
#X connect 51 0 36 0;
#X connect 52 0 36 1;
#X connect 53 0 39 0;
#X connect 65 0 42 0;
#X connect 66 0 78 0;
#X connect 67 0 66 0;
#X connect 68 0 83 0;
#X connect 68 1 135 0;
#X connect 69 0 68 0;
#X connect 70 0 79 0;
#X connect 71 0 84 0;
#X connect 72 0 77 0;
#X connect 73 0 72 0;
#X connect 74 0 91 0;
#X connect 74 1 76 0;
#X connect 75 0 74 0;
#X connect 76 0 73 1;
#X connect 77 0 92 0;
#X connect 77 1 94 0;
#X connect 77 2 93 0;
#X connect 77 3 95 0;
#X connect 78 0 85 0;
#X connect 78 1 86 0;
#X connect 78 2 87 0;
#X connect 79 0 88 0;
#X connect 79 1 89 0;
#X connect 79 2 90 0;
#X connect 80 0 131 0;
#X connect 81 0 132 0;
#X connect 83 0 67 0;
#X connect 84 0 70 0;
#X connect 91 0 73 0;
#X connect 96 0 108 0;
#X connect 97 0 96 0;
#X connect 98 0 114 0;
#X connect 98 1 136 0;
#X connect 99 0 98 0;
#X connect 100 0 109 0;
#X connect 101 0 115 0;
#X connect 102 0 107 0;
#X connect 103 0 102 0;
#X connect 104 0 122 0;
#X connect 104 1 106 0;
#X connect 105 0 104 0;
#X connect 106 0 103 1;
#X connect 107 0 123 0;
#X connect 107 1 125 0;
#X connect 107 2 124 0;
#X connect 107 3 126 0;
#X connect 108 0 116 0;
#X connect 108 1 117 0;
#X connect 108 2 118 0;
#X connect 109 0 119 0;
#X connect 109 1 120 0;
#X connect 109 2 121 0;
#X connect 110 0 133 0;
#X connect 111 0 134 0;
#X connect 112 0 2 0;
#X connect 114 0 97 0;
#X connect 115 0 100 0;
#X connect 122 0 103 0;
#X connect 127 0 17 0;
#X connect 127 1 18 0;
#X connect 127 2 28 0;
#X connect 127 3 20 0;
#X connect 127 4 21 0;
#X connect 127 5 29 0;
#X connect 128 0 23 0;
#X connect 128 1 24 0;
#X connect 128 2 25 0;
#X connect 128 3 26 0;
#X connect 129 0 54 0;
#X connect 129 1 55 0;
#X connect 129 2 56 0;
#X connect 129 3 57 0;
#X connect 129 4 58 0;
#X connect 129 5 59 0;
#X connect 130 0 60 0;
#X connect 130 1 62 0;
#X connect 130 2 61 0;
#X connect 130 3 63 0;
#X connect 131 0 85 0;
#X connect 131 1 86 0;
#X connect 131 2 87 0;
#X connect 131 3 88 0;
#X connect 131 4 89 0;
#X connect 131 5 90 0;
#X connect 132 0 92 0;
#X connect 132 1 94 0;
#X connect 132 2 93 0;
#X connect 132 3 95 0;
#X connect 133 0 116 0;
#X connect 133 1 117 0;
#X connect 133 2 118 0;
#X connect 133 3 119 0;
#X connect 133 4 120 0;
#X connect 133 5 121 0;
#X connect 134 0 123 0;
#X connect 134 1 125 0;
#X connect 134 2 124 0;
#X connect 134 3 126 0;
#X connect 135 0 67 1;
#X connect 136 0 97 1;
#X connect 137 0 149 0;
#X connect 138 0 137 0;
#X connect 139 0 156 0;
#X connect 139 1 157 0;
#X connect 140 0 139 0;
#X connect 141 0 150 0;
#X connect 142 0 158 0;
#X connect 143 0 148 0;
#X connect 144 0 143 0;
#X connect 145 0 165 0;
#X connect 145 1 147 0;
#X connect 146 0 145 0;
#X connect 147 0 144 1;
#X connect 148 0 166 0;
#X connect 148 1 168 0;
#X connect 148 2 167 0;
#X connect 148 3 169 0;
#X connect 149 0 159 0;
#X connect 149 1 160 0;
#X connect 149 2 161 0;
#X connect 150 0 162 0;
#X connect 150 1 163 0;
#X connect 150 2 164 0;
#X connect 151 0 153 0;
#X connect 152 0 154 0;
#X connect 153 0 159 0;
#X connect 153 1 160 0;
#X connect 153 2 161 0;
#X connect 153 3 162 0;
#X connect 153 4 163 0;
#X connect 153 5 164 0;
#X connect 154 0 166 0;
#X connect 154 1 168 0;
#X connect 154 2 167 0;
#X connect 154 3 169 0;
#X connect 156 0 138 0;
#X connect 157 0 138 1;
#X connect 158 0 141 0;
#X connect 165 0 144 0;
#X connect 170 0 182 0;
#X connect 171 0 170 0;
#X connect 172 0 189 0;
#X connect 172 1 190 0;
#X connect 173 0 172 0;
#X connect 174 0 183 0;
#X connect 175 0 191 0;
#X connect 176 0 181 0;
#X connect 177 0 176 0;
#X connect 178 0 198 0;
#X connect 178 1 180 0;
#X connect 179 0 178 0;
#X connect 180 0 177 1;
#X connect 181 0 199 0;
#X connect 181 1 201 0;
#X connect 181 2 200 0;
#X connect 181 3 202 0;
#X connect 182 0 192 0;
#X connect 182 1 193 0;
#X connect 182 2 194 0;
#X connect 183 0 195 0;
#X connect 183 1 196 0;
#X connect 183 2 197 0;
#X connect 184 0 186 0;
#X connect 185 0 187 0;
#X connect 186 0 192 0;
#X connect 186 1 193 0;
#X connect 186 2 194 0;
#X connect 186 3 195 0;
#X connect 186 4 196 0;
#X connect 186 5 197 0;
#X connect 187 0 199 0;
#X connect 187 1 201 0;
#X connect 187 2 200 0;
#X connect 187 3 202 0;
#X connect 189 0 171 0;
#X connect 190 0 171 1;
#X connect 191 0 174 0;
#X connect 198 0 177 0;
#X restore 17 282 pd arrays;
#X msg 86 249 bang;
#N canvas 970 812 450 250 (subpatch) 0;
#X array \$0_X 256 float 3;
#A 0 -0 -0.0666173 -0.132939 -0.198669 -0.263517 -0.327195 -0.389418 -0.449912 -0.508407 -0.564642 -0.61837 -0.66935 -0.717356 -0.762175 -0.803608 -0.841471 -0.875595 -0.905829 -0.932039 -0.954108 -0.971938 -0.98545 -0.994583 -0.999298 -0.999574 -0.995408 -0.98682 -0.973848 -0.956549 -0.935 -0.909297 -0.879555 -0.845905 -0.808496 -0.767496 -0.723086 -0.675463 -0.624839 -0.57144 -0.515501 -0.457273 -0.397012 -0.334988 -0.271476 -0.206757 -0.14112 -0.0748557 -0.00825911 0.0583742 0.124748 0.190568 0.255541 0.319379 0.381798 0.442521 0.501277 0.557807 0.611858 0.663191 0.711577 0.756802 0.798665 0.83698 0.871576 0.9023 0.929015 0.951602 0.969962 0.984012 0.993691 0.998955 0.999781 0.996165 0.988123 0.975691 0.958924 0.937897 0.912703 0.883455 0.850281 0.813329 0.772764 0.728766 0.68153 0.631266 0.578198 0.522561 0.464602 0.404579 0.342759 0.279415 0.214831 0.149291 0.0830891 0.0165177 -0.0501272 -0.116549 -0.182454 -0.247547 -0.311541 -0.374152 -0.435099 -0.494114 -0.550933 -0.605304 -0.656987 -0.70575 -0.751378 -0.793668 -0.832432 -0.867497 -0.898708 -0.925927 -0.949031 -0.96792 -0.982508 -0.992731 -0.998543 -0.99992 -0.996853 -0.989358 -0.977468 -0.961234 -0.940731 -0.916047 -0.887294 -0.854599 -0.818107 -0.77798 -0.734397 -0.687551 -0.63765 -0.584917 -0.529585 -0.4719 -0.412118 -0.350505 -0.287335 -0.222889 -0.157453 -0.0913166 -0.0247749 0.041877 0.108343 0.174327 0.239537 0.303683 0.366479 0.427648 0.486916 0.544021 0.59871 0.650738 0.699875 0.745903 0.788617 0.827827 0.863359 0.895056 0.922776 0.946396 0.965811 0.980936 0.991703 0.998064 0.99999 0.997474 0.990526 0.979178 0.963479 0.943499 0.919328 0.891073 0.858858 0.822828 0.783143 0.739978 0.693525 0.643991 0.591596 0.536573 0.479166 0.41963 0.358229 0.295237 0.230933 0.165604 0.0995383 0.0330308 -0.0336234 -0.100128 -0.166188 -0.23151 -0.295803 -0.358782 -0.420167 -0.479685 -0.537072 -0.592073 -0.644444 -0.693952 -0.740376 -0.783511 -0.823165 -0.859162 -0.891342 -0.919561 -0.943696 -0.963637 -0.979298 -0.990607 -0.997516 -0.999993 -0.998027 -0.991627 -0.980821 -0.965658 -0.946204 -0.922547 -0.894791 -0.86306 -0.827494 -0.788252 -0.745508 -0.699452 -0.650288 -0.598235 -0.543524 -0.486399 -0.427112 -0.365928 -0.303119 -0.238961 -0.173743 -0.107753 -0.0412845 0.0253676 0.091907 0.158038 0.223467 0.287903 0.351061 0.412658 0.472423 0.530087 0.585398 0.638106 0.687981 0.734798 0.778352 0.818447 0.854906 0.887567 0.916285 0.940931 0.961397;
#X coords 0 1 256 -1 200 140 1 0 0;
#X restore 250 295 graph;
#N canvas 0 50 450 250 (subpatch) 0;
#X array \$0_Y 16 float 3;
#A 0 0 0.517284 0.789194 0.686751 0.258548 -0.292298 -0.704492 -0.78251 -0.489346 0.0359397 0.544177 0.794285 0.667623 0.224276 -0.325457 -0.72081;
#X coords 0 1 16 -1 200 140 1 0 0;
#X restore 248 463 graph;
#N canvas 1585 117 1626 1182 synth 0;
#X obj 388 327 nbx 5 21 -1e+37 1e+37 0 1 empty empty empty 0 -12 0 16 #fcfcfc #000000 #000000 928.205 256;
#X obj 266 669 *~;
#X obj 604 75 lop~ 5;
#X obj 660 1042 dac~;
#X obj 546 617 rev1~, f 11;
#X obj 588 584 nbx 5 21 0 160 0 1 empty empty empty 0 -12 0 16 #fcfcfc #000000 #000000 60 256;
#X obj 655 615 bng 23 250 50 0 empty empty empty 0 -12 0 16 #fcfcfc #000000 #000000;
#X obj 663 936 +~;
#X obj 696 885 *~;
#X obj 669 699 nbx 5 21 0 1 0 1 empty empty empty 0 -12 0 16 #fcfcfc #000000 #000000 0.3 256;
#X obj 506 855 *~;
#X obj 669 761 expr 1 - $f1;
#X obj 669 725 t f f, f 17;
#X obj 1740 65 f;
#X obj 1740 93 t f f;
#X obj 1798 93 + 1;
#X obj 1740 131 mod 4;
#X obj 1740 159 sel 0;
#X obj 1740 37 r \$0_m_b;
#X msg 290 320 1;
#X floatatom 1790 132 5 0 0 0 - - - 0;
#X msg 131 317 1;
#N canvas 8 122 1762 1184 triangle 0;
#X obj 231 51 inlet freq;
#X obj 231 104 t f f f f f f f, f 144;
#X obj 231 237 * 1;
#X obj 231 265 osc~;
#X obj 231 293 *~, f 6;
#X obj 252 149 nbx 4 21 0 20 0 1 empty \$0_h_bang harmonic 0 -12 0 16 #fcfcfc #000000 #000000 1 256;
#X obj 252 175 t f f;
#X obj 289 203 expr if ($f1 > 0 \, 1 / ($f1 * $f1) \, 0);
#X obj 422 337 * 1;
#X obj 422 365 osc~;
#X obj 422 393 *~, f 6;
#X obj 443 249 nbx 4 21 0 20 0 1 empty \$0_h_bang harmonic 0 -12 0 16 #fcfcfc #000000 #000000 3 256;
#X obj 443 275 t f f;
#X obj 480 303 expr if ($f1 > 0 \, 1 / ($f1 * $f1) \, 0);
#X obj 614 437 * 1;
#X obj 614 465 osc~;
#X obj 614 493 *~, f 6;
#X obj 635 349 nbx 4 21 0 20 0 1 empty \$0_h_bang harmonic 0 -12 0 16 #fcfcfc #000000 #000000 5 256;
#X obj 635 375 t f f;
#X obj 672 403 expr if ($f1 > 0 \, 1 / ($f1 * $f1) \, 0);
#X obj 805 537 * 1;
#X obj 805 565 osc~;
#X obj 805 593 *~, f 6;
#X obj 826 449 nbx 4 21 0 20 0 1 empty \$0_h_bang harmonic 0 -12 0 16 #fcfcfc #000000 #000000 7 256;
#X obj 826 475 t f f;
#X obj 863 503 expr if ($f1 > 0 \, 1 / ($f1 * $f1) \, 0);
#X obj 997 637 * 1;
#X obj 997 665 osc~;
#X obj 997 693 *~, f 6;
#X obj 1018 549 nbx 4 21 0 20 0 1 empty \$0_h_bang harmonic 0 -12 0 16 #fcfcfc #000000 #000000 9 256;
#X obj 1018 575 t f f;
#X obj 1055 603 expr if ($f1 > 0 \, 1 / ($f1 * $f1) \, 0);
#X obj 1188 737 * 1;
#X obj 1188 765 osc~;
#X obj 1188 793 *~, f 6;
#X obj 1209 649 nbx 4 21 0 20 0 1 empty \$0_h_bang harmonic 0 -12 0 16 #fcfcfc #000000 #000000 11 256;
#X obj 1209 675 t f f;
#X obj 1246 703 expr if ($f1 > 0 \, 1 / ($f1 * $f1) \, 0);
#X obj 1380 837 * 1;
#X obj 1380 865 osc~;
#X obj 1380 893 *~, f 6;
#X obj 1401 749 nbx 4 21 0 20 0 1 empty \$0_h_bang harmonic 0 -12 0 16 #fcfcfc #000000 #000000 13 256;
#X obj 1401 775 t f f;
#X obj 1438 803 expr if ($f1 > 0 \, 1 / ($f1 * $f1) \, 0);
#X obj 34 21 r \$0_init;
#X obj 34 49 s \$0_h_bang;
#X obj 615 968 *~ 1;
#X obj 616 1072 outlet~;
#X connect 0 0 1 0;
#X connect 1 0 2 0;
#X connect 1 1 8 0;
#X connect 1 2 14 0;
#X connect 1 3 20 0;
#X connect 1 4 26 0;
#X connect 1 5 32 0;
#X connect 1 6 38 0;
#X connect 2 0 3 0;
#X connect 3 0 4 0;
#X connect 4 0 46 0;
#X connect 5 0 6 0;
#X connect 6 0 2 1;
#X connect 6 1 7 0;
#X connect 7 0 4 1;
#X connect 8 0 9 0;
#X connect 9 0 10 0;
#X connect 10 0 46 0;
#X connect 11 0 12 0;
#X connect 12 0 8 1;
#X connect 12 1 13 0;
#X connect 13 0 10 1;
#X connect 14 0 15 0;
#X connect 15 0 16 0;
#X connect 16 0 46 0;
#X connect 17 0 18 0;
#X connect 18 0 14 1;
#X connect 18 1 19 0;
#X connect 19 0 16 1;
#X connect 20 0 21 0;
#X connect 21 0 22 0;
#X connect 22 0 46 0;
#X connect 23 0 24 0;
#X connect 24 0 20 1;
#X connect 24 1 25 0;
#X connect 25 0 22 1;
#X connect 26 0 27 0;
#X connect 27 0 28 0;
#X connect 28 0 46 0;
#X connect 29 0 30 0;
#X connect 30 0 26 1;
#X connect 30 1 31 0;
#X connect 31 0 28 1;
#X connect 32 0 33 0;
#X connect 33 0 34 0;
#X connect 34 0 46 0;
#X connect 35 0 36 0;
#X connect 36 0 32 1;
#X connect 36 1 37 0;
#X connect 37 0 34 1;
#X connect 38 0 39 0;
#X connect 39 0 40 0;
#X connect 40 0 46 0;
#X connect 41 0 42 0;
#X connect 42 0 38 1;
#X connect 42 1 43 0;
#X connect 43 0 40 1;
#X connect 44 0 45 0;
#X connect 46 0 47 0;
#X restore 220 595 pd triangle;
#X obj 1740 187 f;
#X obj 1740 215 t f f;
#X obj 1798 216 + 1;
#X obj 1740 243 mod 4;
#N canvas 665 931 475 293 normalize 0;
#X obj 33 15 inlet denormalized;
#X obj 280 45 inlet scale;
#X obj 33 149 * 1;
#X obj 33 242 outlet;
#X obj 280 73 t f f;
#X obj 33 182 + 110;
#X floatatom 98 183 5 0 0 0 - - - 0;
#X obj 33 65 * 0.5;
#X obj 32 105 +;
#X connect 0 0 7 0;
#X connect 1 0 4 0;
#X connect 2 0 5 0;
#X connect 4 0 2 1;
#X connect 5 0 3 0;
#X connect 6 0 5 1;
#X connect 7 0 8 0;
#X connect 8 0 2 0;
#X restore 220 455 pd normalize;
#X obj 388 353 t f f, f 7;
#N canvas 32 338 424 270 quantize 0;
#X obj 84 63 ftom;
#X obj 84 94 int;
#X obj 84 150 mtof;
#X obj 84 121 expr if($f1 % 2 == 0 \, $f1 \, $f1 - 1);
#X obj 84 27 inlet;
#X obj 84 178 outlet;
#X obj 186 179 outlet midi;
#X connect 0 0 1 0;
#X connect 1 0 3 0;
#X connect 2 0 5 0;
#X connect 3 0 2 0;
#X connect 3 0 6 0;
#X connect 4 0 0 0;
#X restore 257 519 pd quantize;
#X obj 77 483 t f f;
#X obj 220 483 t f f;
#N canvas 8 122 424 270 quantize 0;
#X obj 84 63 ftom;
#X obj 84 94 int;
#X obj 84 150 mtof;
#X obj 84 121 expr if($f1 % 2 == 0 \, $f1 \, $f1 - 1);
#X obj 84 27 inlet;
#X obj 84 178 outlet;
#X connect 0 0 1 0;
#X connect 1 0 3 0;
#X connect 2 0 5 0;
#X connect 3 0 2 0;
#X connect 4 0 0 0;
#X restore 114 519 pd quantize;
#N canvas 8 122 1762 1184 triangle 0;
#X obj 231 51 inlet freq;
#X obj 231 104 t f f f f f f f, f 144;
#X obj 231 237 * 1;
#X obj 231 265 osc~;
#X obj 231 293 *~, f 6;
#X obj 252 149 nbx 4 21 0 20 0 1 empty \$0_h_bang harmonic 0 -12 0 16 #fcfcfc #000000 #000000 1 256;
#X obj 252 175 t f f;
#X obj 289 203 expr if ($f1 > 0 \, 1 / ($f1 * $f1) \, 0);
#X obj 422 337 * 1;
#X obj 422 365 osc~;
#X obj 422 393 *~, f 6;
#X obj 443 249 nbx 4 21 0 20 0 1 empty \$0_h_bang harmonic 0 -12 0 16 #fcfcfc #000000 #000000 3 256;
#X obj 443 275 t f f;
#X obj 480 303 expr if ($f1 > 0 \, 1 / ($f1 * $f1) \, 0);
#X obj 614 437 * 1;
#X obj 614 465 osc~;
#X obj 614 493 *~, f 6;
#X obj 635 349 nbx 4 21 0 20 0 1 empty \$0_h_bang harmonic 0 -12 0 16 #fcfcfc #000000 #000000 5 256;
#X obj 635 375 t f f;
#X obj 672 403 expr if ($f1 > 0 \, 1 / ($f1 * $f1) \, 0);
#X obj 805 537 * 1;
#X obj 805 565 osc~;
#X obj 805 593 *~, f 6;
#X obj 826 449 nbx 4 21 0 20 0 1 empty \$0_h_bang harmonic 0 -12 0 16 #fcfcfc #000000 #000000 7 256;
#X obj 826 475 t f f;
#X obj 863 503 expr if ($f1 > 0 \, 1 / ($f1 * $f1) \, 0);
#X obj 997 637 * 1;
#X obj 997 665 osc~;
#X obj 997 693 *~, f 6;
#X obj 1018 549 nbx 4 21 0 20 0 1 empty \$0_h_bang harmonic 0 -12 0 16 #fcfcfc #000000 #000000 9 256;
#X obj 1018 575 t f f;
#X obj 1055 603 expr if ($f1 > 0 \, 1 / ($f1 * $f1) \, 0);
#X obj 1188 737 * 1;
#X obj 1188 765 osc~;
#X obj 1188 793 *~, f 6;
#X obj 1209 649 nbx 4 21 0 20 0 1 empty \$0_h_bang harmonic 0 -12 0 16 #fcfcfc #000000 #000000 11 256;
#X obj 1209 675 t f f;
#X obj 1246 703 expr if ($f1 > 0 \, 1 / ($f1 * $f1) \, 0);
#X obj 1380 837 * 1;
#X obj 1380 865 osc~;
#X obj 1380 893 *~, f 6;
#X obj 1401 749 nbx 4 21 0 20 0 1 empty \$0_h_bang harmonic 0 -12 0 16 #fcfcfc #000000 #000000 13 256;
#X obj 1401 775 t f f;
#X obj 1438 803 expr if ($f1 > 0 \, 1 / ($f1 * $f1) \, 0);
#X obj 34 21 r \$0_init;
#X obj 34 49 s \$0_h_bang;
#X obj 615 968 *~ 1;
#X obj 616 1072 outlet~;
#X connect 0 0 1 0;
#X connect 1 0 2 0;
#X connect 1 1 8 0;
#X connect 1 2 14 0;
#X connect 1 3 20 0;
#X connect 1 4 26 0;
#X connect 1 5 32 0;
#X connect 1 6 38 0;
#X connect 2 0 3 0;
#X connect 3 0 4 0;
#X connect 4 0 46 0;
#X connect 5 0 6 0;
#X connect 6 0 2 1;
#X connect 6 1 7 0;
#X connect 7 0 4 1;
#X connect 8 0 9 0;
#X connect 9 0 10 0;
#X connect 10 0 46 0;
#X connect 11 0 12 0;
#X connect 12 0 8 1;
#X connect 12 1 13 0;
#X connect 13 0 10 1;
#X connect 14 0 15 0;
#X connect 15 0 16 0;
#X connect 16 0 46 0;
#X connect 17 0 18 0;
#X connect 18 0 14 1;
#X connect 18 1 19 0;
#X connect 19 0 16 1;
#X connect 20 0 21 0;
#X connect 21 0 22 0;
#X connect 22 0 46 0;
#X connect 23 0 24 0;
#X connect 24 0 20 1;
#X connect 24 1 25 0;
#X connect 25 0 22 1;
#X connect 26 0 27 0;
#X connect 27 0 28 0;
#X connect 28 0 46 0;
#X connect 29 0 30 0;
#X connect 30 0 26 1;
#X connect 30 1 31 0;
#X connect 31 0 28 1;
#X connect 32 0 33 0;
#X connect 33 0 34 0;
#X connect 34 0 46 0;
#X connect 35 0 36 0;
#X connect 36 0 32 1;
#X connect 36 1 37 0;
#X connect 37 0 34 1;
#X connect 38 0 39 0;
#X connect 39 0 40 0;
#X connect 40 0 46 0;
#X connect 41 0 42 0;
#X connect 42 0 38 1;
#X connect 42 1 43 0;
#X connect 43 0 40 1;
#X connect 44 0 45 0;
#X connect 46 0 47 0;
#X restore 77 595 pd triangle;
#X obj 686 660 r \$0_init;
#X obj 604 9 inlet amp_Y;
#X obj 744 75 lop~ 5;
#X obj 744 9 inlet amp_y_hat;
#X obj 116 669 *~;
#X obj 192 728 +~;
#X obj 388 15 inlet norm_range;
#X floatatom 1803 245 5 0 0 0 - - - 0;
#X obj 77 264 t f f f;
#X msg 565 320 1;
#X obj 242 233 r \$0_init;
#X obj 664 983 bob~;
#X obj 491 381 t f f, f 45;
#X obj 847 488 lop~ 10;
#X obj 734 981 nbx 5 21 0 4 0 1 empty empty empty 0 -12 0 16 #fcfcfc #000000 #000000 1.13 256;
#X obj 894 554 nbx 5 21 -1e+37 1e+37 0 1 empty empty empty 0 -12 0 16 #fcfcfc #000000 #000000 617 256;
#X obj 894 524 nbx 5 21 -1e+37 1e+37 0 1 empty empty empty 0 -12 0 16 #fcfcfc #000000 #000000 427.33 256;
#X obj 848 525 *~;
#X obj 848 553 +~;
#X obj 848 414 + 1;
#X obj 847 454 * 0.5;
#X msg 1145 288 1;
#X obj 1071 349 t f f, f 45;
#X obj 242 261 t b b b b b, f 55;
#N canvas 12 158 1762 1184 triangle 0;
#X obj 231 51 inlet freq;
#X obj 231 104 t f f f f f f f, f 144;
#X obj 231 237 * 1;
#X obj 231 265 osc~;
#X obj 231 293 *~, f 6;
#X obj 252 149 nbx 4 21 0 20 0 1 empty \$0_h_bang harmonic 0 -12 0 16 #fcfcfc #000000 #000000 1 256;
#X obj 252 175 t f f;
#X obj 289 203 expr if ($f1 > 0 \, 1 / ($f1 * $f1) \, 0);
#X obj 422 337 * 1;
#X obj 422 365 osc~;
#X obj 422 393 *~, f 6;
#X obj 443 249 nbx 4 21 0 20 0 1 empty \$0_h_bang harmonic 0 -12 0 16 #fcfcfc #000000 #000000 3 256;
#X obj 443 275 t f f;
#X obj 480 303 expr if ($f1 > 0 \, 1 / ($f1 * $f1) \, 0);
#X obj 614 437 * 1;
#X obj 614 465 osc~;
#X obj 614 493 *~, f 6;
#X obj 635 349 nbx 4 21 0 20 0 1 empty \$0_h_bang harmonic 0 -12 0 16 #fcfcfc #000000 #000000 5 256;
#X obj 635 375 t f f;
#X obj 672 403 expr if ($f1 > 0 \, 1 / ($f1 * $f1) \, 0);
#X obj 805 537 * 1;
#X obj 805 565 osc~;
#X obj 805 593 *~, f 6;
#X obj 826 449 nbx 4 21 0 20 0 1 empty \$0_h_bang harmonic 0 -12 0 16 #fcfcfc #000000 #000000 7 256;
#X obj 826 475 t f f;
#X obj 863 503 expr if ($f1 > 0 \, 1 / ($f1 * $f1) \, 0);
#X obj 997 637 * 1;
#X obj 997 665 osc~;
#X obj 997 693 *~, f 6;
#X obj 1018 549 nbx 4 21 0 20 0 1 empty \$0_h_bang harmonic 0 -12 0 16 #fcfcfc #000000 #000000 9 256;
#X obj 1018 575 t f f;
#X obj 1055 603 expr if ($f1 > 0 \, 1 / ($f1 * $f1) \, 0);
#X obj 1188 737 * 1;
#X obj 1188 765 osc~;
#X obj 1188 793 *~, f 6;
#X obj 1209 649 nbx 4 21 0 20 0 1 empty \$0_h_bang harmonic 0 -12 0 16 #fcfcfc #000000 #000000 11 256;
#X obj 1209 675 t f f;
#X obj 1246 703 expr if ($f1 > 0 \, 1 / ($f1 * $f1) \, 0);
#X obj 1380 837 * 1;
#X obj 1380 865 osc~;
#X obj 1380 893 *~, f 6;
#X obj 1401 749 nbx 4 21 0 20 0 1 empty \$0_h_bang harmonic 0 -12 0 16 #fcfcfc #000000 #000000 13 256;
#X obj 1401 775 t f f;
#X obj 1438 803 expr if ($f1 > 0 \, 1 / ($f1 * $f1) \, 0);
#X obj 34 21 r \$0_init;
#X obj 34 49 s \$0_h_bang;
#X obj 615 968 *~ 1;
#X obj 616 1072 outlet~;
#X connect 0 0 1 0;
#X connect 1 0 2 0;
#X connect 1 1 8 0;
#X connect 1 2 14 0;
#X connect 1 3 20 0;
#X connect 1 4 26 0;
#X connect 1 5 32 0;
#X connect 1 6 38 0;
#X connect 2 0 3 0;
#X connect 3 0 4 0;
#X connect 4 0 46 0;
#X connect 5 0 6 0;
#X connect 6 0 2 1;
#X connect 6 1 7 0;
#X connect 7 0 4 1;
#X connect 8 0 9 0;
#X connect 9 0 10 0;
#X connect 10 0 46 0;
#X connect 11 0 12 0;
#X connect 12 0 8 1;
#X connect 12 1 13 0;
#X connect 13 0 10 1;
#X connect 14 0 15 0;
#X connect 15 0 16 0;
#X connect 16 0 46 0;
#X connect 17 0 18 0;
#X connect 18 0 14 1;
#X connect 18 1 19 0;
#X connect 19 0 16 1;
#X connect 20 0 21 0;
#X connect 21 0 22 0;
#X connect 22 0 46 0;
#X connect 23 0 24 0;
#X connect 24 0 20 1;
#X connect 24 1 25 0;
#X connect 25 0 22 1;
#X connect 26 0 27 0;
#X connect 27 0 28 0;
#X connect 28 0 46 0;
#X connect 29 0 30 0;
#X connect 30 0 26 1;
#X connect 30 1 31 0;
#X connect 31 0 28 1;
#X connect 32 0 33 0;
#X connect 33 0 34 0;
#X connect 34 0 46 0;
#X connect 35 0 36 0;
#X connect 36 0 32 1;
#X connect 36 1 37 0;
#X connect 37 0 34 1;
#X connect 38 0 39 0;
#X connect 39 0 40 0;
#X connect 40 0 46 0;
#X connect 41 0 42 0;
#X connect 42 0 38 1;
#X connect 42 1 43 0;
#X connect 43 0 40 1;
#X connect 44 0 45 0;
#X connect 46 0 47 0;
#X restore 1428 706 pd triangle;
#X obj 1467 780 *~;
#X floatatom 1514 777 5 0 0 0 - - - 0;
#N canvas 1045 743 475 293 normalize 0;
#X obj 33 15 inlet denormalized;
#X obj 280 45 inlet scale;
#X obj 33 149 * 1;
#X obj 33 242 outlet;
#X obj 33 65 + 1;
#X obj 280 73 t f f;
#X obj 32 105 * 0.5;
#X obj 33 182 + 110;
#X connect 0 0 4 0;
#X connect 1 0 5 0;
#X connect 2 0 7 0;
#X connect 4 0 6 0;
#X connect 5 0 2 1;
#X connect 6 0 2 0;
#X connect 7 0 3 0;
#X restore 77 454 pd normalize;
#X obj 337 990 noteout;
#X obj 337 942 makenote;
#X obj 339 864 t f b b;
#X msg 408 904 25;
#X obj 1428 399 * 0.5;
#X obj 1428 427 + 0.5;
#X obj 1426 462 *;
#X obj 1488 464 nbx 5 21 -1e+37 1e+37 0 0 empty empty empty 0 -12 0 16 #fcfcfc #000000 #000000 0 256;
#X obj 1423 511 +;
#X obj 1482 516 nbx 5 21 -1e+37 1e+37 0 0 empty empty empty 0 -12 0 16 #fcfcfc #000000 #000000 0 256;
#X obj 77 350 array get \$0_Y_0;
#X obj 77 233 r \$0_m_i;
#X obj 220 353 array get \$0_AL-0;
#X obj 1071 321 array get \$0_AL-2;
#X obj 491 353 array get \$0_AL-2;
#X obj 1493 656 ctlout;
#X floatatom 1493 601 5 0 0 0 - - - 0;
#X obj 429 1014 print;
#X msg 368 904 25;
#X floatatom 23 408 15 0 0 0 - - - 0;
#X floatatom 1435 652 5 0 0 0 - - - 0;
#X obj 1423 539 i;
#X obj 1294 612 > 0;
#X connect 0 0 28 0;
#X connect 1 0 39 0;
#X connect 2 0 38 1;
#X connect 4 0 8 0;
#X connect 5 0 4 1;
#X connect 6 0 4 2;
#X connect 7 0 45 0;
#X connect 8 0 7 1;
#X connect 9 0 12 0;
#X connect 10 0 7 0;
#X connect 11 0 10 1;
#X connect 12 0 11 0;
#X connect 12 1 8 1;
#X connect 13 0 14 0;
#X connect 14 0 16 0;
#X connect 14 1 15 0;
#X connect 15 0 13 1;
#X connect 16 0 17 0;
#X connect 17 0 23 0;
#X connect 18 0 13 0;
#X connect 19 0 74 1;
#X connect 20 0 16 1;
#X connect 21 0 72 1;
#X connect 22 0 1 0;
#X connect 23 0 24 0;
#X connect 24 0 26 0;
#X connect 24 1 25 0;
#X connect 25 0 23 1;
#X connect 27 0 31 0;
#X connect 28 0 61 1;
#X connect 28 1 27 1;
#X connect 29 0 22 0;
#X connect 29 1 64 0;
#X connect 30 1 32 0;
#X connect 31 1 29 0;
#X connect 32 0 33 0;
#X connect 33 0 38 0;
#X connect 34 0 9 0;
#X connect 35 0 2 0;
#X connect 36 0 1 1;
#X connect 37 0 36 0;
#X connect 38 0 39 0;
#X connect 39 0 4 0;
#X connect 39 0 10 0;
#X connect 40 0 0 0;
#X connect 41 0 26 1;
#X connect 42 1 74 0;
#X connect 42 2 75 0;
#X connect 43 0 76 1;
#X connect 44 0 57 0;
#X connect 45 0 3 0;
#X connect 45 0 3 1;
#X connect 46 1 53 0;
#X connect 47 0 51 0;
#X connect 48 0 45 2;
#X connect 49 0 52 1;
#X connect 49 0 51 1;
#X connect 50 0 51 1;
#X connect 51 0 52 0;
#X connect 52 0 45 1;
#X connect 53 0 54 0;
#X connect 54 0 47 0;
#X connect 55 0 75 1;
#X connect 57 1 19 0;
#X connect 57 2 0 0;
#X connect 57 3 43 0;
#X connect 57 4 55 0;
#X connect 58 0 59 0;
#X connect 60 0 59 1;
#X connect 61 0 30 0;
#X connect 63 0 62 0;
#X connect 63 1 62 1;
#X connect 64 0 63 0;
#X connect 64 1 80 0;
#X connect 64 2 65 0;
#X connect 65 0 63 2;
#X connect 66 0 67 0;
#X connect 68 0 70 0;
#X connect 69 0 68 1;
#X connect 70 0 83 0;
#X connect 71 0 70 1;
#X connect 73 0 42 0;
#X connect 74 0 27 0;
#X connect 75 0 56 0;
#X connect 76 0 46 0;
#X connect 80 0 63 1;
#X restore 248 983 pd synth;
#X f 27;
#X obj 353 780 vsl 23 196 0 1 0 0 empty empty amp\ Y 0 -9 0 16 #fcfcfc #000000 #000000 0 1;
#X obj 248 779 vsl 23 196 0 1000 0 0 empty empty range 0 -9 0 16 #fcfcfc #000000 #000000 0 1;
#X obj 461 778 vsl 23 196 0 1 0 0 empty empty amp\ y_hat 0 -9 0 16 #fcfcfc #000000 #000000 0 1;
#N canvas 1495 586 521 409 resize_X_and_Y 0;
#X obj 66 248 array size \$0_X;
#X obj 92 154 v \$0_m;
#X obj 150 154 v \$0_nx;
#X obj 92 187 *;
#X msg 66 93 bang;
#X obj 66 121 t b b b;
#X obj 252 154 v \$0_m;
#X obj 252 187 *;
#X msg 226 93 bang;
#X obj 226 121 t b b b;
#X obj 310 154 v \$0_ny;
#X obj 226 248 array size \$0_Y;
#X obj 66 12 inlet bang;
#X obj 66 40 t b b;
#X obj 66 276 outlet X_size;
#X obj 226 276 outlet Y_size;
#X connect 0 0 14 0;
#X connect 1 0 3 0;
#X connect 2 0 3 1;
#X connect 3 0 0 0;
#X connect 4 0 5 0;
#X connect 5 0 0 0;
#X connect 5 1 1 0;
#X connect 5 2 2 0;
#X connect 6 0 7 0;
#X connect 7 0 11 0;
#X connect 8 0 9 0;
#X connect 9 0 11 0;
#X connect 9 1 6 0;
#X connect 9 2 10 0;
#X connect 10 0 7 1;
#X connect 11 0 15 0;
#X connect 12 0 13 0;
#X connect 13 0 4 0;
#X connect 13 1 8 0;
#X restore 16 358 pd resize_X_and_Y;
#X msg 16 325 bang;
#N canvas 778 855 689 326 init_layer_0 0;
#X obj 283 123 v \$0_m;
#X obj 522 123 v \$0_leak;
#X obj 45 60 t b b b b b, f 60;
#X obj 45 27 r \$0_init;
#X obj 45 156 pack f f f s f, f 60;
#X obj 45 123 v \$0_nL-0;
#X obj 164 123 v \$0_nL-1;
#X obj 45 240 s \$0_init_l0;
#X msg 45 189 layer_number 0 \, layer_dims \$1 \$2 \, m \$3 \, activation \$4 \, leak \$5;
#X msg 402 123 symbol linear;
#X connect 0 0 4 2;
#X connect 1 0 4 4;
#X connect 2 0 5 0;
#X connect 2 1 6 0;
#X connect 2 2 0 0;
#X connect 2 3 9 0;
#X connect 2 4 1 0;
#X connect 3 0 2 0;
#X connect 4 0 8 0;
#X connect 5 0 4 0;
#X connect 6 0 4 1;
#X connect 8 0 7 0;
#X connect 9 0 4 3;
#X restore 20 646 pd init_layer_0;
#N canvas 613 851 421 257 init_outer_dz 0;
#X obj 45 27 r \$0_init;
#X msg 45 159 m \$1 \, num_outputs \$2;
#X obj 45 60 t b b, f 9;
#X obj 45 126 pack f f, f 9;
#X obj 45 93 v \$0_m;
#X obj 114 93 v \$0_ny;
#X obj 45 192 s \$0_init_outer_dz;
#X connect 0 0 2 0;
#X connect 1 0 6 0;
#X connect 2 0 4 0;
#X connect 2 1 5 0;
#X connect 3 0 1 0;
#X connect 4 0 3 0;
#X connect 5 0 3 1;
#X restore 20 689 pd init_outer_dz;
#N canvas 701 838 689 326 init_d_layer_0 0;
#X obj 283 123 v \$0_m;
#X obj 522 123 v \$0_leak;
#X obj 45 60 t b b b b b, f 60;
#X obj 45 27 r \$0_init;
#X obj 45 156 pack f f f s f, f 60;
#X obj 45 123 v \$0_nL-0;
#X obj 164 123 v \$0_nL-1;
#X obj 45 240 s \$0_init_d_l0;
#X msg 402 123 symbol linear;
#X msg 45 189 layer_number 0 \, layer_dims \$1 \$2 \, m \$3 \, activation \$4 \, leak \$5 \, skip_dz 1;
#X connect 0 0 4 2;
#X connect 1 0 4 4;
#X connect 2 0 5 0;
#X connect 2 1 6 0;
#X connect 2 2 0 0;
#X connect 2 3 8 0;
#X connect 2 4 1 0;
#X connect 3 0 2 0;
#X connect 4 0 9 0;
#X connect 5 0 4 0;
#X connect 6 0 4 1;
#X connect 8 0 4 3;
#X connect 9 0 7 0;
#X restore 20 732 pd init_d_layer_0;
#N canvas 660 898 689 326 init_d_layer_1 0;
#X obj 283 123 v \$0_m;
#X obj 522 123 v \$0_leak;
#X obj 45 60 t b b b b b, f 60;
#X obj 45 27 r \$0_init;
#X obj 45 156 pack f f f s f, f 60;
#X obj 45 123 v \$0_nL-1;
#X obj 45 240 s \$0_init_d_l1;
#X obj 164 123 v \$0_nL-2;
#X msg 45 187 layer_number 1 \, layer_dims \$1 \$2 \, m \$3 \, activation \$4 \, leak \$5;
#X msg 402 123 symbol relu;
#X connect 0 0 4 2;
#X connect 1 0 4 4;
#X connect 2 0 5 0;
#X connect 2 1 7 0;
#X connect 2 2 0 0;
#X connect 2 3 9 0;
#X connect 2 4 1 0;
#X connect 3 0 2 0;
#X connect 4 0 8 0;
#X connect 5 0 4 0;
#X connect 7 0 4 1;
#X connect 8 0 6 0;
#X connect 9 0 4 3;
#X restore 20 762 pd init_d_layer_1;
#N canvas 638 236 689 326 init_u_layer_0 0;
#X obj 45 27 r \$0_init;
#X obj 45 93 v \$0_nL-0;
#X obj 522 93 v \$0_nL-1;
#X obj 45 210 s \$0_init_u_l0;
#X msg 45 159 layer_number 0 \, layer_dims \$1 \$2;
#X obj 45 60 t b b, f 60;
#X obj 45 126 pack f f, f 60;
#X connect 0 0 5 0;
#X connect 1 0 6 0;
#X connect 2 0 6 1;
#X connect 4 0 3 0;
#X connect 5 0 1 0;
#X connect 5 1 2 0;
#X connect 6 0 4 0;
#X restore 20 945 pd init_u_layer_0;
#N canvas 703 854 689 326 init_layer_2 0;
#X obj 283 123 v \$0_m;
#X obj 522 123 v \$0_leak;
#X obj 45 60 t b b b b b, f 60;
#X obj 45 27 r \$0_init;
#X obj 45 156 pack f f f s f, f 60;
#X obj 45 123 v \$0_nL-2;
#X obj 164 123 v \$0_nL-3;
#X obj 45 240 s \$0_init_l2;
#X msg 45 189 layer_number 2 \, layer_dims \$1 \$2 \, m \$3 \, activation \$4 \, leak \$5;
#X msg 402 123 symbol relu;
#X connect 0 0 4 2;
#X connect 1 0 4 4;
#X connect 2 0 5 0;
#X connect 2 1 6 0;
#X connect 2 2 0 0;
#X connect 2 3 9 0;
#X connect 2 4 1 0;
#X connect 3 0 2 0;
#X connect 4 0 8 0;
#X connect 5 0 4 0;
#X connect 6 0 4 1;
#X connect 8 0 7 0;
#X connect 9 0 4 3;
#X restore 20 586 pd init_layer_2;
#N canvas 463 854 689 326 init_layer_3 0;
#X obj 283 123 v \$0_m;
#X obj 522 123 v \$0_leak;
#X obj 45 60 t b b b b b, f 60;
#X obj 45 27 r \$0_init;
#X obj 45 156 pack f f f s f, f 60;
#X obj 45 123 v \$0_nL-3;
#X obj 164 123 v \$0_nL-4;
#X msg 45 189 layer_number 3 \, layer_dims \$1 \$2 \, m \$3 \, activation \$4 \, leak \$5;
#X obj 45 240 s \$0_init_l3;
#X msg 401 123 symbol relu;
#X connect 0 0 4 2;
#X connect 1 0 4 4;
#X connect 2 0 5 0;
#X connect 2 1 6 0;
#X connect 2 2 0 0;
#X connect 2 3 9 0;
#X connect 2 4 1 0;
#X connect 3 0 2 0;
#X connect 4 0 7 0;
#X connect 5 0 4 0;
#X connect 6 0 4 1;
#X connect 7 0 8 0;
#X connect 9 0 4 3;
#X restore 20 556 pd init_layer_3;
#N canvas 455 819 689 326 init_layer_4 0;
#X obj 283 123 v \$0_m;
#X obj 522 123 v \$0_leak;
#X obj 45 60 t b b b b b, f 60;
#X obj 45 27 r \$0_init;
#X obj 45 156 pack f f f s f, f 60;
#X obj 45 123 v \$0_nL-4;
#X obj 45 240 s \$0_init_l4;
#X obj 164 123 v \$0_nL-5;
#X msg 45 189 layer_number 4 \, layer_dims \$1 \$2 \, m \$3 \, activation \$4 \, leak \$5;
#X msg 402 123 symbol relu;
#X connect 0 0 4 2;
#X connect 1 0 4 4;
#X connect 2 0 5 0;
#X connect 2 1 7 0;
#X connect 2 2 0 0;
#X connect 2 3 9 0;
#X connect 2 4 1 0;
#X connect 3 0 2 0;
#X connect 4 0 8 0;
#X connect 5 0 4 0;
#X connect 7 0 4 1;
#X connect 8 0 6 0;
#X connect 9 0 4 3;
#X restore 20 526 pd init_layer_4;
#N canvas 667 685 689 326 init_d_layer_2 0;
#X obj 283 123 v \$0_m;
#X obj 522 123 v \$0_leak;
#X obj 45 60 t b b b b b, f 60;
#X obj 45 27 r \$0_init;
#X obj 45 156 pack f f f s f, f 60;
#X obj 45 240 s \$0_init_d_l2;
#X msg 45 187 layer_number 2 \, layer_dims \$1 \$2 \, m \$3 \, activation \$4 \, leak \$5;
#X obj 45 123 v \$0_nL-2;
#X obj 164 123 v \$0_nL-3;
#X msg 402 124 symbol relu;
#X connect 0 0 4 2;
#X connect 1 0 4 4;
#X connect 2 0 7 0;
#X connect 2 1 8 0;
#X connect 2 2 0 0;
#X connect 2 3 9 0;
#X connect 2 4 1 0;
#X connect 3 0 2 0;
#X connect 4 0 6 0;
#X connect 6 0 5 0;
#X connect 7 0 4 0;
#X connect 8 0 4 1;
#X connect 9 0 4 3;
#X restore 20 792 pd init_d_layer_2;
#N canvas 614 900 689 326 init_d_layer_3 0;
#X obj 283 123 v \$0_m;
#X obj 522 123 v \$0_leak;
#X obj 45 60 t b b b b b, f 60;
#X obj 45 27 r \$0_init;
#X obj 45 156 pack f f f s f, f 60;
#X obj 45 123 v \$0_nL-3;
#X obj 164 123 v \$0_nL-4;
#X msg 45 187 layer_number 3 \, layer_dims \$1 \$2 \, m \$3 \, activation \$4 \, leak \$5;
#X obj 45 240 s \$0_init_d_l3;
#X msg 403 123 symbol relu;
#X connect 0 0 4 2;
#X connect 1 0 4 4;
#X connect 2 0 5 0;
#X connect 2 1 6 0;
#X connect 2 2 0 0;
#X connect 2 3 9 0;
#X connect 2 4 1 0;
#X connect 3 0 2 0;
#X connect 4 0 7 0;
#X connect 5 0 4 0;
#X connect 6 0 4 1;
#X connect 7 0 8 0;
#X connect 9 0 4 3;
#X restore 20 822 pd init_d_layer_3;
#N canvas 572 1076 689 326 init_d_layer_4 0;
#X obj 283 123 v \$0_m;
#X obj 522 123 v \$0_leak;
#X obj 45 60 t b b b b b, f 60;
#X obj 45 27 r \$0_init;
#X obj 45 156 pack f f f s f, f 60;
#X obj 45 123 v \$0_nL-4;
#X obj 45 240 s \$0_init_d_l4;
#X msg 45 187 layer_number 4 \, layer_dims \$1 \$2 \, m \$3 \, activation \$4 \, leak \$5;
#X obj 164 123 v \$0_nL-5;
#X msg 402 123 symbol relu;
#X connect 0 0 4 2;
#X connect 1 0 4 4;
#X connect 2 0 5 0;
#X connect 2 1 8 0;
#X connect 2 2 0 0;
#X connect 2 3 9 0;
#X connect 2 4 1 0;
#X connect 3 0 2 0;
#X connect 4 0 7 0;
#X connect 5 0 4 0;
#X connect 7 0 6 0;
#X connect 8 0 4 1;
#X connect 9 0 4 3;
#X restore 20 852 pd init_d_layer_4;
#N canvas 616 243 689 326 init_u_layer_1 0;
#X obj 45 27 r \$0_init;
#X obj 45 210 s \$0_init_u_l1;
#X obj 45 93 v \$0_nL-1;
#X obj 522 93 v \$0_nL-2;
#X msg 45 159 layer_number 1 \, layer_dims \$1 \$2;
#X obj 45 126 pack f f, f 60;
#X obj 45 60 t b b, f 60;
#X connect 0 0 6 0;
#X connect 2 0 5 0;
#X connect 3 0 5 1;
#X connect 4 0 1 0;
#X connect 5 0 4 0;
#X connect 6 0 2 0;
#X connect 6 1 3 0;
#X restore 20 975 pd init_u_layer_1;
#N canvas 636 607 689 326 init_u_layer_2 0;
#X obj 45 27 r \$0_init;
#X obj 45 93 v \$0_nL-2;
#X obj 522 93 v \$0_nL-3;
#X obj 45 210 s \$0_init_u_l2;
#X obj 45 60 t b b, f 60;
#X obj 45 126 pack f f, f 60;
#X msg 45 159 layer_number 2 \, layer_dims \$1 \$2;
#X connect 0 0 4 0;
#X connect 1 0 5 0;
#X connect 2 0 5 1;
#X connect 4 0 1 0;
#X connect 4 1 2 0;
#X connect 5 0 6 0;
#X connect 6 0 3 0;
#X restore 20 1005 pd init_u_layer_2;
#N canvas 699 594 689 326 init_u_layer_3 0;
#X obj 45 27 r \$0_init;
#X obj 45 93 v \$0_nL-3;
#X obj 522 93 v \$0_nL-4;
#X obj 44 210 s \$0_init_u_l3;
#X msg 44 159 layer_number 3 \, layer_dims \$1 \$2;
#X obj 45 126 pack f f, f 60;
#X obj 45 60 t b b, f 60;
#X connect 0 0 6 0;
#X connect 1 0 5 0;
#X connect 2 0 5 1;
#X connect 4 0 3 0;
#X connect 5 0 4 0;
#X connect 6 0 1 0;
#X connect 6 1 2 0;
#X restore 20 1035 pd init_u_layer_3;
#N canvas 663 715 689 326 init_u_layer_4 0;
#X obj 45 27 r \$0_init;
#X obj 45 93 v \$0_nL-4;
#X obj 45 210 s \$0_init_u_l4;
#X msg 45 159 layer_number 4 \, layer_dims \$1 \$2;
#X obj 522 93 v \$0_nL-5;
#X obj 45 60 t b b, f 60;
#X obj 45 126 pack f f, f 60;
#X connect 0 0 5 0;
#X connect 1 0 6 0;
#X connect 3 0 2 0;
#X connect 4 0 6 1;
#X connect 5 0 1 0;
#X connect 5 1 4 0;
#X connect 6 0 3 0;
#X restore 20 1065 pd init_u_layer_4;
#N canvas 714 977 689 326 init_layer_1 0;
#X obj 283 123 v \$0_m;
#X obj 522 123 v \$0_leak;
#X obj 45 60 t b b b b b, f 60;
#X obj 45 27 r \$0_init;
#X obj 45 156 pack f f f s f, f 60;
#X msg 45 189 layer_number 1 \, layer_dims \$1 \$2 \, m \$3 \, activation \$4 \, leak \$5;
#X obj 45 123 v \$0_nL-1;
#X obj 164 123 v \$0_nL-2;
#X obj 45 240 s \$0_init_l1;
#X msg 402 123 symbol relu;
#X connect 0 0 4 2;
#X connect 1 0 4 4;
#X connect 2 0 6 0;
#X connect 2 1 7 0;
#X connect 2 2 0 0;
#X connect 2 3 9 0;
#X connect 2 4 1 0;
#X connect 3 0 2 0;
#X connect 4 0 5 0;
#X connect 5 0 8 0;
#X connect 6 0 4 0;
#X connect 7 0 4 1;
#X connect 9 0 4 3;
#X restore 20 619 pd init_layer_1;
#X obj 154 26 bng 40 250 50 0 \$0_init empty init 0 -12 0 16 #fcfcfc #000000 #000000;
#X obj 240 59 v \$0_leak;
#X obj 240 30 nbx 5 21 0 1 0 1 empty \$0_init leak 0 -12 0 16 #fcfcfc #000000 #000000 0.1 256;
#X obj 380 30 nbx 5 21 0.01 1 1 1 empty \$0_init alpha 0 -12 0 16 #fcfcfc #000000 #000000 0.1 256;
#N canvas 622 96 1198 1306 initialize_params 0;
#X obj 103 275 cml.initialize_layer_params;
#X obj 129 209 pack f f;
#X obj 129 176 v \$0_nL-0;
#X obj 219 176 v \$0_nL-1;
#X msg 103 25 bang;
#X obj 103 143 t b b b;
#X obj 103 440 cml.initialize_layer_params;
#X obj 129 374 pack f f;
#X obj 103 308 t b b b;
#X obj 129 341 v \$0_nL-1;
#X obj 103 605 cml.initialize_layer_params;
#X obj 129 539 pack f f;
#X obj 103 473 t b b b;
#X obj 129 506 v \$0_nL-2;
#X obj 103 770 cml.initialize_layer_params;
#X obj 129 704 pack f f;
#X obj 103 638 t b b b;
#X obj 129 671 v \$0_nL-3;
#X obj 103 935 cml.initialize_layer_params;
#X obj 129 869 pack f f;
#X obj 103 803 t b b b;
#X obj 129 836 v \$0_nL-4;
#X obj 103 1100 cml.initialize_layer_params;
#X obj 129 1034 pack f f;
#X obj 103 968 t b b b;
#X obj 129 1001 v \$0_nL-5;
#X obj 219 1001 v \$0_nx;
#X text 496 1029 // initial layer;
#X obj 103 53 t b b;
#X obj 763 176 v \$0_ns;
#X obj 11 6 inlet;
#X obj 219 341 v \$0_nL-2;
#X obj 219 506 v \$0_nL-3;
#X obj 219 671 v \$0_nL-4;
#X obj 219 836 v \$0_nL-5;
#X msg 129 902 layer_number 4 \, layer_dims \$1 \$2 \, scale 1;
#X msg 129 1067 layer_number 5 \, layer_dims \$1 \$2 \, scale 1;
#X msg 129 737 layer_number 3 \, layer_dims \$1 \$2 \, scale 1;
#X msg 129 572 layer_number 2 \, layer_dims \$1 \$2 \, scale 1;
#X msg 129 407 layer_number 1 \, layer_dims \$1 \$2 \, scale 1;
#X msg 129 242 layer_number 0 \, layer_dims \$1 \$2 \, scale 1;
#X connect 0 0 8 0;
#X connect 1 0 40 0;
#X connect 2 0 1 0;
#X connect 3 0 1 1;
#X connect 4 0 28 0;
#X connect 5 0 0 0;
#X connect 5 1 2 0;
#X connect 5 2 3 0;
#X connect 6 0 12 0;
#X connect 7 0 39 0;
#X connect 8 0 6 0;
#X connect 8 1 9 0;
#X connect 8 2 31 0;
#X connect 9 0 7 0;
#X connect 10 0 16 0;
#X connect 11 0 38 0;
#X connect 12 0 10 0;
#X connect 12 1 13 0;
#X connect 12 2 32 0;
#X connect 13 0 11 0;
#X connect 14 0 20 0;
#X connect 15 0 37 0;
#X connect 16 0 14 0;
#X connect 16 1 17 0;
#X connect 16 2 33 0;
#X connect 17 0 15 0;
#X connect 18 0 24 0;
#X connect 19 0 35 0;
#X connect 20 0 18 0;
#X connect 20 1 21 0;
#X connect 20 2 34 0;
#X connect 21 0 19 0;
#X connect 23 0 36 0;
#X connect 24 0 22 0;
#X connect 24 1 25 0;
#X connect 24 2 26 0;
#X connect 25 0 23 0;
#X connect 26 0 23 1;
#X connect 28 0 5 0;
#X connect 28 1 29 0;
#X connect 29 0 0 1;
#X connect 29 0 18 1;
#X connect 29 0 14 1;
#X connect 29 0 10 1;
#X connect 29 0 6 1;
#X connect 29 0 22 1;
#X connect 30 0 28 0;
#X connect 31 0 7 1;
#X connect 32 0 11 1;
#X connect 33 0 15 1;
#X connect 34 0 19 1;
#X connect 35 0 18 0;
#X connect 36 0 22 0;
#X connect 37 0 14 0;
#X connect 38 0 10 0;
#X connect 39 0 6 0;
#X connect 40 0 0 0;
#X restore 17 424 pd initialize_params;
#X msg 17 391 bang;
#X obj 490 30 nbx 5 21 0.01 1 1 1 empty \$0_init beta 0 -12 0 16 #fcfcfc #000000 #000000 0.9 256;
#X obj 490 59 s \$0_beta;
#X obj 380 59 s \$0_alpha;
#N canvas 729 998 689 326 init_layer_5 0;
#X obj 283 123 v \$0_m;
#X obj 522 123 v \$0_leak;
#X obj 45 60 t b b b b b, f 60;
#X obj 45 27 r \$0_init;
#X obj 45 156 pack f f f s f, f 60;
#X obj 45 123 v \$0_nL-5;
#X obj 164 123 v \$0_nx;
#X obj 45 240 s \$0_init_l5;
#X msg 45 189 layer_number 5 \, layer_dims \$1 \$2 \, m \$3 \, activation \$4 \, leak \$5 \, initial_layer 1;
#X msg 403 123 symbol relu;
#X connect 0 0 4 2;
#X connect 1 0 4 4;
#X connect 2 0 5 0;
#X connect 2 1 6 0;
#X connect 2 2 0 0;
#X connect 2 3 9 0;
#X connect 2 4 1 0;
#X connect 3 0 2 0;
#X connect 4 0 8 0;
#X connect 5 0 4 0;
#X connect 6 0 4 1;
#X connect 8 0 7 0;
#X connect 9 0 4 3;
#X restore 20 496 pd init_layer_5;
#N canvas 572 1076 689 326 init_d_layer_5 0;
#X obj 283 123 v \$0_m;
#X obj 522 123 v \$0_leak;
#X obj 45 60 t b b b b b, f 60;
#X obj 45 27 r \$0_init;
#X obj 45 156 pack f f f s f, f 60;
#X obj 45 240 s \$0_init_d_l5;
#X obj 45 123 v \$0_nL-5;
#X obj 164 123 v \$0_nx;
#X msg 45 187 layer_number 5 \, layer_dims \$1 \$2 \, m \$3 \, activation \$4 \, leak \$5 \, initial_layer 1;
#X msg 402 123 symbol relu;
#X connect 0 0 4 2;
#X connect 1 0 4 4;
#X connect 2 0 6 0;
#X connect 2 1 7 0;
#X connect 2 2 0 0;
#X connect 2 3 9 0;
#X connect 2 4 1 0;
#X connect 3 0 2 0;
#X connect 4 0 8 0;
#X connect 6 0 4 0;
#X connect 7 0 4 1;
#X connect 8 0 5 0;
#X connect 9 0 4 3;
#X restore 20 882 pd init_d_layer_5;
#N canvas 671 787 689 326 init_u_layer_5 0;
#X obj 45 27 r \$0_init;
#X obj 45 60 t b b, f 60;
#X obj 45 126 pack f f, f 60;
#X obj 45 93 v \$0_nL-5;
#X obj 522 93 v \$0_nx;
#X msg 45 159 layer_number 5 \, layer_dims \$1 \$2;
#X obj 45 210 s \$0_init_u_l5;
#X connect 0 0 1 0;
#X connect 1 0 3 0;
#X connect 1 1 4 0;
#X connect 2 0 5 0;
#X connect 3 0 2 0;
#X connect 4 0 2 1;
#X connect 5 0 6 0;
#X restore 20 1095 pd init_u_layer_5;
#X obj 1228 660 cml.layer_forward;
#X obj 1361 632 v \$0_ns;
#X obj 1246 600 t a b, f 12;
#X obj 1228 781 cml.layer_forward;
#X obj 1361 753 v \$0_ns;
#X obj 1246 721 t a b, f 12;
#X obj 1246 693 r \$0_init_l0;
#X obj 1228 410 cml.layer_forward;
#X obj 1361 382 v \$0_ns;
#X obj 1246 350 t a b, f 12;
#X obj 1228 531 cml.layer_forward;
#X obj 1361 503 v \$0_ns;
#X obj 1246 471 t a b, f 12;
#X obj 1246 443 r \$0_init_l2;
#X obj 1246 322 r \$0_init_l3;
#X obj 1228 290 cml.layer_forward;
#X obj 1361 262 v \$0_ns;
#X obj 1246 230 t a b, f 12;
#X obj 1246 202 r \$0_init_l4;
#X obj 1228 907 f;
#X obj 1228 935 t f f;
#X obj 1295 935 + 1;
#X msg 1249 879 0;
#X obj 1249 818 r \$0_init;
#X obj 1249 846 t b b, f 11;
#X obj 1334 879 v \$0_m;
#X obj 1313 1055 sel;
#X obj 1313 1093 s \$0_backprop;
#X obj 1334 907 t f f, f 6;
#X obj 1313 990 mod;
#X obj 1379 945 - 1;
#X obj 1350 1051 s \$0_m_i;
#X obj 1313 1018 t f f;
#X obj 1226 15 tgl 23 0 empty empty empty 0 -12 0 16 #fcfcfc #000000 #000000 0 1;
#X obj 1246 572 r \$0_init_l1;
#X obj 490 419 /;
#X obj 607 353 r \$0_init;
#X obj 607 381 v \$0_m;
#X floatatom 531 419 5 0 0 0 - - - 0;
#X obj 490 455 * 1;
#X obj 490 516 * 1;
#X floatatom 533 516 5 0 0 0 - - - 0;
#X obj 490 482 sin;
#X floatatom 532 456 5 0 0 0 - - - 0;
#X obj 490 382 mod 8;
#X floatatom 549 382 5 0 0 0 - - - 0;
#X obj 1228 48 metro 87;
#X obj 1228 169 cml.layer_forward;
#X obj 1361 141 v \$0_ns;
#X obj 1246 109 t a b, f 12;
#X obj 1246 81 r \$0_init_l5;
#X obj 490 262 r \$0_m_i;
#X obj 1499 297 cml.layer_backward;
#X obj 1513 78 r \$0_init_outer_dz;
#X obj 1499 167 cml.outer_dz;
#X obj 1513 106 t a b;
#X obj 1592 139 v \$0_ns;
#X obj 1509 200 r \$0_init_d_l0;
#X obj 1640 264 v \$0_ns;
#X obj 1509 228 t a b;
#X obj 1979 176 cml.update_layer_params;
#X obj 1989 78 r \$0_init_u_l0;
#X obj 2160 142 v \$0_ns;
#X obj 1989 106 t a b;
#X obj 1499 45 r \$0_backprop;
#X obj 1499 427 cml.layer_backward;
#X obj 1640 394 v \$0_ns;
#X obj 1509 358 t a b;
#X obj 1509 330 r \$0_init_d_l1;
#X obj 1499 557 cml.layer_backward;
#X obj 1640 524 v \$0_ns;
#X obj 1509 488 t a b;
#X obj 1509 460 r \$0_init_d_l2;
#X obj 1499 687 cml.layer_backward;
#X obj 1640 654 v \$0_ns;
#X obj 1509 618 t a b;
#X obj 1509 590 r \$0_init_d_l3;
#X obj 1499 817 cml.layer_backward;
#X obj 1640 784 v \$0_ns;
#X obj 1509 748 t a b;
#X obj 1509 720 r \$0_init_d_l4;
#X obj 1979 307 cml.update_layer_params;
#X obj 2160 273 v \$0_ns;
#X obj 1989 237 t a b;
#X obj 1989 209 r \$0_init_u_l1;
#X obj 1979 438 cml.update_layer_params;
#X obj 2160 404 v \$0_ns;
#X obj 1989 368 t a b;
#X obj 1989 340 r \$0_init_u_l2;
#X obj 1979 569 cml.update_layer_params;
#X obj 2160 535 v \$0_ns;
#X obj 1989 499 t a b;
#X obj 1989 471 r \$0_init_u_l3;
#X obj 1979 700 cml.update_layer_params;
#X obj 2160 666 v \$0_ns;
#X obj 1989 630 t a b;
#X obj 1989 602 r \$0_init_u_l4;
#X obj 1499 980 s \$0_update_params;
#X obj 1979 45 r \$0_update_params;
#X obj 1499 947 cml.layer_backward;
#X obj 1640 914 v \$0_ns;
#X obj 1509 878 t a b;
#X obj 1509 850 r \$0_init_d_l5;
#X obj 1979 831 cml.update_layer_params;
#X obj 2160 797 v \$0_ns;
#X obj 1989 761 t a b;
#X obj 1989 733 r \$0_init_u_l5;
#X obj 1878 146 r \$0_beta;
#X msg 1878 174 beta \$1;
#X obj 616 45 nbx 5 21 -1e+37 1e+37 0 0 empty \$0_init empty 0 -12 0 16 #fcfcfc #000000 #000000 0 256;
#X obj 616 71 s \$0_momentum;
#X msg 616 14 0;
#X msg 665 15 1;
#X obj 1858 45 r \$0_momentum;
#X msg 1858 73 momentum \$1;
#X obj 2258 45 r \$0_momentum;
#X msg 2258 73 momentum \$1;
#X obj 2278 146 r \$0_alpha;
#X msg 2278 174 alpha \$1;
#X obj 17 134 t b b b b b b b b b b b, f 133;
#X msg 653 188 8;
#X msg 759 188 8;
#X msg 865 188 16;
#X msg 971 188 32;
#X msg 547 188 8;
#X obj 908 1222 array set \$0_X, f 31;
#X obj 493 562 array set \$0_Y;
#X msg 123 188 16;
#X obj 490 297 t f f, f 27;
#X obj 916 1023 t f f, f 7;
#X obj 916 1149 * 360;
#X obj 916 1177 sin;
#X obj 975 1152 nbx 5 21 -1e+37 1e+37 0 0 empty empty empty 0 -12 0 16 #fcfcfc #000000 #000000 0 256;
#X obj 864 1083 * 2;
#X obj 864 1111 - 1;
#X floatatom 1068 1081 5 0 0 0 - - - 0;
#X obj 819 650 netsend;
#X msg 229 188 16;
#X obj 916 995 mod 256;
#X obj 916 1051 / 255;
#X connect 0 0 1 0;
#X connect 1 0 174 0;
#X connect 1 1 2 0;
#X connect 2 0 3 0;
#X connect 6 0 7 0;
#X connect 8 0 9 0;
#X connect 16 0 15 0;
#X connect 18 0 17 1;
#X connect 22 0 21 1;
#X connect 23 0 21 0;
#X connect 24 0 21 2;
#X connect 26 0 25 0;
#X connect 45 0 44 0;
#X connect 46 0 51 0;
#X connect 48 0 47 0;
#X connect 49 0 50 0;
#X connect 55 0 58 0;
#X connect 56 0 55 1;
#X connect 57 0 55 0;
#X connect 57 1 56 0;
#X connect 58 0 74 0;
#X connect 59 0 58 1;
#X connect 60 0 58 0;
#X connect 60 1 59 0;
#X connect 61 0 60 0;
#X connect 62 0 65 0;
#X connect 63 0 62 1;
#X connect 64 0 62 0;
#X connect 64 1 63 0;
#X connect 65 0 55 0;
#X connect 66 0 65 1;
#X connect 67 0 65 0;
#X connect 67 1 66 0;
#X connect 68 0 67 0;
#X connect 69 0 64 0;
#X connect 70 0 62 0;
#X connect 71 0 70 1;
#X connect 72 0 70 0;
#X connect 72 1 71 0;
#X connect 73 0 72 0;
#X connect 74 0 75 0;
#X connect 75 0 84 0;
#X connect 75 0 193 0;
#X connect 75 1 76 0;
#X connect 76 0 74 1;
#X connect 77 0 74 1;
#X connect 78 0 79 0;
#X connect 79 0 77 0;
#X connect 79 1 80 0;
#X connect 80 0 83 0;
#X connect 81 0 82 0;
#X connect 83 0 84 1;
#X connect 83 1 85 0;
#X connect 84 0 87 0;
#X connect 85 0 81 1;
#X connect 87 0 81 0;
#X connect 87 1 86 0;
#X connect 88 0 101 0;
#X connect 89 0 57 0;
#X connect 90 0 94 0;
#X connect 90 0 188 1;
#X connect 91 0 92 0;
#X connect 92 0 90 1;
#X connect 93 0 90 1;
#X connect 94 0 97 0;
#X connect 95 0 181 0;
#X connect 96 0 95 1;
#X connect 97 0 95 0;
#X connect 98 0 94 1;
#X connect 99 0 90 0;
#X connect 100 0 99 1;
#X connect 101 0 102 0;
#X connect 102 0 70 0;
#X connect 103 0 102 1;
#X connect 104 0 102 0;
#X connect 104 1 103 0;
#X connect 105 0 104 0;
#X connect 106 0 183 0;
#X connect 107 0 120 0;
#X connect 108 0 110 0;
#X connect 109 0 107 0;
#X connect 110 0 109 0;
#X connect 110 1 111 0;
#X connect 111 0 109 1;
#X connect 112 0 114 0;
#X connect 113 0 107 1;
#X connect 114 0 107 0;
#X connect 114 1 113 0;
#X connect 115 0 136 0;
#X connect 116 0 118 0;
#X connect 117 0 115 1;
#X connect 118 0 115 0;
#X connect 118 1 117 0;
#X connect 119 0 109 0;
#X connect 120 0 124 0;
#X connect 121 0 120 1;
#X connect 122 0 120 0;
#X connect 122 1 121 0;
#X connect 123 0 122 0;
#X connect 124 0 128 0;
#X connect 125 0 124 1;
#X connect 126 0 124 0;
#X connect 126 1 125 0;
#X connect 127 0 126 0;
#X connect 128 0 132 0;
#X connect 129 0 128 1;
#X connect 130 0 128 0;
#X connect 130 1 129 0;
#X connect 131 0 130 0;
#X connect 132 0 154 0;
#X connect 133 0 132 1;
#X connect 134 0 132 0;
#X connect 134 1 133 0;
#X connect 135 0 134 0;
#X connect 136 0 140 0;
#X connect 137 0 136 1;
#X connect 138 0 136 0;
#X connect 138 1 137 0;
#X connect 139 0 138 0;
#X connect 140 0 144 0;
#X connect 141 0 140 1;
#X connect 142 0 140 0;
#X connect 142 1 141 0;
#X connect 143 0 142 0;
#X connect 144 0 148 0;
#X connect 145 0 144 1;
#X connect 146 0 144 0;
#X connect 146 1 145 0;
#X connect 147 0 146 0;
#X connect 148 0 158 0;
#X connect 149 0 148 1;
#X connect 150 0 148 0;
#X connect 150 1 149 0;
#X connect 151 0 150 0;
#X connect 153 0 115 0;
#X connect 154 0 152 0;
#X connect 155 0 154 1;
#X connect 156 0 154 0;
#X connect 156 1 155 0;
#X connect 157 0 156 0;
#X connect 159 0 158 1;
#X connect 160 0 158 0;
#X connect 160 1 159 0;
#X connect 161 0 160 0;
#X connect 162 0 163 0;
#X connect 163 0 107 0;
#X connect 163 0 154 0;
#X connect 163 0 132 0;
#X connect 163 0 128 0;
#X connect 163 0 124 0;
#X connect 163 0 120 0;
#X connect 164 0 165 0;
#X connect 166 0 164 0;
#X connect 167 0 164 0;
#X connect 168 0 169 0;
#X connect 169 0 107 0;
#X connect 169 0 154 0;
#X connect 169 0 132 0;
#X connect 169 0 128 0;
#X connect 169 0 124 0;
#X connect 169 0 120 0;
#X connect 170 0 171 0;
#X connect 171 0 115 0;
#X connect 171 0 158 0;
#X connect 171 0 148 0;
#X connect 171 0 144 0;
#X connect 171 0 140 0;
#X connect 171 0 136 0;
#X connect 172 0 173 0;
#X connect 173 0 115 0;
#X connect 173 0 158 0;
#X connect 173 0 148 0;
#X connect 173 0 144 0;
#X connect 173 0 140 0;
#X connect 173 0 136 0;
#X connect 174 0 17 0;
#X connect 174 1 182 0;
#X connect 174 2 192 0;
#X connect 174 3 6 0;
#X connect 174 4 8 0;
#X connect 174 5 179 0;
#X connect 174 6 175 0;
#X connect 174 7 176 0;
#X connect 174 8 177 0;
#X connect 174 9 178 0;
#X connect 174 10 16 0;
#X connect 175 0 11 0;
#X connect 176 0 12 0;
#X connect 177 0 13 0;
#X connect 178 0 14 0;
#X connect 179 0 10 0;
#X connect 182 0 4 0;
#X connect 183 0 99 0;
#X connect 183 1 181 1;
#X connect 184 0 194 0;
#X connect 184 1 180 1;
#X connect 185 0 186 0;
#X connect 186 0 180 0;
#X connect 187 0 185 1;
#X connect 188 0 189 0;
#X connect 192 0 5 0;
#X connect 193 0 184 0;
#X connect 194 0 185 0;
