#N canvas 236 108 1379 1294 16;
#X msg 57 19 bang;
#X obj 125 112 v \$0_m;
#X obj 205 112 v \$0_nx;
#N canvas 1591 223 1081 683 arrays 0;
#X obj 27 331 array define \$0_X;
#X msg 27 300 resize \$1;
#X obj 27 269 *;
#X obj 27 233 v \$0_m;
#X obj 97 233 v \$0_nx;
#X obj 27 195 t b b;
#X obj 27 163 r \$0_size_arrays;
#X msg 217 300 resize \$1;
#X obj 217 269 *;
#X obj 307 233 v \$0_nx;
#X obj 217 195 t b b;
#X obj 217 163 r \$0_size_arrays;
#X obj 217 331 array define \$0_WL-0;
#X obj 217 233 v \$0_nL-0;
#X msg 587 300 resize \$1;
#X obj 587 195 t b b;
#X obj 587 163 r \$0_size_arrays;
#X obj 587 331 array define \$0_bL-0;
#X obj 587 233 v \$0_nL-0;
#X obj 61 36 inlet;
#X obj 61 64 s \$0_size_arrays;
#X msg 47 570 resize \$1;
#X obj 47 539 *;
#X obj 47 465 t b b;
#X obj 47 433 r \$0_size_arrays;
#X obj 47 503 v \$0_nL-0;
#X obj 137 503 v \$0_m;
#X obj 47 601 array define \$0_ZL-0;
#X msg 527 570 resize \$1;
#X obj 527 539 *;
#X obj 527 465 t b b;
#X obj 527 433 r \$0_size_arrays;
#X obj 527 503 v \$0_nL-0;
#X obj 617 503 v \$0_m;
#X obj 527 601 array define \$0_AL-0;
#X msg 14 405 const 0;
#X msg 397 300 resize \$1;
#X obj 397 269 *;
#X obj 487 233 v \$0_nx;
#X obj 397 195 t b b;
#X obj 397 163 r \$0_size_arrays;
#X obj 397 233 v \$0_nL-0;
#X obj 397 331 array define \$0_dWL-0;
#X msg 267 570 resize \$1;
#X obj 267 539 *;
#X obj 267 465 t b b;
#X obj 267 433 r \$0_size_arrays;
#X obj 267 503 v \$0_nL-0;
#X obj 357 503 v \$0_m;
#X obj 267 601 array define \$0_dZL-0;
#X msg 787 300 resize \$1;
#X obj 787 195 t b b;
#X obj 787 163 r \$0_size_arrays;
#X obj 787 233 v \$0_nL-0;
#X obj 787 331 array define \$0_dbL-0;
#X msg 757 570 resize \$1;
#X obj 757 539 *;
#X obj 757 465 t b b;
#X obj 757 433 r \$0_size_arrays;
#X obj 757 503 v \$0_nL-0;
#X obj 847 503 v \$0_m;
#X obj 757 601 array define \$0_dAL-0;
#X connect 1 0 0 0;
#X connect 2 0 1 0;
#X connect 3 0 2 0;
#X connect 4 0 2 1;
#X connect 5 0 3 0;
#X connect 5 1 4 0;
#X connect 6 0 5 0;
#X connect 7 0 12 0;
#X connect 8 0 7 0;
#X connect 9 0 8 1;
#X connect 10 0 13 0;
#X connect 10 1 9 0;
#X connect 11 0 10 0;
#X connect 13 0 8 0;
#X connect 14 0 17 0;
#X connect 15 0 18 0;
#X connect 16 0 15 0;
#X connect 18 0 14 0;
#X connect 19 0 20 0;
#X connect 21 0 27 0;
#X connect 22 0 21 0;
#X connect 23 0 25 0;
#X connect 23 1 26 0;
#X connect 24 0 23 0;
#X connect 25 0 22 0;
#X connect 26 0 22 1;
#X connect 28 0 34 0;
#X connect 29 0 28 0;
#X connect 30 0 32 0;
#X connect 30 1 33 0;
#X connect 31 0 30 0;
#X connect 32 0 29 0;
#X connect 33 0 29 1;
#X connect 35 0 27 0;
#X connect 36 0 42 0;
#X connect 37 0 36 0;
#X connect 38 0 37 1;
#X connect 39 0 41 0;
#X connect 39 1 38 0;
#X connect 40 0 39 0;
#X connect 41 0 37 0;
#X connect 43 0 49 0;
#X connect 44 0 43 0;
#X connect 45 0 47 0;
#X connect 45 1 48 0;
#X connect 46 0 45 0;
#X connect 47 0 44 0;
#X connect 48 0 44 1;
#X connect 50 0 54 0;
#X connect 51 0 53 0;
#X connect 52 0 51 0;
#X connect 53 0 50 0;
#X connect 55 0 61 0;
#X connect 56 0 55 0;
#X connect 57 0 59 0;
#X connect 57 1 60 0;
#X connect 58 0 57 0;
#X connect 59 0 56 0;
#X connect 60 0 56 1;
#X restore 57 191 pd arrays;
#X obj 305 112 v \$0_nL-0;
#X obj 57 47 t b b b b b, f 44;
#X obj 403 90 f \$0;
#X obj 403 118 v \$0_ns;
#X obj 322 522 cml.d0;
#X obj 369 486 v \$0_ns;
#X msg 310 487 X;
#X obj 253 572 array set;
#X obj 62 443 t b b b, f 38;
#X msg 62 408 bang;
#X obj 798 512 cml.d0;
#X obj 845 476 v \$0_ns;
#X obj 729 562 array set;
#X obj 538 433 t b b b, f 38;
#X msg 538 398 bang;
#X obj 1208 512 cml.d0;
#X obj 1255 476 v \$0_ns;
#X obj 1139 562 array set;
#X obj 948 433 t b b b, f 38;
#X msg 948 398 bang;
#X obj 135 731 print;
#X obj 135 669 bng 23 250 50 0 empty empty empty 0 -12 0 16 #fcfcfc #000000 #000000;
#X obj 806 164 v \$0_ns;
#X obj 673 58 t b b b;
#X msg 673 23 bang;
#X obj 150 1079 cml.dot_product, f 126;
#X obj 1150 1032 cml.d0;
#X obj 1197 996 v \$0_ns;
#X obj 1135 960 t b b;
#X msg 1139 997 ZL-0;
#X obj 990 1032 cml.d0;
#X obj 1037 996 v \$0_ns;
#X obj 975 960 t b b;
#X msg 980 997 X;
#X obj 820 1032 cml.d0;
#X obj 867 996 v \$0_ns;
#X obj 805 960 t b b;
#X msg 810 997 WL-0;
#X obj 325 1012 v \$0_nL-0;
#X obj 485 1012 v \$0_m;
#X obj 655 1013 v \$0_nx;
#X obj 144 918 t b b b b b b b, f 123;
#X obj 134 879 bng 23 250 50 0 empty empty empty 0 -12 0 16 #fcfcfc #000000 #000000;
#X msg 948 477 3 4;
#X msg 125 84 4;
#X msg 62 488 2 3 4 5;
#X msg 786 477 dZL-0;
#X msg 538 478 1 2 3 4 5 6 7 8;
#X msg 1196 477 WL-0;
#X obj 135 703 array get \$0_dWL-0;
#X obj 673 198 cml.layer_backward;
#X msg 697 94 layer_number 0 \, layer_dims 2 1 \, m 4 \, initial_layer 1 \, skip_dz 1 \, activation tanh;
#X msg 205 84 2;
#X msg 305 84 3;
#X connect 0 0 5 0;
#X connect 5 0 3 0;
#X connect 5 1 48 0;
#X connect 5 2 56 0;
#X connect 5 3 57 0;
#X connect 5 4 6 0;
#X connect 6 0 7 0;
#X connect 8 0 11 2;
#X connect 9 0 8 1;
#X connect 10 0 8 0;
#X connect 12 0 49 0;
#X connect 12 1 10 0;
#X connect 12 2 9 0;
#X connect 13 0 12 0;
#X connect 14 0 16 2;
#X connect 15 0 14 1;
#X connect 17 0 51 0;
#X connect 17 1 50 0;
#X connect 17 2 15 0;
#X connect 18 0 17 0;
#X connect 19 0 21 2;
#X connect 20 0 19 1;
#X connect 22 0 47 0;
#X connect 22 1 52 0;
#X connect 22 2 20 0;
#X connect 23 0 22 0;
#X connect 25 0 53 0;
#X connect 26 0 54 1;
#X connect 27 0 54 0;
#X connect 27 1 55 0;
#X connect 27 2 26 0;
#X connect 28 0 27 0;
#X connect 30 0 29 6;
#X connect 31 0 30 1;
#X connect 32 0 33 0;
#X connect 32 1 31 0;
#X connect 33 0 30 0;
#X connect 34 0 29 5;
#X connect 35 0 34 1;
#X connect 36 0 37 0;
#X connect 36 1 35 0;
#X connect 37 0 34 0;
#X connect 38 0 29 4;
#X connect 39 0 38 1;
#X connect 40 0 41 0;
#X connect 40 1 39 0;
#X connect 41 0 38 0;
#X connect 42 0 29 1;
#X connect 43 0 29 2;
#X connect 44 0 29 3;
#X connect 45 0 29 0;
#X connect 45 1 42 0;
#X connect 45 2 43 0;
#X connect 45 3 44 0;
#X connect 45 4 40 0;
#X connect 45 5 36 0;
#X connect 45 6 32 0;
#X connect 46 0 45 0;
#X connect 47 0 21 0;
#X connect 48 0 1 0;
#X connect 49 0 11 0;
#X connect 50 0 14 0;
#X connect 51 0 16 0;
#X connect 52 0 19 0;
#X connect 53 0 24 0;
#X connect 55 0 54 0;
#X connect 56 0 2 0;
#X connect 57 0 4 0;
