#N canvas 153 137 1379 1294 16;
#X msg 57 19 bang;
#X msg 125 84 4;
#X obj 125 112 v \$0_m;
#X msg 205 84 3;
#X obj 205 112 v \$0_nx;
#N canvas 1587 187 804 673 arrays 0;
#X obj 27 371 array define \$0_X;
#X msg 27 340 resize \$1;
#X obj 27 309 *;
#X obj 27 273 v \$0_m;
#X obj 97 273 v \$0_nx;
#X obj 27 235 t b b;
#X obj 27 203 r \$0_size_arrays;
#X msg 217 340 resize \$1;
#X obj 217 309 *;
#X obj 307 273 v \$0_nx;
#X obj 217 235 t b b;
#X obj 217 203 r \$0_size_arrays;
#X obj 217 371 array define \$0_WL-0;
#X obj 217 273 v \$0_nL-0;
#X msg 437 340 resize \$1;
#X obj 437 235 t b b;
#X obj 437 203 r \$0_size_arrays;
#X obj 437 371 array define \$0_bL-0;
#X obj 437 273 v \$0_nL-0;
#X obj 61 36 inlet;
#X obj 61 64 s \$0_size_arrays;
#X msg 47 570 resize \$1;
#X obj 47 539 *;
#X obj 47 465 t b b;
#X obj 47 433 r \$0_size_arrays;
#X obj 47 503 v \$0_nL-0;
#X obj 137 503 v \$0_m;
#X obj 47 601 array define \$0_ZL-0;
#X msg 267 570 resize \$1;
#X obj 267 539 *;
#X obj 267 465 t b b;
#X obj 267 433 r \$0_size_arrays;
#X obj 267 503 v \$0_nL-0;
#X obj 357 503 v \$0_m;
#X obj 267 601 array define \$0_AL-0;
#X msg 531 498 const 0;
#X connect 1 0 0 0;
#X connect 2 0 1 0;
#X connect 3 0 2 0;
#X connect 4 0 2 1;
#X connect 5 0 3 0;
#X connect 5 1 4 0;
#X connect 6 0 5 0;
#X connect 7 0 12 0;
#X connect 8 0 7 0;
#X connect 9 0 8 1;
#X connect 10 0 13 0;
#X connect 10 1 9 0;
#X connect 11 0 10 0;
#X connect 13 0 8 0;
#X connect 14 0 17 0;
#X connect 15 0 18 0;
#X connect 16 0 15 0;
#X connect 18 0 14 0;
#X connect 19 0 20 0;
#X connect 21 0 27 0;
#X connect 22 0 21 0;
#X connect 23 0 25 0;
#X connect 23 1 26 0;
#X connect 24 0 23 0;
#X connect 25 0 22 0;
#X connect 26 0 22 1;
#X connect 28 0 34 0;
#X connect 29 0 28 0;
#X connect 30 0 32 0;
#X connect 30 1 33 0;
#X connect 31 0 30 0;
#X connect 32 0 29 0;
#X connect 33 0 29 1;
#X connect 35 0 27 0;
#X restore 57 241 pd arrays;
#X obj 305 112 v \$0_nL-0;
#X obj 57 47 t b b b b b, f 44;
#X obj 403 90 f \$0;
#X obj 403 118 v \$0_ns;
#X msg 62 488 1 2 3 2 3 4 3 4 5 4 5 6;
#X obj 322 522 cml.d0;
#X obj 369 486 v \$0_ns;
#X msg 310 487 X;
#X obj 253 572 array set;
#X obj 62 443 t b b b, f 38;
#X msg 62 408 bang;
#X obj 798 512 cml.d0;
#X obj 845 476 v \$0_ns;
#X obj 729 562 array set;
#X obj 538 433 t b b b, f 38;
#X msg 538 398 bang;
#X msg 786 477 WL-0;
#X obj 1208 512 cml.d0;
#X obj 1255 476 v \$0_ns;
#X obj 1139 562 array set;
#X obj 948 433 t b b b, f 38;
#X msg 948 398 bang;
#X msg 1196 477 bL-0;
#X obj 135 731 print;
#X obj 135 669 bng 23 250 50 0 empty empty empty 0 -12 0 16 #fcfcfc #000000 #000000;
#X obj 673 198 cml.layer_forward;
#X obj 806 164 v \$0_ns;
#X obj 673 58 t b b b;
#X msg 673 23 bang;
#X obj 135 703 array get \$0_ZL-0;
#X obj 150 1079 cml.dot_product, f 126;
#X obj 1150 1032 cml.d0;
#X obj 1197 996 v \$0_ns;
#X obj 1135 960 t b b;
#X msg 1139 997 ZL-0;
#X obj 990 1032 cml.d0;
#X obj 1037 996 v \$0_ns;
#X obj 975 960 t b b;
#X msg 980 997 X;
#X obj 820 1032 cml.d0;
#X obj 867 996 v \$0_ns;
#X obj 805 960 t b b;
#X msg 810 997 WL-0;
#X obj 325 1012 v \$0_nL-0;
#X obj 485 1012 v \$0_m;
#X obj 655 1013 v \$0_nx;
#X obj 144 918 t b b b b b b b, f 123;
#X obj 134 879 bng 23 250 50 0 empty empty empty 0 -12 0 16 #fcfcfc #000000 #000000;
#X msg 305 84 2;
#X msg 538 478 1 2 3 2 3 4;
#X msg 948 478 2 3;
#X msg 697 94 layer_number 0 \, layer_dims 2 3 \, m 4 \, initial_layer 1 \, activation tanh;
#X connect 0 0 7 0;
#X connect 1 0 2 0;
#X connect 3 0 4 0;
#X connect 7 0 5 0;
#X connect 7 1 1 0;
#X connect 7 2 3 0;
#X connect 7 3 54 0;
#X connect 7 4 8 0;
#X connect 8 0 9 0;
#X connect 10 0 14 0;
#X connect 11 0 14 2;
#X connect 12 0 11 1;
#X connect 13 0 11 0;
#X connect 15 0 10 0;
#X connect 15 1 13 0;
#X connect 15 2 12 0;
#X connect 16 0 15 0;
#X connect 17 0 19 2;
#X connect 18 0 17 1;
#X connect 20 0 55 0;
#X connect 20 1 22 0;
#X connect 20 2 18 0;
#X connect 21 0 20 0;
#X connect 22 0 17 0;
#X connect 23 0 25 2;
#X connect 24 0 23 1;
#X connect 26 0 56 0;
#X connect 26 1 28 0;
#X connect 26 2 24 0;
#X connect 27 0 26 0;
#X connect 28 0 23 0;
#X connect 30 0 35 0;
#X connect 32 0 31 1;
#X connect 33 0 31 0;
#X connect 33 1 57 0;
#X connect 33 2 32 0;
#X connect 34 0 33 0;
#X connect 35 0 29 0;
#X connect 37 0 36 6;
#X connect 38 0 37 1;
#X connect 39 0 40 0;
#X connect 39 1 38 0;
#X connect 40 0 37 0;
#X connect 41 0 36 5;
#X connect 42 0 41 1;
#X connect 43 0 44 0;
#X connect 43 1 42 0;
#X connect 44 0 41 0;
#X connect 45 0 36 4;
#X connect 46 0 45 1;
#X connect 47 0 48 0;
#X connect 47 1 46 0;
#X connect 48 0 45 0;
#X connect 49 0 36 1;
#X connect 50 0 36 2;
#X connect 51 0 36 3;
#X connect 52 0 36 0;
#X connect 52 1 49 0;
#X connect 52 2 50 0;
#X connect 52 3 51 0;
#X connect 52 4 47 0;
#X connect 52 5 43 0;
#X connect 52 6 39 0;
#X connect 53 0 52 0;
#X connect 54 0 6 0;
#X connect 55 0 19 0;
#X connect 56 0 25 0;
#X connect 57 0 31 0;
