#N canvas 4 70 723 715 16;
#X obj 65 317 cml.outer_dz;
#X text 65 24 // J(w \, b) = 1/2m sum((y^(i) - y_hat^(i))^2);
#X obj 69 91 float \$0;
#X obj 69 119 v \$0_ns;
#X msg 69 63 bang;
#X obj 67 187 array define \$0_dZL-0;
#X obj 67 263 array set \$0_dZL-0;
#X obj 65 504 cml.mse;
#X obj 118 471 v \$0_ns;
#X obj 65 398 t b b b;
#X msg 65 365 bang;
#X obj 65 532 print;
#X msg 67 230 9 13 2 100 17;
#X msg 78 471 m 5;
#X text 179 319 // Normally used to calculate dZL-0;
#X text 60 575 // (9 * 9 + 13 * 13 + 2 * 2 + 100 * 100 + 17 * 17) / 10 = 1054.3 \;;
#X connect 2 0 3 0;
#X connect 4 0 2 0;
#X connect 7 0 11 0;
#X connect 8 0 7 1;
#X connect 9 0 7 0;
#X connect 9 1 13 0;
#X connect 9 2 8 0;
#X connect 10 0 9 0;
#X connect 12 0 6 0;
#X connect 13 0 7 0;
