#N canvas 4 70 3406 1332 16;
#X msg 37 29 bang;
#N canvas 4 100 3071 1302 arrays 0;
#X obj 61 36 inlet;
#X obj 61 64 s \$0_size_arrays;
#X msg 856 52 const 0;
#X msg 649 380 resize \$1;
#X obj 649 348 *;
#X obj 649 274 t b b;
#X obj 649 243 r \$0_size_arrays;
#X msg 879 326 resize \$1;
#X obj 879 260 r \$0_size_arrays;
#X msg 649 654 resize \$1;
#X obj 649 623 *;
#X obj 649 549 t b b;
#X obj 649 517 r \$0_size_arrays;
#X obj 739 587 v \$0_m;
#X obj 649 313 v \$0_nL-1;
#X obj 649 441 array define \$0_WL-1;
#X obj 686 474 array define \$0_dWL-1;
#X obj 879 293 v \$0_nL-1;
#X obj 879 441 array define \$0_bL-1;
#X obj 916 474 array define \$0_dbL-1;
#X obj 649 587 v \$0_nL-1;
#X obj 649 720 array define \$0_ZL-1;
#X obj 749 750 array define \$0_dZL-1;
#X obj 849 720 array define \$0_AL-1;
#X obj 950 750 array define \$0_dAL-1;
#X msg 61 380 resize \$1;
#X obj 61 348 *;
#X obj 61 274 t b b;
#X obj 61 243 r \$0_size_arrays;
#X msg 291 326 resize \$1;
#X obj 291 260 r \$0_size_arrays;
#X msg 51 654 resize \$1;
#X obj 51 623 *;
#X obj 51 549 t b b;
#X obj 51 517 r \$0_size_arrays;
#X obj 141 587 v \$0_m;
#X text 63 214 // output layer;
#X obj 61 313 v \$0_nL-0;
#X obj 151 313 v \$0_nL-1;
#X obj 61 441 array define \$0_WL-0;
#X obj 98 474 array define \$0_dWL-0;
#X obj 291 293 v \$0_nL-0;
#X obj 291 441 array define \$0_bL-0;
#X obj 328 474 array define \$0_dbL-0;
#X obj 51 587 v \$0_nL-0;
#X obj 51 720 array define \$0_ZL-0;
#X obj 151 750 array define \$0_dZL-0;
#X obj 251 720 array define \$0_AL-0;
#X obj 352 750 array define \$0_dAL-0;
#X obj 649 408 t a a;
#X obj 879 354 t a a;
#X obj 649 686 t a a a a, f 38;
#X obj 61 408 t a a;
#X obj 291 354 t a a;
#X obj 51 687 t a a a a, f 38;
#X obj 856 24 inlet zero_arrays;
#X obj 856 80 s \$0_zero_arrays;
#X obj 456 360 r \$0_zero_arrays;
#X obj 446 560 r \$0_zero_arrays;
#X obj 739 313 v \$0_nL-2;
#X obj 1026 360 r \$0_zero_arrays;
#X obj 1026 610 r \$0_zero_arrays;
#X msg 1239 380 resize \$1;
#X obj 1239 348 *;
#X obj 1239 274 t b b;
#X obj 1239 243 r \$0_size_arrays;
#X msg 1469 326 resize \$1;
#X obj 1469 260 r \$0_size_arrays;
#X msg 1239 654 resize \$1;
#X obj 1239 623 *;
#X obj 1239 549 t b b;
#X obj 1239 517 r \$0_size_arrays;
#X obj 1329 587 v \$0_m;
#X obj 1239 408 t a a;
#X obj 1469 354 t a a;
#X obj 1239 686 t a a a a, f 38;
#X obj 1616 360 r \$0_zero_arrays;
#X obj 1616 610 r \$0_zero_arrays;
#X obj 1239 313 v \$0_nL-2;
#X obj 1469 293 v \$0_nL-2;
#X obj 1239 441 array define \$0_WL-2;
#X obj 1276 474 array define \$0_dWL-2;
#X obj 1469 441 array define \$0_bL-2;
#X obj 1506 474 array define \$0_dbL-2;
#X obj 1239 587 v \$0_nL-2;
#X obj 1239 720 array define \$0_ZL-2;
#X obj 1339 750 array define \$0_dZL-2;
#X obj 1439 720 array define \$0_AL-2;
#X obj 1540 750 array define \$0_dAL-2;
#X msg 1789 380 resize \$1;
#X obj 1789 348 *;
#X obj 1789 274 t b b;
#X obj 1789 243 r \$0_size_arrays;
#X msg 2019 326 resize \$1;
#X obj 2019 260 r \$0_size_arrays;
#X msg 1789 654 resize \$1;
#X obj 1789 623 *;
#X obj 1789 549 t b b;
#X obj 1789 517 r \$0_size_arrays;
#X obj 1879 587 v \$0_m;
#X obj 1789 408 t a a;
#X obj 2019 354 t a a;
#X obj 1789 686 t a a a a, f 38;
#X obj 2166 360 r \$0_zero_arrays;
#X obj 2166 610 r \$0_zero_arrays;
#X obj 1329 313 v \$0_nL-3;
#X obj 1789 313 v \$0_nL-3;
#X obj 1879 313 v \$0_nL-4;
#X obj 2019 293 v \$0_nL-3;
#X obj 1789 441 array define \$0_WL-3;
#X obj 1826 474 array define \$0_dWL-3;
#X obj 2019 441 array define \$0_bL-3;
#X obj 2056 474 array define \$0_dbL-3;
#X obj 1789 587 v \$0_nL-3;
#X obj 1789 720 array define \$0_ZL-3;
#X obj 1989 720 array define \$0_AL-3;
#X obj 1889 750 array define \$0_dZL-3;
#X obj 2090 750 array define \$0_dAL-3;
#X msg 2339 380 resize \$1;
#X obj 2339 348 *;
#X obj 2339 274 t b b;
#X obj 2339 243 r \$0_size_arrays;
#X msg 2569 326 resize \$1;
#X obj 2569 260 r \$0_size_arrays;
#X msg 2339 654 resize \$1;
#X obj 2339 623 *;
#X obj 2339 549 t b b;
#X obj 2339 517 r \$0_size_arrays;
#X obj 2429 587 v \$0_m;
#X obj 2339 408 t a a;
#X obj 2569 354 t a a;
#X obj 2339 686 t a a a a, f 38;
#X obj 2716 360 r \$0_zero_arrays;
#X obj 2716 610 r \$0_zero_arrays;
#X text 2350 204 // initial layer;
#X obj 2339 313 v \$0_nL-4;
#X obj 2429 313 v \$0_nx;
#X obj 2569 293 v \$0_nL-4;
#X obj 2339 441 array define \$0_WL-4;
#X obj 2376 474 array define \$0_dWL-4;
#X obj 2569 441 array define \$0_bL-4;
#X obj 2606 474 array define \$0_dbL-4;
#X obj 2339 587 v \$0_nL-4;
#X obj 2339 720 array define \$0_ZL-4;
#X obj 2539 720 array define \$0_AL-4;
#X obj 2439 750 array define \$0_dZL-4;
#X obj 2640 750 array define \$0_dAL-4;
#X connect 0 0 1 0;
#X connect 2 0 56 0;
#X connect 3 0 49 0;
#X connect 4 0 3 0;
#X connect 5 0 14 0;
#X connect 5 1 59 0;
#X connect 6 0 5 0;
#X connect 7 0 50 0;
#X connect 8 0 17 0;
#X connect 9 0 51 0;
#X connect 10 0 9 0;
#X connect 11 0 20 0;
#X connect 11 1 13 0;
#X connect 12 0 11 0;
#X connect 13 0 10 1;
#X connect 14 0 4 0;
#X connect 17 0 7 0;
#X connect 20 0 10 0;
#X connect 25 0 52 0;
#X connect 26 0 25 0;
#X connect 27 0 37 0;
#X connect 27 1 38 0;
#X connect 28 0 27 0;
#X connect 29 0 53 0;
#X connect 30 0 41 0;
#X connect 31 0 54 0;
#X connect 32 0 31 0;
#X connect 33 0 44 0;
#X connect 33 1 35 0;
#X connect 34 0 33 0;
#X connect 35 0 32 1;
#X connect 37 0 26 0;
#X connect 38 0 26 1;
#X connect 41 0 29 0;
#X connect 44 0 32 0;
#X connect 49 0 15 0;
#X connect 49 1 16 0;
#X connect 50 0 18 0;
#X connect 50 1 19 0;
#X connect 51 0 21 0;
#X connect 51 1 22 0;
#X connect 51 2 23 0;
#X connect 51 3 24 0;
#X connect 52 0 39 0;
#X connect 52 1 40 0;
#X connect 53 0 42 0;
#X connect 53 1 43 0;
#X connect 54 0 45 0;
#X connect 54 1 46 0;
#X connect 54 2 47 0;
#X connect 54 3 48 0;
#X connect 55 0 2 0;
#X connect 57 0 39 0;
#X connect 57 0 43 0;
#X connect 57 0 42 0;
#X connect 57 0 40 0;
#X connect 58 0 45 0;
#X connect 58 0 48 0;
#X connect 58 0 47 0;
#X connect 58 0 46 0;
#X connect 59 0 4 1;
#X connect 60 0 15 0;
#X connect 60 0 19 0;
#X connect 60 0 18 0;
#X connect 60 0 16 0;
#X connect 61 0 21 0;
#X connect 61 0 24 0;
#X connect 61 0 23 0;
#X connect 61 0 22 0;
#X connect 62 0 73 0;
#X connect 63 0 62 0;
#X connect 64 0 78 0;
#X connect 64 1 105 0;
#X connect 65 0 64 0;
#X connect 66 0 74 0;
#X connect 67 0 79 0;
#X connect 68 0 75 0;
#X connect 69 0 68 0;
#X connect 70 0 84 0;
#X connect 70 1 72 0;
#X connect 71 0 70 0;
#X connect 72 0 69 1;
#X connect 73 0 80 0;
#X connect 73 1 81 0;
#X connect 74 0 82 0;
#X connect 74 1 83 0;
#X connect 75 0 85 0;
#X connect 75 1 86 0;
#X connect 75 2 87 0;
#X connect 75 3 88 0;
#X connect 76 0 80 0;
#X connect 76 0 81 0;
#X connect 76 0 82 0;
#X connect 76 0 83 0;
#X connect 77 0 85 0;
#X connect 77 0 86 0;
#X connect 77 0 87 0;
#X connect 77 0 88 0;
#X connect 78 0 63 0;
#X connect 79 0 66 0;
#X connect 84 0 69 0;
#X connect 89 0 100 0;
#X connect 90 0 89 0;
#X connect 91 0 106 0;
#X connect 91 1 107 0;
#X connect 92 0 91 0;
#X connect 93 0 101 0;
#X connect 94 0 108 0;
#X connect 95 0 102 0;
#X connect 96 0 95 0;
#X connect 97 0 113 0;
#X connect 97 1 99 0;
#X connect 98 0 97 0;
#X connect 99 0 96 1;
#X connect 100 0 109 0;
#X connect 100 1 110 0;
#X connect 101 0 111 0;
#X connect 101 1 112 0;
#X connect 102 0 114 0;
#X connect 102 1 116 0;
#X connect 102 2 115 0;
#X connect 102 3 117 0;
#X connect 103 0 109 0;
#X connect 103 0 110 0;
#X connect 103 0 111 0;
#X connect 103 0 112 0;
#X connect 104 0 114 0;
#X connect 104 0 115 0;
#X connect 104 0 116 0;
#X connect 104 0 117 0;
#X connect 105 0 63 1;
#X connect 106 0 90 0;
#X connect 107 0 90 1;
#X connect 108 0 93 0;
#X connect 113 0 96 0;
#X connect 118 0 129 0;
#X connect 119 0 118 0;
#X connect 120 0 135 0;
#X connect 120 1 136 0;
#X connect 121 0 120 0;
#X connect 122 0 130 0;
#X connect 123 0 137 0;
#X connect 124 0 131 0;
#X connect 125 0 124 0;
#X connect 126 0 142 0;
#X connect 126 1 128 0;
#X connect 127 0 126 0;
#X connect 128 0 125 1;
#X connect 129 0 138 0;
#X connect 129 1 139 0;
#X connect 130 0 140 0;
#X connect 130 1 141 0;
#X connect 131 0 143 0;
#X connect 131 1 145 0;
#X connect 131 2 144 0;
#X connect 131 3 146 0;
#X connect 132 0 138 0;
#X connect 132 0 139 0;
#X connect 132 0 140 0;
#X connect 132 0 141 0;
#X connect 133 0 143 0;
#X connect 133 0 144 0;
#X connect 133 0 145 0;
#X connect 133 0 146 0;
#X connect 135 0 119 0;
#X connect 136 0 119 1;
#X connect 137 0 122 0;
#X connect 142 0 125 0;
#X restore 34 261 pd arrays;
#X obj 197 118 r \$0_layer_shapes;
#X obj 37 118 r \$0_layer_shapes;
#X obj 197 174 v \$0_nx;
#X obj 37 174 v \$0_m;
#X msg 37 146 4;
#X obj 700 118 r \$0_layer_shapes;
#X obj 700 174 v \$0_nL-2;
#X obj 880 118 r \$0_layer_shapes;
#X msg 880 146 2;
#X obj 880 174 v \$0_nL-1;
#X obj 1040 118 r \$0_layer_shapes;
#X msg 1040 146 1;
#X obj 1040 174 v \$0_nL-0;
#X msg 34 228 bang;
#X obj 37 57 s \$0_layer_shapes;
#X msg 207 29 bang;
#X obj 207 57 f \$0;
#X obj 207 85 s \$0_ns;
#X msg 45 305 bang;
#X obj 45 761 cml.initialize_layer_params;
#X obj 45 643 t b b;
#X obj 258 728 r \$0_ns;
#X obj 45 789 t b b;
#X obj 45 907 cml.initialize_layer_params;
#X obj 258 873 r \$0_ns;
#X obj 45 939 t b b;
#X obj 45 1057 cml.initialize_layer_params;
#X obj 258 1023 r \$0_ns;
#X msg 82 990 layer_number 0 \, layer_dims 1 2 \, scale 1;
#N canvas 1495 611 450 250 (subpatch) 0;
#X array \$0_X 16 float 3;
#A 0 0.642885 0.657142 -0.442854 0.199994 0 0 0 0 0 0 0 0 0 0 0 0;
#X coords 0 1 16 -1 200 140 1;
#X restore 605 361 graph;
#N canvas 0 50 450 250 (subpatch) 0;
#X array \$0_Y 4 float 3;
#A 0 0.0857208 -0.342854 0.55716 0.557164;
#X coords 0 1 4 -1 200 140 1;
#X restore 601 540 graph;
#X obj 1266 560 cml.layer_forward;
#X obj 1399 527 r \$0_ns;
#X obj 1266 443 t b b;
#X obj 1266 710 cml.layer_forward;
#X obj 1399 677 r \$0_ns;
#X obj 1266 593 t b b;
#X obj 1266 860 cml.layer_forward;
#X obj 1399 827 r \$0_ns;
#X obj 1266 743 t b b;
#X msg 1303 776 layer_number 0 \, layer_dims 1 2 \, m 4 \, activation linear \, initial_layer 0;
#X obj 293 30 bng 50 250 50 0 empty empty init 0 -12 0 16 #fcfcfc #000000 #000000;
#X obj 293 85 s \$0_init;
#X obj 1266 1019 f;
#X obj 1266 1047 t f f;
#X obj 1333 1047 + 1;
#X msg 1287 991 0;
#X obj 1287 893 r \$0_init;
#X obj 1287 921 t b b, f 11;
#X obj 1372 954 v \$0_m;
#X obj 1351 1160 sel;
#X obj 1351 1188 s \$0_backprop;
#X obj 1783 41 r \$0_backprop;
#X obj 1783 168 cml.outer_dz;
#X obj 1876 135 r \$0_ns;
#X obj 1783 69 t b b;
#X msg 1820 102 m 4 \, num_outputs 1;
#X obj 1783 196 t b b;
#X obj 1783 313 cml.layer_backward;
#X obj 1924 280 r \$0_ns;
#X obj 1783 341 t b b;
#X obj 1783 458 cml.layer_backward;
#X obj 1924 425 r \$0_ns;
#X msg 1820 229 layer_number 0 \, layer_dims 1 2 \, m 4 \, activation linear \, skip_dz 1 \, initial_layer 0;
#X obj 1783 486 t b b;
#X obj 1783 603 cml.layer_backward;
#X obj 1924 570 r \$0_ns;
#X obj 2343 164 cml.update_layer_params;
#X obj 918 413 vsl 23 196 0 1 0 0 empty empty empty 0 -9 0 16 #fcfcfc #000000 #000000 0 1;
#X obj 952 564 nbx 5 21 0 1 0 1 empty \$0_init alpha 0 -12 0 16 #fcfcfc #000000 #000000 0.128205 256;
#X obj 952 590 s \$0_alpha;
#X obj 2343 31 t b b;
#X obj 2393 92 r \$0_alpha;
#X msg 2380 64 layer_number 0 \, layer_dims 1 2;
#X msg 2393 120 alpha \$1;
#X obj 2343 325 cml.update_layer_params;
#X obj 2343 192 t b b;
#X obj 2393 253 r \$0_alpha;
#X msg 2393 281 alpha \$1;
#X obj 2343 486 cml.update_layer_params;
#X obj 2343 353 t b b;
#X obj 2393 414 r \$0_alpha;
#X msg 2393 442 alpha \$1;
#X obj 2524 131 r \$0_ns;
#X obj 2524 292 r \$0_ns;
#X obj 2524 452 r \$0_ns;
#X msg 103 228 bang;
#X obj 1266 90 metro 100;
#X obj 1266 57 tgl 23 0 empty empty empty 0 -12 0 16 #fcfcfc #000000 #000000 0 1;
#X obj 360 118 r \$0_layer_shapes;
#X obj 540 118 r \$0_layer_shapes;
#X obj 360 174 v \$0_nL-4;
#X obj 540 174 v \$0_nL-3;
#X msg 360 146 8;
#X msg 540 146 6;
#X msg 700 146 4;
#X obj 45 461 cml.initialize_layer_params;
#X obj 45 343 t b b;
#X obj 258 428 r \$0_ns;
#X obj 45 489 t b b;
#X obj 45 607 cml.initialize_layer_params;
#X obj 258 573 r \$0_ns;
#X msg 82 540 layer_number 3 \, layer_dims 6 8 \, scale 1;
#X msg 82 695 layer_number 2 \, layer_dims 4 6 \, scale 1;
#X msg 82 840 layer_number 1 \, layer_dims 2 4 \, scale 1;
#X obj 1266 260 cml.layer_forward;
#X obj 1399 227 r \$0_ns;
#X obj 1266 143 t b b;
#X obj 1266 410 cml.layer_forward;
#X obj 1399 377 r \$0_ns;
#X obj 1266 293 t b b;
#X msg 1303 326 layer_number 3 \, layer_dims 6 8 \, m 4 \, activation tanh \, initial_layer 0;
#X msg 1303 476 layer_number 2 \, layer_dims 4 6 \, m 4 \, activation tanh \, initial_layer 0;
#X msg 1303 626 layer_number 1 \, layer_dims 2 4 \, m 4 \, activation tanh \, initial_layer 0;
#X obj 1783 631 t b b;
#X obj 1783 748 cml.layer_backward;
#X obj 1924 715 r \$0_ns;
#X obj 1783 776 t b b;
#X obj 1783 893 cml.layer_backward;
#X obj 1924 860 r \$0_ns;
#X msg 1820 374 layer_number 1 \, layer_dims 2 4 \, m 4 \, activation tanh \, skip_dz 0 \, initial_layer 0;
#X msg 1820 518 layer_number 2 \, layer_dims 4 6 \, m 4 \, activation tanh \, skip_dz 0 \, initial_layer 0;
#X msg 1820 664 layer_number 3 \, layer_dims 6 8 \, m 4 \, activation tanh \, skip_dz 0 \, initial_layer 0;
#X obj 2343 655 cml.update_layer_params;
#X obj 2343 522 t b b;
#X obj 2393 583 r \$0_alpha;
#X msg 2393 611 alpha \$1;
#X obj 2343 816 cml.update_layer_params;
#X obj 2343 683 t b b;
#X obj 2393 744 r \$0_alpha;
#X msg 2393 772 alpha \$1;
#X obj 2524 622 r \$0_ns;
#X obj 2524 782 r \$0_ns;
#X msg 2380 225 layer_number 1 \, layer_dims 2 4;
#X msg 2380 386 layer_number 2 \, layer_dims 4 6;
#X msg 2380 555 layer_number 3 \, layer_dims 6 8;
#X obj 1372 982 t f f, f 6;
#X obj 1351 1115 mod;
#X obj 1417 1020 - 1;
#X msg 197 146 4;
#X msg 82 395 layer_number 4 \, layer_dims 8 4 \, scale 1;
#X msg 1303 176 layer_number 4 \, layer_dims 8 4 \, m 4 \, activation tanh \, initial_layer 1;
#X msg 1820 808 layer_number 4 \, layer_dims 8 4 \, m 4 \, activation tanh \, skip_dz 0 \, initial_layer 1;
#X msg 2380 716 layer_number 4 \, layer_dims 8 4;
#X connect 0 0 16 0;
#X connect 2 0 141 0;
#X connect 3 0 6 0;
#X connect 6 0 5 0;
#X connect 7 0 97 0;
#X connect 9 0 10 0;
#X connect 10 0 11 0;
#X connect 12 0 13 0;
#X connect 13 0 14 0;
#X connect 15 0 1 0;
#X connect 17 0 18 0;
#X connect 18 0 19 0;
#X connect 20 0 99 0;
#X connect 21 0 24 0;
#X connect 22 0 21 0;
#X connect 22 1 105 0;
#X connect 23 0 21 1;
#X connect 24 0 25 0;
#X connect 24 1 106 0;
#X connect 25 0 27 0;
#X connect 26 0 25 1;
#X connect 27 0 28 0;
#X connect 27 1 30 0;
#X connect 29 0 28 1;
#X connect 30 0 28 0;
#X connect 33 0 38 0;
#X connect 34 0 33 1;
#X connect 35 0 33 0;
#X connect 35 1 114 0;
#X connect 36 0 41 0;
#X connect 37 0 36 1;
#X connect 38 0 36 0;
#X connect 38 1 115 0;
#X connect 39 0 45 0;
#X connect 40 0 39 1;
#X connect 41 0 39 0;
#X connect 41 1 42 0;
#X connect 42 0 39 0;
#X connect 43 0 44 0;
#X connect 45 0 46 0;
#X connect 46 0 139 0;
#X connect 46 1 47 0;
#X connect 47 0 45 1;
#X connect 48 0 45 1;
#X connect 49 0 50 0;
#X connect 50 0 48 0;
#X connect 50 1 51 0;
#X connect 51 0 138 0;
#X connect 52 0 53 0;
#X connect 54 0 57 0;
#X connect 55 0 59 0;
#X connect 56 0 55 1;
#X connect 57 0 55 0;
#X connect 57 1 58 0;
#X connect 58 0 55 0;
#X connect 59 0 60 0;
#X connect 59 1 65 0;
#X connect 60 0 62 0;
#X connect 61 0 60 1;
#X connect 62 0 63 0;
#X connect 62 1 122 0;
#X connect 63 0 66 0;
#X connect 64 0 63 1;
#X connect 65 0 60 0;
#X connect 66 0 67 0;
#X connect 66 1 123 0;
#X connect 67 0 116 0;
#X connect 68 0 67 1;
#X connect 69 0 78 0;
#X connect 70 0 71 0;
#X connect 71 0 72 0;
#X connect 73 0 69 0;
#X connect 73 1 75 0;
#X connect 74 0 76 0;
#X connect 75 0 69 0;
#X connect 76 0 69 0;
#X connect 77 0 82 0;
#X connect 78 0 77 0;
#X connect 78 1 135 0;
#X connect 79 0 80 0;
#X connect 80 0 77 0;
#X connect 81 0 126 0;
#X connect 82 0 81 0;
#X connect 82 1 136 0;
#X connect 83 0 84 0;
#X connect 84 0 81 0;
#X connect 85 0 69 1;
#X connect 86 0 77 1;
#X connect 87 0 81 1;
#X connect 88 0 1 1;
#X connect 89 0 109 0;
#X connect 90 0 89 0;
#X connect 91 0 95 0;
#X connect 92 0 96 0;
#X connect 95 0 93 0;
#X connect 96 0 94 0;
#X connect 97 0 8 0;
#X connect 98 0 101 0;
#X connect 99 0 98 0;
#X connect 99 1 142 0;
#X connect 100 0 98 1;
#X connect 101 0 102 0;
#X connect 101 1 104 0;
#X connect 102 0 22 0;
#X connect 103 0 102 1;
#X connect 104 0 102 0;
#X connect 105 0 21 0;
#X connect 106 0 25 0;
#X connect 107 0 112 0;
#X connect 108 0 107 1;
#X connect 109 0 107 0;
#X connect 109 1 143 0;
#X connect 110 0 35 0;
#X connect 111 0 110 1;
#X connect 112 0 110 0;
#X connect 112 1 113 0;
#X connect 113 0 110 0;
#X connect 114 0 33 0;
#X connect 115 0 36 0;
#X connect 116 0 117 0;
#X connect 116 1 124 0;
#X connect 117 0 119 0;
#X connect 118 0 117 1;
#X connect 119 0 120 0;
#X connect 119 1 144 0;
#X connect 120 0 73 0;
#X connect 121 0 120 1;
#X connect 122 0 63 0;
#X connect 123 0 67 0;
#X connect 124 0 117 0;
#X connect 125 0 130 0;
#X connect 126 0 125 0;
#X connect 126 1 137 0;
#X connect 127 0 128 0;
#X connect 128 0 125 0;
#X connect 130 0 129 0;
#X connect 130 1 145 0;
#X connect 131 0 132 0;
#X connect 132 0 129 0;
#X connect 133 0 125 1;
#X connect 134 0 129 1;
#X connect 135 0 77 0;
#X connect 136 0 81 0;
#X connect 137 0 125 0;
#X connect 138 0 139 1;
#X connect 138 1 140 0;
#X connect 139 0 52 0;
#X connect 140 0 52 1;
#X connect 141 0 4 0;
#X connect 142 0 98 0;
#X connect 143 0 107 0;
#X connect 144 0 120 0;
#X connect 145 0 129 0;
