#N canvas 213 281 1437 1294 16;
#X msg 57 19 bang;
#X obj 147 112 v \$0_m;
#X obj 238 112 v \$0_nx;
#N canvas 1408 233 1351 1169 arrays 0;
#X obj 27 331 array define \$0_X;
#X msg 27 300 resize \$1;
#X obj 27 269 *;
#X obj 27 233 v \$0_m;
#X obj 97 233 v \$0_nx;
#X obj 27 195 t b b;
#X obj 27 163 r \$0_size_arrays;
#X obj 61 36 inlet;
#X obj 61 64 s \$0_size_arrays;
#X msg 426 60 const 0;
#X msg 67 571 resize \$1;
#X obj 67 539 *;
#X obj 67 465 t b b;
#X obj 67 434 r \$0_size_arrays;
#X msg 297 517 resize \$1;
#X obj 297 451 r \$0_size_arrays;
#X msg 67 845 resize \$1;
#X obj 67 814 *;
#X obj 67 740 t b b;
#X obj 67 708 r \$0_size_arrays;
#X obj 157 778 v \$0_m;
#X obj 67 504 v \$0_nL-1;
#X obj 67 632 array define \$0_WL-1;
#X obj 157 504 v \$0_nx;
#X obj 104 665 array define \$0_dWL-1;
#X obj 297 484 v \$0_nL-1;
#X obj 297 632 array define \$0_bL-1;
#X obj 334 665 array define \$0_dbL-1;
#X obj 67 778 v \$0_nL-1;
#X obj 67 911 array define \$0_ZL-1;
#X obj 167 941 array define \$0_dZL-1;
#X obj 267 911 array define \$0_AL-1;
#X obj 368 941 array define \$0_dAL-1;
#X msg 617 571 resize \$1;
#X obj 617 539 *;
#X obj 617 465 t b b;
#X obj 617 434 r \$0_size_arrays;
#X msg 847 517 resize \$1;
#X obj 847 451 r \$0_size_arrays;
#X msg 617 845 resize \$1;
#X obj 617 814 *;
#X obj 617 740 t b b;
#X obj 617 708 r \$0_size_arrays;
#X obj 707 778 v \$0_m;
#X text 69 403 // initial layer;
#X text 619 405 // output layer;
#X obj 617 504 v \$0_nL-0;
#X obj 707 504 v \$0_nL-1;
#X obj 617 632 array define \$0_WL-0;
#X obj 654 665 array define \$0_dWL-0;
#X obj 847 484 v \$0_nL-0;
#X obj 847 632 array define \$0_bL-0;
#X obj 884 665 array define \$0_dbL-0;
#X obj 617 778 v \$0_nL-0;
#X obj 617 911 array define \$0_ZL-0;
#X obj 717 941 array define \$0_dZL-0;
#X obj 817 911 array define \$0_AL-0;
#X obj 918 941 array define \$0_dAL-0;
#X obj 67 599 t a a;
#X obj 297 545 t a a;
#X obj 67 877 t a a a a, f 38;
#X obj 617 599 t a a;
#X obj 847 545 t a a;
#X obj 617 878 t a a a a, f 38;
#X connect 1 0 0 0;
#X connect 2 0 1 0;
#X connect 3 0 2 0;
#X connect 4 0 2 1;
#X connect 5 0 3 0;
#X connect 5 1 4 0;
#X connect 6 0 5 0;
#X connect 7 0 8 0;
#X connect 9 0 55 0;
#X connect 10 0 58 0;
#X connect 11 0 10 0;
#X connect 12 0 21 0;
#X connect 12 1 23 0;
#X connect 13 0 12 0;
#X connect 14 0 59 0;
#X connect 15 0 25 0;
#X connect 16 0 60 0;
#X connect 17 0 16 0;
#X connect 18 0 28 0;
#X connect 18 1 20 0;
#X connect 19 0 18 0;
#X connect 20 0 17 1;
#X connect 21 0 11 0;
#X connect 23 0 11 1;
#X connect 25 0 14 0;
#X connect 28 0 17 0;
#X connect 33 0 61 0;
#X connect 34 0 33 0;
#X connect 35 0 46 0;
#X connect 35 1 47 0;
#X connect 36 0 35 0;
#X connect 37 0 62 0;
#X connect 38 0 50 0;
#X connect 39 0 63 0;
#X connect 40 0 39 0;
#X connect 41 0 53 0;
#X connect 41 1 43 0;
#X connect 42 0 41 0;
#X connect 43 0 40 1;
#X connect 46 0 34 0;
#X connect 47 0 34 1;
#X connect 50 0 37 0;
#X connect 53 0 40 0;
#X connect 58 0 22 0;
#X connect 58 1 24 0;
#X connect 59 0 26 0;
#X connect 59 1 27 0;
#X connect 60 0 29 0;
#X connect 60 1 30 0;
#X connect 60 2 31 0;
#X connect 60 3 32 0;
#X connect 61 0 48 0;
#X connect 61 1 49 0;
#X connect 62 0 51 0;
#X connect 62 1 52 0;
#X connect 63 0 54 0;
#X connect 63 1 55 0;
#X connect 63 2 56 0;
#X connect 63 3 57 0;
#X restore 57 161 pd arrays;
#X obj 322 522 cml.d0;
#X obj 369 486 v \$0_ns;
#X msg 310 487 X;
#X obj 253 572 array set;
#X obj 62 443 t b b b, f 38;
#X msg 62 408 bang;
#X obj 948 392 cml.d0;
#X obj 995 356 v \$0_ns;
#X obj 879 442 array set;
#X obj 538 313 t b b b, f 38;
#X msg 538 278 bang;
#X obj 1211 759 cml.d0;
#X obj 1258 723 v \$0_ns;
#X obj 1142 809 array set;
#X obj 951 680 t b b b, f 38;
#X msg 951 645 bang;
#X obj 135 731 print;
#X obj 135 669 bng 23 250 50 0 empty empty empty 0 -12 0 16 #fcfcfc #000000 #000000;
#X obj 946 194 v \$0_ns;
#X obj 813 88 t b b b;
#X msg 813 53 bang;
#X obj 150 1079 cml.dot_product, f 126;
#X obj 1150 1032 cml.d0;
#X obj 1197 996 v \$0_ns;
#X obj 1135 960 t b b;
#X msg 1139 997 ZL-0;
#X obj 990 1032 cml.d0;
#X obj 1037 996 v \$0_ns;
#X obj 975 960 t b b;
#X msg 980 997 X;
#X obj 820 1032 cml.d0;
#X obj 867 996 v \$0_ns;
#X obj 805 960 t b b;
#X msg 810 997 WL-0;
#X obj 325 1012 v \$0_nL-0;
#X obj 485 1012 v \$0_m;
#X obj 655 1013 v \$0_nx;
#X obj 144 918 t b b b b b b b, f 123;
#X obj 134 879 bng 23 250 50 0 empty empty empty 0 -12 0 16 #fcfcfc #000000 #000000;
#X obj 813 228 cml.layer_backward;
#X msg 328 84 3;
#X msg 62 488 2 3 4 5 3 4 5 6;
#X msg 238 84 1;
#X obj 419 112 v \$0_nL-0;
#X obj 510 84 f \$0;
#X obj 510 112 v \$0_ns;
#X msg 419 84 3;
#X obj 328 112 v \$0_nL-1;
#X obj 57 47 t b b b b b b, f 57;
#X msg 147 84 4;
#X msg 951 724 1 2 3 2 3 4 3 4 5, f 21;
#X msg 1199 724 WL-0;
#X obj 948 542 cml.d0;
#X obj 995 506 v \$0_ns;
#X obj 879 592 array set;
#X obj 538 463 t b b b, f 38;
#X msg 538 428 bang;
#X msg 538 508 1 2 3 4 2 3 4 5 3 4 5 6, f 46;
#X msg 936 506 dAL-0;
#X msg 936 356 ZL-0;
#X obj 135 703 array get \$0_dZL-0;
#X msg 538 358 6 -1 4 3 5 4 3 2 4 3 2 1, f 46;
#X msg 837 124 layer_number 0 \, layer_dims 3 3 \, m 4 \, initial_layer 0 \, skip_dz 0 \, activation relu \, leak 0.2;
#X connect 0 0 52 0;
#X connect 4 0 7 2;
#X connect 5 0 4 1;
#X connect 6 0 4 0;
#X connect 8 0 45 0;
#X connect 8 1 6 0;
#X connect 8 2 5 0;
#X connect 9 0 8 0;
#X connect 10 0 12 2;
#X connect 11 0 10 1;
#X connect 13 0 65 0;
#X connect 13 1 63 0;
#X connect 13 2 11 0;
#X connect 14 0 13 0;
#X connect 15 0 17 2;
#X connect 16 0 15 1;
#X connect 18 0 54 0;
#X connect 18 1 55 0;
#X connect 18 2 16 0;
#X connect 19 0 18 0;
#X connect 21 0 64 0;
#X connect 22 0 43 1;
#X connect 23 0 43 0;
#X connect 23 1 66 0;
#X connect 23 2 22 0;
#X connect 24 0 23 0;
#X connect 26 0 25 6;
#X connect 27 0 26 1;
#X connect 28 0 29 0;
#X connect 28 1 27 0;
#X connect 29 0 26 0;
#X connect 30 0 25 5;
#X connect 31 0 30 1;
#X connect 32 0 33 0;
#X connect 32 1 31 0;
#X connect 33 0 30 0;
#X connect 34 0 25 4;
#X connect 35 0 34 1;
#X connect 36 0 37 0;
#X connect 36 1 35 0;
#X connect 37 0 34 0;
#X connect 38 0 25 1;
#X connect 39 0 25 2;
#X connect 40 0 25 3;
#X connect 41 0 25 0;
#X connect 41 1 38 0;
#X connect 41 2 39 0;
#X connect 41 3 40 0;
#X connect 41 4 36 0;
#X connect 41 5 32 0;
#X connect 41 6 28 0;
#X connect 42 0 41 0;
#X connect 44 0 51 0;
#X connect 45 0 7 0;
#X connect 46 0 2 0;
#X connect 48 0 49 0;
#X connect 50 0 47 0;
#X connect 52 0 3 0;
#X connect 52 1 53 0;
#X connect 52 2 46 0;
#X connect 52 3 44 0;
#X connect 52 4 50 0;
#X connect 52 5 48 0;
#X connect 53 0 1 0;
#X connect 54 0 17 0;
#X connect 55 0 15 0;
#X connect 56 0 58 2;
#X connect 57 0 56 1;
#X connect 59 0 61 0;
#X connect 59 1 62 0;
#X connect 59 2 57 0;
#X connect 60 0 59 0;
#X connect 61 0 58 0;
#X connect 62 0 56 0;
#X connect 63 0 10 0;
#X connect 64 0 20 0;
#X connect 65 0 12 0;
#X connect 66 0 43 0;
