#N canvas 0 66 3440 1340 16;
#X msg 37 29 bang;
#N canvas 4 100 3071 1302 arrays 0;
#X obj 61 36 inlet;
#X obj 61 64 s \$0_size_arrays;
#X msg 856 52 const 0;
#X msg 649 380 resize \$1;
#X obj 649 348 *;
#X obj 649 274 t b b;
#X obj 649 243 r \$0_size_arrays;
#X msg 879 326 resize \$1;
#X obj 879 260 r \$0_size_arrays;
#X msg 649 654 resize \$1;
#X obj 649 623 *;
#X obj 649 549 t b b;
#X obj 649 517 r \$0_size_arrays;
#X obj 739 587 v \$0_m;
#X obj 649 313 v \$0_nL-1;
#X obj 649 441 array define \$0_WL-1;
#X obj 686 474 array define \$0_dWL-1;
#X obj 879 293 v \$0_nL-1;
#X obj 879 441 array define \$0_bL-1;
#X obj 916 474 array define \$0_dbL-1;
#X obj 649 587 v \$0_nL-1;
#X obj 649 720 array define \$0_ZL-1;
#X obj 749 750 array define \$0_dZL-1;
#X obj 849 720 array define \$0_AL-1;
#X obj 950 750 array define \$0_dAL-1;
#X msg 61 380 resize \$1;
#X obj 61 348 *;
#X obj 61 274 t b b;
#X obj 61 243 r \$0_size_arrays;
#X msg 291 326 resize \$1;
#X obj 291 260 r \$0_size_arrays;
#X msg 51 654 resize \$1;
#X obj 51 623 *;
#X obj 51 549 t b b;
#X obj 51 517 r \$0_size_arrays;
#X obj 141 587 v \$0_m;
#X text 63 214 // output layer;
#X obj 61 313 v \$0_nL-0;
#X obj 151 313 v \$0_nL-1;
#X obj 61 441 array define \$0_WL-0;
#X obj 98 474 array define \$0_dWL-0;
#X obj 291 293 v \$0_nL-0;
#X obj 291 441 array define \$0_bL-0;
#X obj 328 474 array define \$0_dbL-0;
#X obj 51 587 v \$0_nL-0;
#X obj 51 720 array define \$0_ZL-0;
#X obj 151 750 array define \$0_dZL-0;
#X obj 251 720 array define \$0_AL-0;
#X obj 352 750 array define \$0_dAL-0;
#X obj 649 408 t a a;
#X obj 879 354 t a a;
#X obj 649 686 t a a a a, f 38;
#X obj 61 408 t a a;
#X obj 291 354 t a a;
#X obj 51 687 t a a a a, f 38;
#X obj 856 24 inlet zero_arrays;
#X obj 856 80 s \$0_zero_arrays;
#X obj 456 360 r \$0_zero_arrays;
#X obj 446 560 r \$0_zero_arrays;
#X obj 739 313 v \$0_nL-2;
#X obj 1026 360 r \$0_zero_arrays;
#X obj 1026 610 r \$0_zero_arrays;
#X msg 1239 380 resize \$1;
#X obj 1239 348 *;
#X obj 1239 274 t b b;
#X obj 1239 243 r \$0_size_arrays;
#X msg 1469 326 resize \$1;
#X obj 1469 260 r \$0_size_arrays;
#X msg 1239 654 resize \$1;
#X obj 1239 623 *;
#X obj 1239 549 t b b;
#X obj 1239 517 r \$0_size_arrays;
#X obj 1329 587 v \$0_m;
#X obj 1239 408 t a a;
#X obj 1469 354 t a a;
#X obj 1239 686 t a a a a, f 38;
#X obj 1616 360 r \$0_zero_arrays;
#X obj 1616 610 r \$0_zero_arrays;
#X obj 1239 313 v \$0_nL-2;
#X obj 1469 293 v \$0_nL-2;
#X obj 1239 441 array define \$0_WL-2;
#X obj 1276 474 array define \$0_dWL-2;
#X obj 1469 441 array define \$0_bL-2;
#X obj 1506 474 array define \$0_dbL-2;
#X obj 1239 587 v \$0_nL-2;
#X obj 1239 720 array define \$0_ZL-2;
#X obj 1339 750 array define \$0_dZL-2;
#X obj 1439 720 array define \$0_AL-2;
#X obj 1540 750 array define \$0_dAL-2;
#X msg 1789 380 resize \$1;
#X obj 1789 348 *;
#X obj 1789 274 t b b;
#X obj 1789 243 r \$0_size_arrays;
#X msg 2019 326 resize \$1;
#X obj 2019 260 r \$0_size_arrays;
#X msg 1789 654 resize \$1;
#X obj 1789 623 *;
#X obj 1789 549 t b b;
#X obj 1789 517 r \$0_size_arrays;
#X obj 1879 587 v \$0_m;
#X obj 1789 408 t a a;
#X obj 2019 354 t a a;
#X obj 1789 686 t a a a a, f 38;
#X obj 2166 360 r \$0_zero_arrays;
#X obj 2166 610 r \$0_zero_arrays;
#X obj 1329 313 v \$0_nL-3;
#X obj 1789 313 v \$0_nL-3;
#X obj 1879 313 v \$0_nL-4;
#X obj 2019 293 v \$0_nL-3;
#X obj 1789 441 array define \$0_WL-3;
#X obj 1826 474 array define \$0_dWL-3;
#X obj 2019 441 array define \$0_bL-3;
#X obj 2056 474 array define \$0_dbL-3;
#X obj 1789 587 v \$0_nL-3;
#X obj 1789 720 array define \$0_ZL-3;
#X obj 1989 720 array define \$0_AL-3;
#X obj 1889 750 array define \$0_dZL-3;
#X obj 2090 750 array define \$0_dAL-3;
#X msg 2339 380 resize \$1;
#X obj 2339 348 *;
#X obj 2339 274 t b b;
#X obj 2339 243 r \$0_size_arrays;
#X msg 2569 326 resize \$1;
#X obj 2569 260 r \$0_size_arrays;
#X msg 2339 654 resize \$1;
#X obj 2339 623 *;
#X obj 2339 549 t b b;
#X obj 2339 517 r \$0_size_arrays;
#X obj 2429 587 v \$0_m;
#X obj 2339 408 t a a;
#X obj 2569 354 t a a;
#X obj 2339 686 t a a a a, f 38;
#X obj 2716 360 r \$0_zero_arrays;
#X obj 2716 610 r \$0_zero_arrays;
#X text 2350 204 // initial layer;
#X obj 2339 313 v \$0_nL-4;
#X obj 2429 313 v \$0_nx;
#X obj 2569 293 v \$0_nL-4;
#X obj 2339 441 array define \$0_WL-4;
#X obj 2376 474 array define \$0_dWL-4;
#X obj 2569 441 array define \$0_bL-4;
#X obj 2606 474 array define \$0_dbL-4;
#X obj 2339 587 v \$0_nL-4;
#X obj 2339 720 array define \$0_ZL-4;
#X obj 2539 720 array define \$0_AL-4;
#X obj 2439 750 array define \$0_dZL-4;
#X obj 2640 750 array define \$0_dAL-4;
#X connect 0 0 1 0;
#X connect 2 0 56 0;
#X connect 3 0 49 0;
#X connect 4 0 3 0;
#X connect 5 0 14 0;
#X connect 5 1 59 0;
#X connect 6 0 5 0;
#X connect 7 0 50 0;
#X connect 8 0 17 0;
#X connect 9 0 51 0;
#X connect 10 0 9 0;
#X connect 11 0 20 0;
#X connect 11 1 13 0;
#X connect 12 0 11 0;
#X connect 13 0 10 1;
#X connect 14 0 4 0;
#X connect 17 0 7 0;
#X connect 20 0 10 0;
#X connect 25 0 52 0;
#X connect 26 0 25 0;
#X connect 27 0 37 0;
#X connect 27 1 38 0;
#X connect 28 0 27 0;
#X connect 29 0 53 0;
#X connect 30 0 41 0;
#X connect 31 0 54 0;
#X connect 32 0 31 0;
#X connect 33 0 44 0;
#X connect 33 1 35 0;
#X connect 34 0 33 0;
#X connect 35 0 32 1;
#X connect 37 0 26 0;
#X connect 38 0 26 1;
#X connect 41 0 29 0;
#X connect 44 0 32 0;
#X connect 49 0 15 0;
#X connect 49 1 16 0;
#X connect 50 0 18 0;
#X connect 50 1 19 0;
#X connect 51 0 21 0;
#X connect 51 1 22 0;
#X connect 51 2 23 0;
#X connect 51 3 24 0;
#X connect 52 0 39 0;
#X connect 52 1 40 0;
#X connect 53 0 42 0;
#X connect 53 1 43 0;
#X connect 54 0 45 0;
#X connect 54 1 46 0;
#X connect 54 2 47 0;
#X connect 54 3 48 0;
#X connect 55 0 2 0;
#X connect 57 0 39 0;
#X connect 57 0 43 0;
#X connect 57 0 42 0;
#X connect 57 0 40 0;
#X connect 58 0 45 0;
#X connect 58 0 48 0;
#X connect 58 0 47 0;
#X connect 58 0 46 0;
#X connect 59 0 4 1;
#X connect 60 0 15 0;
#X connect 60 0 19 0;
#X connect 60 0 18 0;
#X connect 60 0 16 0;
#X connect 61 0 21 0;
#X connect 61 0 24 0;
#X connect 61 0 23 0;
#X connect 61 0 22 0;
#X connect 62 0 73 0;
#X connect 63 0 62 0;
#X connect 64 0 78 0;
#X connect 64 1 105 0;
#X connect 65 0 64 0;
#X connect 66 0 74 0;
#X connect 67 0 79 0;
#X connect 68 0 75 0;
#X connect 69 0 68 0;
#X connect 70 0 84 0;
#X connect 70 1 72 0;
#X connect 71 0 70 0;
#X connect 72 0 69 1;
#X connect 73 0 80 0;
#X connect 73 1 81 0;
#X connect 74 0 82 0;
#X connect 74 1 83 0;
#X connect 75 0 85 0;
#X connect 75 1 86 0;
#X connect 75 2 87 0;
#X connect 75 3 88 0;
#X connect 76 0 80 0;
#X connect 76 0 81 0;
#X connect 76 0 82 0;
#X connect 76 0 83 0;
#X connect 77 0 85 0;
#X connect 77 0 86 0;
#X connect 77 0 87 0;
#X connect 77 0 88 0;
#X connect 78 0 63 0;
#X connect 79 0 66 0;
#X connect 84 0 69 0;
#X connect 89 0 100 0;
#X connect 90 0 89 0;
#X connect 91 0 106 0;
#X connect 91 1 107 0;
#X connect 92 0 91 0;
#X connect 93 0 101 0;
#X connect 94 0 108 0;
#X connect 95 0 102 0;
#X connect 96 0 95 0;
#X connect 97 0 113 0;
#X connect 97 1 99 0;
#X connect 98 0 97 0;
#X connect 99 0 96 1;
#X connect 100 0 109 0;
#X connect 100 1 110 0;
#X connect 101 0 111 0;
#X connect 101 1 112 0;
#X connect 102 0 114 0;
#X connect 102 1 116 0;
#X connect 102 2 115 0;
#X connect 102 3 117 0;
#X connect 103 0 109 0;
#X connect 103 0 110 0;
#X connect 103 0 111 0;
#X connect 103 0 112 0;
#X connect 104 0 114 0;
#X connect 104 0 115 0;
#X connect 104 0 116 0;
#X connect 104 0 117 0;
#X connect 105 0 63 1;
#X connect 106 0 90 0;
#X connect 107 0 90 1;
#X connect 108 0 93 0;
#X connect 113 0 96 0;
#X connect 118 0 129 0;
#X connect 119 0 118 0;
#X connect 120 0 135 0;
#X connect 120 1 136 0;
#X connect 121 0 120 0;
#X connect 122 0 130 0;
#X connect 123 0 137 0;
#X connect 124 0 131 0;
#X connect 125 0 124 0;
#X connect 126 0 142 0;
#X connect 126 1 128 0;
#X connect 127 0 126 0;
#X connect 128 0 125 1;
#X connect 129 0 138 0;
#X connect 129 1 139 0;
#X connect 130 0 140 0;
#X connect 130 1 141 0;
#X connect 131 0 143 0;
#X connect 131 1 145 0;
#X connect 131 2 144 0;
#X connect 131 3 146 0;
#X connect 132 0 138 0;
#X connect 132 0 139 0;
#X connect 132 0 140 0;
#X connect 132 0 141 0;
#X connect 133 0 143 0;
#X connect 133 0 144 0;
#X connect 133 0 145 0;
#X connect 133 0 146 0;
#X connect 135 0 119 0;
#X connect 136 0 119 1;
#X connect 137 0 122 0;
#X connect 142 0 125 0;
#X restore 34 261 pd arrays;
#X obj 197 118 r \$0_layer_shapes;
#X obj 37 118 r \$0_layer_shapes;
#X obj 197 174 v \$0_nx;
#X obj 37 174 v \$0_m;
#X obj 700 118 r \$0_layer_shapes;
#X obj 700 174 v \$0_nL-2;
#X obj 880 118 r \$0_layer_shapes;
#X msg 880 146 2;
#X obj 880 174 v \$0_nL-1;
#X obj 1040 118 r \$0_layer_shapes;
#X msg 1040 146 1;
#X obj 1040 174 v \$0_nL-0;
#X msg 34 228 bang;
#X obj 37 57 s \$0_layer_shapes;
#X msg 207 29 bang;
#X obj 207 57 f \$0;
#X obj 207 85 s \$0_ns;
#X msg 45 305 bang;
#X obj 45 761 cml.initialize_layer_params;
#X obj 45 643 t b b;
#X obj 258 728 r \$0_ns;
#X obj 45 789 t b b;
#X obj 45 907 cml.initialize_layer_params;
#X obj 258 873 r \$0_ns;
#X obj 45 939 t b b;
#X obj 45 1057 cml.initialize_layer_params;
#X obj 258 1023 r \$0_ns;
#X msg 82 990 layer_number 0 \, layer_dims 1 2 \, scale 1;
#N canvas 1495 611 450 250 (subpatch) 0;
#X array \$0_X 32 float 3;
#A 0 -0.985707 0.2 0.185714 0.171429 0.157143 0.142858 0.100001 0.0857155 0.0285732 -0.0571402 -0.18571 -0.385708 -0.614277 -0.871417 -0.914274 -0.714281 -0.671425 -0.614282 -0.55714 -0.514283 -0.471427 -0.457141 -0.414284 -0.399999 -0.385713 -0.342857 -0.328571 -0.314286 -0.3 0.216224 0.767828 0.999284;
#X coords 0 1 32 -1 200 140 1 0 0;
#X restore 609 351 graph;
#N canvas 0 50 450 250 (subpatch) 0;
#X array \$0_Y 8 float 3;
#A 0 -0.88903 -0.983497 -0.66789 -0.0738031 0.551057 0.94615 0.946742 -0.423878;
#X coords 0 1 8 -1 200 140 1;
#X restore 601 540 graph;
#X obj 1266 560 cml.layer_forward;
#X obj 1399 527 r \$0_ns;
#X obj 1266 443 t b b;
#X obj 1266 710 cml.layer_forward;
#X obj 1399 677 r \$0_ns;
#X obj 1266 593 t b b;
#X obj 1266 860 cml.layer_forward;
#X obj 1399 827 r \$0_ns;
#X obj 1266 743 t b b;
#X obj 293 30 bng 50 250 50 0 empty empty init 0 -12 0 16 #fcfcfc #000000 #000000;
#X obj 293 85 s \$0_init;
#X obj 1266 1019 f;
#X obj 1266 1047 t f f;
#X obj 1333 1047 + 1;
#X msg 1287 991 0;
#X obj 1287 893 r \$0_init;
#X obj 1287 921 t b b, f 11;
#X obj 1372 954 v \$0_m;
#X obj 1351 1160 sel;
#X obj 1351 1188 s \$0_backprop;
#X obj 1783 41 r \$0_backprop;
#X obj 1783 168 cml.outer_dz;
#X obj 1876 135 r \$0_ns;
#X obj 1783 69 t b b;
#X obj 1783 196 t b b;
#X obj 1783 313 cml.layer_backward;
#X obj 1924 280 r \$0_ns;
#X obj 1783 341 t b b;
#X obj 1783 458 cml.layer_backward;
#X obj 1924 425 r \$0_ns;
#X obj 1783 486 t b b;
#X obj 1783 603 cml.layer_backward;
#X obj 1924 570 r \$0_ns;
#X obj 2343 164 cml.update_layer_params;
#X obj 918 413 vsl 23 196 0 1 0 0 empty empty empty 0 -9 0 16 #fcfcfc #000000 #000000 0 1;
#X obj 952 564 nbx 5 21 0 1 0 1 empty \$0_init alpha 0 -12 0 16 #fcfcfc #000000 #000000 0.123077 256;
#X obj 952 590 s \$0_alpha;
#X obj 2343 31 t b b;
#X obj 2393 92 r \$0_alpha;
#X msg 2380 64 layer_number 0 \, layer_dims 1 2;
#X msg 2393 120 alpha \$1;
#X obj 2343 325 cml.update_layer_params;
#X obj 2343 192 t b b;
#X obj 2393 253 r \$0_alpha;
#X msg 2393 281 alpha \$1;
#X obj 2343 486 cml.update_layer_params;
#X obj 2343 353 t b b;
#X obj 2393 414 r \$0_alpha;
#X msg 2393 442 alpha \$1;
#X obj 2524 131 r \$0_ns;
#X obj 2524 292 r \$0_ns;
#X obj 2524 452 r \$0_ns;
#X msg 103 228 bang;
#X obj 1266 57 tgl 23 0 empty empty empty 0 -12 0 16 #fcfcfc #000000 #000000 0 1;
#X obj 360 118 r \$0_layer_shapes;
#X obj 540 118 r \$0_layer_shapes;
#X obj 360 174 v \$0_nL-4;
#X obj 540 174 v \$0_nL-3;
#X msg 700 146 4;
#X obj 45 461 cml.initialize_layer_params;
#X obj 45 343 t b b;
#X obj 258 428 r \$0_ns;
#X obj 45 489 t b b;
#X obj 45 607 cml.initialize_layer_params;
#X obj 258 573 r \$0_ns;
#X msg 82 840 layer_number 1 \, layer_dims 2 4 \, scale 1;
#X obj 1266 260 cml.layer_forward;
#X obj 1399 227 r \$0_ns;
#X obj 1266 143 t b b;
#X obj 1266 410 cml.layer_forward;
#X obj 1399 377 r \$0_ns;
#X obj 1266 293 t b b;
#X obj 1783 631 t b b;
#X obj 1783 748 cml.layer_backward;
#X obj 1924 715 r \$0_ns;
#X obj 1783 776 t b b;
#X obj 1783 893 cml.layer_backward;
#X obj 1924 860 r \$0_ns;
#X obj 2343 655 cml.update_layer_params;
#X obj 2343 522 t b b;
#X obj 2393 583 r \$0_alpha;
#X msg 2393 611 alpha \$1;
#X obj 2343 816 cml.update_layer_params;
#X obj 2343 683 t b b;
#X obj 2393 744 r \$0_alpha;
#X msg 2393 772 alpha \$1;
#X obj 2524 622 r \$0_ns;
#X obj 2524 782 r \$0_ns;
#X msg 2380 225 layer_number 1 \, layer_dims 2 4;
#X obj 1372 982 t f f, f 6;
#X obj 1351 1115 mod;
#X obj 1417 1020 - 1;
#X msg 197 146 4;
#N canvas 161 196 2042 1206 synth 0;
#X obj 388 327 nbx 5 21 -1e+37 1e+37 0 1 empty empty empty 0 -12 0 16 #fcfcfc #000000 #000000 579.487 256;
#X obj 266 669 *~;
#X obj 604 75 lop~ 5;
#X obj 660 1042 dac~;
#X obj 546 617 rev1~, f 11;
#X obj 588 584 nbx 5 21 0 160 0 1 empty empty empty 0 -12 0 16 #fcfcfc #000000 #000000 60 256;
#X obj 655 615 bng 23 250 50 0 empty empty empty 0 -12 0 16 #fcfcfc #000000 #000000;
#X obj 663 936 +~;
#X obj 696 885 *~;
#X obj 669 699 nbx 5 21 0 1 0 1 empty empty empty 0 -12 0 16 #fcfcfc #000000 #000000 0.3 256;
#X obj 506 855 *~;
#X obj 669 761 expr 1 - $f1;
#X obj 669 725 t f f, f 17;
#X obj 1740 65 f;
#X obj 1740 93 t f f;
#X obj 1798 93 + 1;
#X obj 1740 131 mod 4;
#X obj 1740 159 sel 0;
#X obj 1740 37 r \$0_m_b;
#X msg 290 320 1;
#X floatatom 1790 132 5 0 0 0 - - - 0;
#X msg 131 317 1;
#N canvas 8 122 1762 1184 triangle 0;
#X obj 231 51 inlet freq;
#X obj 231 104 t f f f f f f f, f 144;
#X obj 231 237 * 1;
#X obj 231 265 osc~;
#X obj 231 293 *~, f 6;
#X obj 252 149 nbx 4 21 0 20 0 1 empty \$0_h_bang harmonic 0 -12 0 16 #fcfcfc #000000 #000000 1 256;
#X obj 252 175 t f f;
#X obj 289 203 expr if ($f1 > 0 \, 1 / ($f1 * $f1) \, 0);
#X obj 422 337 * 1;
#X obj 422 365 osc~;
#X obj 422 393 *~, f 6;
#X obj 443 249 nbx 4 21 0 20 0 1 empty \$0_h_bang harmonic 0 -12 0 16 #fcfcfc #000000 #000000 3 256;
#X obj 443 275 t f f;
#X obj 480 303 expr if ($f1 > 0 \, 1 / ($f1 * $f1) \, 0);
#X obj 614 437 * 1;
#X obj 614 465 osc~;
#X obj 614 493 *~, f 6;
#X obj 635 349 nbx 4 21 0 20 0 1 empty \$0_h_bang harmonic 0 -12 0 16 #fcfcfc #000000 #000000 5 256;
#X obj 635 375 t f f;
#X obj 672 403 expr if ($f1 > 0 \, 1 / ($f1 * $f1) \, 0);
#X obj 805 537 * 1;
#X obj 805 565 osc~;
#X obj 805 593 *~, f 6;
#X obj 826 449 nbx 4 21 0 20 0 1 empty \$0_h_bang harmonic 0 -12 0 16 #fcfcfc #000000 #000000 7 256;
#X obj 826 475 t f f;
#X obj 863 503 expr if ($f1 > 0 \, 1 / ($f1 * $f1) \, 0);
#X obj 997 637 * 1;
#X obj 997 665 osc~;
#X obj 997 693 *~, f 6;
#X obj 1018 549 nbx 4 21 0 20 0 1 empty \$0_h_bang harmonic 0 -12 0 16 #fcfcfc #000000 #000000 9 256;
#X obj 1018 575 t f f;
#X obj 1055 603 expr if ($f1 > 0 \, 1 / ($f1 * $f1) \, 0);
#X obj 1188 737 * 1;
#X obj 1188 765 osc~;
#X obj 1188 793 *~, f 6;
#X obj 1209 649 nbx 4 21 0 20 0 1 empty \$0_h_bang harmonic 0 -12 0 16 #fcfcfc #000000 #000000 11 256;
#X obj 1209 675 t f f;
#X obj 1246 703 expr if ($f1 > 0 \, 1 / ($f1 * $f1) \, 0);
#X obj 1380 837 * 1;
#X obj 1380 865 osc~;
#X obj 1380 893 *~, f 6;
#X obj 1401 749 nbx 4 21 0 20 0 1 empty \$0_h_bang harmonic 0 -12 0 16 #fcfcfc #000000 #000000 13 256;
#X obj 1401 775 t f f;
#X obj 1438 803 expr if ($f1 > 0 \, 1 / ($f1 * $f1) \, 0);
#X obj 34 21 r \$0_init;
#X obj 34 49 s \$0_h_bang;
#X obj 615 968 *~ 1;
#X obj 616 1072 outlet~;
#X connect 0 0 1 0;
#X connect 1 0 2 0;
#X connect 1 1 8 0;
#X connect 1 2 14 0;
#X connect 1 3 20 0;
#X connect 1 4 26 0;
#X connect 1 5 32 0;
#X connect 1 6 38 0;
#X connect 2 0 3 0;
#X connect 3 0 4 0;
#X connect 4 0 46 0;
#X connect 5 0 6 0;
#X connect 6 0 2 1;
#X connect 6 1 7 0;
#X connect 7 0 4 1;
#X connect 8 0 9 0;
#X connect 9 0 10 0;
#X connect 10 0 46 0;
#X connect 11 0 12 0;
#X connect 12 0 8 1;
#X connect 12 1 13 0;
#X connect 13 0 10 1;
#X connect 14 0 15 0;
#X connect 15 0 16 0;
#X connect 16 0 46 0;
#X connect 17 0 18 0;
#X connect 18 0 14 1;
#X connect 18 1 19 0;
#X connect 19 0 16 1;
#X connect 20 0 21 0;
#X connect 21 0 22 0;
#X connect 22 0 46 0;
#X connect 23 0 24 0;
#X connect 24 0 20 1;
#X connect 24 1 25 0;
#X connect 25 0 22 1;
#X connect 26 0 27 0;
#X connect 27 0 28 0;
#X connect 28 0 46 0;
#X connect 29 0 30 0;
#X connect 30 0 26 1;
#X connect 30 1 31 0;
#X connect 31 0 28 1;
#X connect 32 0 33 0;
#X connect 33 0 34 0;
#X connect 34 0 46 0;
#X connect 35 0 36 0;
#X connect 36 0 32 1;
#X connect 36 1 37 0;
#X connect 37 0 34 1;
#X connect 38 0 39 0;
#X connect 39 0 40 0;
#X connect 40 0 46 0;
#X connect 41 0 42 0;
#X connect 42 0 38 1;
#X connect 42 1 43 0;
#X connect 43 0 40 1;
#X connect 44 0 45 0;
#X connect 46 0 47 0;
#X restore 220 595 pd triangle;
#X obj 1740 187 f;
#X obj 1740 215 t f f;
#X obj 1798 216 + 1;
#X obj 1740 243 mod 4;
#N canvas 657 859 475 293 normalize 0;
#X obj 33 15 inlet denormalized;
#X obj 280 45 inlet scale;
#X obj 33 149 * 1;
#X obj 33 242 outlet;
#X obj 280 73 t f f;
#X obj 33 182 + 110;
#X floatatom 98 183 5 0 0 0 - - - 0;
#X obj 33 65 * 0.5;
#X obj 32 105 +;
#X connect 0 0 7 0;
#X connect 1 0 4 0;
#X connect 2 0 5 0;
#X connect 4 0 2 1;
#X connect 5 0 3 0;
#X connect 6 0 5 1;
#X connect 7 0 8 0;
#X connect 8 0 2 0;
#X restore 220 455 pd normalize;
#X obj 388 353 t f f, f 7;
#N canvas 24 266 424 270 quantize 0;
#X obj 84 63 ftom;
#X obj 84 94 int;
#X obj 84 150 mtof;
#X obj 84 121 expr if($f1 % 2 == 0 \, $f1 \, $f1 - 1);
#X obj 84 27 inlet;
#X obj 84 178 outlet;
#X obj 186 179 outlet midi;
#X connect 0 0 1 0;
#X connect 1 0 3 0;
#X connect 2 0 5 0;
#X connect 3 0 2 0;
#X connect 3 0 6 0;
#X connect 4 0 0 0;
#X restore 257 519 pd quantize;
#X obj 77 483 t f f;
#X obj 220 483 t f f;
#N canvas 8 122 424 270 quantize 0;
#X obj 84 63 ftom;
#X obj 84 94 int;
#X obj 84 150 mtof;
#X obj 84 121 expr if($f1 % 2 == 0 \, $f1 \, $f1 - 1);
#X obj 84 27 inlet;
#X obj 84 178 outlet;
#X connect 0 0 1 0;
#X connect 1 0 3 0;
#X connect 2 0 5 0;
#X connect 3 0 2 0;
#X connect 4 0 0 0;
#X restore 114 519 pd quantize;
#N canvas 8 122 1762 1184 triangle 0;
#X obj 231 51 inlet freq;
#X obj 231 104 t f f f f f f f, f 144;
#X obj 231 237 * 1;
#X obj 231 265 osc~;
#X obj 231 293 *~, f 6;
#X obj 252 149 nbx 4 21 0 20 0 1 empty \$0_h_bang harmonic 0 -12 0 16 #fcfcfc #000000 #000000 1 256;
#X obj 252 175 t f f;
#X obj 289 203 expr if ($f1 > 0 \, 1 / ($f1 * $f1) \, 0);
#X obj 422 337 * 1;
#X obj 422 365 osc~;
#X obj 422 393 *~, f 6;
#X obj 443 249 nbx 4 21 0 20 0 1 empty \$0_h_bang harmonic 0 -12 0 16 #fcfcfc #000000 #000000 3 256;
#X obj 443 275 t f f;
#X obj 480 303 expr if ($f1 > 0 \, 1 / ($f1 * $f1) \, 0);
#X obj 614 437 * 1;
#X obj 614 465 osc~;
#X obj 614 493 *~, f 6;
#X obj 635 349 nbx 4 21 0 20 0 1 empty \$0_h_bang harmonic 0 -12 0 16 #fcfcfc #000000 #000000 5 256;
#X obj 635 375 t f f;
#X obj 672 403 expr if ($f1 > 0 \, 1 / ($f1 * $f1) \, 0);
#X obj 805 537 * 1;
#X obj 805 565 osc~;
#X obj 805 593 *~, f 6;
#X obj 826 449 nbx 4 21 0 20 0 1 empty \$0_h_bang harmonic 0 -12 0 16 #fcfcfc #000000 #000000 7 256;
#X obj 826 475 t f f;
#X obj 863 503 expr if ($f1 > 0 \, 1 / ($f1 * $f1) \, 0);
#X obj 997 637 * 1;
#X obj 997 665 osc~;
#X obj 997 693 *~, f 6;
#X obj 1018 549 nbx 4 21 0 20 0 1 empty \$0_h_bang harmonic 0 -12 0 16 #fcfcfc #000000 #000000 9 256;
#X obj 1018 575 t f f;
#X obj 1055 603 expr if ($f1 > 0 \, 1 / ($f1 * $f1) \, 0);
#X obj 1188 737 * 1;
#X obj 1188 765 osc~;
#X obj 1188 793 *~, f 6;
#X obj 1209 649 nbx 4 21 0 20 0 1 empty \$0_h_bang harmonic 0 -12 0 16 #fcfcfc #000000 #000000 11 256;
#X obj 1209 675 t f f;
#X obj 1246 703 expr if ($f1 > 0 \, 1 / ($f1 * $f1) \, 0);
#X obj 1380 837 * 1;
#X obj 1380 865 osc~;
#X obj 1380 893 *~, f 6;
#X obj 1401 749 nbx 4 21 0 20 0 1 empty \$0_h_bang harmonic 0 -12 0 16 #fcfcfc #000000 #000000 13 256;
#X obj 1401 775 t f f;
#X obj 1438 803 expr if ($f1 > 0 \, 1 / ($f1 * $f1) \, 0);
#X obj 34 21 r \$0_init;
#X obj 34 49 s \$0_h_bang;
#X obj 615 968 *~ 1;
#X obj 616 1072 outlet~;
#X connect 0 0 1 0;
#X connect 1 0 2 0;
#X connect 1 1 8 0;
#X connect 1 2 14 0;
#X connect 1 3 20 0;
#X connect 1 4 26 0;
#X connect 1 5 32 0;
#X connect 1 6 38 0;
#X connect 2 0 3 0;
#X connect 3 0 4 0;
#X connect 4 0 46 0;
#X connect 5 0 6 0;
#X connect 6 0 2 1;
#X connect 6 1 7 0;
#X connect 7 0 4 1;
#X connect 8 0 9 0;
#X connect 9 0 10 0;
#X connect 10 0 46 0;
#X connect 11 0 12 0;
#X connect 12 0 8 1;
#X connect 12 1 13 0;
#X connect 13 0 10 1;
#X connect 14 0 15 0;
#X connect 15 0 16 0;
#X connect 16 0 46 0;
#X connect 17 0 18 0;
#X connect 18 0 14 1;
#X connect 18 1 19 0;
#X connect 19 0 16 1;
#X connect 20 0 21 0;
#X connect 21 0 22 0;
#X connect 22 0 46 0;
#X connect 23 0 24 0;
#X connect 24 0 20 1;
#X connect 24 1 25 0;
#X connect 25 0 22 1;
#X connect 26 0 27 0;
#X connect 27 0 28 0;
#X connect 28 0 46 0;
#X connect 29 0 30 0;
#X connect 30 0 26 1;
#X connect 30 1 31 0;
#X connect 31 0 28 1;
#X connect 32 0 33 0;
#X connect 33 0 34 0;
#X connect 34 0 46 0;
#X connect 35 0 36 0;
#X connect 36 0 32 1;
#X connect 36 1 37 0;
#X connect 37 0 34 1;
#X connect 38 0 39 0;
#X connect 39 0 40 0;
#X connect 40 0 46 0;
#X connect 41 0 42 0;
#X connect 42 0 38 1;
#X connect 42 1 43 0;
#X connect 43 0 40 1;
#X connect 44 0 45 0;
#X connect 46 0 47 0;
#X restore 77 595 pd triangle;
#X obj 686 660 r \$0_init;
#X obj 604 9 inlet amp_Y;
#X obj 744 75 lop~ 5;
#X obj 744 9 inlet amp_y_hat;
#X obj 116 669 *~;
#X obj 192 728 +~;
#X obj 388 15 inlet norm_range;
#X floatatom 1803 245 5 0 0 0 - - - 0;
#X obj 77 264 t f f f;
#X msg 565 320 1;
#X obj 242 233 r \$0_init;
#X obj 664 983 bob~;
#X obj 491 381 t f f, f 45;
#X obj 847 488 lop~ 10;
#X obj 734 981 nbx 5 21 0 4 0 1 empty empty empty 0 -12 0 16 #fcfcfc #000000 #000000 1.13 256;
#X obj 894 554 nbx 5 21 -1e+37 1e+37 0 1 empty empty empty 0 -12 0 16 #fcfcfc #000000 #000000 617 256;
#X obj 894 524 nbx 5 21 -1e+37 1e+37 0 1 empty empty empty 0 -12 0 16 #fcfcfc #000000 #000000 427.33 256;
#X obj 848 525 *~;
#X obj 848 553 +~;
#X obj 848 414 + 1;
#X obj 847 454 * 0.5;
#X msg 1145 288 1;
#X obj 1071 349 t f f, f 45;
#X obj 242 261 t b b b b b, f 55;
#N canvas 12 158 1762 1184 triangle 0;
#X obj 231 51 inlet freq;
#X obj 231 104 t f f f f f f f, f 144;
#X obj 231 237 * 1;
#X obj 231 265 osc~;
#X obj 231 293 *~, f 6;
#X obj 252 149 nbx 4 21 0 20 0 1 empty \$0_h_bang harmonic 0 -12 0 16 #fcfcfc #000000 #000000 1 256;
#X obj 252 175 t f f;
#X obj 289 203 expr if ($f1 > 0 \, 1 / ($f1 * $f1) \, 0);
#X obj 422 337 * 1;
#X obj 422 365 osc~;
#X obj 422 393 *~, f 6;
#X obj 443 249 nbx 4 21 0 20 0 1 empty \$0_h_bang harmonic 0 -12 0 16 #fcfcfc #000000 #000000 3 256;
#X obj 443 275 t f f;
#X obj 480 303 expr if ($f1 > 0 \, 1 / ($f1 * $f1) \, 0);
#X obj 614 437 * 1;
#X obj 614 465 osc~;
#X obj 614 493 *~, f 6;
#X obj 635 349 nbx 4 21 0 20 0 1 empty \$0_h_bang harmonic 0 -12 0 16 #fcfcfc #000000 #000000 5 256;
#X obj 635 375 t f f;
#X obj 672 403 expr if ($f1 > 0 \, 1 / ($f1 * $f1) \, 0);
#X obj 805 537 * 1;
#X obj 805 565 osc~;
#X obj 805 593 *~, f 6;
#X obj 826 449 nbx 4 21 0 20 0 1 empty \$0_h_bang harmonic 0 -12 0 16 #fcfcfc #000000 #000000 7 256;
#X obj 826 475 t f f;
#X obj 863 503 expr if ($f1 > 0 \, 1 / ($f1 * $f1) \, 0);
#X obj 997 637 * 1;
#X obj 997 665 osc~;
#X obj 997 693 *~, f 6;
#X obj 1018 549 nbx 4 21 0 20 0 1 empty \$0_h_bang harmonic 0 -12 0 16 #fcfcfc #000000 #000000 9 256;
#X obj 1018 575 t f f;
#X obj 1055 603 expr if ($f1 > 0 \, 1 / ($f1 * $f1) \, 0);
#X obj 1188 737 * 1;
#X obj 1188 765 osc~;
#X obj 1188 793 *~, f 6;
#X obj 1209 649 nbx 4 21 0 20 0 1 empty \$0_h_bang harmonic 0 -12 0 16 #fcfcfc #000000 #000000 11 256;
#X obj 1209 675 t f f;
#X obj 1246 703 expr if ($f1 > 0 \, 1 / ($f1 * $f1) \, 0);
#X obj 1380 837 * 1;
#X obj 1380 865 osc~;
#X obj 1380 893 *~, f 6;
#X obj 1401 749 nbx 4 21 0 20 0 1 empty \$0_h_bang harmonic 0 -12 0 16 #fcfcfc #000000 #000000 13 256;
#X obj 1401 775 t f f;
#X obj 1438 803 expr if ($f1 > 0 \, 1 / ($f1 * $f1) \, 0);
#X obj 34 21 r \$0_init;
#X obj 34 49 s \$0_h_bang;
#X obj 615 968 *~ 1;
#X obj 616 1072 outlet~;
#X connect 0 0 1 0;
#X connect 1 0 2 0;
#X connect 1 1 8 0;
#X connect 1 2 14 0;
#X connect 1 3 20 0;
#X connect 1 4 26 0;
#X connect 1 5 32 0;
#X connect 1 6 38 0;
#X connect 2 0 3 0;
#X connect 3 0 4 0;
#X connect 4 0 46 0;
#X connect 5 0 6 0;
#X connect 6 0 2 1;
#X connect 6 1 7 0;
#X connect 7 0 4 1;
#X connect 8 0 9 0;
#X connect 9 0 10 0;
#X connect 10 0 46 0;
#X connect 11 0 12 0;
#X connect 12 0 8 1;
#X connect 12 1 13 0;
#X connect 13 0 10 1;
#X connect 14 0 15 0;
#X connect 15 0 16 0;
#X connect 16 0 46 0;
#X connect 17 0 18 0;
#X connect 18 0 14 1;
#X connect 18 1 19 0;
#X connect 19 0 16 1;
#X connect 20 0 21 0;
#X connect 21 0 22 0;
#X connect 22 0 46 0;
#X connect 23 0 24 0;
#X connect 24 0 20 1;
#X connect 24 1 25 0;
#X connect 25 0 22 1;
#X connect 26 0 27 0;
#X connect 27 0 28 0;
#X connect 28 0 46 0;
#X connect 29 0 30 0;
#X connect 30 0 26 1;
#X connect 30 1 31 0;
#X connect 31 0 28 1;
#X connect 32 0 33 0;
#X connect 33 0 34 0;
#X connect 34 0 46 0;
#X connect 35 0 36 0;
#X connect 36 0 32 1;
#X connect 36 1 37 0;
#X connect 37 0 34 1;
#X connect 38 0 39 0;
#X connect 39 0 40 0;
#X connect 40 0 46 0;
#X connect 41 0 42 0;
#X connect 42 0 38 1;
#X connect 42 1 43 0;
#X connect 43 0 40 1;
#X connect 44 0 45 0;
#X connect 46 0 47 0;
#X restore 1428 706 pd triangle;
#X obj 1467 780 *~;
#X floatatom 1514 777 5 0 0 0 - - - 0;
#N canvas 1045 743 475 293 normalize 0;
#X obj 33 15 inlet denormalized;
#X obj 280 45 inlet scale;
#X obj 33 149 * 1;
#X obj 33 242 outlet;
#X obj 33 65 + 1;
#X obj 280 73 t f f;
#X obj 32 105 * 0.5;
#X obj 33 182 + 110;
#X connect 0 0 4 0;
#X connect 1 0 5 0;
#X connect 2 0 7 0;
#X connect 4 0 6 0;
#X connect 5 0 2 1;
#X connect 6 0 2 0;
#X connect 7 0 3 0;
#X restore 77 454 pd normalize;
#X obj 337 990 noteout;
#X obj 337 942 makenote;
#X obj 339 864 t f b b;
#X msg 353 908 25;
#X msg 408 904 25;
#X obj 1428 399 * 0.5;
#X obj 1428 427 + 0.5;
#X obj 1426 462 *;
#X obj 1488 464 nbx 5 21 -1e+37 1e+37 0 0 empty empty empty 0 -12 0 16 #fcfcfc #000000 #000000 0 256;
#X obj 1423 511 +;
#X obj 1482 516 nbx 5 21 -1e+37 1e+37 0 0 empty empty empty 0 -12 0 16 #fcfcfc #000000 #000000 0 256;
#X obj 77 350 array get \$0_Y_0;
#X obj 77 233 r \$0_m_i;
#X obj 220 353 array get \$0_AL-0;
#X obj 1071 321 array get \$0_AL-2;
#X floatatom 413 612 5 0 0 0 - - - 0;
#X obj 491 353 array get \$0_AL-2;
#X obj 243 160 r \$0_mod_32;
#X connect 0 0 28 0;
#X connect 1 0 39 0;
#X connect 2 0 38 1;
#X connect 4 0 8 0;
#X connect 5 0 4 1;
#X connect 6 0 4 2;
#X connect 7 0 45 0;
#X connect 8 0 7 1;
#X connect 9 0 12 0;
#X connect 10 0 7 0;
#X connect 11 0 10 1;
#X connect 12 0 11 0;
#X connect 12 1 8 1;
#X connect 13 0 14 0;
#X connect 14 0 16 0;
#X connect 14 1 15 0;
#X connect 15 0 13 1;
#X connect 16 0 17 0;
#X connect 17 0 23 0;
#X connect 18 0 13 0;
#X connect 19 0 75 1;
#X connect 20 0 16 1;
#X connect 21 0 73 1;
#X connect 22 0 1 0;
#X connect 23 0 24 0;
#X connect 24 0 26 0;
#X connect 24 1 25 0;
#X connect 25 0 23 1;
#X connect 27 0 31 0;
#X connect 28 0 61 1;
#X connect 28 1 27 1;
#X connect 29 0 22 0;
#X connect 29 1 64 0;
#X connect 30 1 32 0;
#X connect 31 1 29 0;
#X connect 32 0 33 0;
#X connect 33 0 38 0;
#X connect 34 0 9 0;
#X connect 35 0 2 0;
#X connect 36 0 1 1;
#X connect 37 0 36 0;
#X connect 38 0 39 0;
#X connect 39 0 4 0;
#X connect 39 0 10 0;
#X connect 40 0 0 0;
#X connect 41 0 26 1;
#X connect 42 1 75 0;
#X connect 42 2 76 0;
#X connect 43 0 78 1;
#X connect 44 0 57 0;
#X connect 45 0 3 0;
#X connect 45 0 3 1;
#X connect 46 1 53 0;
#X connect 47 0 51 0;
#X connect 48 0 45 2;
#X connect 49 0 52 1;
#X connect 50 0 51 1;
#X connect 51 0 52 0;
#X connect 52 0 45 1;
#X connect 53 0 54 0;
#X connect 54 0 47 0;
#X connect 55 0 76 1;
#X connect 56 1 67 0;
#X connect 57 1 19 0;
#X connect 57 2 0 0;
#X connect 57 3 43 0;
#X connect 57 4 55 0;
#X connect 58 0 59 0;
#X connect 60 0 59 1;
#X connect 61 0 30 0;
#X connect 63 0 62 0;
#X connect 63 1 62 1;
#X connect 64 0 63 0;
#X connect 64 1 65 0;
#X connect 64 2 66 0;
#X connect 65 0 63 1;
#X connect 66 0 63 2;
#X connect 67 0 68 0;
#X connect 68 0 69 0;
#X connect 69 0 71 0;
#X connect 70 0 69 1;
#X connect 72 0 71 1;
#X connect 74 0 42 0;
#X connect 75 0 27 0;
#X connect 76 0 56 0;
#X connect 78 0 46 0;
#X connect 79 0 78 0;
#X restore 577 992 pd synth;
#X f 27;
#X obj 683 787 vsl 23 196 0 1 0 0 empty empty amp\ Y 0 -9 0 16 #fcfcfc #000000 #000000 0 1;
#X obj 577 788 vsl 23 196 0 1000 0 0 empty empty range 0 -9 0 16 #fcfcfc #000000 #000000 0 1;
#X obj 790 787 vsl 23 196 0 1 0 0 empty empty amp\ y_hat 0 -9 0 16 #fcfcfc #000000 #000000 0 1;
#X obj 1426 1145 s \$0_m_i;
#X msg 37 146 8;
#X msg 1303 776 layer_number 0 \, layer_dims 1 2 \, m 8 \, activation linear \, initial_layer 0;
#X msg 1820 102 m 8 \, num_outputs 1;
#X msg 1820 229 layer_number 0 \, layer_dims 1 2 \, m 8 \, activation linear \, skip_dz 1 \, initial_layer 0;
#X obj 1055 1080 /;
#X obj 1108 1010 r \$0_init;
#X obj 1108 1038 v \$0_m;
#X floatatom 1112 1080 5 0 0 0 - - - 0;
#X obj 1055 1116 * 1;
#X obj 1018 954 mod 32;
#X obj 1018 982 t f f;
#X obj 1055 1177 * 1;
#X floatatom 1114 1172 5 0 0 0 - - - 0;
#X floatatom 1068 911 5 0 0 0 - - - 0;
#X obj 1266 90 metro 87;
#X obj 1055 1143 sin;
#X floatatom 1110 1120 5 0 0 0 - - - 0;
#X obj 925 1027 s \$0_mod_32;
#X msg 360 146 16;
#X msg 82 395 layer_number 4 \, layer_dims 16 4 \, scale 1;
#X msg 2380 716 layer_number 4 \, layer_dims 16 4;
#X msg 540 146 16;
#X msg 82 540 layer_number 3 \, layer_dims 16 16 \, scale 1;
#X msg 82 695 layer_number 2 \, layer_dims 4 16 \, scale 1;
#X msg 2380 555 layer_number 3 \, layer_dims 16 16;
#X msg 2380 386 layer_number 2 \, layer_dims 4 16;
#X msg 1303 176 layer_number 4 \, layer_dims 16 4 \, m 8 \, activation tanh \, leak 0.1 \, initial_layer 1;
#X msg 1304 325 layer_number 3 \, layer_dims 16 16 \, m 8 \, activation tanh \, leak 0.1 \, initial_layer 0;
#X msg 1303 476 layer_number 2 \, layer_dims 4 16 \, m 8 \, activation tanh \, leak 0.1 \, initial_layer 0;
#X msg 1304 626 layer_number 1 \, layer_dims 2 4 \, m 8 \, activation tanh \, leak 0.1 \, initial_layer 0;
#X msg 1821 374 layer_number 1 \, layer_dims 2 4 \, m 8 \, activation tanh \, leak 0.1 \, skip_dz 0 \, initial_layer 0;
#X msg 1820 518 layer_number 2 \, layer_dims 4 16 \, m 8 \, activation tanh \, leak 0.1 \, skip_dz 0 \, initial_layer 0;
#X msg 1820 664 layer_number 3 \, layer_dims 16 16 \, m 8 \, activation tanh \, leak 0.1 \, skip_dz 0 \, initial_layer 0;
#X msg 1820 808 layer_number 4 \, layer_dims 16 4 \, m 8 \, activation tanh \, leak 0.1 \, skip_dz 0 \, initial_layer 1;
#X obj 967 1257 array set \$0_Y;
#X connect 0 0 15 0;
#X connect 2 0 124 0;
#X connect 3 0 130 0;
#X connect 6 0 90 0;
#X connect 8 0 9 0;
#X connect 9 0 10 0;
#X connect 11 0 12 0;
#X connect 12 0 13 0;
#X connect 14 0 1 0;
#X connect 16 0 17 0;
#X connect 17 0 18 0;
#X connect 19 0 92 0;
#X connect 20 0 23 0;
#X connect 21 0 20 0;
#X connect 21 1 153 0;
#X connect 22 0 20 1;
#X connect 23 0 24 0;
#X connect 23 1 97 0;
#X connect 24 0 26 0;
#X connect 25 0 24 1;
#X connect 26 0 27 0;
#X connect 26 1 29 0;
#X connect 28 0 27 1;
#X connect 29 0 27 0;
#X connect 32 0 37 0;
#X connect 33 0 32 1;
#X connect 34 0 32 0;
#X connect 34 1 158 0;
#X connect 35 0 40 0;
#X connect 36 0 35 1;
#X connect 37 0 35 0;
#X connect 37 1 159 0;
#X connect 38 0 43 0;
#X connect 39 0 38 1;
#X connect 40 0 38 0;
#X connect 40 1 131 0;
#X connect 41 0 42 0;
#X connect 43 0 44 0;
#X connect 44 0 122 0;
#X connect 44 0 139 0;
#X connect 44 1 45 0;
#X connect 45 0 43 1;
#X connect 46 0 43 1;
#X connect 47 0 48 0;
#X connect 48 0 46 0;
#X connect 48 1 49 0;
#X connect 49 0 121 0;
#X connect 50 0 51 0;
#X connect 52 0 55 0;
#X connect 53 0 56 0;
#X connect 54 0 53 1;
#X connect 55 0 53 0;
#X connect 55 1 132 0;
#X connect 56 0 57 0;
#X connect 56 1 133 0;
#X connect 57 0 59 0;
#X connect 58 0 57 1;
#X connect 59 0 60 0;
#X connect 59 1 160 0;
#X connect 60 0 62 0;
#X connect 61 0 60 1;
#X connect 62 0 63 0;
#X connect 62 1 161 0;
#X connect 63 0 104 0;
#X connect 64 0 63 1;
#X connect 65 0 74 0;
#X connect 66 0 67 0;
#X connect 67 0 68 0;
#X connect 69 0 65 0;
#X connect 69 1 71 0;
#X connect 70 0 72 0;
#X connect 71 0 65 0;
#X connect 72 0 65 0;
#X connect 73 0 78 0;
#X connect 74 0 73 0;
#X connect 74 1 120 0;
#X connect 75 0 76 0;
#X connect 76 0 73 0;
#X connect 77 0 111 0;
#X connect 78 0 77 0;
#X connect 78 1 155 0;
#X connect 79 0 80 0;
#X connect 80 0 77 0;
#X connect 81 0 65 1;
#X connect 82 0 73 1;
#X connect 83 0 77 1;
#X connect 84 0 1 1;
#X connect 85 0 144 0;
#X connect 86 0 148 0;
#X connect 87 0 151 0;
#X connect 90 0 7 0;
#X connect 91 0 94 0;
#X connect 92 0 91 0;
#X connect 92 1 149 0;
#X connect 93 0 91 1;
#X connect 94 0 95 0;
#X connect 94 1 152 0;
#X connect 95 0 21 0;
#X connect 96 0 95 1;
#X connect 97 0 24 0;
#X connect 98 0 103 0;
#X connect 99 0 98 1;
#X connect 100 0 98 0;
#X connect 100 1 156 0;
#X connect 101 0 34 0;
#X connect 102 0 101 1;
#X connect 103 0 101 0;
#X connect 103 1 157 0;
#X connect 104 0 105 0;
#X connect 104 1 162 0;
#X connect 105 0 107 0;
#X connect 106 0 105 1;
#X connect 107 0 108 0;
#X connect 107 1 163 0;
#X connect 108 0 69 0;
#X connect 109 0 108 1;
#X connect 110 0 115 0;
#X connect 111 0 110 0;
#X connect 111 1 154 0;
#X connect 112 0 113 0;
#X connect 113 0 110 0;
#X connect 115 0 114 0;
#X connect 115 1 150 0;
#X connect 116 0 117 0;
#X connect 117 0 114 0;
#X connect 118 0 110 1;
#X connect 119 0 114 1;
#X connect 120 0 73 0;
#X connect 121 0 122 1;
#X connect 121 1 123 0;
#X connect 122 0 50 0;
#X connect 122 0 129 0;
#X connect 122 0 164 1;
#X connect 123 0 50 1;
#X connect 124 0 4 0;
#X connect 126 0 125 1;
#X connect 127 0 125 0;
#X connect 128 0 125 2;
#X connect 130 0 5 0;
#X connect 131 0 38 0;
#X connect 132 0 53 0;
#X connect 133 0 57 0;
#X connect 134 0 138 0;
#X connect 135 0 136 0;
#X connect 136 0 134 1;
#X connect 137 0 134 1;
#X connect 138 0 145 0;
#X connect 139 0 140 0;
#X connect 139 0 147 0;
#X connect 140 0 134 0;
#X connect 142 0 141 1;
#X connect 143 0 139 1;
#X connect 144 0 100 0;
#X connect 145 0 141 0;
#X connect 146 0 138 1;
#X connect 148 0 88 0;
#X connect 149 0 91 0;
#X connect 150 0 114 0;
#X connect 151 0 89 0;
#X connect 152 0 95 0;
#X connect 153 0 20 0;
#X connect 154 0 110 0;
#X connect 155 0 77 0;
#X connect 156 0 98 0;
#X connect 157 0 101 0;
#X connect 158 0 32 0;
#X connect 159 0 35 0;
#X connect 160 0 60 0;
#X connect 161 0 63 0;
#X connect 162 0 105 0;
#X connect 163 0 108 0;
