#N canvas 0 66 3440 1340 16;
#X msg 37 29 bang;
#N canvas 254 233 1351 1169 arrays 0;
#X obj 61 36 inlet;
#X obj 61 64 s \$0_size_arrays;
#X msg 856 52 const 0;
#X msg 649 380 resize \$1;
#X obj 649 348 *;
#X obj 649 274 t b b;
#X obj 649 243 r \$0_size_arrays;
#X msg 879 326 resize \$1;
#X obj 879 260 r \$0_size_arrays;
#X msg 649 654 resize \$1;
#X obj 649 623 *;
#X obj 649 549 t b b;
#X obj 649 517 r \$0_size_arrays;
#X obj 739 587 v \$0_m;
#X obj 649 313 v \$0_nL-1;
#X obj 649 441 array define \$0_WL-1;
#X obj 686 474 array define \$0_dWL-1;
#X obj 879 293 v \$0_nL-1;
#X obj 879 441 array define \$0_bL-1;
#X obj 916 474 array define \$0_dbL-1;
#X obj 649 587 v \$0_nL-1;
#X obj 649 720 array define \$0_ZL-1;
#X obj 749 750 array define \$0_dZL-1;
#X obj 849 720 array define \$0_AL-1;
#X obj 950 750 array define \$0_dAL-1;
#X msg 61 380 resize \$1;
#X obj 61 348 *;
#X obj 61 274 t b b;
#X obj 61 243 r \$0_size_arrays;
#X msg 291 326 resize \$1;
#X obj 291 260 r \$0_size_arrays;
#X msg 51 654 resize \$1;
#X obj 51 623 *;
#X obj 51 549 t b b;
#X obj 51 517 r \$0_size_arrays;
#X obj 141 587 v \$0_m;
#X text 63 214 // output layer;
#X obj 61 313 v \$0_nL-0;
#X obj 151 313 v \$0_nL-1;
#X obj 61 441 array define \$0_WL-0;
#X obj 98 474 array define \$0_dWL-0;
#X obj 291 293 v \$0_nL-0;
#X obj 291 441 array define \$0_bL-0;
#X obj 328 474 array define \$0_dbL-0;
#X obj 51 587 v \$0_nL-0;
#X obj 51 720 array define \$0_ZL-0;
#X obj 151 750 array define \$0_dZL-0;
#X obj 251 720 array define \$0_AL-0;
#X obj 352 750 array define \$0_dAL-0;
#X obj 649 408 t a a;
#X obj 879 354 t a a;
#X obj 649 686 t a a a a, f 38;
#X obj 61 408 t a a;
#X obj 291 354 t a a;
#X obj 51 687 t a a a a, f 38;
#X obj 856 24 inlet zero_arrays;
#X obj 856 80 s \$0_zero_arrays;
#X obj 456 360 r \$0_zero_arrays;
#X obj 446 560 r \$0_zero_arrays;
#X obj 739 313 v \$0_nL-2;
#X obj 1026 360 r \$0_zero_arrays;
#X obj 1026 610 r \$0_zero_arrays;
#X msg 1239 380 resize \$1;
#X obj 1239 348 *;
#X obj 1239 274 t b b;
#X obj 1239 243 r \$0_size_arrays;
#X msg 1469 326 resize \$1;
#X obj 1469 260 r \$0_size_arrays;
#X msg 1239 654 resize \$1;
#X obj 1239 623 *;
#X obj 1239 549 t b b;
#X obj 1239 517 r \$0_size_arrays;
#X obj 1329 587 v \$0_m;
#X obj 1239 408 t a a;
#X obj 1469 354 t a a;
#X obj 1239 686 t a a a a, f 38;
#X obj 1616 360 r \$0_zero_arrays;
#X obj 1616 610 r \$0_zero_arrays;
#X text 1250 204 // initial layer;
#X obj 1239 313 v \$0_nL-2;
#X obj 1329 313 v \$0_nx;
#X obj 1469 293 v \$0_nL-2;
#X obj 1239 441 array define \$0_WL-2;
#X obj 1276 474 array define \$0_dWL-2;
#X obj 1469 441 array define \$0_bL-2;
#X obj 1506 474 array define \$0_dbL-2;
#X obj 1239 587 v \$0_nL-2;
#X obj 1239 720 array define \$0_ZL-2;
#X obj 1339 750 array define \$0_dZL-2;
#X obj 1439 720 array define \$0_AL-2;
#X obj 1540 750 array define \$0_dAL-2;
#X connect 0 0 1 0;
#X connect 2 0 56 0;
#X connect 3 0 49 0;
#X connect 4 0 3 0;
#X connect 5 0 14 0;
#X connect 5 1 59 0;
#X connect 6 0 5 0;
#X connect 7 0 50 0;
#X connect 8 0 17 0;
#X connect 9 0 51 0;
#X connect 10 0 9 0;
#X connect 11 0 20 0;
#X connect 11 1 13 0;
#X connect 12 0 11 0;
#X connect 13 0 10 1;
#X connect 14 0 4 0;
#X connect 17 0 7 0;
#X connect 20 0 10 0;
#X connect 25 0 52 0;
#X connect 26 0 25 0;
#X connect 27 0 37 0;
#X connect 27 1 38 0;
#X connect 28 0 27 0;
#X connect 29 0 53 0;
#X connect 30 0 41 0;
#X connect 31 0 54 0;
#X connect 32 0 31 0;
#X connect 33 0 44 0;
#X connect 33 1 35 0;
#X connect 34 0 33 0;
#X connect 35 0 32 1;
#X connect 37 0 26 0;
#X connect 38 0 26 1;
#X connect 41 0 29 0;
#X connect 44 0 32 0;
#X connect 49 0 15 0;
#X connect 49 1 16 0;
#X connect 50 0 18 0;
#X connect 50 1 19 0;
#X connect 51 0 21 0;
#X connect 51 1 22 0;
#X connect 51 2 23 0;
#X connect 51 3 24 0;
#X connect 52 0 39 0;
#X connect 52 1 40 0;
#X connect 53 0 42 0;
#X connect 53 1 43 0;
#X connect 54 0 45 0;
#X connect 54 1 46 0;
#X connect 54 2 47 0;
#X connect 54 3 48 0;
#X connect 55 0 2 0;
#X connect 57 0 39 0;
#X connect 57 0 43 0;
#X connect 57 0 42 0;
#X connect 57 0 40 0;
#X connect 58 0 45 0;
#X connect 58 0 48 0;
#X connect 58 0 47 0;
#X connect 58 0 46 0;
#X connect 59 0 4 1;
#X connect 60 0 15 0;
#X connect 60 0 19 0;
#X connect 60 0 18 0;
#X connect 60 0 16 0;
#X connect 61 0 21 0;
#X connect 61 0 24 0;
#X connect 61 0 23 0;
#X connect 61 0 22 0;
#X connect 62 0 73 0;
#X connect 63 0 62 0;
#X connect 64 0 79 0;
#X connect 64 1 80 0;
#X connect 65 0 64 0;
#X connect 66 0 74 0;
#X connect 67 0 81 0;
#X connect 68 0 75 0;
#X connect 69 0 68 0;
#X connect 70 0 86 0;
#X connect 70 1 72 0;
#X connect 71 0 70 0;
#X connect 72 0 69 1;
#X connect 73 0 82 0;
#X connect 73 1 83 0;
#X connect 74 0 84 0;
#X connect 74 1 85 0;
#X connect 75 0 87 0;
#X connect 75 1 88 0;
#X connect 75 2 89 0;
#X connect 75 3 90 0;
#X connect 76 0 82 0;
#X connect 76 0 83 0;
#X connect 76 0 84 0;
#X connect 76 0 85 0;
#X connect 77 0 87 0;
#X connect 77 0 88 0;
#X connect 77 0 89 0;
#X connect 77 0 90 0;
#X connect 79 0 63 0;
#X connect 80 0 63 1;
#X connect 81 0 66 0;
#X connect 86 0 69 0;
#X restore 34 261 pd arrays;
#X obj 197 118 r \$0_layer_shapes;
#X obj 37 118 r \$0_layer_shapes;
#X obj 197 174 v \$0_nx;
#X obj 37 174 v \$0_m;
#X msg 37 146 4;
#X msg 197 146 1;
#X obj 367 118 r \$0_layer_shapes;
#X obj 367 174 v \$0_nL-2;
#X msg 367 146 2;
#X obj 547 118 r \$0_layer_shapes;
#X msg 547 146 2;
#X obj 547 174 v \$0_nL-1;
#X obj 707 118 r \$0_layer_shapes;
#X msg 707 146 1;
#X obj 707 174 v \$0_nL-0;
#X msg 34 228 bang;
#X obj 37 57 s \$0_layer_shapes;
#X msg 207 29 bang;
#X obj 207 57 f \$0;
#X obj 207 85 s \$0_ns;
#X msg 45 325 bang;
#X obj 45 471 cml.initialize_layer_params;
#X obj 45 353 t b b;
#X obj 258 438 r \$0_ns;
#X msg 82 405 layer_number 2 \, layer_dims 2 1 \, scale 1;
#X obj 45 499 t b b;
#X obj 45 617 cml.initialize_layer_params;
#X obj 258 583 r \$0_ns;
#X msg 82 550 layer_number 1 \, layer_dims 2 2 \, scale 1;
#X obj 45 649 t b b;
#X obj 45 767 cml.initialize_layer_params;
#X obj 258 733 r \$0_ns;
#X msg 82 700 layer_number 0 \, layer_dims 1 2 \, scale 1;
#N canvas 0 50 450 250 (subpatch) 0;
#X array \$0_X 4 float 3;
#A 0 0 0 0 0.485714;
#X coords 0 1 4 -1 200 140 1;
#X restore 43 835 graph;
#N canvas 0 50 450 250 (subpatch) 0;
#X array \$0_Y 4 float 3;
#A 0 0 0 0 0;
#X coords 0 1 4 -1 200 140 1;
#X restore 39 1014 graph;
#X obj 916 180 cml.layer_forward;
#X obj 1049 147 r \$0_ns;
#X msg 953 96 layer_number 2 \, layer_dims 2 1 \, m 4 \, activation tanh \, initial_layer 1;
#X msg 916 35 bang;
#X obj 916 63 t b b;
#X obj 916 330 cml.layer_forward;
#X obj 1049 297 r \$0_ns;
#X obj 916 213 t b b;
#X msg 953 246 layer_number 1 \, layer_dims 2 2 \, m 4 \, activation tanh \, initial_layer 0;
#X obj 916 480 cml.layer_forward;
#X obj 1049 447 r \$0_ns;
#X obj 916 363 t b b;
#X msg 953 396 layer_number 0 \, layer_dims 1 2 \, m 4 \, activation linear \, initial_layer 0;
#X obj 293 30 bng 50 250 50 0 empty empty init 0 -12 0 16 #fcfcfc #000000 #000000;
#X obj 293 85 s \$0_init;
#X obj 916 639 f;
#X obj 916 667 t f f;
#X obj 983 667 + 1;
#X msg 937 611 0;
#X obj 937 513 r \$0_init;
#X obj 937 541 t b b, f 11;
#X obj 1022 574 v \$0_m;
#X obj 1001 724 sel;
#X obj 1001 752 s \$0_backprop;
#X obj 1703 81 r \$0_backprop;
#X obj 1703 208 cml.outer_dz;
#X obj 1796 175 r \$0_ns;
#X obj 1703 109 t b b;
#X msg 1740 142 m 4 \, num_outputs 1;
#X obj 1703 236 t b b;
#X obj 1703 353 cml.layer_backward;
#X obj 1844 320 r \$0_ns;
#X obj 1703 381 t b b;
#X obj 1703 498 cml.layer_backward;
#X obj 1844 465 r \$0_ns;
#X msg 1740 269 layer_number 0 \, layer_dims 1 2 \, m 4 \, activation linear \, skip_dz 1 \, initial_layer 0;
#X obj 1703 526 t b b;
#X obj 1703 643 cml.layer_backward;
#X obj 1844 610 r \$0_ns;
#X msg 1740 414 layer_number 1 \, layer_dims 2 2 \, m 4 \, activation tanh \, skip_dz 0 \, initial_layer 0;
#X msg 1740 559 layer_number 2 \, layer_dims 2 1 \, m 4 \, activation tanh \, skip_dz 0 \, initial_layer 1;
#X obj 1703 804 cml.update_layer_params;
#X obj 507 236 vsl 23 196 0 1 0 0 empty empty empty 0 -9 0 16 #fcfcfc #000000 #000000 0 1;
#X obj 541 387 nbx 5 21 0 1 0 1 empty \$0_init alpha 0 -12 0 16 #fcfcfc #000000 #000000 0.333333 256;
#X obj 541 413 s \$0_alpha;
#X obj 1703 671 t b b;
#X obj 1753 732 r \$0_alpha;
#X msg 1740 704 layer_number 0 \, layer_dims 1 2;
#X msg 1753 760 alpha \$1;
#X obj 1703 965 cml.update_layer_params;
#X obj 1703 832 t b b;
#X obj 1753 893 r \$0_alpha;
#X msg 1753 921 alpha \$1;
#X msg 1740 865 layer_number 1 \, layer_dims 2 2;
#X obj 1703 1126 cml.update_layer_params;
#X obj 1703 993 t b b;
#X obj 1753 1054 r \$0_alpha;
#X msg 1753 1082 alpha \$1;
#X msg 1740 1026 layer_number 2 \, layer_dims 2 1;
#X connect 0 0 18 0;
#X connect 2 0 7 0;
#X connect 3 0 6 0;
#X connect 6 0 5 0;
#X connect 7 0 4 0;
#X connect 8 0 10 0;
#X connect 10 0 9 0;
#X connect 11 0 12 0;
#X connect 12 0 13 0;
#X connect 14 0 15 0;
#X connect 15 0 16 0;
#X connect 17 0 1 0;
#X connect 19 0 20 0;
#X connect 20 0 21 0;
#X connect 22 0 24 0;
#X connect 23 0 27 0;
#X connect 24 0 23 0;
#X connect 24 1 26 0;
#X connect 25 0 23 1;
#X connect 26 0 23 0;
#X connect 27 0 28 0;
#X connect 27 1 30 0;
#X connect 28 0 31 0;
#X connect 29 0 28 1;
#X connect 30 0 28 0;
#X connect 31 0 32 0;
#X connect 31 1 34 0;
#X connect 33 0 32 1;
#X connect 34 0 32 0;
#X connect 37 0 44 0;
#X connect 38 0 37 1;
#X connect 39 0 37 0;
#X connect 40 0 41 0;
#X connect 41 0 37 0;
#X connect 41 1 39 0;
#X connect 42 0 48 0;
#X connect 43 0 42 1;
#X connect 44 0 42 0;
#X connect 44 1 45 0;
#X connect 45 0 42 0;
#X connect 46 0 52 0;
#X connect 47 0 46 1;
#X connect 48 0 46 0;
#X connect 48 1 49 0;
#X connect 49 0 46 0;
#X connect 50 0 51 0;
#X connect 52 0 53 0;
#X connect 53 0 59 0;
#X connect 53 1 54 0;
#X connect 54 0 52 1;
#X connect 55 0 52 1;
#X connect 56 0 57 0;
#X connect 57 0 55 0;
#X connect 57 1 58 0;
#X connect 58 0 59 1;
#X connect 59 0 60 0;
#X connect 61 0 64 0;
#X connect 62 0 66 0;
#X connect 63 0 62 1;
#X connect 64 0 62 0;
#X connect 64 1 65 0;
#X connect 65 0 62 0;
#X connect 66 0 67 0;
#X connect 66 1 72 0;
#X connect 67 0 69 0;
#X connect 68 0 67 1;
#X connect 69 0 70 0;
#X connect 69 1 76 0;
#X connect 70 0 73 0;
#X connect 71 0 70 1;
#X connect 72 0 67 0;
#X connect 73 0 74 0;
#X connect 73 1 77 0;
#X connect 74 0 82 0;
#X connect 75 0 74 1;
#X connect 76 0 70 0;
#X connect 77 0 74 0;
#X connect 78 0 87 0;
#X connect 79 0 80 0;
#X connect 80 0 81 0;
#X connect 82 0 78 0;
#X connect 82 1 84 0;
#X connect 83 0 85 0;
#X connect 84 0 78 0;
#X connect 85 0 78 0;
#X connect 86 0 92 0;
#X connect 87 0 86 0;
#X connect 87 1 90 0;
#X connect 88 0 89 0;
#X connect 89 0 86 0;
#X connect 90 0 86 0;
#X connect 92 0 91 0;
#X connect 92 1 95 0;
#X connect 93 0 94 0;
#X connect 94 0 91 0;
#X connect 95 0 91 0;
